<?xml version="1.0" encoding="utf-8"?>
<!-- Generator: Adobe Illustrator 25.4.1, SVG Export Plug-In . SVG Version: 6.00 Build 0)  -->
<svg version="1.1" id="XMLID_2_" xmlns="http://www.w3.org/2000/svg" xmlns:xlink="http://www.w3.org/1999/xlink" x="0px" y="0px"
	 viewBox="0 0 17.2 49.4" style="enable-background:new 0 0 17.2 49.4;" xml:space="preserve">
<g>
	<path d="M16.8,3.6C16.8,3.6,16.8,3.6,16.8,3.6c-0.3,0-0.4,0.6-0.5,1.9c0,0.1-0.1,3.5-0.3,8.4l-0.7,18.3l-0.5,13.6
		c0,0.3-0.1,0.6-0.2,0.9c-0.1,0.3-0.3,0.5-0.6,0.6c-0.3,0.2-0.6,0.3-0.8,0.4c-0.5,0.2-1.1,0.4-1.7,0.5c-1,0.2-2,0.3-3.3,0.4
		c-1,0-1.9-0.1-2.7-0.3c-0.7-0.1-1.3-0.4-1.9-0.7c-0.5-0.3-0.9-0.6-1-0.7c-0.3-0.3-0.4-0.3-0.5-0.3l-0.1,0l0,0.1
		c-0.1,0.2,0.2,0.5,0.3,0.6c0.2,0.2,0.5,0.5,1.1,0.9c0.4,0.3,1.1,0.6,2,0.8c0.9,0.2,1.8,0.3,2.8,0.3c0,0,0.1,0,0.1,0
		c1.3,0,2.3-0.1,3.3-0.3c0.7-0.1,1.3-0.3,1.9-0.6c0.3-0.1,0.6-0.3,0.9-0.5c0.4-0.2,0.7-0.5,0.9-0.9c0.2-0.4,0.4-0.8,0.4-1.3
		l0.5-13.6l0.6-18.3l0.3-8.4v0C17.2,4.2,17.1,3.6,16.8,3.6z"/>
	<path d="M2.1,44c0-0.1-0.1-3.7-0.2-8.9L1.4,18.3L0.9,3.7c0-0.4,0-0.7,0.1-1C1.1,2.4,1.3,2.2,1.6,2C1.7,2,1.8,1.9,2,1.8
		c0.1-0.1,0.3-0.1,0.4-0.2l0.1,0C3.6,1.3,4.8,1,6.4,0.9c2.4-0.2,4.7-0.1,6.5,0.2c0.8,0.1,1.5,0.3,2.1,0.5c0.3,0.1,0.5,0.2,0.7,0.3
		C15.9,2,16,2.1,16.1,2.2l0.1,0.1c0.2,0.2,0.2,0.2,0.3,0.2l0.1,0l0-0.1c0.1-0.1-0.1-0.4-0.3-0.7c-0.1-0.2-0.3-0.3-0.5-0.4
		c-0.2-0.1-0.5-0.2-0.8-0.4c-0.6-0.2-1.4-0.5-2.2-0.6C11.1,0,8.8-0.1,6.4,0.1C5.2,0.1,3.8,0.3,2.2,0.8l-0.1,0C2,0.9,1.9,0.9,1.7,1
		C1.6,1,1.5,1,1.4,1.1c-0.1,0-0.2,0.1-0.3,0.2C0.7,1.5,0.4,1.9,0.2,2.3C0,2.9,0,3.4,0,3.8l0.4,11.9L1,35.1c0.2,5.3,0.3,8.8,0.3,8.9
		v0c0.1,1.9,0.3,2,0.5,2c0,0,0,0,0,0C1.8,46.1,2.1,46.1,2.1,44z"/>
	<path d="M8.7,7.1c0.8,0,1.7-0.1,2.4-0.2c0.5-0.1,1-0.2,1.3-0.3l0.1,0c0.4-0.1,0.6-0.2,0.7-0.3c0.1-0.1,0.1-0.2,0.1-0.3
		c0-0.1-0.1-0.2-0.2-0.2c-0.1,0-0.4,0-0.8,0.1c-0.2,0-0.3,0-0.5,0.1c-0.2,0-0.5,0.1-0.8,0.1C9.9,6.1,8.6,6.1,7.4,6
		C6.2,6,4.9,5.8,3.9,5.6C3.4,5.5,3,5.3,2.8,5.2C2.6,5.2,2.5,5.1,2.5,5.1c0,0,0,0-0.1,0C2.2,4.9,2,5,1.9,5.1l0,0.1l0,0.1
		c0,0.1,0.2,0.3,0.3,0.4l0.1,0c0.1,0,0.2,0.1,0.4,0.2l0,0C2.8,6,3.2,6.2,3.7,6.3C4.8,6.7,6.1,6.9,7.3,7C7.8,7.1,8.3,7.1,8.7,7.1z"/>
	<path d="M4.8,42.3c0.5,0.2,1,0.3,1.8,0.5c0.4,0.1,0.7,0.1,1,0.1c0.1,0,0.2,0,0.3,0c0.2,0,0.4,0,0.7,0c0,0,0,0,0,0
		c0.1,0,0.2,0,0.3,0c0.2,0,0.4,0,0.7,0l1-0.1l0.4-0.1c0.5-0.1,0.9-0.2,1.3-0.3c0.2-0.1,0.8-0.2,0.9-0.3l0,0c0.7-0.2,1.1-0.6,1.2-1
		c0-0.1,0-0.3-0.1-0.3c-0.2-0.2-0.6-0.1-1,0c0,0,0,0-0.1,0c-1,0.4-2.5,0.7-3.7,0.8c-0.2,0-0.4,0-0.6,0.1c-0.1,0-0.2,0-0.4,0
		c-1.2,0.1-2.5-0.1-3.6-0.4c-0.8-0.2-1.4-0.4-1.7-0.6C3.1,40.9,3,40.8,3,40.8c-0.1,0-0.2,0-0.3,0.1c-0.1,0.1,0,0.2,0.1,0.3
		C3,41.4,3.8,41.9,4.8,42.3z"/>
	<path d="M15.2,3.8c0.1,0,0.1-0.1,0.1-0.1c0,0,0-0.1,0.1-0.1c0-0.1,0.1-0.1,0.1-0.2c0-0.1,0-0.2,0-0.3c0-0.1-0.1-0.1-0.1-0.2
		c-0.1-0.1-0.2-0.2-0.4-0.3c-0.2-0.1-0.6-0.2-1-0.3c-0.2-0.1-0.5-0.1-0.7-0.1C11.4,1.9,10,1.8,9.6,1.8C9.3,1.9,9.3,2,9.3,2.1
		c0,0.1,0.1,0.3,0.2,0.3c0.2,0.1,0.7,0.2,1.4,0.3C11.6,2.8,12.3,2.9,13,3c0.2,0,0.4,0.1,0.7,0.1c0.1,0,0.2,0.1,0.3,0.1
		c0,0,0,0,0.1,0c0,0-0.1,0-0.1,0c0,0-0.1,0-0.1,0l-0.5,0.1c-0.2,0.1-0.5,0.2-0.8,0.2c-0.5,0.1-1.1,0.2-1.6,0.3
		C9.2,4.3,7.1,4.3,5.2,4C4.3,3.9,3.6,3.7,3.3,3.6C2.9,3.5,2.7,3.4,2.6,3.3c0,0,0,0,0,0C2.3,3.2,2,3.1,1.9,3.2L1.8,3.3l0,0.1
		c0,0.1,0.2,0.3,0.5,0.5l0,0c0.1,0,0.3,0.2,0.7,0.3c0.6,0.2,1.3,0.4,2,0.5C5.9,4.9,7.3,5.2,9,5.2c0.7,0,1.4,0,2.2-0.1
		c0.6-0.1,1.1-0.2,1.7-0.3c0.2-0.1,0.5-0.1,0.7-0.2l0.4-0.1c0.1,0,0.1,0,0.2-0.1l0.6-0.3L15.2,3.8z"/>
	<path d="M3.9,39.5C3.9,39.5,3.9,39.5,3.9,39.5c0.3,0,0.3-0.6,0.3-1.1c0-0.1,0-1.8-0.1-4.4c-0.1-2.4-0.1-5.9-0.2-9.6
		C3.8,17.8,3.5,10.1,3.3,8.8c0-0.1,0-0.4-0.2-0.4c-0.1,0-0.2,0.1-0.2,0.4c-0.1,1.3,0,8.8,0.2,15.6c0.1,2.9,0.2,6.1,0.3,9.6
		c0.1,2.6,0.2,4.3,0.2,4.4v0C3.6,38.9,3.7,39.5,3.9,39.5z"/>
</g>
</svg>
