<?xml version="1.0" encoding="utf-8"?>
<!-- Generator: Adobe Illustrator 25.4.1, SVG Export Plug-In . SVG Version: 6.00 Build 0)  -->
<svg version="1.1" id="XMLID_1_" xmlns="http://www.w3.org/2000/svg" xmlns:xlink="http://www.w3.org/1999/xlink" x="0px" y="0px"
	 viewBox="0 0 21.5 69.2" style="enable-background:new 0 0 21.5 69.2;" xml:space="preserve">
<style type="text/css">
	.st0{fill:#231F20;}
</style>
<g>
	<g>
		<path class="st0" d="M20,5.4c0,0.1,0.2,1.6,0.4,4.1c0.2,2.5,0.5,6.1,0.7,10.4c0,1.1,0.1,2.2,0,3.4c-0.1,1.2-0.3,2.4-0.7,3.6
			c-0.8,2.4-2.4,4.7-4.5,6.4c-0.5,0.4-1.1,0.9-1.7,1.2l-0.4,0.3c-0.1,0.1-0.3,0.2-0.4,0.3c-0.2,0.2-0.4,0.4-0.6,0.7
			c-0.3,0.5-0.5,1.2-0.6,1.8c0,0.2,0,0.3,0,0.5l0,0.5c0,0.4,0,0.7,0,1.1c0,2.8,0,5.7-0.1,8.6c0,1.5,0,2.9,0,4.4c0,1.5-0.1,2.9,0,4.3
			c0,0.7,0.1,1.4,0.2,2.1c0.1,0.7,0.3,1.3,0.7,1.8c0.2,0.2,0.4,0.4,0.7,0.6c0.3,0.1,0.5,0.2,0.9,0.3c0.7,0.1,1.4,0.3,2.1,0.4
			c0.7,0.1,1.4,0.3,2.1,0.5c0.7,0.2,1.4,0.4,2,0.9c0.3,0.2,0.6,0.6,0.7,1.1c0,0.2,0,0.4,0,0.6c0,0.2-0.1,0.4-0.2,0.6
			c-0.4,0.7-1,1.2-1.6,1.5c-1.2,0.7-2.5,1-3.7,1.3c-1.3,0.2-2.5,0.4-3.7,0.4c-0.6,0-1.2,0-1.8,0c-0.6,0-1.1,0-1.7-0.1
			c-1.1-0.1-2.2-0.2-3.2-0.4c-1-0.2-2-0.5-2.8-0.9c-0.9-0.4-1.6-0.9-2.2-1.6c-0.3-0.4-0.5-0.8-0.5-1.2c0-0.1,0-0.2,0-0.3l0-0.2
			l0-0.2c0-0.1,0.1-0.2,0.1-0.3c0-0.1,0.1-0.2,0.2-0.3c0.2-0.3,0.5-0.5,0.8-0.7C1.4,63,1.7,62.8,2,62.7c0.5-0.2,1-0.3,1.4-0.4
			c0.4-0.1,0.7-0.1,1-0.1c0.5,0,0.9,0,1,0.1c0.1,0.1-0.2,0.2-0.8,0.3c-0.5,0.1-1.3,0.2-2.3,0.6c-0.5,0.2-1,0.5-1.4,0.9
			c0,0.1-0.1,0.1-0.1,0.2c0,0.1-0.1,0.1-0.1,0.2c0,0.1,0,0.1,0,0.2c0,0.1,0,0.1,0,0.2c0.1,0.3,0.2,0.6,0.4,0.9
			c0.4,0.6,1.1,1,1.9,1.4c0.8,0.4,1.7,0.6,2.7,0.8c1,0.2,2,0.3,3.1,0.4c0.5,0,1.1,0,1.7,0.1c0.6,0,1.1,0,1.7,0
			c1.2,0,2.4-0.2,3.6-0.4c1.2-0.2,2.4-0.6,3.5-1.2c0.5-0.3,1-0.7,1.3-1.2c0.1-0.2,0.2-0.5,0.2-0.7c0-0.2-0.1-0.4-0.4-0.6
			c-0.4-0.3-1.1-0.6-1.7-0.8c-0.6-0.2-1.3-0.4-2-0.5c-0.7-0.1-1.4-0.3-2.1-0.4c-0.3-0.1-0.7-0.1-1.1-0.3c-0.4-0.2-0.7-0.5-0.9-0.8
			c-0.5-0.7-0.7-1.4-0.8-2.1c-0.2-0.7-0.2-1.5-0.3-2.2c-0.1-1.5,0-2.9,0-4.4c0-1.5,0-2.9,0-4.4c0-2.9,0.1-5.8,0.1-8.6
			c0-0.4,0-0.7,0-1.1l0-0.5c0-0.2,0-0.4,0-0.6c0.1-0.7,0.3-1.5,0.7-2.1c0.2-0.3,0.5-0.6,0.7-0.9c0.1-0.1,0.3-0.2,0.5-0.3l0.4-0.3
			c0.6-0.4,1.1-0.8,1.6-1.2c2-1.7,3.5-3.8,4.2-6.1c0.4-1.1,0.6-2.3,0.6-3.4c0-1.1,0-2.2-0.1-3.3c-0.2-4.3-0.6-7.8-0.9-10.3
			c-0.3-2.5-0.5-4-0.5-4.1c-0.3-2-0.2-3,0.1-3.1c0.2,0,0.4,0.2,0.6,0.7C19.7,3.7,19.9,4.4,20,5.4z"/>
	</g>
	<g>
		<path class="st0" d="M14.7,1c-0.1,0-1-0.1-2.5-0.2c-0.8,0-1.7,0-2.8,0C8.3,0.9,7.1,1,5.8,1.2c-0.3,0-0.7,0.1-1,0.2
			c-0.3,0.1-0.7,0.1-1,0.2C3.5,1.7,3.3,1.9,3.1,2.1C3.1,2.2,3,2.4,3,2.5c0,0.1-0.1,0.4-0.1,0.5C2.6,4.5,2.4,6.2,2.2,8
			c-0.4,3.5-0.7,7.3-0.9,11.3c0,1-0.1,2-0.1,3c0,1,0,2,0.2,3c0.4,2,1.1,3.9,2.3,5.5c0.6,0.8,1.3,1.5,2.1,2.1
			c0.4,0.3,0.8,0.6,1.2,0.8L7.8,34C8,34,8.3,34.2,8.5,34.3c0.5,0.3,1,0.8,1.2,1.3c0.3,0.5,0.4,1.1,0.5,1.6c0,0.3,0,0.5,0,0.8l0,0.8
			c0,0.5,0,1,0,1.5c0,4-0.1,7.8-0.1,11.4c0,0.9,0,1.7,0,2.6c0,0.4,0,0.8,0,1.2c0,0.4,0,0.8,0,1.2c0,0.8-0.1,1.6-0.3,2.3
			c-0.2,0.7-0.3,1.5-0.8,2.1c-0.3,0.3-0.5,0.4-0.8,0.6C8,62,7.9,62,7.7,62.1c-0.1,0.1-0.1,0.1-0.1,0.2c0,0.1,0,0.2,0,0.2
			c0.1,0.1,0.2,0.3,0.3,0.3c0.3,0.2,0.7,0.4,1.1,0.5c0.4,0.1,0.7,0.2,1.1,0.3c0.7,0.1,1.3,0.1,1.8,0.1c0.5,0,0.9,0,1.2,0
			c0.5,0,0.8,0,0.8,0.1c0.1,0.1-0.1,0.2-0.7,0.3c-0.3,0.1-0.7,0.1-1.2,0.2c-0.5,0-1.2,0.1-2,0c-0.4,0-0.8-0.1-1.2-0.3
			c-0.4-0.1-0.8-0.3-1.3-0.6C7.3,63.2,7,63,6.9,62.7c-0.1-0.3-0.1-0.7,0.2-0.9c0.1-0.1,0.3-0.2,0.4-0.3c0.2-0.1,0.3-0.2,0.4-0.2
			c0.2-0.1,0.4-0.3,0.5-0.4c0.3-0.5,0.5-1.2,0.6-1.8c0.1-0.7,0.2-1.4,0.2-2.2c0-0.4,0-0.8,0-1.2c0-0.4,0-0.8,0-1.2
			c0-0.8,0-1.7,0-2.6c0-3.5,0-7.4,0-11.4c0-0.5,0-1,0-1.5c0-0.3,0-0.5,0-0.8c0-0.2,0-0.5,0-0.7c-0.1-0.5-0.2-0.9-0.4-1.3
			c-0.2-0.4-0.5-0.7-0.8-0.9c-0.2-0.1-0.4-0.2-0.6-0.3l-0.7-0.4c-0.2-0.1-0.5-0.3-0.7-0.4c-0.2-0.1-0.4-0.3-0.7-0.5
			c-0.9-0.7-1.6-1.4-2.3-2.3c-1.3-1.7-2.1-3.8-2.5-5.9c-0.2-1-0.2-2.1-0.2-3.2c0-1,0-2,0.1-3c0.2-4,0.5-7.9,0.9-11.4
			c0.2-1.8,0.4-3.4,0.7-5C2,2.6,2,2.4,2.1,2.2C2.1,2,2.2,1.8,2.4,1.6c0.3-0.4,0.7-0.7,1.1-0.8c0.4-0.1,0.8-0.2,1.1-0.3
			c0.4-0.1,0.7-0.1,1-0.2C7,0.1,8.2,0,9.3,0c1.1,0,2.1,0,2.8,0c1.6,0.1,2.5,0.2,2.6,0.2c1.8,0.2,2.6,0.7,2.6,0.9
			C17.2,1.3,16.4,1.2,14.7,1z"/>
	</g>
	<path class="st0" d="M3.6,3.1c0.1-0.1,0.3,0,0.6,0.2c0,0,0.4,0.3,1.2,0.5C6.3,4,7.4,4.2,8.7,4.3c1.3,0.1,2.8,0.1,4.4-0.1
		c0.8-0.1,1.5-0.2,2.3-0.3c0.4-0.1,0.7-0.2,1-0.3c0.1,0,0.3-0.1,0.3-0.2c0-0.1-0.1-0.1-0.1-0.2c-0.1,0-0.1-0.1-0.2-0.1
		c-0.3-0.1-0.7-0.2-1-0.3c-0.7-0.1-1.3-0.2-1.8-0.3c-0.5-0.1-1-0.1-1.4-0.2c-0.4,0-0.6-0.1-0.8-0.1c-0.2-0.1-0.3-0.3,0-0.3
		c0.1,0,0.4-0.1,0.8-0.1c0.4,0,0.9,0,1.4,0c0.6,0,1.2,0.1,1.9,0.2c0.4,0.1,0.7,0.1,1.1,0.2c0.5,0.2,1.1,0.4,1.2,1
		c0,0.3-0.1,0.5-0.3,0.7c-0.2,0.2-0.5,0.3-0.8,0.5c-0.4,0.2-0.8,0.3-1.2,0.4C14.8,5,14,5.1,13.2,5.2C11.6,5.3,10,5.2,8.7,5.1
		C7.3,5,6.1,4.7,5.3,4.4C4.5,4.1,4,3.7,4,3.7C3.6,3.5,3.5,3.2,3.6,3.1z"/>
	<path class="st0" d="M10.6,32.7c-0.2,0-0.3,0-0.5,0c-0.2,0-0.3,0-0.5-0.1l-0.2,0c-0.1,0-0.2,0-0.3-0.1c-0.1,0-0.2-0.1-0.3-0.1
		c-0.2-0.1-0.5-0.1-0.7-0.3c-0.7-0.3-1.2-0.7-1.7-1c-0.9-0.8-1.7-1.8-2.3-3c-0.5-1-0.9-2.2-1.2-3.4C3,24.4,3,24.1,2.9,23.8
		c0-0.1,0-0.2,0-0.3c0-0.2-0.1-0.4-0.1-0.5c-0.1-0.6-0.1-1.1-0.1-1.6c0-0.9,0-1.8,0.1-2.9C3,17.1,3.1,15.9,3.2,15
		c0-0.3,0.1-0.6,0.1-0.8l0.2-1.7c0.1-0.9,0.3-1.2,0.3-1.2c0,0,0.2,0.3,0.2,1.2c0,0,0,0.6-0.1,1.7c0,0.4,0,0.8-0.1,1.3
		c-0.1,0.9-0.1,1.9-0.2,3c-0.1,1.6-0.1,3.8,0.4,5.9c0.3,1.1,0.6,2.2,1.1,3.1c0.6,1.1,1.3,2,2.1,2.7c0.4,0.3,0.9,0.7,1.4,0.9
		c0.2,0.1,0.3,0.1,0.5,0.2c0.1,0,0.2,0,0.2,0.1c0.1,0,0.2,0,0.3,0.1c0,0,0.1,0,0.1,0c0.2,0,0.3,0.1,0.4,0.1c0.1,0,0.3,0,0.4,0
		c0.9,0,1.9-0.2,2.7-0.7c0.9-0.5,1.7-1.2,2.4-2.1l0.4-0.6l0.4-0.7c0.1-0.2,0.2-0.4,0.3-0.6l0-0.1c0-0.1,0.1-0.2,0.1-0.2
		c0.1-0.1,0.1-0.3,0.2-0.4c0.7-1.9,1-3.6,1.1-4.8l0-0.6c0-0.4,0.1-0.8,0.1-1.1c0-0.5,0-0.8,0-1c0-0.2,0-0.3,0.1-0.3
		c0,0,0,0.1,0.1,0.2c0,0.2,0.1,0.6,0.1,1c0,0.4,0,0.8,0.1,1.3l0,0.4c0,1.2-0.1,3-0.8,5.1c0,0.2-0.1,0.3-0.2,0.5
		c0,0.1-0.1,0.2-0.1,0.3l-0.1,0.2c-0.1,0.2-0.2,0.4-0.3,0.6L17,28.6l-0.5,0.7c-0.7,1.1-1.6,1.9-2.6,2.5
		C12.9,32.4,11.8,32.7,10.6,32.7z"/>
</g>
</svg>
