<?xml version="1.0" encoding="utf-8"?>
<!-- Generator: Adobe Illustrator 25.4.1, SVG Export Plug-In . SVG Version: 6.00 Build 0)  -->
<svg version="1.1" id="XMLID_1_" xmlns="http://www.w3.org/2000/svg" xmlns:xlink="http://www.w3.org/1999/xlink" x="0px" y="0px"
	 viewBox="0 0 48.6 65.3" style="enable-background:new 0 0 48.6 65.3;" xml:space="preserve">
<g>
	<g>
		<path d="M29.1,41.3c0.1,3.2,0.2,5.3,0.2,5.4c0.1,1.5,0.7,1.5,0.6,0c0-0.1-0.1-2.2-0.1-5.4c-0.1-3.2-0.2-7.4-0.3-11.7
			c-0.1-2.8-0.2-5.6-0.3-8.2c-0.3,0.4-0.5,0.8-0.8,1.2c0.1,2.3,0.1,4.7,0.2,7.1C28.8,34,29,38.2,29.1,41.3z"/>
		<path d="M25.2,6.1c0.1,1.3,0.1,2.7,0.2,4c0.3,0,0.6,0.1,0.9,0.1c-0.1-1.4-0.1-2.8-0.2-4.2c0-0.5,0-1-0.1-1.6
			c-0.1-0.5,0-0.9,0.2-1.3c0.2-0.4,0.5-0.7,0.9-0.9c0.2-0.1,0.4-0.2,0.6-0.3c0.2-0.1,0.5-0.1,0.7-0.2c1.9-0.5,3.7-0.8,5.5-0.9
			c3.5-0.2,6.6-0.1,9,0.2C44,1.2,45,1.4,45.8,1.6c0.4,0.1,0.7,0.2,1,0.4c0.3,0.1,0.4,0.3,0.6,0.4c0.3,0.3,0.5,0.4,0.5,0.4
			c0-0.1,0-0.3-0.3-0.6c-0.1-0.1-0.3-0.3-0.6-0.5c-0.3-0.2-0.6-0.3-1-0.4c-0.8-0.3-1.8-0.5-3-0.7c-2.4-0.4-5.5-0.6-9.1-0.4
			c-1.8,0.1-3.7,0.3-5.6,0.9c-0.2,0.1-0.5,0.1-0.7,0.2c-0.1,0-0.3,0.1-0.4,0.2c-0.1,0.1-0.3,0.1-0.4,0.2c-0.5,0.3-0.9,0.7-1.2,1.2
			c-0.3,0.5-0.3,1.2-0.3,1.7C25.2,5,25.2,5.5,25.2,6.1z"/>
		<path d="M40.4,8.3c0.8-0.1,1.5-0.3,2-0.4c0.5-0.2,0.9-0.3,1-0.4c0.2-0.1,0.1-0.4-0.1-0.4c-0.2,0-0.6,0-1.1,0.1
			c-0.5,0-1.2,0.1-2,0.2c-1.5,0.1-3.5,0.2-5.4,0.1c-1.9-0.1-3.8-0.3-5.1-0.6c-0.7-0.1-1.2-0.3-1.6-0.4c-0.4-0.1-0.6-0.2-0.6-0.2
			c-0.2-0.1-0.5-0.1-0.6,0c0,0,0.1,0.2,0.4,0.4c0,0,0.2,0.1,0.6,0.3c0.4,0.2,1,0.4,1.6,0.6c1.4,0.4,3.3,0.8,5.2,0.9
			C36.8,8.6,38.8,8.5,40.4,8.3z"/>
		<path d="M46.2,4.3c0.1,0,0.1-0.1,0.1-0.1c0,0,0.1-0.1,0.1-0.1c0.1-0.1,0.1-0.1,0.1-0.2c0-0.1,0-0.2,0-0.3c0-0.1-0.1-0.2-0.2-0.2
			c-0.1-0.1-0.3-0.2-0.5-0.3c-0.4-0.2-1-0.3-1.5-0.4c-0.4-0.1-0.7-0.1-1-0.2C40.7,2,38.8,1.9,38.2,2c-0.4,0-0.3,0.3,0,0.4
			c0.6,0.2,2.5,0.4,5.1,0.9c0.3,0.1,0.7,0.1,1,0.2c0.2,0,0.3,0.1,0.4,0.1c0.1,0,0.1,0.1,0.2,0.1c0,0,0.1,0.1,0.1,0.2
			C44.8,3.9,44.6,4,44.5,4c-0.2,0.1-0.5,0.1-0.7,0.2c-0.4,0.1-0.7,0.2-1.1,0.3c-0.8,0.2-1.6,0.3-2.3,0.4c-3.2,0.4-6.3,0.2-8.6-0.1
			c-1.2-0.2-2.1-0.4-2.8-0.6c-0.7-0.2-1-0.4-1-0.4c-0.5-0.2-0.8-0.2-0.9-0.1c0,0,0.1,0.3,0.7,0.6c0,0,0.4,0.2,1.1,0.4
			c0.7,0.2,1.6,0.5,2.8,0.7c2.4,0.4,5.6,0.7,8.8,0.3c0.8-0.1,1.6-0.2,2.4-0.4c0.4-0.1,0.8-0.2,1.2-0.3l0.3-0.1c0.1,0,0.2,0,0.3-0.1
			c0.3-0.1,0.6-0.2,0.9-0.3C45.8,4.5,46,4.4,46.2,4.3z"/>
		<path d="M47.8,6.5c0,0.2-0.2,4.2-0.4,10.3c-0.2,6.1-0.6,14.1-0.9,22.3c-0.2,4.1-0.3,8.3-0.5,12.2c0,1-0.1,2-0.1,2.9
			c0,0.5,0,1-0.1,1.4c0,0.4-0.2,0.8-0.4,1.1c-0.2,0.3-0.5,0.6-0.9,0.8c-0.4,0.2-0.8,0.4-1.2,0.5c-0.8,0.3-1.6,0.5-2.4,0.7
			c-1.6,0.3-3.2,0.4-4.6,0.4c-1.4,0-2.7-0.1-3.8-0.3c-1.1-0.2-2-0.5-2.7-0.9c-0.7-0.3-1.1-0.7-1.4-0.9c-0.3-0.3-0.5-0.4-0.5-0.3
			c0,0.1,0.1,0.3,0.4,0.6c0.3,0.3,0.7,0.6,1.4,1c0.7,0.4,1.6,0.8,2.8,1c1.1,0.3,2.4,0.4,3.9,0.4c1.4,0,3-0.1,4.7-0.4
			c0.8-0.1,1.7-0.4,2.6-0.7c0.4-0.2,0.9-0.3,1.3-0.5c0.5-0.2,0.9-0.6,1.2-1.1c0.3-0.4,0.5-1,0.5-1.5c0-0.5,0-1,0.1-1.4
			c0-1,0.1-1.9,0.1-2.9c0.2-4,0.3-8.1,0.5-12.2c0.3-8.2,0.6-16.3,0.9-22.3c0.2-6,0.4-10.1,0.4-10.3C48.7,3.7,47.9,3.6,47.8,6.5z"/>
		<path d="M31.5,51.3c0.7,0.2,1.6,0.4,2.5,0.5c0.5,0.1,0.9,0.1,1.4,0.1c0.5,0,1,0,1.4,0c0.5,0,1,0,1.4-0.1c0.5,0,0.9-0.1,1.4-0.1
			c0.9-0.2,1.7-0.3,2.4-0.5c0.3-0.1,1.2-0.3,1.3-0.4c2.1-0.7,2-1.9,0.2-1.3c-0.2,0.1-1.4,0.7-5.3,1.2C37.8,51,37.3,51,36.9,51
			c-1.8,0.1-3.7-0.1-5.2-0.4c-1.5-0.3-2.5-0.7-2.9-0.8c-0.2-0.1-0.2,0.1-0.1,0.2C29,50.3,30,50.9,31.5,51.3z"/>
		<path d="M27.4,42.6c-0.1-3.2-0.2-7-0.3-11c-0.1-2-0.1-4.1-0.2-6.2c0-0.2,0-0.3,0-0.5c-0.3,0.4-0.6,0.9-0.9,1.3
			c0.1,1.9,0.1,3.7,0.2,5.5c0.1,4,0.3,7.8,0.4,11c0.2,6.4,0.4,10.7,0.4,10.9c0.1,3.1,0.9,3.1,0.8,0C27.7,53.4,27.6,49.1,27.4,42.6z"
			/>
	</g>
	<g>
		<g>
			<path d="M16.1,60.1c-0.1,0-0.6,0-1.6-0.1c-0.5-0.1-1.1-0.2-1.7-0.5c-0.3-0.2-0.7-0.3-1-0.7c0,0-0.1-0.1-0.1-0.1l-0.1-0.1
				c-0.1-0.1-0.1-0.2-0.2-0.3c0-0.1-0.1-0.2-0.1-0.3c0-0.1,0-0.2,0-0.3c0.1-0.2,0.2-0.3,0.4-0.4l0.2-0.1l0.1-0.1
				c0.1,0,0.2-0.1,0.2-0.1c0.1-0.1,0.3-0.2,0.4-0.3c0.1-0.1,0.2-0.3,0.3-0.4c0.1-0.1,0.2-0.3,0.2-0.5c0.3-0.8,0.4-1.7,0.5-2.7
				c0-0.5,0.1-1,0.1-1.5c0-0.3,0-0.5,0-0.8c0-0.3,0-0.5,0-0.8c0-1.1,0-2.3,0-3.5c0-1.2,0-2.4,0-3.7c0-0.6,0-1.3,0-1.9
				c0-0.3,0-0.7,0-1c0-0.3,0-0.6-0.1-1c-0.1-1.3-0.5-2.6-1-3.8c-0.5-1.2-1.2-2.4-2-3.6l0,0.1l0,0l-0.1-0.1
				c-3.1-4.4-6.3-9.1-9.2-13.7c-0.4-0.6-0.7-1.1-1.1-1.8C0.3,15.4,0,14.8,0,14c0-0.4,0.1-0.8,0.3-1.2c0.1-0.2,0.3-0.3,0.4-0.5
				C0.9,12.2,1,12.1,1.2,12c0.3-0.2,0.7-0.3,1-0.3c0.3-0.1,0.6-0.1,1-0.2c2.6-0.5,5.1-0.7,7.5-0.8c2.4-0.1,4.6-0.1,6.6,0
				c2,0.1,3.9,0.2,5.5,0.4c3.2,0.4,5.5,0.9,6.4,1.3c0.2,0.1,0.4,0.2,0.5,0.2c0.1,0,0.1,0.1,0.1,0.1c0,0,0,0.1,0,0.1c0,0-0.1,0-0.2,0
				c-0.1,0-0.3-0.1-0.6-0.1c-0.9-0.2-3.2-0.7-6.4-1c-1.6-0.2-3.4-0.3-5.5-0.3c-2,0-4.2,0-6.6,0.1c-2.3,0.1-4.8,0.3-7.3,0.8
				c-0.3,0.1-0.6,0.1-0.9,0.2c-0.2,0-0.3,0.1-0.5,0.1c-0.1,0.1-0.3,0.1-0.4,0.1c-0.1,0.1-0.2,0.1-0.3,0.2c0,0-0.1,0.1-0.1,0.1
				c0,0-0.1,0.1-0.1,0.1c-0.1,0.2-0.2,0.4-0.2,0.7c0,0.3,0.1,0.6,0.2,0.9c0.1,0.3,0.2,0.6,0.4,0.9c0.3,0.6,0.7,1.1,1,1.7
				c1.4,2.3,3,4.6,4.5,6.9c1.5,2.3,3.1,4.6,4.7,6.8L11.6,31l0,0l0,0.1c0.8,1.1,1.6,2.4,2.1,3.7c0.6,1.3,0.9,2.7,1,4.1
				c0,0.3,0,0.7,0.1,1c0,0.3,0,0.7,0,1c0,0.7,0,1.3,0,1.9c0,1.3,0,2.5,0,3.7c0,1.2,0,2.3,0,3.5c0,0.3,0,0.5,0,0.8c0,0.3,0,0.6,0,0.8
				c0,0.5-0.1,1.1-0.1,1.6c-0.1,1-0.2,2-0.6,2.9c-0.1,0.2-0.2,0.4-0.3,0.7c-0.1,0.2-0.3,0.4-0.5,0.6c-0.2,0.2-0.4,0.3-0.6,0.4
				c-0.1,0.1-0.2,0.1-0.3,0.2l-0.1,0.1l-0.1,0c0,0,0,0,0,0l0,0c0,0,0,0,0,0c0,0.1,0.1,0.3,0.2,0.4c0.2,0.2,0.5,0.4,0.7,0.5
				c0.6,0.3,1.1,0.4,1.5,0.5c0.9,0.2,1.4,0.1,1.5,0.1c0.8,0,1.5,0,1.9,0c0.4,0,0.7,0.1,0.7,0.2c0,0.1-0.2,0.2-0.6,0.3
				C17.7,60,17,60.1,16.1,60.1z"/>
		</g>
		<g>
			<path d="M30.1,16.6c-0.1,0.1-0.7,1.2-1.9,3c-1.2,1.8-2.9,4.4-5,7.4c-1,1.5-2.2,3.2-3.4,4.9c-1.1,1.7-2.1,3.8-2.5,6
				c0,0.3-0.1,0.6-0.1,0.8c0,0.3-0.1,0.6-0.1,0.8c0,0.6,0,1.2,0,1.8c0,1.2,0,2.4,0,3.6c0,1.2,0,2.5,0,3.7c0,0.6,0,1.2,0,1.9
				c0,0.6,0,1.2,0,1.9c0,0.3,0,0.6,0.1,0.9c0,0.3,0.1,0.6,0.1,0.9c0.1,0.6,0.2,1.2,0.5,1.7c0.1,0.1,0.1,0.2,0.2,0.4
				c0.1,0.1,0.1,0.2,0.2,0.3c0.2,0.2,0.4,0.3,0.6,0.4c0.2,0.1,0.4,0.1,0.8,0.2c0.3,0,0.6,0.1,0.9,0.1c1.3,0.2,2.5,0.4,3.7,0.9
				c0.6,0.2,1.2,0.5,1.8,1c0.3,0.3,0.5,0.6,0.6,1c0,0.1,0,0.2,0.1,0.3l0,0.2l0,0.1l0,0.3c0,0.1,0,0.2-0.1,0.3
				c-0.2,0.7-0.7,1.3-1.2,1.7c-0.5,0.4-1.1,0.7-1.6,1c-1.1,0.5-2.3,0.8-3.5,1c-2.3,0.4-4.5,0.4-6.6,0.3c-2.1-0.1-4-0.4-5.7-1.1
				c-0.8-0.3-1.6-0.7-2.3-1.3c-0.6-0.5-1.2-1.3-1.3-2.1c0-0.2,0-0.4,0-0.6c0-0.1,0.1-0.2,0.1-0.3l0.1-0.1l0.1-0.1
				c0.2-0.3,0.5-0.5,0.8-0.7C6,58.4,6.5,58.3,7,58.1c0.9-0.3,1.7-0.3,2.1-0.4c0.5,0,0.8,0.1,0.8,0.2c0,0.1-0.2,0.2-0.7,0.3
				c-0.4,0.1-1.1,0.2-2,0.5c-0.4,0.1-0.9,0.3-1.4,0.6c-0.2,0.1-0.4,0.3-0.6,0.5c-0.1,0.1-0.1,0.2-0.2,0.3c0,0.1,0,0.1,0,0.2
				c0,0.1,0,0.1,0,0.2c0,0.6,0.4,1.1,1,1.6c0.6,0.5,1.3,0.8,2,1.1c0.8,0.3,1.7,0.5,2.6,0.7c0.5,0.1,0.9,0.2,1.4,0.2
				c0.2,0,0.5,0.1,0.7,0.1c0.2,0,0.5,0,0.7,0c2,0.1,4.2,0.1,6.4-0.3c1.1-0.2,2.2-0.4,3.2-0.9c0.5-0.2,1-0.5,1.4-0.8
				c0.4-0.3,0.8-0.7,0.9-1.2l0-0.2c0-0.1,0-0.1,0-0.2c0-0.1,0-0.2,0-0.3c0-0.2-0.2-0.4-0.3-0.5c-0.4-0.3-0.9-0.6-1.4-0.8
				c-1.1-0.4-2.3-0.6-3.5-0.8c-0.3,0-0.6-0.1-0.9-0.1c-0.3,0-0.7-0.1-1-0.2c-0.4-0.1-0.7-0.4-0.9-0.7c-0.3-0.3-0.4-0.6-0.6-0.9
				c-0.3-0.6-0.4-1.3-0.5-1.9c-0.1-0.3-0.1-0.6-0.1-1c0-0.3-0.1-0.6-0.1-1c0-0.6,0-1.3,0-1.9c0-0.6,0-1.3,0-1.9c0-1.2,0-2.5,0.1-3.7
				c0-1.2,0-2.4,0.1-3.6c0-0.6,0-1.2,0-1.8c0-0.2,0-0.3,0-0.5l0-0.5c0-0.3,0.1-0.6,0.1-0.9c0.4-2.4,1.5-4.5,2.6-6.3
				c1.2-1.8,2.3-3.4,3.4-4.9c2.1-3.1,3.8-5.6,4.9-7.5c1.2-1.8,1.8-2.9,1.9-3c0.4-0.7,0.7-1.3,0.8-1.6c0.2-0.4,0.2-0.6,0.4-0.6
				c0.1,0,0.3,0.2,0.3,0.7C30.8,15.1,30.6,15.8,30.1,16.6z"/>
		</g>
		<path d="M2.5,14.8c-0.4-0.2-0.6-0.5-0.7-0.8c0-0.1,0-0.2,0-0.3c0-0.1,0.1-0.1,0.1-0.1c0.1,0,0.2,0,0.4,0.1
			c0.1,0.1,0.3,0.2,0.6,0.3c0,0,0.5,0.3,1.4,0.5c0.9,0.3,2.2,0.5,3.9,0.7c3.3,0.4,7.7,0.6,12.2,0.4c1.1-0.1,2.2-0.1,3.3-0.2
			c1.1-0.1,2.2-0.3,3.2-0.5c0.3-0.1,0.5-0.1,0.7-0.2l0.1,0l0.1,0c0,0,0.1-0.1,0.1-0.1c0,0,0.1-0.1,0.1-0.1c0-0.1,0-0.1-0.1-0.1
			c-0.1-0.1-0.2-0.1-0.3-0.1c-0.9-0.3-1.9-0.4-2.8-0.5c-3.6-0.5-6.4-0.7-7.1-0.8c-0.4-0.1-0.5-0.3,0-0.3c0.8,0,3.5,0,7.2,0.4
			c0.9,0.1,1.9,0.2,2.9,0.5l0.3,0.1c0.1,0,0.2,0.1,0.3,0.1l0.3,0.1c0.1,0,0.1,0.1,0.2,0.2c0.1,0.1,0.1,0.1,0.2,0.2
			c0,0.1,0.1,0.2,0.1,0.3c0,0.2-0.1,0.3-0.1,0.5c-0.2,0.3-0.6,0.5-1,0.7c-0.3,0.1-0.5,0.2-0.8,0.3c-1.1,0.3-2.2,0.5-3.3,0.6
			c-1.1,0.1-2.3,0.2-3.4,0.3c-4.5,0.2-9,0-12.3-0.4c-1.7-0.2-3-0.5-4-0.8C3.1,15.1,2.5,14.8,2.5,14.8z"/>
		<path d="M12.5,29.3c-0.5-0.7-1.2-1.6-1.9-2.6c-0.4-0.5-0.7-1-1.1-1.5c-2-2.7-4.3-6.2-4.6-6.8c0-0.1,0-0.1,0-0.1c0,0,0,0,0,0
			c0,0,0,0,0.1,0c0.3,0.2,2.3,2.8,4,5.2c1.6,2.1,3,4,3.4,4.5c1,1.1,1.9,2.4,3,2.4c1,0,1.9-1,3.1-2.5c1.3-1.7,2.6-3.2,2.9-3.3
			c0,0,0,0,0,0c0,0,0.1,0,0.1,0.1c0,0,0,0,0,0.1c-0.1,0.4-2.6,4.1-3,4.6c-1.7,2.3-2.6,2.7-3.2,2.7C15,31.9,14.4,31.8,12.5,29.3z"/>
	</g>
</g>
</svg>
