<?xml version="1.0" encoding="utf-8"?>
<!-- Generator: Adobe Illustrator 25.4.1, SVG Export Plug-In . SVG Version: 6.00 Build 0)  -->
<svg version="1.1" id="XMLID_2_" xmlns="http://www.w3.org/2000/svg" xmlns:xlink="http://www.w3.org/1999/xlink" x="0px" y="0px"
	 viewBox="0 0 35.6 41.5" style="enable-background:new 0 0 35.6 41.5;" xml:space="preserve">
<g>
	<polygon points="13.9,13.1 13.9,13.1 13.9,13.1 	"/>
	<g>
		<path d="M35.6,8.6c0,0.3-0.5,5.9-1.1,17.9c-0.1,1.5-0.2,3.1-0.3,4.7C34.1,32,34,32.8,34,33.7c0,0.4-0.1,0.8-0.1,1.3
			c0,0.2,0,0.4-0.1,0.7l0,0.4c0,0.1-0.1,0.3-0.1,0.4c-0.2,0.5-0.5,1-0.8,1.4c-0.3,0.4-0.7,0.7-1.1,0.9c-0.8,0.5-1.6,0.8-2.5,1.1
			c-1.7,0.6-3.4,0.9-5.2,1.2c-3.6,0.5-6.1,0.6-9.8,0.3c-1.9-0.2-3.8-0.4-5.7-0.9c-1-0.2-1.9-0.5-2.8-0.9c-0.9-0.4-1.9-0.8-2.7-1.6
			c-0.4-0.4-0.8-0.9-1-1.6L1.9,36c0-0.1,0-0.2,0-0.3l0-0.4l0-0.8l-0.2-3.1c-0.1-2-0.2-4.1-0.3-6.1c-0.2-4.1-0.4-5.6-0.6-9.5
			C0.4,12,0.2,8.2,0,4.5l0-0.7c0-0.4,0.1-0.7,0.3-1c0.4-0.5,0.8-0.8,1.2-1C2.3,1.3,3.2,1.1,4,0.9c1.7-0.4,3.3-0.6,4.9-0.7
			C12,0,13.7,0,16.4,0c2.7,0,5.1,0.1,7.2,0.3c2.1,0.2,3.9,0.5,5.4,0.8c1.4,0.3,2.5,0.6,3.1,0.9c0.7,0.3,1.1,0.6,1.1,0.7
			c0,0.1-0.1,0.1-0.2,0c-0.2,0-0.4-0.1-0.9-0.2C31.4,2.2,30.4,2,29,1.7c-1.4-0.2-3.2-0.5-5.3-0.6C21.5,1,19.1,0.9,16.5,1
			C13.8,1,12.1,1,9,1.3C7.5,1.4,5.9,1.6,4.3,2C3.6,2.2,2.8,2.4,2.1,2.8C1.7,3,1.4,3.2,1.3,3.4C1.2,3.6,1.2,3.6,1.2,3.7
			c0,0,0,0,0,0.1l0,0.2l0,0.3C1.4,8,1.6,11.9,1.9,15.8c0.2,3.9,0.5,5.5,0.7,9.5c0.1,2,0.2,4.1,0.4,6.1l0.2,3.1l0,0.8l0,0.4l0,0.1
			c0,0,0,0.1,0,0.1c0.1,0.3,0.3,0.6,0.6,0.9c0.6,0.6,1.4,1,2.3,1.3C7,38.5,7.9,38.7,8.8,39c1.8,0.4,3.7,0.7,5.5,0.8
			c3.7,0.3,6.1,0.2,9.6-0.3c1.7-0.2,3.4-0.6,5-1.1c0.8-0.3,1.5-0.6,2.2-1c0.3-0.2,0.6-0.4,0.8-0.7c0.2-0.3,0.4-0.5,0.5-0.8
			c0-0.1,0-0.1,0.1-0.2l0-0.3c0-0.2,0-0.4,0.1-0.6c0-0.4,0.1-0.8,0.1-1.3c0.1-0.8,0.1-1.7,0.2-2.5c0.1-1.6,0.2-3.2,0.3-4.7
			c0.7-12,1.1-17.5,1.2-17.9c0.1-1.4,0.2-2.5,0.4-3.2c0-0.1,0.1-0.2,0.1-0.4c0-0.1,0-0.2,0-0.3c0-0.2,0.1-0.3,0.1-0.3
			c0.1,0,0.2,0,0.3,0.2c0.1,0.1,0.1,0.2,0.2,0.3c0.1,0.1,0.1,0.3,0.2,0.6C35.6,6.1,35.6,7.2,35.6,8.6z"/>
	</g>
	<path d="M30.2,31.3l-0.1,0.1c-0.2,0.1-0.5,0.3-1,0.5c-0.9,0.4-1.8,0.7-2.8,1c-1.2,0.3-2.6,0.6-4.1,0.8c-1.5,0.2-3.1,0.3-4.7,0.3
		c0,0,0,0-0.1,0c-3.3,0-5.4-0.5-7.9-1.3c-2.5-0.8-4.3-1.9-4.8-2.4c-0.3-0.3-0.2-0.6-0.1-0.7c0.1-0.1,0.3-0.3,0.6-0.1
		c0.6,0.3,2.3,1.1,4.7,1.7c2.5,0.7,4.4,1,7.6,1c1.6,0,3.2-0.1,4.6-0.3c1.4-0.2,2.7-0.4,3.8-0.8c0.9-0.2,1.8-0.6,2.6-0.9
		c0.4-0.2,0.7-0.3,0.9-0.4c0.1,0,0.1,0,0.1-0.1c0.6-0.3,1.2-0.1,1.4,0.3C31,30.3,30.9,30.9,30.2,31.3z"/>
	<path d="M31.8,6.8c-0.1,0.1-0.2,0.3-0.3,0.4c-0.1,0.1-0.2,0.2-0.3,0.2c-0.3,0.3-0.7,0.4-1,0.6c-0.7,0.3-1.4,0.4-2,0.5
		c-7.8,1.4-13.4,0.8-17.2,0.2C9.2,8.4,7.6,8.1,6.3,7.6C5.1,7.1,4.5,6.7,4.5,6.7C4,6.4,3.8,6,3.6,5.8C3.5,5.5,3.5,5.3,3.6,5.2
		C3.6,5.1,3.7,5,3.8,5c0.2-0.1,0.4,0,0.6,0.2c0.1,0,0.1,0.1,0.2,0.2c0.2,0.1,0.3,0.2,0.6,0.4c0,0,0.5,0.4,1.6,0.7
		C7.9,6.8,9.5,7,11.2,7.3C19.1,8.7,26.8,7.3,28,7.1c0.6-0.1,1.2-0.2,1.8-0.4c0.2-0.1,0.5-0.2,0.7-0.3c0,0,0.1,0,0.1-0.1
		c-0.1-0.1-0.2-0.1-0.3-0.2C30,6,29.7,5.9,29.5,5.8c-0.5-0.1-1-0.2-1.7-0.4c-1.2-0.2-2.4-0.3-3.3-0.4c-2.7-0.2-5-0.3-6.5-0.4
		c-0.9,0-1.5-0.1-1.9-0.1c-0.2,0-0.7-0.1-0.7-0.4c0-0.3,0.4-0.4,0.6-0.4c0.1,0,3.5-0.2,8.5,0.1c0.9,0.1,2.1,0.1,3.4,0.3
		c0.7,0.1,1.3,0.2,1.9,0.4c0.3,0.1,0.6,0.2,1,0.3c0.2,0.1,0.4,0.2,0.5,0.3c0.3,0.2,0.5,0.4,0.6,0.6C32,6.1,32,6.4,31.8,6.8z"/>
</g>
</svg>
