<?xml version="1.0" encoding="utf-8"?>
<!-- Generator: Adobe Illustrator 25.4.1, SVG Export Plug-In . SVG Version: 6.00 Build 0)  -->
<svg version="1.1" id="XMLID_1_" xmlns="http://www.w3.org/2000/svg" xmlns:xlink="http://www.w3.org/1999/xlink" x="0px" y="0px"
	 viewBox="0 0 42.8 64.9" style="enable-background:new 0 0 42.8 64.9;" xml:space="preserve">
<g>
	<g>
		<path d="M38.7,7.3c0,0.1,0.5,1.4,1.2,3.6c0.7,2.2,1.6,5.4,2.3,9.4c0.3,2,0.6,4.2,0.6,6.6c0,1.2-0.1,2.5-0.4,3.7
			c-0.3,1.3-0.6,2.5-1.2,3.8c-1.1,2.5-2.9,4.8-5.4,6.4c-2.4,1.6-5.3,2.6-8.2,3.2c-0.4,0.1-0.7,0.1-1.1,0.2l-0.5,0.1
			c-0.1,0-0.3,0.1-0.4,0.1c-0.6,0.2-1.1,0.6-1.4,1.1c-0.2,0.3-0.3,0.5-0.3,0.8c0,0.1,0,0.3,0,0.4l0,0.6c0,0.7,0,1.5,0,2.2
			c0,0.7,0.1,1.5,0.2,2.1c0.1,0.3,0.2,0.6,0.3,0.9c0.1,0.2,0.3,0.4,0.5,0.5c0.1,0.1,0.3,0.1,0.4,0.1c0.2,0,0.3,0,0.5,0.1l1.1,0.1
			c0.8,0.1,1.5,0.2,2.2,0.3c1.5,0.2,3,0.5,4.5,1c0.7,0.2,1.5,0.5,2.2,1c0.4,0.2,0.7,0.5,1,0.8c0.3,0.3,0.6,0.7,0.7,1.3
			c0,0.1,0,0.3,0.1,0.4l0,0.2c0,0.1,0,0.1,0,0.2c0,0.2,0,0.4-0.1,0.6c-0.1,0.4-0.2,0.9-0.4,1.2c-0.4,0.8-1,1.4-1.7,1.9
			c-1.3,0.9-2.8,1.4-4.2,1.8c-2.8,0.7-5.6,0.9-8.2,0.9c-2.6,0-5.2-0.1-7.6-0.4c-2.4-0.4-4.6-0.9-6.5-2c-1-0.5-1.8-1.1-2.5-1.9
			c-0.7-0.8-1.1-1.8-1-2.9c0-0.2,0.1-0.3,0.1-0.5c0-0.1,0.1-0.3,0.2-0.4c0.1-0.1,0.2-0.2,0.2-0.4c0.1-0.1,0.2-0.2,0.3-0.3
			c0.4-0.4,0.8-0.6,1.2-0.8C8.2,55,9,54.8,9.6,54.6c0.6-0.2,1.2-0.2,1.7-0.3c0.5-0.1,0.9-0.1,1.2-0.1c0.6,0,1.1,0.1,1.1,0.2
			c0.1,0.1-0.2,0.2-0.9,0.4c-0.6,0.1-1.5,0.3-2.7,0.7c-0.6,0.2-1.3,0.5-1.9,0.9c-0.6,0.4-1.2,0.9-1.3,1.5c0,0.6,0.3,1.3,0.8,1.9
			c0.5,0.6,1.3,1.1,2.1,1.5c1.7,0.8,3.8,1.4,6.1,1.7c2.3,0.3,4.7,0.4,7.3,0.3c2.6-0.1,5.3-0.2,7.9-0.9c1.3-0.3,2.6-0.8,3.6-1.5
			c0.5-0.4,0.9-0.8,1.2-1.3c0.1-0.3,0.2-0.5,0.3-0.8c0-0.1,0-0.3,0-0.4c0-0.1,0-0.1,0-0.2c0-0.1,0-0.1,0-0.2
			c-0.1-0.4-0.5-0.8-1.1-1.2c-0.6-0.3-1.2-0.6-1.9-0.8c-1.3-0.5-2.8-0.7-4.2-1c-0.7-0.1-1.5-0.2-2.2-0.3l-1.1-0.1
			c-0.4,0-0.9-0.1-1.3-0.3c-0.5-0.2-0.8-0.6-1.1-1c-0.2-0.4-0.3-0.8-0.4-1.3c-0.1-0.8-0.2-1.6-0.2-2.3c0-0.8,0-1.5,0-2.2l0-0.6
			c0-0.2,0-0.4,0.1-0.7c0.1-0.4,0.3-0.9,0.5-1.2c0.5-0.8,1.2-1.3,2-1.6c0.2-0.1,0.4-0.1,0.6-0.1l0.5-0.1c0.4-0.1,0.7-0.1,1.1-0.2
			c2.8-0.5,5.4-1.6,7.6-3.1c0.3-0.2,0.5-0.4,0.8-0.6l0.4-0.3c0.1-0.1,0.2-0.2,0.4-0.3c0.4-0.5,0.9-0.9,1.3-1.4
			c0.8-1,1.4-2.1,1.9-3.2c1.9-4.6,1.3-9.3,0.7-13.2c-0.6-3.9-1.5-7-2.1-9.3c-0.6-2.2-1.1-3.5-1.1-3.6c-0.7-2.3-0.9-3.5-0.5-3.6
			C37,4,37.9,5,38.7,7.3z"/>
	</g>
	<g>
		<path d="M23.2,57.5c-0.1,0-0.5,0-1.2,0.1c-0.7,0-1.8,0-3.1-0.1c-0.3,0-0.7-0.1-1.1-0.2c-0.4-0.1-0.8-0.2-1.1-0.4
			c-0.4-0.2-0.8-0.3-1.2-0.7c-0.1-0.1-0.2-0.2-0.3-0.4c-0.1-0.1-0.2-0.4-0.2-0.6c0-0.2,0-0.4,0.1-0.6c0.1-0.2,0.2-0.3,0.3-0.5
			c0.4-0.5,0.9-0.7,1.4-0.9c0.3-0.1,0.4-0.2,0.6-0.3c0.2-0.1,0.4-0.2,0.5-0.3c0.2-0.1,0.3-0.3,0.4-0.4c0-0.1,0.1-0.1,0.1-0.2
			c0,0,0-0.1,0-0.1c0-0.1,0-0.1,0-0.2c0.1-0.5,0.1-1,0.2-1.5c0.1-1.1,0-2.2,0-3.3c0-0.9-0.6-1.9-1.5-2.3c-0.2-0.1-0.5-0.2-0.7-0.2
			c-0.3-0.1-0.6-0.1-1-0.2c-0.3-0.1-0.7-0.1-1-0.2c-0.2,0-0.3-0.1-0.5-0.1l-0.5-0.1c-0.3-0.1-0.7-0.2-1-0.3c-0.3-0.1-0.7-0.2-1-0.3
			c-0.3-0.1-0.7-0.3-1-0.4c-0.3-0.1-0.7-0.2-1-0.4c-0.3-0.2-0.6-0.3-1-0.5L8,41.8l-0.5-0.3c-0.3-0.2-0.6-0.4-0.9-0.6
			c-0.3-0.2-0.6-0.5-0.9-0.7c-0.6-0.4-1.1-1-1.6-1.5c-0.3-0.3-0.5-0.6-0.7-0.9c-0.2-0.3-0.5-0.6-0.7-0.9c-0.9-1.3-1.5-2.7-1.9-4.1
			c-0.5-1.5-0.7-3-0.8-4.5c-0.1-1.5,0-3.1,0.2-4.6c0.2-1.5,0.4-3,0.7-4.4c0.6-2.9,1.3-5.8,2.1-8.5C3.4,9.3,3.9,8,4.3,6.6
			c0.2-0.7,0.5-1.3,0.7-2c0.1-0.3,0.3-0.6,0.5-1c0.1-0.2,0.2-0.3,0.4-0.5c0.1-0.1,0.3-0.3,0.4-0.4c1.2-0.9,2.5-1.3,3.8-1.7
			c1.3-0.3,2.5-0.5,3.7-0.7C16.3,0.1,18.6,0,20.6,0c1.1,0,2,0.1,3,0.1c0.9,0.1,1.8,0.1,2.6,0.2c3.3,0.3,5.6,0.9,6.6,1.2
			c1,0.4,1.3,0.7,0,0.4c-1-0.2-3.3-0.7-6.5-0.9c-1.6-0.1-3.5-0.2-5.5-0.2c-2.1,0.1-4.3,0.2-6.7,0.6c-1.2,0.2-2.4,0.4-3.6,0.7
			C9.3,2.4,8,2.9,7.1,3.6C6.8,3.8,6.6,4,6.5,4.2L6.4,4.4c0,0.1-0.1,0.1-0.1,0.2L6.1,5C5.8,5.7,5.6,6.3,5.4,6.9C5,8.2,4.6,9.6,4.2,11
			c-0.8,2.7-1.4,5.6-2,8.5c-0.3,1.4-0.5,2.9-0.7,4.4c-0.2,1.5-0.3,2.9-0.2,4.3c0.1,1.4,0.3,2.9,0.8,4.2c0.4,1.3,1,2.6,1.8,3.8
			c0.1,0.1,0.2,0.3,0.3,0.4l0.3,0.4c0.2,0.3,0.4,0.6,0.6,0.8c0.5,0.5,0.9,1,1.5,1.4c0.3,0.2,0.5,0.4,0.8,0.6C7.7,40,8,40.1,8.3,40.3
			l0.4,0.3c0.1,0.1,0.3,0.2,0.4,0.2c0.3,0.2,0.6,0.3,0.9,0.4c0.3,0.2,0.6,0.3,0.9,0.4c0.3,0.1,0.6,0.2,0.9,0.3
			c0.3,0.1,0.6,0.2,0.9,0.3c0.3,0.1,0.6,0.2,0.9,0.3l0.5,0.1c0.2,0,0.3,0.1,0.5,0.1c0.3,0.1,0.6,0.1,0.9,0.2
			c0.3,0.1,0.6,0.1,0.9,0.2c0.4,0.1,0.7,0.2,1.1,0.3c0.7,0.3,1.3,0.8,1.7,1.4c0.4,0.6,0.6,1.4,0.6,2.1c0,1.2,0.1,2.3,0,3.5
			c0,0.6-0.1,1.1-0.2,1.7c0,0.1,0,0.1,0,0.2c0,0.1,0,0.1-0.1,0.2c-0.1,0.2-0.2,0.4-0.3,0.5c-0.2,0.3-0.4,0.5-0.7,0.7
			c-0.2,0.2-0.5,0.3-0.7,0.5c-0.2,0.1-0.5,0.2-0.7,0.3c-0.4,0.2-0.8,0.4-0.9,0.6c0,0-0.1,0.1-0.1,0.1c0,0,0,0,0,0c0,0,0,0,0,0
			c0,0,0.1,0.1,0.1,0.1c0.2,0.2,0.5,0.4,0.8,0.5c0.3,0.1,0.7,0.3,1,0.4c0.3,0.1,0.6,0.1,0.9,0.2c1.2,0.2,2.2,0.2,2.9,0.2
			c0.7,0,1.1,0,1.2,0c1,0,1.8-0.1,2.3,0c0.5,0,0.8,0.1,0.8,0.2c0,0.1-0.2,0.2-0.7,0.4C25.1,57.2,24.3,57.4,23.2,57.5z"/>
	</g>
	<path d="M8,4.4c0.2,0,0.4,0,0.6,0.1c0.2,0.1,0.3,0.2,0.6,0.4c0,0,0.3,0.4,1.2,0.8c0.8,0.4,2.1,0.8,3.8,1.1
		c3.3,0.6,7.8,0.9,12.4,0.6c1.1-0.1,2.3-0.2,3.4-0.4C30.9,6.8,32,6.5,33,6.1c0.1,0,0.2-0.1,0.3-0.2c0.1,0,0.1-0.1,0.1-0.1
		c0,0,0,0,0.1,0c0.1-0.1,0.2-0.1,0.2-0.2c0.1-0.1,0-0.2,0-0.3c-0.1-0.1-0.2-0.1-0.3-0.2c-0.8-0.4-1.8-0.6-2.7-0.8
		c-1.8-0.4-3.4-0.6-4.7-0.8c-1.3-0.2-2.2-0.3-2.6-0.4c-0.4-0.1-0.5-0.4,0-0.5c0.4,0,1.3-0.1,2.6,0c1.3,0.1,3,0.1,4.9,0.5
		c1,0.2,2,0.3,3,0.8c0.2,0.1,0.4,0.2,0.5,0.3c0.2,0.1,0.3,0.3,0.4,0.4c0.3,0.3,0.3,0.7,0.2,1.1c-0.1,0.4-0.4,0.7-0.7,1
		C34.4,6.9,34.3,7,34.2,7c-0.1,0.1-0.1,0.1-0.2,0.1c-0.1,0.1-0.3,0.2-0.4,0.2c-1.1,0.5-2.3,0.8-3.5,1c-1.2,0.2-2.4,0.3-3.5,0.4
		c-4.7,0.3-9.3,0-12.8-0.6c-1.7-0.3-3.1-0.8-4.1-1.3c-1-0.5-1.5-1-1.5-1c-0.3-0.4-0.5-0.8-0.5-1C7.7,4.5,7.9,4.4,8,4.4z"/>
	<path d="M20.6,40.8c-1.1,0-2.3-0.1-3.4-0.2c-3.7-0.4-7.2-1.9-9.5-4.2c-2.3-2.2-3.7-5.4-3.9-8.6c-0.1-1.5,0-2.9,0.2-3.9
		c0.1-1,0.3-2.1,0.6-3.2c0.4-1.8,0.9-3.1,1.1-3.6c0.1-0.3,0.3-0.4,0.3-0.4c0,0,0,0,0,0c0,0,0.1,0.1,0,0.4c0,0.3-0.1,0.6-0.2,1.2
		c-0.1,0.7-0.3,1.5-0.4,2.5C5.2,21.6,5.1,22.7,5,24c-0.1,0.9-0.1,2.3,0,3.7c0.3,2.8,1.7,5.6,3.7,7.5c2.1,2,5.2,3.3,8.5,3.6
		c1.1,0.1,2.2,0.2,3.3,0.2c2.1,0,4.2-0.2,6.2-0.6c3.1-0.6,5.7-1.7,7.4-3.1c2-1.6,2.7-3.5,3-4.6c0.1-0.5,0.2-0.9,0.2-1.2
		c0-0.1,0-0.3,0.1-0.4l0-0.7l0-0.3c0-0.4,0.1-0.7,0.1-1c0.1-0.3,0.2-0.4,0.3-0.4c0,0,0,0,0,0c0.1,0,0.2,0,0.3,0.4
		c0.1,0.3,0.3,0.7,0.3,1.3l0,0.7c0,0.1,0,0.2,0,0.4c0,0.4,0,0.9-0.2,1.4c-0.1,0.8-0.4,1.8-0.9,2.7c-0.5,1-1.3,2-2.3,2.8
		c-1.9,1.7-4.7,2.9-8,3.6C25.1,40.6,22.8,40.8,20.6,40.8z"/>
</g>
</svg>
