<?xml version="1.0" encoding="utf-8"?>
<!-- Generator: Adobe Illustrator 25.4.1, SVG Export Plug-In . SVG Version: 6.00 Build 0)  -->
<svg version="1.1" id="XMLID_2_" xmlns="http://www.w3.org/2000/svg" xmlns:xlink="http://www.w3.org/1999/xlink" x="0px" y="0px"
	 viewBox="0 0 23.7 90.9" style="enable-background:new 0 0 23.7 90.9;" xml:space="preserve">
<g>
	<g>
		<path d="M19.7,7.8c0,0.2,0.1,2.9,0.2,7.4c0.1,2.2,0.2,4.9,0.2,8c0,3.1-0.1,6.5-0.7,10.1c-0.3,1.8-0.7,3.7-1.4,5.5
			c-0.3,0.9-0.7,1.8-1.2,2.7c-0.4,0.9-0.9,1.8-1.3,2.7C14.8,46,14,48,13.7,50c-0.1,0.5-0.1,1-0.2,1.5c0,0.5,0,1-0.1,1.6
			c0,1.1,0,2.1-0.1,3.2c-0.1,4.3-0.2,8.7-0.2,13c0,2.2,0.1,4.4,0.1,6.5c0,1.1,0.1,2.2,0.1,3.2c0,0.5,0.1,1,0.2,1.5
			c0,0.2,0.1,0.5,0.2,0.7c0,0.1,0.1,0.2,0.1,0.3c0,0,0,0.1,0.1,0.1c0,0,0,0,0,0.1c0,0,0,0,0.1,0c0.1,0,0.1,0,0.2,0.1
			c0.2,0,0.3,0.1,0.5,0.1c0.3,0.1,0.7,0.1,1,0.2c0.7,0.1,1.3,0.2,2,0.4c1.3,0.3,2.6,0.6,3.8,1.1c0.3,0.1,0.6,0.3,0.9,0.5
			c0.3,0.2,0.6,0.4,0.8,0.7c0.1,0.2,0.2,0.3,0.3,0.6c0.1,0.2,0.1,0.4,0,0.6l0,0.3c0,0.1-0.1,0.2-0.1,0.3c0,0.1-0.1,0.2-0.1,0.3
			l-0.1,0.2c-0.4,0.6-0.9,1.1-1.4,1.5c-0.5,0.4-1.1,0.7-1.7,0.9c-2.3,1-4.7,1.2-6.9,1.4c-2.2,0.1-4.3,0-6.3-0.3
			c-1-0.1-1.9-0.4-2.8-0.6c-0.9-0.3-1.7-0.6-2.4-1.1c-0.7-0.5-1.4-1.1-1.7-1.9C0,86.5-0.1,86,0.1,85.6c0.1-0.4,0.4-0.7,0.6-1
			c0.5-0.5,1.1-0.8,1.7-1c0.5-0.2,1-0.4,1.5-0.5c0.9-0.2,1.6-0.3,2.1-0.4c0.7-0.1,1.1,0,1.2,0.1c0.1,0.1-0.2,0.2-1,0.3
			c-0.5,0.1-1.2,0.2-2,0.5c-0.4,0.1-0.9,0.3-1.4,0.5c-0.5,0.2-1,0.5-1.5,0.9c-0.4,0.4-0.7,0.9-0.4,1.5c0.2,0.6,0.7,1.1,1.4,1.6
			c0.7,0.4,1.4,0.8,2.3,1c0.8,0.3,1.7,0.5,2.7,0.6c1,0.1,1.9,0.2,3,0.3c0.5,0,1,0,1.6,0c0.5,0,1.1,0,1.6,0c2.2-0.1,4.5-0.4,6.6-1.3
			c0.5-0.2,1-0.5,1.5-0.8c0.5-0.3,0.9-0.7,1.2-1.2c0.1-0.1,0.1-0.2,0.2-0.4l0.1-0.2l0-0.2c0-0.1,0-0.2,0-0.3c0-0.1-0.1-0.2-0.1-0.3
			c-0.3-0.4-0.8-0.7-1.4-1c-1.1-0.5-2.4-0.8-3.7-1.1c-0.6-0.1-1.3-0.2-1.9-0.4c-0.3-0.1-0.7-0.1-1-0.2c-0.2,0-0.3-0.1-0.5-0.1
			c-0.1,0-0.2,0-0.3-0.1c0,0-0.1,0-0.2-0.1c-0.1,0-0.1-0.1-0.2-0.1c-0.1-0.1-0.2-0.1-0.2-0.2c-0.1-0.1-0.1-0.1-0.1-0.2
			c-0.1-0.1-0.1-0.3-0.2-0.4c-0.1-0.3-0.2-0.6-0.2-0.8c-0.1-0.5-0.1-1.1-0.2-1.6c-0.1-1.1-0.1-2.2-0.1-3.2c0-1.1,0-2.2-0.1-3.3
			l0-1.6c0-0.6,0-1.1,0-1.6c0-4.4,0.1-8.8,0.2-13.1c0-1.1,0-2.2,0.1-3.2c0-0.5,0-1.1,0.1-1.6c0-0.5,0.1-1.1,0.2-1.6
			c0.4-2.1,1.1-4.1,2-6c0.4-0.9,0.9-1.8,1.3-2.7c0.4-0.9,0.8-1.8,1.1-2.7c0.6-1.8,1.1-3.6,1.3-5.4c0.5-3.6,0.6-7,0.6-10
			c-0.1-3-0.2-5.7-0.3-7.9c-0.2-4.5-0.3-7.2-0.3-7.3C18.6,2.8,19.6,2.8,19.7,7.8z"/>
	</g>
	<g>
		<path d="M11.5,85.8c0,0-0.1,0-0.3,0c-0.2,0-0.5,0-0.8-0.1c-0.4-0.1-0.8-0.1-1.3-0.3c-0.3-0.1-0.5-0.2-0.8-0.5
			c-0.1-0.1-0.3-0.3-0.4-0.4c0-0.1-0.1-0.2-0.1-0.3c0-0.1-0.1-0.2,0-0.4l0,0.1l0-0.1c0,0,0,0,0,0l0,0.1v0v0v0l0,0l0,0v0c0,0,0,0,0,0
			c0,0,0,0,0-0.1c0,0,0-0.1,0-0.1c0,0,0-0.1,0-0.1c0,0,0,0,0,0c0,0,0,0,0-0.1c0,0,0,0,0-0.1c0-0.1,0.1-0.1,0.1-0.2
			C8,83.1,8,83.1,8.1,83l0.1-0.1l0.1-0.1l0.1-0.1c0,0,0.1-0.1,0.1-0.1c0.1-0.1,0.2-0.2,0.3-0.3c0,0,0.1-0.1,0.1-0.1l0-0.1l0.1-0.1
			c0,0,0-0.1,0-0.1l0,0l0-0.1l0-0.1c0-0.1,0-0.3,0.1-0.4c0-0.3,0.1-0.6,0.1-0.9c0.1-1.3,0.2-2.7,0.2-4.3c0-1.6,0-3.3,0-5.1
			c0-1.8,0-3.7,0-5.7c0-4,0-8.3-0.2-12.7c-0.1-1.1-0.1-2.2-0.2-3.3c-0.1-1.1-0.5-2.1-1-3.1c-0.5-1-1.1-1.9-1.8-2.9
			c-0.6-1-1.2-2.1-1.8-3.1l0,0l0,0l-0.3-0.5l0.4-0.3l0,0l-0.2,0.7c-1.4-2.8-2.2-5.7-2.8-8.7c-0.3-1.5-0.5-3-0.6-4.4
			C1,26.4,1,25.7,1,25c0-0.7,0-1.5,0-2.2c0.1-5.7,0.3-11.2,0.6-16c0-0.6,0.1-1.2,0.1-1.8c0-0.3,0-0.6,0.1-0.9c0-0.3,0-0.5,0.1-0.9
			C2,2.6,2.4,2,2.9,1.6C3,1.5,3.2,1.4,3.3,1.4c0.1-0.1,0.3-0.1,0.4-0.2C3.9,1,4.2,0.9,4.5,0.9c2-0.7,4-0.8,5.6-0.8
			c0.8,0,1.6,0,2.3,0c0.7,0,1.3,0.1,1.9,0.2c1.1,0.2,1.9,0.5,2.4,0.7c0.5,0.2,0.8,0.5,0.8,0.6c0,0-0.1,0.1-0.2,0
			c-0.1,0-0.4-0.1-0.7-0.2c-1-0.3-3.2-0.8-6.5-0.6C8.5,0.8,6.7,1,4.8,1.6C4.6,1.7,4.3,1.8,4.1,1.9C4,2,3.9,2,3.8,2.1
			C3.7,2.1,3.6,2.2,3.5,2.3C3.2,2.5,2.9,2.9,2.8,3.4c0,0.1,0,0.2,0,0.4c0,0.1,0,0.3,0,0.4c0,0.3,0,0.6-0.1,0.9
			c0,0.6-0.1,1.2-0.1,1.8c-0.3,4.8-0.5,10.2-0.5,16c0,1.4,0,2.9,0.1,4.3c0.1,1.4,0.3,2.9,0.6,4.3c0.6,2.9,1.4,5.8,2.7,8.4l0.2,0.4
			l-0.4,0.3l0,0l0.2-0.7l0,0l0,0c0.6,1,1.1,2,1.7,3c0.6,0.9,1.3,1.9,1.8,3c0.5,1.1,0.9,2.3,1,3.4c0.1,1.2,0.2,2.3,0.2,3.4
			c0.1,4.5,0.1,8.8,0.1,12.8c0,2-0.1,3.9-0.1,5.7c0,1.8,0,3.5-0.1,5.1c-0.1,1.6-0.1,3-0.3,4.4c0,0.3-0.1,0.7-0.1,1
			c0,0.2,0,0.3-0.1,0.5l0,0.1l0,0.1c0,0,0,0.1,0,0.1c0,0.1-0.1,0.2-0.1,0.3l-0.1,0.1l-0.1,0.1c-0.1,0.1-0.1,0.1-0.2,0.2
			C9.1,83,9,83.1,8.9,83.2c0,0,0,0,0,0l-0.1,0.1c-0.1,0.1,0,0-0.1,0.1c0,0.1-0.1,0.1-0.1,0.2l0,0.1l0,0c0,0,0,0,0,0c0,0,0,0,0,0l0,0
			c0,0,0,0,0,0c0,0,0,0.1,0,0.1c0,0,0,0,0,0c0,0-0.1,0-0.1,0c0,0-0.1,0-0.1,0c0,0,0,0-0.1,0l0,0l0,0l0,0l0,0l0,0l0,0l0,0l0,0
			c0.1,0,0.1,0,0,0c0.1,0,0.1,0,0.2,0c0,0,0,0,0,0l0,0l0,0l0,0c0,0,0,0,0,0.1c0,0,0,0.1,0,0.1c0.1,0.1,0.1,0.2,0.2,0.2
			c0.2,0.1,0.4,0.2,0.6,0.3c0.4,0.2,0.8,0.2,1.1,0.3c0.3,0.1,0.6,0.1,0.8,0.1c0.2,0,0.3,0,0.3,0c0.5,0,1,0,1.4,0c0.4,0,0.7,0,1,0
			c0.5,0,0.8,0,0.8,0.1c0.1,0.1-0.2,0.4-0.7,0.5c-0.3,0.1-0.6,0.2-1,0.2C12.5,85.8,12.1,85.8,11.5,85.8z"/>
	</g>
	<path d="M3.7,4.3C3.9,4.4,4.9,4.8,6.2,5c1.3,0.3,2.9,0.4,4.6,0.3c1.6-0.1,3.2-0.3,4.4-0.6c0.6-0.1,1.1-0.3,1.4-0.3
		c0.3-0.1,0.6-0.1,0.6-0.1c0.6,0,0.9,1,0.4,1.3c0,0-0.2,0.1-0.6,0.2C16.5,5.9,16,6,15.4,6.1c-1.2,0.3-2.9,0.5-4.6,0.5
		C9,6.6,7.3,6.4,5.9,5.9c-1.3-0.4-2.2-1-2.4-1.3C3.4,4.5,3.5,4.3,3.7,4.3z"/>
	<path d="M11.4,43.5c-0.7,0-1.3-0.2-1.8-0.5c-0.5-0.3-0.9-0.7-1.2-1c-0.6-0.7-0.9-1.3-0.9-1.6c0-0.1,0.2-0.3,0.3-0.2
		c0.2,0.1,0.7,0.5,1.3,1c0.6,0.5,1.5,0.9,2.3,0.9c0.8,0,1.5-0.5,2.1-0.9c0.3-0.2,0.5-0.4,0.6-0.6c0.2-0.2,0.2-0.3,0.2-0.3
		c0.1-0.1,0.4-0.1,0.5,0c0,0,0,0.1,0,0.3c0,0,0,0.1-0.1,0.4c-0.1,0.2-0.3,0.5-0.5,0.9c-0.2,0.3-0.6,0.7-1,1
		C12.7,43.2,12.1,43.5,11.4,43.5z"/>
</g>
</svg>
