<?xml version="1.0" encoding="utf-8"?>
<!-- Generator: Adobe Illustrator 25.4.1, SVG Export Plug-In . SVG Version: 6.00 Build 0)  -->
<svg version="1.1" id="XMLID_2_" xmlns="http://www.w3.org/2000/svg" xmlns:xlink="http://www.w3.org/1999/xlink" x="0px" y="0px"
	 viewBox="0 0 39.3 90.5" style="enable-background:new 0 0 39.3 90.5;" xml:space="preserve">
<g>
	<g>
		<path d="M20.6,83.1c-0.1,0-1,0-2.5-0.2c-0.8-0.1-1.7-0.3-2.7-0.7c-0.5-0.2-1.1-0.5-1.6-1.1c-0.1-0.1-0.1-0.2-0.2-0.2
			c-0.1-0.1-0.1-0.1-0.2-0.2l-0.1-0.2c0-0.1-0.1-0.1-0.1-0.2c-0.1-0.1-0.1-0.3-0.1-0.4c-0.1-0.6,0.2-1.2,0.8-1.4l0.3-0.1l0.1-0.1
			c0.1,0,0.2-0.1,0.3-0.1c0.2-0.1,0.4-0.2,0.5-0.4c0.2-0.1,0.3-0.3,0.4-0.5c0.1-0.1,0.1-0.2,0.2-0.3c0.1-0.1,0.1-0.2,0.2-0.3
			c0.2-0.4,0.4-1,0.5-1.5c0.1-0.6,0.2-1.1,0.3-1.7c0.2-1.2,0.3-2.5,0.3-3.9c0-1.4,0-2.8,0.1-4.3c0-3,0.1-6.1,0.1-9.4
			c0-0.8,0-1.7,0-2.5c0-0.4,0-0.8,0-1.3c0-0.2,0-0.5,0-0.6l0-0.3L17.1,51c-0.2-0.7-0.7-1.3-1.2-1.8c-0.3-0.3-0.6-0.5-1-0.7
			c-0.2-0.1-0.3-0.2-0.5-0.3l-0.3-0.1L13.9,48l-0.1,0c0,0-0.1,0-0.1-0.1c0,0,0,0-0.1-0.1c0,0,0,0-0.1-0.1l0,0l-0.6-0.4
			c-0.2-0.1-0.5-0.3-0.7-0.4c-0.4-0.3-0.9-0.5-1.3-0.8l-0.7-0.4l-0.6-0.5c-0.4-0.3-0.8-0.7-1.2-1c-1.6-1.4-3.1-2.9-4.4-4.7
			c-1.3-1.8-2.3-3.7-2.9-5.8c-0.7-2.1-1-4.2-1.1-6.4c0-2.2,0.2-4.3,0.6-6.4c0.4-2.1,1-4,1.5-6c0.3-1,0.6-1.9,0.8-2.9
			c0.3-1,0.5-1.9,0.7-2.8c0.2-0.9,0.2-1.8,0.2-2.7c0-0.4-0.1-0.9-0.2-1.3c0-0.2-0.1-0.5-0.1-0.8c0-0.1,0-0.3,0-0.4
			c0-0.1,0-0.3,0-0.4c0.1-0.6,0.4-1.1,0.8-1.5c0.4-0.4,0.8-0.7,1.3-0.9c0.9-0.4,1.8-0.6,2.7-0.8c1.8-0.3,3.4-0.4,5-0.5
			c3.2-0.1,6.1-0.1,8.7,0c2.5,0.1,4.7,0.2,6.4,0.4c1.7,0.2,3,0.5,3.7,0.7c0.6,0.2,1,0.5,1,0.6c0,0.1-0.1,0.1-0.2,0
			c-0.2,0-0.4-0.1-0.8-0.2c-0.7-0.2-2-0.4-3.7-0.5C26.7,1,24.5,0.9,22,0.9c-2.5,0-5.5,0-8.6,0.2c-1.6,0.1-3.2,0.2-4.9,0.5
			C7.6,1.7,6.8,2,6.1,2.3C5.3,2.7,4.7,3.2,4.6,3.9c0,0.2,0,0.4,0,0.5c0,0.2,0.1,0.4,0.1,0.6C4.8,5.5,4.9,6,5,6.5c0.1,1,0,2-0.1,3
			c-0.2,1-0.4,2-0.7,2.9c-0.3,1-0.5,1.9-0.8,2.9c-0.5,1.9-1.1,3.9-1.5,5.9c-0.4,2-0.6,4-0.5,6.1c0.1,2,0.4,4.1,1,6
			c0.6,1.9,1.6,3.8,2.8,5.4c1.2,1.7,2.6,3.1,4.2,4.4c0.4,0.3,0.8,0.6,1.2,0.9l0.6,0.4l0.6,0.4c0.4,0.3,0.8,0.5,1.3,0.8
			c0.2,0.1,0.4,0.3,0.6,0.4l0.7,0.4c0.1,0,0.1,0.1,0.2,0.1c0,0,0,0,0,0c0,0,0,0,0,0c0,0,0,0,0,0c0,0,0,0,0,0l0,0l0.2,0.1L15,47
			c0.2,0.1,0.4,0.2,0.6,0.4c0.4,0.3,0.8,0.5,1.1,0.9c0.3,0.3,0.7,0.7,1,1.1c0.2,0.2,0.3,0.4,0.4,0.6c0.1,0.2,0.2,0.5,0.3,0.7
			l0.1,0.4c0,0.1,0,0.3,0,0.4c0,0.3,0,0.5,0,0.7c0,0.4,0,0.8,0,1.3c0,0.8,0,1.7,0,2.5c0,3.3,0,6.5,0,9.4c0,1.5,0,2.9,0,4.3
			c0,1.4-0.1,2.8-0.3,4c-0.1,0.6-0.2,1.3-0.3,1.9c-0.1,0.6-0.3,1.2-0.6,1.8c-0.1,0.1-0.1,0.3-0.2,0.4c-0.1,0.1-0.2,0.3-0.3,0.4
			c-0.2,0.3-0.4,0.5-0.7,0.7c-0.2,0.2-0.5,0.4-0.8,0.5c-0.1,0.1-0.3,0.1-0.4,0.2c-0.1,0-0.2,0.1-0.2,0.1c0,0,0,0,0,0l0,0
			c0,0,0.1,0.1,0.1,0.1c0,0,0.1,0.1,0.1,0.1c0.3,0.3,0.7,0.5,1.1,0.7c0.8,0.4,1.7,0.6,2.3,0.8c0.7,0.1,1.2,0.2,1.6,0.2
			c0.4,0,0.6,0,0.7,0c1.2,0,2.2-0.1,2.8-0.1c0.6,0,1,0.2,1,0.4c0,0.2-0.2,0.4-0.9,0.6C22.9,82.9,21.9,83.1,20.6,83.1z"/>
	</g>
	<g>
		<path d="M35.4,7.9c0,0.2,0.4,2.2,1.5,5.6c0.5,1.7,1.2,3.8,1.7,6.2c0.5,2.5,0.8,5.3,0.6,8.4c0,0.2,0,0.4,0,0.6
			c0,0.2-0.1,0.4-0.1,0.6c-0.1,0.4-0.1,0.8-0.2,1.2c0,0.4-0.1,0.8-0.2,1.2c-0.1,0.4-0.2,0.8-0.3,1.2c-0.5,1.6-1.1,3.3-2,4.8
			l-0.3,0.6c-0.1,0.2-0.2,0.4-0.4,0.6c-0.3,0.4-0.5,0.8-0.8,1.1c-0.3,0.4-0.6,0.7-0.9,1.1c-0.3,0.4-0.6,0.7-0.9,1
			c-1.3,1.4-2.8,2.6-4.4,3.7c-0.8,0.5-1.7,1-2.5,1.5c-0.4,0.2-0.9,0.5-1.3,0.7l-0.6,0.3c-0.2,0.1-0.4,0.2-0.6,0.4
			c-0.8,0.5-1.5,1.1-1.8,1.8c-0.1,0.4-0.1,0.8-0.1,1.3c0,0.5,0,1,0,1.5c-0.1,4-0.1,8.1-0.2,12.2c0,2.1-0.1,4.1,0,6.1
			c0.1,1,0.1,2,0.3,3c0.2,1,0.5,1.9,0.9,2.7c0.3,0.4,0.5,0.7,0.9,1c0.4,0.3,0.8,0.4,1.2,0.5c1,0.2,2,0.4,3,0.6c1,0.2,2,0.4,3,0.7
			c1,0.3,2,0.5,2.9,1c0.5,0.2,1,0.5,1.4,0.8c0.4,0.4,0.9,1,0.9,1.6l0,0.2l0,0.2c0,0.2,0,0.3-0.1,0.4c0,0.1-0.1,0.3-0.1,0.4
			c-0.1,0.1-0.1,0.3-0.2,0.4c-0.3,0.5-0.6,0.9-1,1.3c-0.8,0.7-1.7,1.2-2.6,1.7c-0.9,0.4-1.8,0.7-2.7,1c-1.8,0.5-3.7,0.8-5.5,1
			c-1.8,0.2-3.5,0.2-5.2,0.2c-3.4-0.1-6.6-0.4-9.4-1.2c-1.4-0.4-2.7-0.9-3.9-1.6C4.4,87,3.3,86,2.8,84.8l-0.1-0.2
			c0-0.1,0-0.2-0.1-0.2c0-0.2-0.1-0.3-0.1-0.5c0-0.3,0-0.6,0.1-1c0.2-0.7,0.6-1.1,1.1-1.5c0.9-0.7,1.7-1,2.5-1.2
			c1.5-0.5,2.7-0.6,3.5-0.6c0.8,0,1.3,0.1,1.4,0.2c0.1,0.1-0.3,0.3-1.1,0.4C9.1,80.3,8,80.5,6.6,81c-0.7,0.3-1.5,0.6-2.2,1.1
			c-0.3,0.3-0.6,0.6-0.7,0.9c0,0.1,0,0.2,0,0.3c0,0.1,0,0.2,0,0.3c0,0.1,0,0.2,0.1,0.3c0,0.1,0,0.2,0.1,0.3C4.2,85.2,5,86,6.1,86.6
			c1,0.6,2.3,1.1,3.6,1.5c2.7,0.7,5.8,1,9.1,1.1c1.7,0,3.4,0,5.1-0.2c1.7-0.2,3.5-0.4,5.3-0.9c0.9-0.2,1.7-0.5,2.6-0.9
			c0.8-0.4,1.6-0.8,2.3-1.4c0.6-0.6,1.1-1.3,1-2.1c0-0.6-0.8-1.2-1.6-1.6c-0.8-0.4-1.8-0.7-2.7-0.9c-1-0.3-1.9-0.5-2.9-0.7
			c-1-0.2-2-0.4-3-0.6c-0.5-0.1-1.1-0.3-1.6-0.7c-0.5-0.3-0.9-0.8-1.2-1.3c-0.6-1-0.9-2-1.1-3.1c-0.2-1-0.3-2.1-0.4-3.1
			c-0.1-2.1-0.1-4.2,0-6.2c0-4.1,0.1-8.2,0.1-12.2c0-0.5,0-1,0-1.5c0-0.5,0-1.1,0.2-1.7c0.1-0.3,0.2-0.6,0.4-0.8
			c0.2-0.2,0.4-0.5,0.6-0.7c0.4-0.4,0.8-0.7,1.3-1c0.2-0.1,0.4-0.3,0.6-0.4c0,0,0.2-0.1,0.2-0.1l0.2-0.1l0.3-0.2
			c0.4-0.2,0.9-0.4,1.3-0.6c0.8-0.4,1.6-0.9,2.4-1.5c3.1-2.1,5.6-4.7,7.2-7.7c0.8-1.5,1.4-3,1.8-4.5c0.1-0.4,0.2-0.8,0.3-1.1
			c0.1-0.4,0.2-0.8,0.2-1.1c0-0.4,0.1-0.8,0.1-1.1c0-0.2,0-0.4,0.1-0.6c0-0.2,0-0.4,0-0.6c0-0.4,0-0.7,0-1.1c0-0.4,0-0.7,0-1.1
			c0-0.7,0-1.4-0.1-2.1c-0.1-1.3-0.3-2.6-0.6-3.8c-0.5-2.3-1.2-4.4-1.8-6.1c-1.1-3.4-1.5-5.5-1.6-5.7c-0.2-0.7-0.2-1.4-0.2-2
			c0-0.6,0.1-1.2,0.3-1.6c0.2-0.4,0.4-0.5,0.5-0.7c0.1-0.1,0.2-0.2,0.3-0.2c0.1,0,0.2,0.1,0.2,0.3c0.1,0.2,0,0.6,0,0.9
			c0,0.3,0,0.6,0.1,1.1C35.1,6.7,35.3,7.3,35.4,7.9z"/>
	</g>
	<path d="M6,3.9c0.2,0,0.3,0,0.5,0.1C6.7,4,6.9,4.1,7.1,4.2c0,0,0.4,0.3,1.2,0.6c0.9,0.3,2.2,0.6,3.7,0.8c3.2,0.4,7.6,0.6,12,0.3
		c1.1-0.1,2.2-0.2,3.3-0.3c1.1-0.2,2.1-0.4,3.1-0.7c0.1,0,0.2-0.1,0.3-0.1c0.1,0,0.2-0.1,0.3-0.1c0.1,0,0.2-0.1,0.2-0.2
		c0.1-0.1,0.1-0.2,0.1-0.3c0-0.1-0.1-0.1-0.2-0.2c0,0-0.1,0-0.1-0.1C31,4,30.8,4,30.7,4c-0.2-0.1-0.4-0.1-0.7-0.2
		c-0.4-0.1-0.9-0.2-1.3-0.2c-1.8-0.2-3.4-0.3-4.6-0.4C22.9,3,22,3,21.7,2.9c-0.4-0.1-0.5-0.4,0-0.4c0.4-0.1,1.3-0.1,2.5-0.1
		c1.2,0,2.8,0,4.7,0.2c0.5,0,0.9,0.1,1.4,0.2c0.2,0,0.5,0.1,0.8,0.2c0.1,0,0.2,0.1,0.4,0.1c0.2,0,0.4,0.1,0.5,0.2
		c0.4,0.2,0.6,0.4,0.8,0.7c0.1,0.3,0.1,0.7-0.1,1.1c-0.2,0.3-0.5,0.6-0.9,0.8C31.6,5.9,31.5,6,31.3,6c-0.1,0.1-0.3,0.1-0.4,0.2
		c-1.1,0.4-2.2,0.6-3.3,0.8c-1.1,0.2-2.3,0.3-3.4,0.4c-4.5,0.3-9,0.1-12.3-0.4c-1.7-0.3-3-0.6-4-1C7,5.7,6.5,5.3,6.4,5.2
		C6,4.9,5.8,4.6,5.8,4.3C5.8,4,5.9,3.9,6,3.9z"/>
	<path d="M20,44.2c-0.5,0.1-1,0-1.5,0c-0.5,0-1-0.1-1.5-0.2c-2-0.4-3.9-1.2-5.6-2.4c-3.4-2.3-5.8-5.7-6.9-9.3
		c-0.6-1.8-0.9-3.6-0.8-5.4c0-1.8,0.3-3.4,0.6-4.9c0.7-3,1.6-5.6,2.1-7.5c0.5-2,0.8-3.4,0.9-4.1c0.1-0.7,0.4-0.9,0.4,0
		c0,0.7-0.1,2.2-0.5,4.2c-0.4,2.1-1.2,4.6-1.7,7.6c-0.2,1.5-0.4,3.1-0.3,4.7c0,1.6,0.4,3.3,1,4.9c1.1,3.3,3.4,6.3,6.4,8.3
		c1.5,1,3.2,1.7,4.9,2c0.4,0.1,0.8,0.2,1.3,0.2c0.4,0,0.8,0.1,1.3,0c0.4,0,0.8,0,1.3-0.1c0.4-0.1,0.8-0.2,1.2-0.2
		c1.6-0.4,3-1.1,4.3-1.9c1.3-0.8,2.4-1.8,3.3-2.7c1.8-1.9,3-3.9,3.6-5.3c0.7-1.4,0.9-2.3,0.9-2.4c0.1-0.3,0.2-0.6,0.2-0.8
		c0.1-0.2,0.1-0.4,0.2-0.6c0.1-0.3,0.2-0.5,0.3-0.5c0.1,0,0.2,0.2,0.3,0.5c0,0.2,0.1,0.4,0.1,0.7c0,0.3,0,0.6-0.1,0.9
		c0,0,0,0.3-0.1,0.8c-0.1,0.2-0.1,0.5-0.2,0.8c-0.1,0.3-0.2,0.7-0.3,1.1c-0.6,1.6-1.6,3.8-3.5,6c-1,1.1-2.1,2.2-3.5,3.2
		c-1.4,0.9-3.1,1.8-4.9,2.2c-0.5,0.1-0.9,0.2-1.4,0.3C21,44.2,20.5,44.2,20,44.2z"/>
</g>
</svg>
