<?xml version="1.0" encoding="utf-8"?>
<!-- Generator: Adobe Illustrator 25.4.1, SVG Export Plug-In . SVG Version: 6.00 Build 0)  -->
<svg version="1.1" id="XMLID_1_" xmlns="http://www.w3.org/2000/svg" xmlns:xlink="http://www.w3.org/1999/xlink" x="0px" y="0px"
	 viewBox="0 0 19.9 90.5" style="enable-background:new 0 0 19.9 90.5;" xml:space="preserve">
<g>
	<path d="M19.9,42.2c0-0.5,0-1,0-1.5c0-0.3,0-0.5-0.1-0.8c0-0.3,0-0.5-0.1-0.8c0-0.2,0-0.5-0.1-0.7c0-0.2-0.1-0.5-0.1-0.7
		c0-0.2-0.1-0.5-0.1-0.7c0-0.2-0.1-0.5-0.2-0.7c-0.1-0.2-0.1-0.5-0.2-0.7c-0.1-0.2-0.2-0.5-0.3-0.7l-0.1-0.3c0-0.1-0.1-0.2-0.1-0.3
		c-0.1-0.2-0.2-0.4-0.3-0.6c-0.5-0.8-1-1.5-1.6-2.2c-0.1-0.2-0.3-0.3-0.4-0.5c-0.1-0.2-0.2-0.3-0.3-0.5c-0.1-0.2-0.2-0.3-0.3-0.5
		c-0.1-0.2-0.2-0.3-0.3-0.5c-0.1-0.2-0.2-0.3-0.2-0.5c-0.1-0.2-0.1-0.4-0.2-0.5c-0.1-0.4-0.2-0.7-0.3-1.1c0-0.2-0.1-0.4-0.1-0.5
		c0-0.2,0-0.4-0.1-0.5c0-0.2,0-0.3-0.1-0.5c0-0.2,0-0.3,0-0.5c0-0.7-0.1-1.3-0.1-2c0-1.3,0-2.4,0-3.4c0-2-0.1-3.6-0.1-4.5
		c-0.1-2.1-0.3-1.6-0.4,0.2c0,0.9-0.1,2.4-0.1,4.5c0,1,0,2.2,0,3.4c0,0.2,0,0.3,0,0.5c0,0.2,0,0.3,0,0.5c0,0.3,0,0.7,0,1
		c0,0.4,0.1,0.7,0.1,1.1c0,0.4,0.1,0.7,0.2,1.1c0.1,0.8,0.3,1.5,0.7,2.3c0.1,0.2,0.2,0.4,0.3,0.6c0.1,0.2,0.2,0.4,0.3,0.5
		c0.1,0.2,0.2,0.4,0.4,0.5c0.1,0.2,0.3,0.4,0.4,0.5c0.5,0.7,1,1.3,1.5,2.1c0.1,0.2,0.2,0.4,0.3,0.6c0.1,0.2,0.2,0.4,0.2,0.6l0.1,0.3
		l0.1,0.2l0,0.2c0.1,0.2,0.1,0.4,0.2,0.7c0.1,0.4,0.2,0.9,0.3,1.4c0,0.2,0.1,0.5,0.1,0.7c0,0.2,0,0.5,0.1,0.7c0,0.2,0,0.5,0.1,0.7
		c0,0.1,0,0.2,0,0.4l0,0.4c0,0.5,0,1,0,1.5c0,2,0,4.2-0.1,6.4c-0.1,8.8-0.2,18.6-0.3,28.8c0,1.3,0,2.6,0,3.8c0,0.6,0,1.3,0,1.9l0,1
		l0,0.2l0,0.1c0,0.1,0,0.1,0,0.1c0,0.1,0,0.1,0,0.2c0,0.1,0,0.1,0,0.2c-0.1,1.1-0.8,2.1-1.8,2.8l-0.4,0.2c-0.1,0.1-0.2,0.2-0.4,0.2
		l-0.4,0.2c-0.1,0.1-0.3,0.1-0.4,0.2L14.3,89l-0.9,0.2c-0.3,0.1-0.6,0.1-0.9,0.1c-0.3,0-0.6,0.1-0.9,0.1l-1,0c-0.3,0-0.6,0-1,0l-1,0
		c-0.2,0-0.3,0-0.5,0l-0.5-0.1l-0.9-0.1L5.9,89c-1.2-0.3-2.4-0.7-3.3-1.5l-0.2-0.1l-0.1-0.2C2.2,87.1,2.1,87,2,86.9l-0.2-0.4
		c-0.1-0.1-0.1-0.2-0.2-0.4c-0.1-0.1-0.1-0.3-0.2-0.4c-0.1-0.1-0.1-0.3-0.1-0.4c-0.1-0.3-0.1-0.6-0.1-0.8l0,0c0,0,0,0,0.1,0l0.2,0
		c-0.4,0-0.1,0-0.2,0l0,0l0-0.1l0-0.1l0-0.2l0-0.4l0-0.8c0-0.5,0-1.1,0-1.6c0-1.1,0-2.2,0-3.2c0-2.1,0-4.3-0.1-6.4
		c0-4.2-0.1-8.3-0.1-12.2c0-3.9-0.1-7.7-0.1-11.2c0-1.8,0-3.5-0.1-5.1c0-0.8,0-1.6,0-2.4l0-0.3l0-0.3c0-0.2,0-0.4,0.1-0.6
		c0-0.4,0.1-0.8,0.1-1.1c0.2-1.5,0.6-2.9,1.2-4.1c0.1-0.1,0.2-0.3,0.2-0.4c0.1-0.1,0.2-0.3,0.3-0.4C2.8,33.3,2.9,33.2,3,33
		c0.1-0.1,0.2-0.3,0.3-0.4c0.2-0.3,0.4-0.5,0.6-0.8c0.2-0.3,0.4-0.5,0.6-0.8c0.2-0.3,0.3-0.5,0.5-0.8c0.1-0.3,0.3-0.6,0.4-0.8
		c0.1-0.3,0.2-0.6,0.3-0.8l0.1-0.2l0-0.2c0-0.1,0.1-0.3,0.1-0.4C5.9,27.5,6,27.3,6,27c0-0.3,0.1-0.5,0.1-0.8c0-0.2,0.1-0.5,0.1-0.7
		c0-0.2,0-0.5,0-0.7c0-0.9,0-1.7,0-2.4c0-0.7,0-1.3,0-1.8c0-1,0-1.6,0-1.7c0-6.8-0.6-6.8-0.7,0c0,0.1,0,0.7,0,1.7c0,0.5,0,1.1,0,1.8
		c0,0.7,0,1.5,0,2.4c0,0.2,0,0.4,0,0.7c0,0.2-0.1,0.5-0.1,0.7c0,0.2-0.1,0.5-0.1,0.7c0,0.3-0.1,0.5-0.2,0.7c0,0.1-0.1,0.3-0.1,0.4
		l0,0.2l-0.1,0.2c-0.1,0.3-0.2,0.5-0.3,0.8c-0.1,0.2-0.2,0.5-0.4,0.8c-0.1,0.2-0.3,0.5-0.5,0.7c-0.2,0.2-0.4,0.5-0.6,0.7
		c-0.2,0.3-0.4,0.5-0.6,0.8c-0.1,0.1-0.2,0.3-0.3,0.4c-0.1,0.1-0.2,0.3-0.3,0.4c-0.1,0.1-0.2,0.3-0.3,0.4c-0.1,0.2-0.2,0.3-0.3,0.5
		c-0.7,1.3-1,2.8-1.3,4.3c-0.1,0.4-0.1,0.8-0.1,1.2c0,0.2,0,0.4-0.1,0.6l0,0.3l0,0.3C0,41.4,0,42.3,0,43.1c0,1.7,0,3.4,0,5.1
		c0,3.5,0,7.3,0.1,11.2c0,3.9,0,8,0.1,12.2c0,2.1,0,4.2,0,6.4c0,1.1,0,2.2,0,3.2c0,0.5,0,1.1,0,1.6l0,0.8l0,0.4l0,0.2l0,0.1l0,0.1
		l0,0c-0.1,0,0.2,0-0.2,0l0.2,0c0.1,0,0,0,0.1,0l0,0c0,0.4,0,0.7,0.1,1.1c0,0.2,0.1,0.4,0.1,0.5c0.1,0.2,0.1,0.3,0.2,0.5
		c0.1,0.2,0.2,0.3,0.3,0.5l0.3,0.4c0.1,0.1,0.2,0.3,0.4,0.4c0.1,0.1,0.1,0.1,0.2,0.2L2,88.3c1.1,0.9,2.4,1.4,3.7,1.7l1,0.2l1,0.1
		l0.5,0.1c0.2,0,0.3,0,0.5,0l1,0c0.3,0,0.7,0,1,0l1,0c0.3,0,0.7-0.1,1-0.1c0.3,0,0.7-0.1,1-0.1c0.3-0.1,0.7-0.1,1-0.2l1-0.3
		c0.3-0.1,0.6-0.3,0.9-0.4c0.2-0.1,0.3-0.2,0.5-0.3l0.4-0.3c0.6-0.4,1.1-0.9,1.5-1.5c0.4-0.6,0.7-1.3,0.8-2c0-0.2,0-0.4,0-0.6l0,0
		c0,0,0,0,0,0c0,0,0,0,0,0l0-0.1l0-0.2l0-1c0-0.6,0-1.3,0-1.9c0-1.3,0-2.6,0-3.8c0.1-10.2,0.1-20,0.2-28.8
		C19.9,46.4,20,44.3,19.9,42.2z"/>
	<path d="M14.2,11.8L14.2,11.8C14.2,11.8,14.2,11.8,14.2,11.8L14.2,11.8z"/>
	<polygon points="14.2,11.8 14.2,11.8 14.2,11.8 	"/>
	<path d="M5.1,11.8L5.1,11.8C5.1,11.8,5.1,11.8,5.1,11.8C5.1,11.8,5.1,11.8,5.1,11.8z"/>
	<polygon points="14.8,11.8 14.8,11.8 14.8,11.8 	"/>
	<path d="M5.2,12.1c0,0.1,0.1,0.2,0.1,0.3c0.1,0.2,0.2,0.4,0.4,0.6c0.3,0.4,0.8,0.6,1.3,0.8c1,0.4,2.1,0.4,3.1,0.4
		c1.1,0,2.1-0.1,3-0.5c0.5-0.2,0.9-0.4,1.2-0.8c0.3-0.3,0.5-0.7,0.4-1.1l0,0l0,0l0,0l0.1,0l-0.1,0c0,0,0,0,0,0l0,0l0,0l0-0.1
		c0,0,0-0.1,0-0.1c0-0.1,0-0.1,0-0.2c0-0.1,0-0.2,0-0.3c0-0.2,0-0.3,0-0.3c0-0.6-0.3-0.6-0.3,0c0,0,0,0.1,0,0.3c0,0.1,0,0.2,0,0.3
		c0,0.1,0,0.1,0,0.2c0,0,0,0.1,0,0.1l0,0.1l0,0l0,0c0,0,0,0,0,0l-0.1,0h0l0.1,0v0v0c0,0,0,0,0,0c0,0,0,0,0,0c0,0.1,0,0.2-0.1,0.4
		c-0.1,0.1-0.2,0.3-0.3,0.4c-0.2,0.2-0.6,0.4-1,0.6c-0.8,0.3-1.8,0.4-2.9,0.3c-1,0-2.1-0.1-2.9-0.4c-0.4-0.1-0.8-0.3-1.1-0.6
		c-0.1-0.1-0.2-0.3-0.3-0.4c0-0.1-0.1-0.1-0.1-0.2c0-0.1,0-0.1,0-0.2l0,0c0-0.7-0.1-1.2-0.1-1.3c0-0.2-0.2-0.1-0.3,0
		c-0.1,0.2-0.1,0.6-0.1,1.3C5.1,11.9,5.1,12,5.2,12.1z"/>
	<path d="M14.8,11.8L14.8,11.8C14.8,11.8,14.8,11.8,14.8,11.8L14.8,11.8z"/>
	<path d="M5.7,9.9c0.3,0.2,0.6,0.4,0.8,0.5c0.6,0.2,1.2,0.3,1.7,0.3c1.1,0.1,2.1,0.1,3,0c0.9-0.1,1.6-0.2,2.1-0.4
		c0.5-0.2,0.8-0.4,0.8-0.4c0.3-0.2,0.4-0.5,0.3-0.5c-0.1-0.1-0.3,0-0.6,0.2c0,0-0.3,0.2-0.7,0.4c-0.5,0.2-1.2,0.3-2,0.3
		c-0.9,0-1.9,0-2.9-0.1C7.8,10,7.2,9.9,6.8,9.8C6.5,9.7,6.3,9.5,6.1,9.4C6.1,9.3,6,9.3,6,9.2c0,0,0-0.1,0-0.1C6,9,6,9,6,8.9L5.8,8.9
		c0,0,0,0,0.1,0c0,0,0,0,0,0c0,0,0,0,0,0c0,0,0,0,0,0c0,0,0,0,0,0c0,0,0,0,0.1-0.1c0.1-0.1,0.2-0.1,0.3-0.2C6.6,8.6,6.8,8.5,7,8.4
		c0.1,0,0.1,0,0.2,0c0,0,0,0,0,0.1c0,0.3,0.2,0.5,0.4,0.6c0.5,0.3,1.2,0.5,2.1,0.5c1.2,0.1,2-0.2,2.6-0.5c0.2-0.1,0.4-0.4,0.4-0.6
		l0-0.2c0.1,0,0.2,0,0.3,0.1c0.5,0.1,0.9,0.2,1,0.3c0.1,0,0.2,0,0.2,0c0-0.1,0-0.1-0.1-0.2c-0.1-0.1-0.5-0.3-1-0.5
		c-0.1,0-0.3-0.1-0.4-0.1L13,1.2c0,0,0,0,0,0c0,0,0,0,0,0c0,0,0-0.1-0.1-0.3C12.8,0.6,12.1,0,9.9,0c-2.3,0-3,0.7-3,1.1
		c0,0,0,0.2,0,0.4c0,2,0.2,4.1,0.2,6.2c-0.1,0-0.2,0-0.3,0.1C6.6,7.8,6.3,7.9,6.1,8C5.9,8.1,5.8,8.2,5.7,8.3
		C5.6,8.3,5.5,8.4,5.5,8.5C5.4,8.6,5.3,8.7,5.3,8.9l0-0.1c0,0.1,0,0.2,0,0.3c0,0.1,0,0.2,0,0.3C5.4,9.6,5.5,9.7,5.7,9.9z M7.3,1.5
		c0-0.1,0.1-0.1,0.2-0.1c0,0,0.1,0,0.2,0.1c0.2,0,0.4,0.1,0.7,0.2c0.4,0.1,1,0.1,1.6,0.1c0,0,0.1,0,0.1,0c0.6,0,1.1,0,1.5-0.1
		c0.2,0,0.4-0.1,0.5-0.1c0.1,0,0.1-0.1,0.2-0.1c0.2-0.1,0.3,0,0.3,0c0,0,0,0.1,0,0.2c0,0.1-0.1,0.2-0.1,0.2c0,0-0.1,0.1-0.2,0.1
		C12.1,2,12,2,11.7,2.1c-0.5,0.2-1.1,0.3-1.7,0.3c-0.1,0-0.2,0-0.3,0c-0.5,0-1.1-0.1-1.5-0.2C7.8,2.1,7.4,1.8,7.3,1.7
		C7.3,1.6,7.3,1.5,7.3,1.5z"/>
	<path d="M3.7,38.6c0.3-1.5,0.6-2.8,1.1-3.8c0.3-0.7,0.6-1.2,0.9-1.7c0.1-0.2,0.2-0.3,0.3-0.5c0.1-0.3,0.2-0.5,0.3-0.7
		c0-0.1,0-0.2,0-0.3c0,0-0.1,0-0.1,0c-0.1,0-0.2,0.2-0.5,0.6l-0.1,0.2c0,0.1-0.1,0.1-0.1,0.2c-0.3,0.4-0.7,1-1.1,1.9
		c-0.5,1.1-0.9,2.5-1.2,3.9C2.6,40.1,2.4,42,2.4,44c0,0.2,0,0.4,0,0.5c0,0.3,0,0.7,0,1c0,0.5,0,1.1,0,1.6l0,3.4
		c0.1,9.3,0.2,21,0.3,32.9c0,0.9,0.5,1.7,1.1,2.3c0.4,0.3,0.7,0.4,1.1,0.6c0.3,0.1,0.7,0.2,1.1,0.3c0.7,0.1,1.4,0.2,2.2,0.3
		C8.7,87,9.3,87,9.8,87c0.2,0,0.4,0,0.5,0c1.7,0,3.1-0.3,4.3-0.7c0.3-0.1,0.6-0.2,1-0.4c0.4-0.2,0.7-0.5,0.9-0.8
		c0.2-0.3,0.4-0.7,0.5-1.1c0.1-0.2,0.1-0.4,0.1-0.6l0.2-15.1c0.1-8.5,0.2-14.2,0.2-14.5c0-3.2-0.2-3.2-0.3-3.2c-0.1,0-0.3,0-0.4,3.2
		l-0.1,4.3c0,0.4-0.3,0.8-0.7,1l-0.1,0c-0.3,0.1-0.9,0.3-1.6,0.4c-1.2,0.3-2.9,0.4-4.7,0.4c-1.9,0-3.5-0.1-4.5-0.3
		c-0.7-0.1-1.1-0.3-1.3-0.4c0,0-0.1,0-0.1-0.1c-0.3-0.1-0.4-0.4-0.4-0.7c0-2.7-0.1-5.3-0.1-7.8l-0.1-5l0-1.5
		C3.3,42,3.5,40.2,3.7,38.6z"/>
</g>
</svg>
