<?xml version="1.0" encoding="utf-8"?>
<!-- Generator: Adobe Illustrator 25.4.1, SVG Export Plug-In . SVG Version: 6.00 Build 0)  -->
<svg version="1.1" id="XMLID_2_" xmlns="http://www.w3.org/2000/svg" xmlns:xlink="http://www.w3.org/1999/xlink" x="0px" y="0px"
	 viewBox="0 0 99.2 79.6" style="enable-background:new 0 0 99.2 79.6;" xml:space="preserve">
<style type="text/css">
	.st0{fill:#231F20;}
</style>
<g>
	<path class="st0" d="M90.9,12.1c0-2.3,0.6-4.1,1-5.1c0-0.2-2-0.4-6.1-0.4c-0.1,0-0.8,0-2,0c-0.6,0-1.3,0-2.2,0
		c-0.8,0-1.8,0-2.9-0.1c-0.3,0-0.5,0-0.8,0c-0.3,0-0.6-0.1-0.8-0.1c-0.3,0-0.6-0.1-0.9-0.1c-0.3,0-0.6-0.1-0.9-0.2
		c-0.2,0-0.3-0.1-0.5-0.1L74.7,6l-0.2-0.1c-0.3-0.1-0.6-0.2-0.9-0.3c-0.3-0.1-0.6-0.3-0.9-0.4c-0.3-0.2-0.6-0.4-0.9-0.6
		c-0.3-0.2-0.6-0.4-0.9-0.7c-0.3-0.2-0.6-0.5-0.9-0.7c-0.2-0.1-0.3-0.2-0.5-0.4c-0.2-0.1-0.3-0.2-0.5-0.3c-0.2-0.1-0.4-0.2-0.5-0.3
		c-0.2-0.1-0.4-0.2-0.6-0.3c-1.6-0.8-3.3-1.2-5.2-1.5c-0.5-0.1-0.9-0.1-1.4-0.1c-0.2,0-0.5,0-0.7-0.1l-0.4,0l-0.4,0
		c-1,0-2-0.1-3-0.1c-2,0-4.1,0-6.2,0c-4.3,0-8.8,0-13.5,0.1c-4.7,0-9.6,0-14.6,0.1c-2.5,0-5.1,0-7.6,0c-1.3,0-2.6,0-3.9,0
		c-0.6,0-1.3,0-2,0l-1,0l-0.5,0l-0.2,0l-0.1,0l-0.1,0l0,0c0-0.1,0,0.3,0-0.3l0,0.2c0,0.1,0,0.1,0,0.1l0,0c-0.5,0-0.9,0-1.3,0.1
		c-0.2,0-0.4,0.1-0.6,0.2C5,0.6,4.8,0.7,4.6,0.8C4.4,0.9,4.2,1,4.1,1.1L3.5,1.5C3.4,1.6,3.2,1.8,3.1,1.9C3,2,2.9,2.1,2.8,2.1
		L2.6,2.4C1.5,3.7,0.9,5.2,0.5,6.8L0.3,8L0.1,9.2L0.1,9.8c0,0.2,0,0.4,0,0.6l0,1.2c0,0.4,0,0.8,0,1.2l0,1.2c0,0.4,0.1,0.8,0.1,1.2
		c0,0.4,0.1,0.8,0.2,1.2c0.1,0.4,0.2,0.8,0.3,1.2L1,18.7c0.1,0.4,0.3,0.8,0.5,1.1c0.1,0.2,0.2,0.4,0.3,0.5l0.3,0.5
		c0.5,0.7,1.1,1.3,1.8,1.8c0.7,0.5,1.6,0.8,2.4,0.9c0.2,0,0.4,0,0.7,0l0,0c0,0,0,0,0,0c0,0,0,0,0,0l0.1,0l0.3,0l1.2,0
		c0.8,0,1.5,0,2.3,0c1.5,0,3.1,0,4.6,0c12.2,0.1,24,0.1,34.6,0.2c2.6,0,5.2,0,7.7,0c0.6,0,1.2,0,1.9-0.1c0.3,0,0.6,0,0.9-0.1
		c0.3,0,0.6-0.1,0.9-0.1c0.3,0,0.6-0.1,0.9-0.1c0.3-0.1,0.6-0.1,0.9-0.2c0.3-0.1,0.6-0.1,0.9-0.2c0.3,0,0.6-0.1,0.9-0.2
		c0.3-0.1,0.6-0.2,0.8-0.2c0.3-0.1,0.5-0.2,0.8-0.3l0.4-0.2c0.1,0,0.3-0.1,0.4-0.2c0.3-0.1,0.5-0.3,0.8-0.4c1-0.6,1.8-1.2,2.6-1.9
		c0.2-0.2,0.4-0.3,0.6-0.5c0.2-0.2,0.4-0.3,0.6-0.4c0.2-0.1,0.4-0.3,0.6-0.4c0.2-0.1,0.4-0.2,0.6-0.3c0.2-0.1,0.4-0.2,0.6-0.3
		c0.2-0.1,0.4-0.2,0.6-0.2c0.4-0.1,0.9-0.2,1.3-0.3c0.2-0.1,0.4-0.1,0.6-0.1c0.2,0,0.4-0.1,0.6-0.1c0.2,0,0.4-0.1,0.6-0.1
		c0.2,0,0.4,0,0.6,0c0.8,0,1.6-0.1,2.4-0.1c1.5,0,2.9,0,4.1,0c2.5,0,4.3-0.1,5.4-0.1c1.4,0,1.8-0.2,1.6-0.3
		C91.5,15.8,91,14.2,90.9,12.1z M5.4,13.1c0,0.5,0.1,1,0.1,1.4c0.1,0.9,0.3,1.8,0.5,2.5c0.2,0.7,0.5,1.4,0.7,1.8
		c0.2,0.5,0.5,0.7,0.5,0.9c0.1,0.1,0,0.4-0.3,0.3c-0.2-0.1-0.5-0.3-0.9-0.8c-0.4-0.5-0.7-1.1-1-1.9c-0.3-0.8-0.5-1.7-0.6-2.7
		c-0.1-0.5-0.1-1-0.1-1.5c0-0.5,0-1,0-1.5c0-2,0.3-4.1,0.9-5.5C5.3,5.4,5.7,4.8,6,4.5c0.3-0.4,0.5-0.5,0.5-0.5
		c0.3-0.2,0.6-0.2,0.6-0.1C7.3,4,7.2,4.2,7,4.4c0,0-0.2,0.2-0.4,0.5C6.3,5.2,6.1,5.7,5.9,6.4c-0.4,1.3-0.6,3.3-0.6,5.2
		C5.3,12.1,5.4,12.6,5.4,13.1z M48.5,20.9c-1.6,0.2-10.7,0.2-19.5,0c-4.4-0.1-8.7-0.2-12-0.3c-3.2-0.1-5.4-0.2-5.5-0.2
		c-1.6-0.1-1.5-0.6,0-0.6c0.1,0,2.3,0,5.5,0c3.2,0,7.6,0,12,0.1c8.8,0.1,18,0.4,19.5,0.6C48.9,20.6,49,20.8,48.5,20.9z M69.9,7.3
		c-0.3-0.1-0.7-0.4-1.3-0.7c-0.6-0.3-1.3-0.7-2.1-1.1c-0.9-0.3-1.9-0.7-3.1-0.9c-1.2-0.2-2.5-0.4-3.9-0.6c-1.4-0.1-2.9-0.2-4.4-0.2
		c-1.6,0-3.2,0-4.9,0c-3.4,0-6.9,0-10.4,0.1c-7,0-13.8,0-18.9,0c-5.1,0-8.5,0-8.7,0c-2.5,0-2.5-0.6,0-0.6c0.1,0,3.6-0.1,8.7-0.1
		C26,3,32.8,2.9,39.8,2.9c3.5,0,7,0,10.4-0.1c1.7,0,3.3,0,4.9,0c1.6,0,3.1,0.1,4.5,0.3c1.4,0.1,2.8,0.4,4,0.7
		c1.2,0.3,2.3,0.7,3.2,1.1c0.9,0.4,1.6,0.8,2.2,1.2c0.5,0.4,0.9,0.7,1.2,0.8C70.5,7.2,70.6,7.5,69.9,7.3z M77.8,16
		c-0.1,0.1-0.2,0.1-0.4-0.1c0,0-0.1-0.1-0.2-0.3c-0.1-0.2-0.2-0.5-0.4-0.9c-0.3-0.7-0.4-1.7-0.5-2.7c0-1,0.1-2.1,0.3-2.9
		c0.3-0.8,0.7-1.3,0.9-1.4c0.1-0.1,0.3,0.1,0.2,0.2c0,0.2-0.3,0.7-0.4,1.4c-0.2,0.7-0.3,1.7-0.2,2.7c0,1,0.1,1.9,0.3,2.6
		c0.1,0.3,0.2,0.6,0.3,0.8c0.1,0.2,0.1,0.3,0.1,0.3C78,15.8,77.9,16,77.8,16z"/>
	<path class="st0" d="M94.9,12c0-2.7,0.8-4.5,1.1-5.2c0.1-0.1,0-0.3-0.2-0.3h-1.4c0,0-2.5-0.2-2.5,5.4c0,5.8,2.4,5.4,2.4,5.4l1.4,0
		c0.2,0,0.2-0.2,0.2-0.3C95.7,16.5,94.9,14.8,94.9,12z"/>
	<path class="st0" d="M98,6.8c0,0-0.6-0.2-1,0.3c-0.6,0.7-1,2.2-1,4.9c0,2.5,0.6,5.3,1.8,5.3c0.5,0,1.4-1.3,1.4-5.3S98.4,6.8,98,6.8
		z"/>
</g>
<g>
	<path class="st0" d="M90.9,40c0-2.3,0.6-4.1,1-5.1c0-0.2-2-0.4-6.1-0.4c-0.1,0-0.8,0-2,0c-0.6,0-1.3,0-2.2,0c-0.8,0-1.8,0-2.9-0.1
		c-0.3,0-0.5,0-0.8,0c-0.3,0-0.6-0.1-0.8-0.1c-0.3,0-0.6-0.1-0.9-0.1c-0.3,0-0.6-0.1-0.9-0.2c-0.2,0-0.3-0.1-0.5-0.1l-0.2-0.1
		l-0.2-0.1c-0.3-0.1-0.6-0.2-0.9-0.3c-0.3-0.1-0.6-0.3-0.9-0.4c-0.3-0.2-0.6-0.4-0.9-0.6c-0.3-0.2-0.6-0.4-0.9-0.7
		c-0.3-0.2-0.6-0.5-0.9-0.7c-0.2-0.1-0.3-0.2-0.5-0.4c-0.2-0.1-0.3-0.2-0.5-0.3c-0.2-0.1-0.4-0.2-0.5-0.3c-0.2-0.1-0.4-0.2-0.6-0.3
		c-1.6-0.8-3.3-1.2-5.2-1.5c-0.5-0.1-0.9-0.1-1.4-0.1c-0.2,0-0.5,0-0.7-0.1l-0.4,0l-0.4,0c-1,0-2-0.1-3-0.1c-2,0-4.1,0-6.2,0
		c-4.3,0-8.8,0-13.5,0.1c-4.7,0-9.6,0-14.6,0.1c-2.5,0-5.1,0-7.6,0c-1.3,0-2.6,0-3.9,0c-0.6,0-1.3,0-2,0l-1,0l-0.5,0l-0.2,0l-0.1,0
		l-0.1,0l0,0c0-0.1,0,0.3,0-0.3l0,0.2c0,0.1,0,0.1,0,0.1l0,0c-0.5,0-0.9,0-1.3,0.1c-0.2,0-0.4,0.1-0.6,0.2c-0.2,0.1-0.4,0.1-0.6,0.2
		c-0.2,0.1-0.4,0.2-0.6,0.3l-0.5,0.4c-0.2,0.1-0.3,0.3-0.5,0.4C3,29.8,2.9,29.9,2.8,30l-0.2,0.2c-1.1,1.3-1.7,2.9-2.1,4.4l-0.2,1.2
		L0.1,37l-0.1,0.6c0,0.2,0,0.4,0,0.6l0,1.2c0,0.4,0,0.8,0,1.2l0,1.2c0,0.4,0.1,0.8,0.1,1.2c0,0.4,0.1,0.8,0.2,1.2
		c0.1,0.4,0.2,0.8,0.3,1.2L1,46.6c0.1,0.4,0.3,0.8,0.5,1.1c0.1,0.2,0.2,0.4,0.3,0.5l0.3,0.5c0.5,0.7,1.1,1.3,1.8,1.8
		c0.7,0.5,1.6,0.8,2.4,0.9c0.2,0,0.4,0,0.7,0l0,0c0,0,0,0,0,0c0,0,0,0,0,0l0.1,0l0.3,0l1.2,0c0.8,0,1.5,0,2.3,0c1.5,0,3.1,0,4.6,0
		c12.2,0.1,24,0.1,34.6,0.2c2.6,0,5.2,0,7.7,0c0.6,0,1.2,0,1.9-0.1c0.3,0,0.6,0,0.9-0.1c0.3,0,0.6-0.1,0.9-0.1
		c0.3,0,0.6-0.1,0.9-0.1c0.3-0.1,0.6-0.1,0.9-0.2c0.3-0.1,0.6-0.1,0.9-0.2c0.3,0,0.6-0.1,0.9-0.2c0.3-0.1,0.6-0.2,0.8-0.2
		c0.3-0.1,0.5-0.2,0.8-0.3l0.4-0.2c0.1,0,0.3-0.1,0.4-0.2c0.3-0.1,0.5-0.3,0.8-0.4c1-0.6,1.8-1.2,2.6-1.9c0.2-0.2,0.4-0.3,0.6-0.5
		c0.2-0.2,0.4-0.3,0.6-0.4c0.2-0.1,0.4-0.3,0.6-0.4c0.2-0.1,0.4-0.2,0.6-0.3c0.2-0.1,0.4-0.2,0.6-0.3c0.2-0.1,0.4-0.2,0.6-0.2
		c0.4-0.1,0.9-0.2,1.3-0.3c0.2-0.1,0.4-0.1,0.6-0.1c0.2,0,0.4-0.1,0.6-0.1c0.2,0,0.4-0.1,0.6-0.1c0.2,0,0.4,0,0.6,0
		c0.8,0,1.6-0.1,2.4-0.1c1.5,0,2.9,0,4.1,0c2.5,0,4.3-0.1,5.4-0.1c1.4,0,1.8-0.2,1.6-0.3C91.5,43.7,91,42,90.9,40z M5.4,41
		c0,0.5,0.1,1,0.1,1.4c0.1,0.9,0.3,1.8,0.5,2.5c0.2,0.7,0.5,1.4,0.7,1.8c0.2,0.5,0.5,0.7,0.5,0.9c0.1,0.1,0,0.4-0.3,0.3
		c-0.2-0.1-0.5-0.3-0.9-0.8c-0.4-0.5-0.7-1.1-1-1.9c-0.3-0.8-0.5-1.7-0.6-2.7c-0.1-0.5-0.1-1-0.1-1.5c0-0.5,0-1,0-1.5
		c0-2,0.3-4.1,0.9-5.5c0.3-0.7,0.6-1.3,0.9-1.7c0.3-0.4,0.5-0.5,0.5-0.5c0.3-0.2,0.6-0.2,0.6-0.1c0.1,0.1,0,0.4-0.2,0.6
		c0,0-0.2,0.2-0.4,0.5c-0.2,0.3-0.5,0.8-0.7,1.5c-0.4,1.3-0.6,3.3-0.6,5.2C5.3,40,5.4,40.5,5.4,41z M48.5,48.7
		C47,49,37.8,48.9,29,48.7c-4.4-0.1-8.7-0.2-12-0.3c-3.2-0.1-5.4-0.2-5.5-0.2c-1.6-0.1-1.5-0.6,0-0.6c0.1,0,2.3,0,5.5,0
		c3.2,0,7.6,0,12,0.1c8.8,0.1,18,0.4,19.5,0.6C48.9,48.4,49,48.7,48.5,48.7z M69.9,35.1c-0.3-0.1-0.7-0.4-1.3-0.7
		c-0.6-0.3-1.3-0.7-2.1-1.1c-0.9-0.3-1.9-0.7-3.1-0.9c-1.2-0.2-2.5-0.4-3.9-0.6c-1.4-0.1-2.9-0.2-4.4-0.2c-1.6,0-3.2,0-4.9,0
		c-3.4,0-6.9,0-10.4,0.1c-7,0-13.8,0-18.9,0c-5.1,0-8.5,0-8.7,0c-2.5,0-2.5-0.6,0-0.6c0.1,0,3.6-0.1,8.7-0.1
		c5.1-0.1,12-0.2,18.9-0.2c3.5,0,7,0,10.4-0.1c1.7,0,3.3,0,4.9,0c1.6,0,3.1,0.1,4.5,0.3c1.4,0.1,2.8,0.4,4,0.7
		c1.2,0.3,2.3,0.7,3.2,1.1c0.9,0.4,1.6,0.8,2.2,1.2c0.5,0.4,0.9,0.7,1.2,0.8C70.5,35.1,70.6,35.4,69.9,35.1z M77.8,43.9
		c-0.1,0.1-0.2,0.1-0.4-0.1c0,0-0.1-0.1-0.2-0.3c-0.1-0.2-0.2-0.5-0.4-0.9c-0.3-0.7-0.4-1.7-0.5-2.7c0-1,0.1-2.1,0.3-2.9
		c0.3-0.8,0.7-1.3,0.9-1.4c0.1-0.1,0.3,0.1,0.2,0.2c0,0.2-0.3,0.7-0.4,1.4c-0.2,0.7-0.3,1.7-0.2,2.7c0,1,0.1,1.9,0.3,2.6
		c0.1,0.3,0.2,0.6,0.3,0.8c0.1,0.2,0.1,0.3,0.1,0.3C78,43.7,77.9,43.8,77.8,43.9z"/>
	<path class="st0" d="M94.9,39.8c0-2.7,0.8-4.5,1.1-5.2c0.1-0.1,0-0.3-0.2-0.3h-1.4c0,0-2.5-0.2-2.5,5.4c0,5.8,2.4,5.4,2.4,5.4
		l1.4,0c0.2,0,0.2-0.2,0.2-0.3C95.7,44.3,94.9,42.6,94.9,39.8z"/>
	<path class="st0" d="M98,34.6c0,0-0.6-0.2-1,0.3c-0.6,0.7-1,2.2-1,4.9c0,2.5,0.6,5.3,1.8,5.3c0.5,0,1.4-1.3,1.4-5.3
		C99.2,35.8,98.4,34.6,98,34.6z"/>
</g>
<g>
	<path class="st0" d="M90.9,67.8c0-2.3,0.6-4.1,1-5.1c0-0.2-2-0.4-6.1-0.4c-0.1,0-0.8,0-2,0c-0.6,0-1.3,0-2.2,0
		c-0.8,0-1.8,0-2.9-0.1c-0.3,0-0.5,0-0.8,0c-0.3,0-0.6-0.1-0.8-0.1c-0.3,0-0.6-0.1-0.9-0.1c-0.3,0-0.6-0.1-0.9-0.2
		c-0.2,0-0.3-0.1-0.5-0.1l-0.2-0.1l-0.2-0.1c-0.3-0.1-0.6-0.2-0.9-0.3c-0.3-0.1-0.6-0.3-0.9-0.4c-0.3-0.2-0.6-0.4-0.9-0.6
		c-0.3-0.2-0.6-0.4-0.9-0.7c-0.3-0.2-0.6-0.5-0.9-0.7c-0.2-0.1-0.3-0.2-0.5-0.4c-0.2-0.1-0.3-0.2-0.5-0.3c-0.2-0.1-0.4-0.2-0.5-0.3
		c-0.2-0.1-0.4-0.2-0.6-0.3c-1.6-0.8-3.3-1.2-5.2-1.5c-0.5-0.1-0.9-0.1-1.4-0.1c-0.2,0-0.5,0-0.7-0.1l-0.4,0l-0.4,0
		c-1,0-2-0.1-3-0.1c-2,0-4.1,0-6.2,0c-4.3,0-8.8,0-13.5,0.1c-4.7,0-9.6,0-14.6,0.1c-2.5,0-5.1,0-7.6,0c-1.3,0-2.6,0-3.9,0
		c-0.6,0-1.3,0-2,0l-1,0l-0.5,0l-0.2,0l-0.1,0l-0.1,0l0,0c0-0.1,0,0.3,0-0.3l0,0.2c0,0.1,0,0.1,0,0.1l0,0c-0.5,0-0.9,0-1.3,0.1
		c-0.2,0-0.4,0.1-0.6,0.2c-0.2,0.1-0.4,0.1-0.6,0.2c-0.2,0.1-0.4,0.2-0.6,0.3l-0.5,0.4c-0.2,0.1-0.3,0.3-0.5,0.4
		c-0.1,0.1-0.2,0.1-0.2,0.2l-0.2,0.2c-1.1,1.3-1.7,2.9-2.1,4.4l-0.2,1.2l-0.1,1.2l-0.1,0.6c0,0.2,0,0.4,0,0.6l0,1.2
		c0,0.4,0,0.8,0,1.2l0,1.2c0,0.4,0.1,0.8,0.1,1.2c0,0.4,0.1,0.8,0.2,1.2c0.1,0.4,0.2,0.8,0.3,1.2L1,74.4c0.1,0.4,0.3,0.8,0.5,1.1
		c0.1,0.2,0.2,0.4,0.3,0.5l0.3,0.5C2.6,77.3,3.2,78,4,78.4c0.7,0.5,1.6,0.8,2.4,0.9c0.2,0,0.4,0,0.7,0l0,0c0,0,0,0,0,0c0,0,0,0,0,0
		l0.1,0l0.3,0l1.2,0c0.8,0,1.5,0,2.3,0c1.5,0,3.1,0,4.6,0c12.2,0.1,24,0.1,34.6,0.2c2.6,0,5.2,0,7.7,0c0.6,0,1.2,0,1.9-0.1
		c0.3,0,0.6,0,0.9-0.1c0.3,0,0.6-0.1,0.9-0.1c0.3,0,0.6-0.1,0.9-0.1c0.3-0.1,0.6-0.1,0.9-0.2c0.3-0.1,0.6-0.1,0.9-0.2
		c0.3,0,0.6-0.1,0.9-0.2c0.3-0.1,0.6-0.2,0.8-0.2c0.3-0.1,0.5-0.2,0.8-0.3l0.4-0.2c0.1,0,0.3-0.1,0.4-0.2c0.3-0.1,0.5-0.3,0.8-0.4
		c1-0.6,1.8-1.2,2.6-1.9c0.2-0.2,0.4-0.3,0.6-0.5c0.2-0.2,0.4-0.3,0.6-0.4c0.2-0.1,0.4-0.3,0.6-0.4c0.2-0.1,0.4-0.2,0.6-0.3
		c0.2-0.1,0.4-0.2,0.6-0.3c0.2-0.1,0.4-0.2,0.6-0.2c0.4-0.1,0.9-0.2,1.3-0.3c0.2-0.1,0.4-0.1,0.6-0.1c0.2,0,0.4-0.1,0.6-0.1
		c0.2,0,0.4-0.1,0.6-0.1c0.2,0,0.4,0,0.6,0c0.8,0,1.6-0.1,2.4-0.1c1.5,0,2.9,0,4.1,0c2.5,0,4.3-0.1,5.4-0.1c1.4,0,1.8-0.2,1.6-0.3
		C91.5,71.5,91,69.9,90.9,67.8z M5.4,68.8c0,0.5,0.1,1,0.1,1.4C5.6,71.2,5.7,72,6,72.8c0.2,0.7,0.5,1.4,0.7,1.8
		c0.2,0.5,0.5,0.7,0.5,0.9c0.1,0.1,0,0.4-0.3,0.3C6.7,75.8,6.4,75.5,6,75c-0.4-0.5-0.7-1.1-1-1.9c-0.3-0.8-0.5-1.7-0.6-2.7
		c-0.1-0.5-0.1-1-0.1-1.5c0-0.5,0-1,0-1.5c0-2,0.3-4.1,0.9-5.5c0.3-0.7,0.6-1.3,0.9-1.7c0.3-0.4,0.5-0.5,0.5-0.5
		c0.3-0.2,0.6-0.2,0.6-0.1c0.1,0.1,0,0.4-0.2,0.6c0,0-0.2,0.2-0.4,0.5c-0.2,0.3-0.5,0.8-0.7,1.5c-0.4,1.3-0.6,3.3-0.6,5.2
		C5.3,67.8,5.4,68.3,5.4,68.8z M48.5,76.6c-1.6,0.2-10.7,0.2-19.5,0c-4.4-0.1-8.7-0.2-12-0.3c-3.2-0.1-5.4-0.2-5.5-0.2
		c-1.6-0.1-1.5-0.6,0-0.6c0.1,0,2.3,0,5.5,0c3.2,0,7.6,0,12,0.1c8.8,0.1,18,0.4,19.5,0.6C48.9,76.3,49,76.5,48.5,76.6z M69.9,63
		c-0.3-0.1-0.7-0.4-1.3-0.7c-0.6-0.3-1.3-0.7-2.1-1.1c-0.9-0.3-1.9-0.7-3.1-0.9c-1.2-0.2-2.5-0.4-3.9-0.6c-1.4-0.1-2.9-0.2-4.4-0.2
		c-1.6,0-3.2,0-4.9,0c-3.4,0-6.9,0-10.4,0.1c-7,0-13.8,0-18.9,0c-5.1,0-8.5,0-8.7,0c-2.5,0-2.5-0.6,0-0.6c0.1,0,3.6-0.1,8.7-0.1
		c5.1-0.1,12-0.2,18.9-0.2c3.5,0,7,0,10.4-0.1c1.7,0,3.3,0,4.9,0c1.6,0,3.1,0.1,4.5,0.3c1.4,0.1,2.8,0.4,4,0.7
		c1.2,0.3,2.3,0.7,3.2,1.1c0.9,0.4,1.6,0.8,2.2,1.2c0.5,0.4,0.9,0.7,1.2,0.8C70.5,62.9,70.6,63.2,69.9,63z M77.8,71.7
		c-0.1,0.1-0.2,0.1-0.4-0.1c0,0-0.1-0.1-0.2-0.3c-0.1-0.2-0.2-0.5-0.4-0.9c-0.3-0.7-0.4-1.7-0.5-2.7c0-1,0.1-2.1,0.3-2.9
		c0.3-0.8,0.7-1.3,0.9-1.4c0.1-0.1,0.3,0.1,0.2,0.2c0,0.2-0.3,0.7-0.4,1.4c-0.2,0.7-0.3,1.7-0.2,2.7c0,1,0.1,1.9,0.3,2.6
		c0.1,0.3,0.2,0.6,0.3,0.8c0.1,0.2,0.1,0.3,0.1,0.3C78,71.5,77.9,71.7,77.8,71.7z"/>
	<path class="st0" d="M94.9,67.7c0-2.7,0.8-4.5,1.1-5.2c0.1-0.1,0-0.3-0.2-0.3h-1.4c0,0-2.5-0.2-2.5,5.4c0,5.8,2.4,5.4,2.4,5.4
		l1.4,0c0.2,0,0.2-0.2,0.2-0.3C95.7,72.2,94.9,70.5,94.9,67.7z"/>
	<path class="st0" d="M98,62.5c0,0-0.6-0.2-1,0.3c-0.6,0.7-1,2.2-1,4.9c0,2.5,0.6,5.3,1.8,5.3c0.5,0,1.4-1.3,1.4-5.3
		C99.2,63.7,98.4,62.5,98,62.5z"/>
</g>
</svg>
