<?xml version="1.0" encoding="utf-8"?>
<!-- Generator: Adobe Illustrator 25.4.1, SVG Export Plug-In . SVG Version: 6.00 Build 0)  -->
<svg version="1.1" id="XMLID_1_" xmlns="http://www.w3.org/2000/svg" xmlns:xlink="http://www.w3.org/1999/xlink" x="0px" y="0px"
	 viewBox="0 0 66.3 82.7" style="enable-background:new 0 0 66.3 82.7;" xml:space="preserve">
<g>
	<g>
		<path d="M19.9,34.4c0-0.5,0-1,0-1.5c0-0.3,0-0.5-0.1-0.8c0-0.3,0-0.5-0.1-0.8c0-0.2,0-0.5-0.1-0.7c0-0.2-0.1-0.5-0.1-0.7
			c0-0.2-0.1-0.5-0.1-0.7c0-0.2-0.1-0.5-0.2-0.7c-0.1-0.2-0.1-0.5-0.2-0.7c-0.1-0.2-0.2-0.5-0.3-0.7l-0.1-0.3c0-0.1-0.1-0.2-0.1-0.3
			c-0.1-0.2-0.2-0.4-0.3-0.6c-0.5-0.8-1-1.5-1.6-2.2c-0.1-0.2-0.3-0.3-0.4-0.5c-0.1-0.2-0.2-0.3-0.3-0.5c-0.1-0.2-0.2-0.3-0.3-0.5
			c-0.1-0.2-0.2-0.3-0.3-0.5c-0.1-0.2-0.2-0.3-0.2-0.5c-0.1-0.2-0.1-0.4-0.2-0.5c-0.1-0.4-0.2-0.7-0.3-1.1c0-0.2-0.1-0.4-0.1-0.5
			c0-0.2,0-0.4-0.1-0.5c0-0.2,0-0.3-0.1-0.5c0-0.2,0-0.3,0-0.5c0-0.7-0.1-1.3-0.1-2c0-1.3,0-2.4,0-3.4c0-2-0.1-3.6-0.1-4.5
			c0-1.2-0.1-1.5-0.2-1.3c-0.8,0.3-2.2,0.8-3.9,0.8c-1.9,0-3.4-0.5-4.2-0.8c-0.2,0-0.3,1.7-0.3,5.1c0,0.1,0,0.7,0,1.7
			c0,0.5,0,1.1,0,1.8c0,0.7,0,1.5,0,2.4c0,0.2,0,0.4,0,0.7c0,0.2-0.1,0.5-0.1,0.7c0,0.2-0.1,0.5-0.1,0.7c0,0.3-0.1,0.5-0.2,0.7
			c0,0.1-0.1,0.3-0.1,0.4l0,0.2l-0.1,0.2c-0.1,0.3-0.2,0.5-0.3,0.8c-0.1,0.2-0.2,0.5-0.4,0.8c-0.1,0.2-0.3,0.5-0.5,0.7
			c-0.2,0.2-0.4,0.5-0.6,0.7c-0.2,0.3-0.4,0.5-0.6,0.8c-0.1,0.1-0.2,0.3-0.3,0.4c-0.1,0.1-0.2,0.3-0.3,0.4c-0.1,0.1-0.2,0.3-0.3,0.4
			c-0.1,0.2-0.2,0.3-0.3,0.5c-0.7,1.3-1,2.8-1.3,4.3c-0.1,0.4-0.1,0.8-0.1,1.2c0,0.2,0,0.4-0.1,0.6l0,0.3l0,0.3
			C0,33.6,0,34.5,0,35.3c0,1.7,0,3.4,0,5.1c0,3.5,0,7.3,0.1,11.2c0,3.9,0,8,0.1,12.2c0,2.1,0,4.2,0,6.4c0,1.1,0,2.1,0,3.2
			c0,0.5,0,1.1,0,1.6l0,0.8l0,0.4l0,0.2l0,0.1l0,0.1l0,0c-0.1,0,0.2,0-0.2,0l0.2,0c0.1,0,0,0,0.1,0l0,0c0,0.4,0,0.7,0.1,1.1
			c0,0.2,0.1,0.4,0.1,0.5c0.1,0.2,0.1,0.3,0.2,0.5c0.1,0.2,0.2,0.3,0.3,0.5l0.3,0.4c0.1,0.1,0.2,0.3,0.4,0.4
			c0.1,0.1,0.1,0.1,0.2,0.2L2,80.5c1.1,0.9,2.4,1.4,3.7,1.7l1,0.2l1,0.1l0.5,0.1c0.2,0,0.3,0,0.5,0l1,0c0.3,0,0.7,0,1,0l1,0
			c0.3,0,0.7-0.1,1-0.1c0.3,0,0.7-0.1,1-0.1c0.3-0.1,0.7-0.1,1-0.2l1-0.3c0.3-0.1,0.6-0.3,0.9-0.4c0.2-0.1,0.3-0.2,0.5-0.3l0.4-0.3
			c0.6-0.4,1.1-0.9,1.5-1.5c0.4-0.6,0.7-1.3,0.8-2c0-0.2,0-0.4,0-0.6l0,0c0,0,0,0,0,0c0,0,0,0,0,0l0-0.1l0-0.2l0-1
			c0-0.6,0-1.3,0-1.9c0-1.3,0-2.6,0-3.8c0.1-10.2,0.1-20,0.2-28.8C19.9,38.6,19.9,36.5,19.9,34.4z M6.6,17.8c0.1,0,0.6,0.2,1.2,0.4
			c0.6,0.1,1.4,0.2,2.2,0.2c0.8,0,1.6-0.1,2.1-0.2c0.3-0.1,0.5-0.1,0.7-0.2c0.2-0.1,0.2-0.1,0.2-0.1c0.1-0.1,0.2,0,0.3,0.1
			c0.1,0.1,0.1,0.2-0.1,0.3c0,0-0.1,0.1-0.3,0.2c-0.2,0.1-0.4,0.2-0.7,0.3C11.7,18.8,10.9,19,10,19c-0.8,0-1.7-0.1-2.4-0.3
			C7,18.5,6.5,18.1,6.4,18C6.4,17.9,6.5,17.8,6.6,17.8z M2.7,72.5c0-0.1,0-3-0.1-7.2c-0.1-4.3-0.1-10-0.2-15.8c0-2.9,0-5.8-0.1-8.6
			c0-1.4,0-2.8,0-4.1c0-1.3,0.1-2.6,0.2-3.8c0.1-1.2,0.3-2.3,0.5-3.3c0.2-1,0.6-1.9,0.9-2.6c0.3-0.7,0.7-1.3,1-1.8
			c0.3-0.4,0.5-0.8,0.7-1C6,23.9,6.3,23.8,6,24.5c-0.1,0.2-0.3,0.6-0.6,1.1c-0.3,0.5-0.6,1.1-0.9,1.8c-0.3,0.7-0.6,1.6-0.8,2.6
			c-0.2,1-0.4,2.1-0.5,3.2c-0.1,1.2-0.1,2.4-0.2,3.7c0,1.3,0,2.7,0,4.1c0,2.8,0,5.7,0,8.6c0,5.8,0,11.5,0,15.8c0,4.3,0,7.1,0,7.2
			C3.2,74.6,2.7,74.6,2.7,72.5z M16.8,76.9c-0.1,0.2-0.3,0.5-0.7,0.8c-0.4,0.3-0.9,0.6-1.6,0.9c-0.7,0.2-1.4,0.4-2.3,0.5
			c-0.4,0.1-0.8,0.1-1.3,0.1c-0.4,0-0.9,0-1.3,0c-1.7,0-3.4-0.2-4.6-0.7c-0.6-0.2-1.1-0.5-1.4-0.8c-0.3-0.3-0.4-0.4-0.5-0.5
			c-0.2-0.2-0.2-0.5-0.1-0.5c0.1-0.1,0.3,0,0.5,0.2c0,0,0.1,0.2,0.4,0.3c0.3,0.2,0.7,0.4,1.2,0.6c1.1,0.3,2.7,0.5,4.4,0.5
			c0.4,0,0.8,0,1.2,0c0.4,0,0.8,0,1.2-0.1c0.8-0.1,1.5-0.2,2.1-0.4c0.6-0.2,1.1-0.4,1.5-0.6c0.4-0.2,0.6-0.4,0.7-0.4
			C16.6,76.6,16.9,76.7,16.8,76.9z M17.4,58.5c-0.1,3.7-0.2,7.3-0.3,10C17,71.2,17,73,17,73.1c-0.1,1.3-0.5,1.3-0.5,0
			c0-0.1,0-1.9,0-4.6c0-2.7,0-6.3,0.1-10c0.1-7.3,0.3-15,0.5-16.3c0.1-0.3,0.3-0.4,0.3,0C17.6,43.6,17.5,51.2,17.4,58.5z"/>
		<path d="M9.9,6.1c4.8,0,4.5-2,4.5-2l0-1.2c0-0.1-0.1-0.2-0.2-0.1C13.7,3,12.3,3.6,10,3.6C7.7,3.6,6.2,3,5.7,2.7
			c-0.1-0.1-0.2,0-0.2,0.1V4C5.4,4,5.2,6.1,9.9,6.1z"/>
		<path d="M9.9,2.7c2.1,0,4.4-0.5,4.4-1.5c0-0.4-1.1-1.2-4.4-1.2S5.6,0.7,5.6,1.1c0,0-0.1,0.5,0.3,0.8C6.5,2.4,7.7,2.7,9.9,2.7z"/>
	</g>
	<g>
		<path d="M43.1,34.4c0-0.5,0-1,0-1.5c0-0.3,0-0.5-0.1-0.8c0-0.3,0-0.5-0.1-0.8c0-0.2,0-0.5-0.1-0.7c0-0.2-0.1-0.5-0.1-0.7
			c0-0.2-0.1-0.5-0.1-0.7c0-0.2-0.1-0.5-0.2-0.7c-0.1-0.2-0.1-0.5-0.2-0.7c-0.1-0.2-0.2-0.5-0.3-0.7l-0.1-0.3c0-0.1-0.1-0.2-0.1-0.3
			c-0.1-0.2-0.2-0.4-0.3-0.6c-0.5-0.8-1-1.5-1.6-2.2c-0.1-0.2-0.3-0.3-0.4-0.5c-0.1-0.2-0.2-0.3-0.3-0.5c-0.1-0.2-0.2-0.3-0.3-0.5
			c-0.1-0.2-0.2-0.3-0.3-0.5c-0.1-0.2-0.2-0.3-0.2-0.5c-0.1-0.2-0.1-0.4-0.2-0.5c-0.1-0.4-0.2-0.7-0.3-1.1c0-0.2-0.1-0.4-0.1-0.5
			c0-0.2,0-0.4-0.1-0.5c0-0.2,0-0.3-0.1-0.5c0-0.2,0-0.3,0-0.5c0-0.7-0.1-1.3-0.1-2c0-1.3,0-2.4,0-3.4c0-2-0.1-3.6-0.1-4.5
			c0-1.2-0.1-1.5-0.2-1.3c-0.8,0.3-2.2,0.8-3.9,0.8c-1.9,0-3.4-0.5-4.2-0.8c-0.2,0-0.3,1.7-0.3,5.1c0,0.1,0,0.7,0,1.7
			c0,0.5,0,1.1,0,1.8c0,0.7,0,1.5,0,2.4c0,0.2,0,0.4,0,0.7c0,0.2-0.1,0.5-0.1,0.7c0,0.2-0.1,0.5-0.1,0.7c0,0.3-0.1,0.5-0.2,0.7
			c0,0.1-0.1,0.3-0.1,0.4l0,0.2l-0.1,0.2c-0.1,0.3-0.2,0.5-0.3,0.8c-0.1,0.2-0.2,0.5-0.4,0.8c-0.1,0.2-0.3,0.5-0.5,0.7
			c-0.2,0.2-0.4,0.5-0.6,0.7c-0.2,0.3-0.4,0.5-0.6,0.8c-0.1,0.1-0.2,0.3-0.3,0.4c-0.1,0.1-0.2,0.3-0.3,0.4c-0.1,0.1-0.2,0.3-0.3,0.4
			c-0.1,0.2-0.2,0.3-0.3,0.5c-0.7,1.3-1,2.8-1.3,4.3c-0.1,0.4-0.1,0.8-0.1,1.2c0,0.2,0,0.4-0.1,0.6l0,0.3l0,0.3
			c0,0.8-0.1,1.6-0.1,2.5c0,1.7,0,3.4,0,5.1c0,3.5,0,7.3,0.1,11.2c0,3.9,0,8,0.1,12.2c0,2.1,0,4.2,0,6.4c0,1.1,0,2.1,0,3.2
			c0,0.5,0,1.1,0,1.6l0,0.8l0,0.4l0,0.2l0,0.1l0,0.1v0c-0.1,0,0.2,0-0.2,0l0.2,0c0.1,0,0,0,0.1,0l0,0c0,0.4,0,0.7,0.1,1.1
			c0,0.2,0.1,0.4,0.1,0.5c0.1,0.2,0.1,0.3,0.2,0.5c0.1,0.2,0.2,0.3,0.3,0.5l0.3,0.4c0.1,0.1,0.2,0.3,0.4,0.4
			c0.1,0.1,0.1,0.1,0.2,0.2l0.2,0.2c1.1,0.9,2.4,1.4,3.7,1.7l1,0.2l1,0.1l0.5,0.1c0.2,0,0.3,0,0.5,0l1,0c0.3,0,0.7,0,1,0l1,0
			c0.3,0,0.7-0.1,1-0.1c0.3,0,0.7-0.1,1-0.1c0.3-0.1,0.7-0.1,1-0.2l1-0.3c0.3-0.1,0.6-0.3,0.9-0.4c0.2-0.1,0.3-0.2,0.5-0.3l0.4-0.3
			c0.6-0.4,1.1-0.9,1.5-1.5c0.4-0.6,0.7-1.3,0.8-2c0-0.2,0-0.4,0-0.6l0,0c0,0,0,0,0,0c0,0,0,0,0,0l0-0.1l0-0.2l0-1
			c0-0.6,0-1.3,0-1.9c0-1.3,0-2.6,0-3.8c0.1-10.2,0.1-20,0.2-28.8C43.1,38.6,43.1,36.5,43.1,34.4z M29.8,17.8c0.1,0,0.6,0.2,1.2,0.4
			c0.6,0.1,1.4,0.2,2.2,0.2c0.8,0,1.6-0.1,2.1-0.2c0.3-0.1,0.5-0.1,0.7-0.2c0.2-0.1,0.2-0.1,0.2-0.1c0.1-0.1,0.2,0,0.3,0.1
			c0.1,0.1,0.1,0.2-0.1,0.3c0,0-0.1,0.1-0.3,0.2c-0.2,0.1-0.4,0.2-0.7,0.3c-0.6,0.2-1.4,0.4-2.3,0.4c-0.8,0-1.7-0.1-2.4-0.3
			c-0.7-0.2-1.1-0.6-1.2-0.7C29.6,17.9,29.7,17.8,29.8,17.8z M25.9,72.5c0-0.1,0-3-0.1-7.2c-0.1-4.3-0.1-10-0.2-15.8
			c0-2.9,0-5.8-0.1-8.6c0-1.4,0-2.8,0-4.1c0-1.3,0.1-2.6,0.2-3.8c0.1-1.2,0.3-2.3,0.5-3.3c0.2-1,0.6-1.9,0.9-2.6
			c0.3-0.7,0.7-1.3,1-1.8c0.3-0.4,0.5-0.8,0.7-1c0.3-0.4,0.6-0.5,0.3,0.1c-0.1,0.2-0.3,0.6-0.6,1.1c-0.3,0.5-0.6,1.1-0.9,1.8
			c-0.3,0.7-0.6,1.6-0.8,2.6c-0.2,1-0.4,2.1-0.5,3.2c-0.1,1.2-0.1,2.4-0.2,3.7c0,1.3,0,2.7,0,4.1c0,2.8,0,5.7,0,8.6
			c0,5.8,0,11.5,0,15.8c0,4.3,0,7.1,0,7.2C26.4,74.6,25.9,74.6,25.9,72.5z M40,76.9c-0.1,0.2-0.3,0.5-0.7,0.8
			c-0.4,0.3-0.9,0.6-1.6,0.9c-0.7,0.2-1.4,0.4-2.3,0.5c-0.4,0.1-0.8,0.1-1.3,0.1c-0.4,0-0.9,0-1.3,0c-1.7,0-3.4-0.2-4.6-0.7
			c-0.6-0.2-1.1-0.5-1.4-0.8c-0.3-0.3-0.4-0.4-0.5-0.5c-0.2-0.2-0.2-0.5-0.1-0.5c0.1-0.1,0.3,0,0.5,0.2c0,0,0.1,0.2,0.4,0.3
			c0.3,0.2,0.7,0.4,1.2,0.6c1.1,0.3,2.7,0.5,4.4,0.5c0.4,0,0.8,0,1.2,0c0.4,0,0.8,0,1.2-0.1c0.8-0.1,1.5-0.2,2.1-0.4
			c0.6-0.2,1.1-0.4,1.5-0.6c0.4-0.2,0.6-0.4,0.7-0.4C39.8,76.6,40.1,76.7,40,76.9z M40.6,58.5c-0.1,3.7-0.2,7.3-0.3,10
			c-0.1,2.7-0.1,4.5-0.1,4.6c-0.1,1.3-0.5,1.3-0.5,0c0-0.1,0-1.9,0-4.6c0-2.7,0-6.3,0.1-10c0.1-7.3,0.3-15,0.5-16.3
			c0.1-0.3,0.3-0.4,0.3,0C40.8,43.6,40.7,51.2,40.6,58.5z"/>
		<path d="M33.1,6.1c4.8,0,4.5-2,4.5-2l0-1.2c0-0.1-0.1-0.2-0.2-0.1c-0.5,0.3-1.9,0.9-4.3,0.9c-2.3,0-3.8-0.6-4.3-0.9
			c-0.1-0.1-0.2,0-0.2,0.1V4C28.6,4,28.4,6.1,33.1,6.1z"/>
		<path d="M33.1,2.7c2.1,0,4.4-0.5,4.4-1.5c0-0.4-1.1-1.2-4.4-1.2c-3.3,0-4.3,0.7-4.3,1.1c0,0-0.1,0.5,0.3,0.8
			C29.7,2.4,30.9,2.7,33.1,2.7z"/>
	</g>
	<g>
		<path d="M66.3,34.4c0-0.5,0-1,0-1.5c0-0.3,0-0.5-0.1-0.8c0-0.3,0-0.5-0.1-0.8c0-0.2,0-0.5-0.1-0.7c0-0.2-0.1-0.5-0.1-0.7
			c0-0.2-0.1-0.5-0.1-0.7c0-0.2-0.1-0.5-0.2-0.7c-0.1-0.2-0.1-0.5-0.2-0.7c-0.1-0.2-0.2-0.5-0.3-0.7l-0.1-0.3c0-0.1-0.1-0.2-0.1-0.3
			c-0.1-0.2-0.2-0.4-0.3-0.6c-0.5-0.8-1-1.5-1.6-2.2c-0.1-0.2-0.3-0.3-0.4-0.5c-0.1-0.2-0.2-0.3-0.3-0.5c-0.1-0.2-0.2-0.3-0.3-0.5
			c-0.1-0.2-0.2-0.3-0.3-0.5c-0.1-0.2-0.2-0.3-0.2-0.5c-0.1-0.2-0.1-0.4-0.2-0.5c-0.1-0.4-0.2-0.7-0.3-1.1c0-0.2-0.1-0.4-0.1-0.5
			c0-0.2,0-0.4-0.1-0.5c0-0.2,0-0.3-0.1-0.5c0-0.2,0-0.3,0-0.5c0-0.7-0.1-1.3-0.1-2c0-1.3,0-2.4,0-3.4c0-2-0.1-3.6-0.1-4.5
			c0-1.2-0.1-1.5-0.2-1.3c-0.8,0.3-2.2,0.8-3.9,0.8c-1.9,0-3.4-0.5-4.2-0.8c-0.2,0-0.3,1.7-0.3,5.1c0,0.1,0,0.7,0,1.7
			c0,0.5,0,1.1,0,1.8c0,0.7,0,1.5,0,2.4c0,0.2,0,0.4,0,0.7c0,0.2-0.1,0.5-0.1,0.7c0,0.2-0.1,0.5-0.1,0.7c0,0.3-0.1,0.5-0.2,0.7
			c0,0.1-0.1,0.3-0.1,0.4l0,0.2l-0.1,0.2c-0.1,0.3-0.2,0.5-0.3,0.8c-0.1,0.2-0.2,0.5-0.4,0.8c-0.1,0.2-0.3,0.5-0.5,0.7
			c-0.2,0.2-0.4,0.5-0.6,0.7c-0.2,0.3-0.4,0.5-0.6,0.8c-0.1,0.1-0.2,0.3-0.3,0.4c-0.1,0.1-0.2,0.3-0.3,0.4c-0.1,0.1-0.2,0.3-0.3,0.4
			c-0.1,0.2-0.2,0.3-0.3,0.5c-0.7,1.3-1,2.8-1.3,4.3c-0.1,0.4-0.1,0.8-0.1,1.2c0,0.2,0,0.4-0.1,0.6l0,0.3l0,0.3
			c0,0.8-0.1,1.6-0.1,2.5c0,1.7,0,3.4,0,5.1c0,3.5,0,7.3,0.1,11.2c0,3.9,0,8,0.1,12.2c0,2.1,0,4.2,0,6.4c0,1.1,0,2.1,0,3.2
			c0,0.5,0,1.1,0,1.6l0,0.8l0,0.4l0,0.2l0,0.1l0,0.1v0c-0.1,0,0.2,0-0.2,0l0.2,0c0.1,0,0,0,0.1,0l0,0c0,0.4,0,0.7,0.1,1.1
			c0,0.2,0.1,0.4,0.1,0.5c0.1,0.2,0.1,0.3,0.2,0.5c0.1,0.2,0.2,0.3,0.3,0.5l0.3,0.4c0.1,0.1,0.2,0.3,0.4,0.4
			c0.1,0.1,0.1,0.1,0.2,0.2l0.2,0.2c1.1,0.9,2.4,1.4,3.7,1.7l1,0.2l1,0.1l0.5,0.1c0.2,0,0.3,0,0.5,0l1,0c0.3,0,0.7,0,1,0l1,0
			c0.3,0,0.7-0.1,1-0.1c0.3,0,0.7-0.1,1-0.1c0.3-0.1,0.7-0.1,1-0.2l1-0.3c0.3-0.1,0.6-0.3,0.9-0.4c0.2-0.1,0.3-0.2,0.5-0.3l0.4-0.3
			c0.6-0.4,1.1-0.9,1.5-1.5c0.4-0.6,0.7-1.3,0.8-2c0-0.2,0-0.4,0-0.6l0,0c0,0,0,0,0,0c0,0,0,0,0,0l0-0.1l0-0.2l0-1
			c0-0.6,0-1.3,0-1.9c0-1.3,0-2.6,0-3.8c0.1-10.2,0.1-20,0.2-28.8C66.3,38.6,66.3,36.5,66.3,34.4z M53,17.8c0.1,0,0.6,0.2,1.2,0.4
			c0.6,0.1,1.4,0.2,2.2,0.2c0.8,0,1.6-0.1,2.1-0.2c0.3-0.1,0.5-0.1,0.7-0.2c0.2-0.1,0.2-0.1,0.2-0.1c0.1-0.1,0.2,0,0.3,0.1
			c0.1,0.1,0.1,0.2-0.1,0.3c0,0-0.1,0.1-0.3,0.2c-0.2,0.1-0.4,0.2-0.7,0.3c-0.6,0.2-1.4,0.4-2.3,0.4c-0.8,0-1.7-0.1-2.4-0.3
			c-0.7-0.2-1.1-0.6-1.2-0.7C52.8,17.9,52.9,17.8,53,17.8z M49.1,72.5c0-0.1,0-3-0.1-7.2c-0.1-4.3-0.1-10-0.2-15.8
			c0-2.9,0-5.8-0.1-8.6c0-1.4,0-2.8,0-4.1c0-1.3,0.1-2.6,0.2-3.8c0.1-1.2,0.3-2.3,0.5-3.3c0.2-1,0.6-1.9,0.9-2.6
			c0.3-0.7,0.7-1.3,1-1.8c0.3-0.4,0.5-0.8,0.7-1c0.3-0.4,0.6-0.5,0.3,0.1c-0.1,0.2-0.3,0.6-0.6,1.1s-0.6,1.1-0.9,1.8
			c-0.3,0.7-0.6,1.6-0.8,2.6c-0.2,1-0.4,2.1-0.5,3.2c-0.1,1.2-0.1,2.4-0.2,3.7c0,1.3,0,2.7,0,4.1c0,2.8,0,5.7,0,8.6
			c0,5.8,0,11.5,0,15.8c0,4.3,0,7.1,0,7.2C49.6,74.6,49.1,74.6,49.1,72.5z M63.2,76.9c-0.1,0.2-0.3,0.5-0.7,0.8
			c-0.4,0.3-0.9,0.6-1.6,0.9c-0.7,0.2-1.4,0.4-2.3,0.5c-0.4,0.1-0.8,0.1-1.3,0.1c-0.4,0-0.9,0-1.3,0c-1.7,0-3.4-0.2-4.6-0.7
			c-0.6-0.2-1.1-0.5-1.4-0.8c-0.3-0.3-0.4-0.4-0.5-0.5c-0.2-0.2-0.2-0.5-0.1-0.5c0.1-0.1,0.3,0,0.5,0.2c0,0,0.1,0.2,0.4,0.3
			c0.3,0.2,0.7,0.4,1.2,0.6c1.1,0.3,2.7,0.5,4.4,0.5c0.4,0,0.8,0,1.2,0c0.4,0,0.8,0,1.2-0.1c0.8-0.1,1.5-0.2,2.1-0.4
			c0.6-0.2,1.1-0.4,1.5-0.6c0.4-0.2,0.6-0.4,0.7-0.4C63,76.6,63.3,76.7,63.2,76.9z M63.8,58.5c-0.1,3.7-0.2,7.3-0.3,10
			c-0.1,2.7-0.1,4.5-0.1,4.6c-0.1,1.3-0.5,1.3-0.5,0c0-0.1,0-1.9,0-4.6c0-2.7,0-6.3,0.1-10c0.1-7.3,0.3-15,0.5-16.3
			c0.1-0.3,0.3-0.4,0.3,0C64,43.6,63.9,51.2,63.8,58.5z"/>
		<path d="M56.3,6.1c4.8,0,4.5-2,4.5-2l0-1.2c0-0.1-0.1-0.2-0.2-0.1c-0.5,0.3-1.9,0.9-4.3,0.9c-2.3,0-3.8-0.6-4.3-0.9
			c-0.1-0.1-0.2,0-0.2,0.1V4C51.8,4,51.6,6.1,56.3,6.1z"/>
		<path d="M56.3,2.7c2.1,0,4.4-0.5,4.4-1.5c0-0.4-1.1-1.2-4.4-1.2C53,0,52,0.7,52,1.1c0,0-0.1,0.5,0.3,0.8
			C52.9,2.4,54.1,2.7,56.3,2.7z"/>
	</g>
</g>
</svg>
