<?xml version="1.0" encoding="utf-8"?>
<!-- Generator: Adobe Illustrator 25.4.1, SVG Export Plug-In . SVG Version: 6.00 Build 0)  -->
<svg version="1.1" id="XMLID_1_" xmlns="http://www.w3.org/2000/svg" xmlns:xlink="http://www.w3.org/1999/xlink" x="0px" y="0px"
	 viewBox="0 0 136.4 123.1" style="enable-background:new 0 0 136.4 123.1;" xml:space="preserve">
<style type="text/css">
	.st0{fill:#2D3538;}
</style>
<g>
	<g>
		<path class="st0" d="M18.3,30.5c0.1,0,0.4,0.3,1.2,0.6c0.7,0.4,1.8,0.8,3.1,1.4c2.7,1,6.7,2.2,11.6,3.1c9.8,1.9,23.3,2.8,37,2.7
			c13.7-0.1,27.7-0.9,38.4-3.5c2.7-0.7,5.1-1.5,7.3-2.4c1.1-0.5,2-1,2.9-1.6c0.8-0.6,1.6-1.3,1.8-1.7c0.1-0.1,0.1-0.3,0-0.4
			c0-0.1-0.1-0.3-0.2-0.4c-0.1-0.3-0.4-0.6-0.6-0.9c-0.5-0.5-1-1-1.5-1.4c-1-0.7-1.9-1.2-2.4-1.5c-1.1-0.6-1.3-1.2,0.2-0.7
			c0.6,0.2,1.5,0.6,2.7,1.3c0.6,0.4,1.2,0.8,1.8,1.4c0.3,0.3,0.6,0.6,0.9,1.1c0.2,0.2,0.3,0.5,0.4,0.8c0.1,0.3,0.1,0.6,0,0.9
			c-0.2,0.6-0.7,1.2-1,1.6c-0.4,0.4-0.8,0.8-1.3,1.1c-0.9,0.7-1.9,1.3-3,1.8c-2.2,1.1-4.7,2-7.5,2.7c-11,3-25.1,4-38.9,4.1
			c-13.8,0.2-27.4-0.7-37.5-2.7c-5-1-9.2-2.2-12-3.3c-1.4-0.6-2.6-1.1-3.3-1.5c-0.8-0.4-1.2-0.6-1.3-0.7c-2.2-1.3-2.9-2.7-2.4-3.1
			C15.2,29,16.3,29.3,18.3,30.5z"/>
	</g>
	<g>
		<path class="st0" d="M100.8,20.7c-0.1,0-1.4-0.2-3.7-0.4c-2.2-0.2-5.4-0.5-9.3-0.8c-3.8-0.3-8.3-0.4-13.1-0.5
			c-4.8-0.1-10,0-15.2,0.1c-10.4,0.2-21,1.1-29.3,2.7c-4.1,0.8-7.7,1.8-10.4,2.8c-2.7,1-4.4,2.1-5.1,2.6c-0.4,0.3-0.6,0.4-0.7,0.4
			c-0.1,0-0.1-0.3,0.3-0.7c0.6-0.7,2.4-2,5.1-3.1c2.7-1.2,6.3-2.3,10.5-3.2c8.4-1.7,19.1-2.7,29.5-3c5.2-0.1,10.4-0.2,15.3-0.1
			c4.8,0.1,9.3,0.3,13.2,0.5c3.9,0.3,7.1,0.6,9.3,0.8c2.3,0.3,3.6,0.4,3.7,0.5C104.7,19.7,104.4,21.2,100.8,20.7z"/>
	</g>
	<g>
		<path class="st0" d="M128,38.4c0.1,0.3,1.6,4,3.6,10.5c1,3.2,2.1,7.2,3.1,11.7c0.2,1.1,0.4,2.3,0.7,3.6c0.2,1.2,0.4,2.5,0.6,3.8
			c0.1,1.3,0.3,2.7,0.4,4c0,0.7,0,1.4,0.1,2.1c0,0.7,0.1,1.4,0,2.2c-0.1,3-0.8,6-1.9,9c-1.1,2.9-2.7,5.8-4.6,8.6
			c-3.8,5.5-8.8,10.5-14.7,14.7c-5.9,4.2-12.6,7.6-19.9,10.1c-3.6,1.3-7.4,2.2-11.2,2.9c-1.9,0.4-3.8,0.6-5.8,0.9
			c-1.9,0.2-3.9,0.4-5.8,0.5c-1.9,0.2-3.9,0.1-5.9,0.2c-2,0-3.9-0.1-5.9-0.2c-3.9-0.3-7.8-0.8-11.6-1.6c-3.8-0.8-7.5-1.9-11.1-3.3
			c-3.6-1.4-7-3.1-10.3-5c-6.5-3.8-12.2-8.7-16.7-14.1c-4.5-5.5-7.9-11.5-9.7-17.7C0.6,78.1,0.1,75,0,72c0-3,0.3-5.9,0.9-8.6
			c1-5.4,2.5-10,3.9-14.1c2.8-8.1,5.4-13.6,6.6-16c1.3-2.5,2.2-3,0.9,0.1c-1,2.5-3.3,8.1-6,16.2c-1.3,4-2.7,8.7-3.6,13.9
			c-0.1,0.7-0.2,1.3-0.3,2c-0.1,0.7-0.2,1.3-0.2,2c0,0.3-0.1,0.7-0.1,1c0,0.3,0,0.7,0,1c0,0.3,0,0.7,0,1.1c0,0.4,0,0.7,0,1.1
			c0.1,2.8,0.6,5.8,1.4,8.7c1.7,5.9,5,11.8,9.3,17c4.4,5.3,9.9,10,16.2,13.7c3.2,1.9,6.5,3.5,10,4.8c3.5,1.3,7.1,2.4,10.8,3.2
			c3.7,0.8,7.5,1.3,11.3,1.6c1.9,0.2,3.8,0.2,5.7,0.2c1,0,1.9,0,2.9,0c0.5,0,1,0,1.4,0l1.4-0.1c1.9-0.1,3.8-0.3,5.7-0.5
			c1.9-0.3,3.8-0.5,5.6-0.9c3.7-0.7,7.4-1.6,10.9-2.8c7.1-2.4,13.6-5.7,19.4-9.8c5.7-4.1,10.6-8.9,14.2-14.2
			c1.8-2.6,3.3-5.4,4.4-8.1c1.1-2.8,1.7-5.6,1.8-8.3c0.1-0.7,0-1.4,0-2c0-0.7-0.1-1.4-0.1-2c-0.1-1.3-0.3-2.6-0.4-3.9
			c-0.2-1.3-0.4-2.5-0.6-3.7c-0.2-1.2-0.5-2.4-0.7-3.5c-1-4.5-2.1-8.4-3.1-11.5c-2-6.4-3.5-10-3.6-10.3c-1.9-5.1-2.6-7.7-2-8
			C124.4,31,126.1,33.3,128,38.4z"/>
	</g>
	<g>
		<path class="st0" d="M104,32.1c0.1-0.1,0.9-1.2,2.2-3c1.4-1.8,3.3-4.4,5.7-7.5c2.4-3,5.2-6.6,8.5-10.2c1.6-1.8,3.4-3.6,5.3-5.4
			c0.5-0.4,1-0.9,1.5-1.3c0.5-0.4,1-0.8,1.4-1.2c0.2-0.2,0.4-0.4,0.5-0.6c0.2-0.2,0.3-0.4,0.2-0.5c0-0.2,0-0.2-0.5-0.4
			c-0.2-0.1-0.5-0.1-0.8-0.2c-0.1,0-0.3,0-0.4,0c-0.1,0-0.2,0-0.3,0c-0.5,0.1-1,0.3-1.6,0.6c-1.1,0.6-2.1,1.3-3,2.2
			c-1.9,1.7-3.7,3.5-5.4,5.4c-3.3,3.7-6.3,7.5-8.9,10.9c-5.1,6.8-8.8,12-10,13.4C97.7,35,97.3,35,97.8,34c0.9-1.6,4.3-7.1,9.3-14
			c2.5-3.5,5.4-7.3,8.8-11.1c1.7-1.9,3.5-3.8,5.5-5.6c1-0.9,2.1-1.7,3.3-2.4c0.6-0.3,1.3-0.6,2.1-0.8c0.2,0,0.4,0,0.6-0.1
			c0.2,0,0.4,0,0.6,0c0.4,0,0.7,0.1,1.1,0.2c0.4,0.1,0.8,0.3,1.2,0.7c0.2,0.2,0.4,0.4,0.5,0.7c0.1,0.3,0.1,0.6,0.1,0.8
			c-0.1,0.6-0.3,1-0.5,1.3c-0.2,0.3-0.5,0.6-0.7,0.9c-0.5,0.5-1.1,0.9-1.5,1.4c-0.5,0.4-1,0.8-1.4,1.2c-1.8,1.7-3.6,3.5-5.2,5.3
			c-3.2,3.6-6.1,7-8.5,10.1c-2.4,3-4.3,5.6-5.7,7.4c-1.4,1.8-2.2,2.9-2.2,3C103,35.9,101.8,35.1,104,32.1z"/>
	</g>
	<g>
		<path class="st0" d="M128.8,59.6c0,0.1,0.2,0.9,0.6,2.3c0.3,1.4,0.7,3.4,1,5.9c0.2,1.3,0.3,2.7,0.4,4.2c0.1,0.8,0,1.6,0.1,2.4
			c0,0.8-0.1,1.7-0.2,2.6c-0.5,3.6-2,7.3-4.2,11c-4.4,7.4-11.9,14.6-21.4,19.8c-4.7,2.6-10,4.6-15.5,6.1c-5.5,1.4-11.3,2.3-17.1,2.6
			c-5.8,0.3-11.7,0-17.4-0.8c-2.9-0.4-5.7-1-8.5-1.7c-1.4-0.4-2.8-0.8-4.1-1.2c-0.7-0.2-1.3-0.5-2-0.7c-0.7-0.3-1.3-0.5-2-0.8
			c-2.6-1.1-5.1-2.2-7.5-3.6c-1.2-0.6-2.3-1.4-3.5-2.1c-1.1-0.8-2.2-1.5-3.3-2.3c-1.1-0.8-2.1-1.6-3.1-2.5c-1-0.9-1.9-1.7-2.8-2.6
			c-1.8-1.8-3.4-3.7-4.8-5.6c-1.4-1.9-2.7-3.9-3.7-5.9c-1-2-1.9-4-2.5-6c-0.6-2-1-3.9-1.2-5.8c0-0.5,0-0.9,0-1.4c0-0.4,0-0.9,0-1.3
			c0-0.9,0.1-1.7,0.1-2.5C6.6,63.2,7.5,58.8,8,56.8c0.3-1,0.6-1.7,0.9-1.7c0.2,0,0.3,0.5,0.2,1.7c-0.3,2-0.9,6.5-1.1,12.8
			c0,0.8,0,1.6,0,2.4c0,0.4,0,0.9,0,1.3c0,0.4,0,0.8,0.1,1.3c0.1,1.7,0.5,3.5,1.1,5.4c0.6,1.9,1.4,3.7,2.4,5.6
			c1,1.9,2.2,3.8,3.6,5.6c1.4,1.9,2.9,3.6,4.7,5.4c1.7,1.7,3.6,3.4,5.6,4.9c1,0.8,2.1,1.5,3.2,2.3c0.5,0.4,1.1,0.7,1.7,1.1
			c0.6,0.4,1.1,0.7,1.7,1c2.3,1.3,4.7,2.5,7.3,3.6c0.6,0.3,1.3,0.5,1.9,0.8c0.6,0.2,1.3,0.5,2,0.7c1.3,0.5,2.7,0.8,4,1.2
			c2.7,0.7,5.5,1.3,8.3,1.8c5.6,0.9,11.4,1.2,17.1,0.9c5.7-0.3,11.4-1.1,16.8-2.4c5.4-1.4,10.5-3.4,15.2-5.9
			c9.3-5,16.6-12,20.9-19.2c2.1-3.6,3.5-7.2,4-10.5c0.1-0.8,0.2-1.6,0.2-2.4c0-0.8,0-1.6-0.1-2.3c-0.1-1.5-0.2-2.8-0.4-4.1
			c-0.3-2.5-0.7-4.4-1.1-5.7c-0.3-1.3-0.5-2.1-0.6-2.2c-1.1-3.9-1.6-5.8-1.2-6C126.5,53.9,127.8,55.6,128.8,59.6z"/>
	</g>
	<g>
		<path class="st0" d="M77.4,23.3c-0.1,0-0.9-0.1-2.4-0.2c-0.7,0-1.6-0.1-2.7-0.2c-1,0-2.2-0.1-3.4-0.1c-5-0.2-11.8-0.2-18.6,0.3
			c-6.8,0.5-13.8,1.4-19.3,2.3c-5.5,0.9-9.6,1.9-10.7,2.1c-0.6,0.1-0.9-0.2-0.2-0.5c1.1-0.5,5.2-1.7,10.7-2.8
			c5.5-1.1,12.5-2.1,19.4-2.6c6.9-0.5,13.7-0.5,18.8-0.3c1.3,0.1,2.4,0.1,3.5,0.2c1,0,1.9,0.2,2.7,0.2c1.5,0.1,2.4,0.2,2.5,0.2
			C80,22.2,79.8,23.4,77.4,23.3z"/>
	</g>
	<g>
		<path class="st0" d="M61,43.8c0.1,0,1,0,2.5,0c1.6,0,3.7,0.1,6.4,0c2.6,0,5.7,0,9-0.2c3.3-0.1,6.8-0.3,10.4-0.6
			c7.1-0.6,14.3-1.6,19.9-2.9c5.6-1.3,9.6-2.9,10.7-3.3c0.3-0.1,0.6-0.1,0.7,0c0.1,0.1,0.1,0.3-0.2,0.6c-1,0.9-5,3-10.7,4.4
			c-5.7,1.5-13,2.7-20.2,3.1c-3.6,0.2-7.2,0.4-10.5,0.4c-3.3,0.1-6.4,0-9-0.1c-2.6,0-4.8-0.2-6.4-0.3c-1.6-0.1-2.5-0.1-2.5-0.1
			C58.4,44.7,58.4,43.8,61,43.8z"/>
	</g>
</g>
</svg>
