<?xml version="1.0" encoding="utf-8"?>
<!-- Generator: Adobe Illustrator 25.4.1, SVG Export Plug-In . SVG Version: 6.00 Build 0)  -->
<svg version="1.1" id="XMLID_1_" xmlns="http://www.w3.org/2000/svg" xmlns:xlink="http://www.w3.org/1999/xlink" x="0px" y="0px"
	 viewBox="0 0 112.1 186.5" style="enable-background:new 0 0 112.1 186.5;" xml:space="preserve">
<style type="text/css">
	.st0{fill:#2D3538;}
</style>
<g>
	<path class="st0" d="M8.7,7.1C8.7,7.1,8.7,7.1,8.7,7.1c0.2,0,0.4-0.1,0.7-0.4c0.2-0.2,0.6-0.5,1.1-0.8c0,0,0,0,0.1-0.1
		c0.6-0.4,1.4-0.8,2.3-1.2c1.7-0.6,4.1-1.2,6.8-1.7c2.6-0.4,5.9-0.8,10-1c1.8-0.1,3.7-0.2,5.7-0.2c0.7,0,1.5,0,2.2,0
		c1.2,0,2.5,0,3.8,0c9.1,0,16.9,0.5,22.6,1.3c3.1,0.4,5.9,1,8.1,1.6c2.3,0.6,3.7,1.3,4.1,1.5c0.3,0.1,0.7,0.3,0.9,0.1
		c0.1-0.2-0.1-0.6-0.4-0.8c-0.6-0.5-2-1.3-4.2-2c-2.2-0.7-5-1.4-8.2-1.9C58.3,0.6,50.4,0,41.3,0c-1.3,0-2.7,0-4,0c-0.7,0-1.3,0-2,0
		c-2.1,0.1-4,0.2-5.8,0.3C25.4,0.6,22.1,1,19.4,1.4c-2.8,0.5-5.3,1.2-7.1,1.9c-1,0.4-1.9,0.9-2.6,1.4l-0.1,0C9,5.2,8.6,5.7,8.4,6.2
		C8.3,6.5,8.3,6.8,8.5,7C8.5,7.1,8.6,7.1,8.7,7.1z"/>
	<path class="st0" d="M112,86.9c-0.1-3.6-0.7-6.7-1.7-9.4c-0.2-0.5-0.4-1-0.6-1.4c-0.1-0.2-0.2-0.5-0.3-0.7
		c-0.3-0.5-0.5-0.9-0.8-1.4c-0.1-0.2-0.2-0.4-0.4-0.6c-0.2-0.2-0.3-0.4-0.5-0.6c-0.3-0.4-0.6-0.8-0.9-1.2l-0.8-0.8
		c-0.3-0.3-0.6-0.6-0.8-0.8c-2.1-1.8-4.7-3.2-7.5-3.9c-2.5-0.6-5-0.7-7.4-0.4c-2,0.3-3.9,0.9-5.8,1.9c-2.3,1.2-4.2,2.6-5.8,4.2
		c-0.6,0.7-0.6,0.9-0.5,1c0,0.1,0.1,0.1,0.2,0.2c0.1,0,0.3,0.1,1-0.6l0.3-0.2c1-0.8,2.7-2.2,5.5-3.5c1.8-0.8,3.6-1.3,5.5-1.5
		c2.2-0.2,4.6-0.1,6.8,0.5c2.6,0.7,4.9,1.9,6.8,3.6c2,1.7,3.5,4.1,4.6,7c0.9,2.5,1.4,5.4,1.5,8.8c0.1,3.1-0.1,6.2-0.7,9.2
		c-1.1,5.5-3.5,11.2-6.9,16.5c-2.6,4.1-5.9,8.1-9.9,12.1c-2.6,2.6-5.4,5-8.4,7.3c-1.8,1.4-3.1,2.2-3.5,2.5l-0.1,0.1
		c-2.9,2-2.6,2.4-2.5,2.6c0,0.1,0.1,0.1,0.2,0.2c0.1,0,0.1,0,0.2,0c0.6,0,1.7-0.5,3-1.4l0.1-0.1c1.1-0.7,2.3-1.6,3.6-2.6
		c3-2.3,5.9-4.8,8.6-7.4c4.2-4.1,7.5-8.1,10.2-12.4c3.6-5.5,6-11.4,7.2-17.2C111.9,93.4,112.2,90.2,112,86.9z"/>
	<path class="st0" d="M99.4,86.3c0,2.1-0.3,4.2-0.7,6.3c-0.4,2.1-1.1,4.1-1.8,6c-0.7,1.8-1.6,3.7-2.7,5.5c-1.7,2.9-3.8,5.7-6.4,8.6
		c-1.7,1.9-3.6,3.6-5.5,5.3c-1.2,1-2,1.6-2.3,1.8c-0.1,0-0.1,0.1-0.1,0.1c-0.4,0.3-0.8,0.6-1.1,0.9l0,0c-0.5,0.1-0.6,0.5-0.6,0.6
		c0,0.3,0.1,0.5,0.4,0.6c0,0,0.1,0,0.2,0c0.2,0,0.4-0.1,0.6-0.3l0,0c0.4-0.2,0.8-0.4,1.3-0.8l0.1-0.1c0.3-0.2,1.1-0.8,2.4-1.8
		c2-1.6,4-3.4,5.8-5.3c2.8-2.9,4.9-5.8,6.7-8.8c1.1-1.8,2-3.7,2.8-5.7c0.8-2,1.5-4.1,1.9-6.3c0.2-1,0.4-2,0.5-2.9l0.1-0.9
		c0.1-0.9,0.2-1.8,0.2-2.8l0-0.3c0-0.4,0-0.9,0-1.4c0-0.6-0.2-1.3-0.3-1.7c-0.3-1.2-0.7-2.2-1.2-3.2c-0.6-1-1.4-1.9-2.2-2.6
		c-0.9-0.7-1.9-1.1-3-1.4c-0.5-0.1-1-0.2-1.6-0.3c-0.2,0-0.3,0-0.5,0c-0.3,0-0.7,0-1,0c-0.2,0-0.3,0-0.5,0c-0.3,0-0.7,0.1-1,0.1
		c-0.2,0-0.3,0.1-0.5,0.1c-0.3,0.1-0.6,0.2-0.9,0.3c-2,0.7-3.5,1.8-4.5,2.6c-1.1,0.9-2.1,1.9-2.9,3c-1.5,1.9-2.4,3.4-2.8,4.1
		c-0.1,0.3-0.3,0.7-0.1,0.9c0.3,0.2,0.6-0.2,0.8-0.5c0.1-0.1,0.3-0.3,0.4-0.6c0.5-0.7,1.4-1.8,2.6-3.2c0.9-1,1.8-1.9,2.9-2.7
		c0.9-0.7,2.3-1.7,4-2.2c0.2-0.1,0.5-0.1,0.7-0.2c0.2,0,0.3-0.1,0.5-0.1c0.3,0,0.5-0.1,0.8-0.1c0.2,0,0.3,0,0.5,0c0.3,0,0.5,0,0.8,0
		c0.2,0,0.3,0,0.5,0c0.1,0,0.3,0.1,0.4,0.1c0.3,0.1,0.6,0.1,0.9,0.2c0.8,0.2,1.6,0.6,2.4,1.2c0.7,0.6,1.3,1.3,1.8,2.1
		c0.5,0.8,0.8,1.7,1,2.7c0.1,0.5,0.2,1,0.2,1.5c0,0.4,0,0.8,0,1.2L99.4,86.3z"/>
	<path class="st0" d="M78.4,15.1l0-4.7c0-0.3-0.1-0.5-0.1-0.7c-0.1-0.2-0.2-0.4-0.4-0.6v0c-0.2-0.1-0.5-0.2-0.7-0.2c0,0,0,0-0.1,0
		c-0.2,0-0.3,0.1-0.5,0.1c0,0-0.1,0-0.1,0.1c-0.4,0.1-0.7,0.4-1.1,0.6l-1.1,0.7c-2.1,1.3-4.5,2.3-7.2,3.2c-4.3,1.4-9,2.2-14.8,2.7
		c-5,0.4-9.8,0.4-13.8,0.2c-4.4-0.1-8.5-0.4-12.2-0.9c-4.1-0.5-7.5-1.2-10.3-2.1c-0.6-0.2-1.4-0.5-2.2-0.8c-0.3-0.1-0.5-0.2-0.8-0.3
		l-0.3-0.1c-0.4-0.2-0.8-0.3-1.2-0.4c-0.8-0.2-1.6-0.2-2.4-0.1l-2,0.3l-1.7,0.2c-0.5,0.1-0.9,0.1-1.3,0.1c-0.4,0-0.8,0.1-1.3,0.1
		c-0.2,0-0.4,0-0.6,0c-0.1,0-0.2,0-0.2-0.1l0,0c0.1-0.2,0.3-0.4,0.5-0.6l0.1-0.1c0.3-0.2,0.5-0.4,0.7-0.6c0.5-0.4,1-0.7,1.3-1l1.5-1
		C6.7,8.9,7,8.7,7.3,8.5C7.9,8,8,7.9,7.9,7.7c0-0.1-0.1-0.2-0.2-0.2C7.5,7.5,7,7.7,6.3,8C5.9,8.2,5.5,8.4,5.1,8.7L4.4,9.1
		C4.1,9.3,3.8,9.5,3.4,9.7L3.3,9.8c-0.6,0.4-1.2,0.8-1.8,1.3c-0.3,0.3-0.7,0.6-0.9,0.9c-0.1,0.2-0.3,0.3-0.4,0.6
		C0.1,12.8,0,12.9,0,13.1c0,0.2,0.1,0.3,0.3,0.4c0.4,0.2,0.8,0.3,1.3,0.3l0.1,0c0.5,0.1,1.1,0.1,1.8,0.1c0.6,0,1.4-0.1,2.2-0.2
		l4-0.5c0.6-0.1,1.3,0,1.9,0.2c0.3,0.1,0.7,0.3,1.1,0.4c0.3,0.1,0.7,0.3,1,0.4c0.7,0.3,1.5,0.5,2.3,0.8c3,0.9,6.4,1.6,10.5,2.1
		c3.7,0.5,7.9,0.8,12.3,0.9c4,0.1,8.8,0.2,13.9-0.2c5.8-0.5,10.6-1.3,15.1-2.7c3-1,5.4-2,7.5-3.3l0.5-0.3l0.3-0.2
		c0.1-0.1,0.3-0.2,0.4-0.3l0.1-0.1c0,0,0,0,0.1,0c0,0,0,0,0,0h0c0,0.1,0,0.2,0,0.3c0,0.1,0,0.1,0,0.2l-0.1,3.9
		c-0.3,22.1-0.6,47.1-0.8,75l-0.2,25.1l-0.4,51.2c0,0,0,0.2,0,0.2l0,0.1l0,0.1c0,0.1,0,0.1,0,0.2c0,0.2,0,0.4,0,0.6
		c-0.2,1.5-0.6,3.1-1.4,4.6c-1.4,2.7-3.8,5.1-6.8,6.9c-2.7,1.6-5.8,2.8-9.4,3.6c-3,0.7-6.3,1.2-10,1.4l-2.5,0.1l-2.5,0
		c-1.7,0-3.5-0.1-5-0.2c-3.5-0.3-6.8-0.8-9.9-1.5c-1.6-0.4-3.2-0.8-4.7-1.3c-1.6-0.5-3.1-1.2-4.5-1.9c-1.5-0.7-2.9-1.6-4-2.5
		c-1.4-1.1-2.4-2.2-3.2-3.3c-1-1.4-1.6-2.7-1.9-4.1c-0.1-0.2-0.1-0.4-0.1-0.7c0-0.1,0-0.3-0.1-0.4l0-0.1c-0.1-0.4-0.1-0.7-0.1-1.1
		l-0.1-1.1l0-71.4l0.1-50.5c0-11.6,0-18.5,0-19l0-5c0-0.2,0-0.5-0.1-0.8l0-0.1c0-0.2-0.1-0.4-0.2-0.6c0-0.1-0.1-0.2-0.1-0.3
		c-0.5-1-1.3-1.7-2-2.2c-0.7-0.5-1.3-0.8-2-1.1c-2-0.8-3.4-1-3.8-0.8c-0.1,0.1-0.1,0.1-0.2,0.2c-0.1,0.3,0.3,0.5,1.4,1.1
		c0.5,0.3,1.1,0.6,1.8,1c0.5,0.3,1,0.6,1.6,1.1c0.7,0.6,1.1,1.1,1.3,1.5c0,0.1,0,0.1,0.1,0.2c0,0.1,0.1,0.2,0.1,0.2
		c0,0.1,0,0.2,0,0.2c0,0.1,0,0.2,0,0.3l0,5c0,0.7,0,11.2,0.1,28.5l0.1,41l0,70.2c0,0.1,0,0.3,0,0.4c0,0.3,0,0.5,0,0.8l0.1,1.3
		c0,0.3,0.1,0.7,0.1,1c0,0.1,0,0.2,0.1,0.3c0,0.1,0,0.2,0.1,0.4c0,0.3,0.1,0.6,0.2,0.9c0.4,1.5,1.1,3.1,2.2,4.7
		c0.9,1.3,2.1,2.6,3.6,3.7c1.3,1,2.8,1.9,4.4,2.7c2.7,1.4,5.9,2.5,9.7,3.3c3.2,0.7,6.6,1.3,10.2,1.6c1.5,0.1,3,0.2,4.5,0.2
		c0.2,0,0.5,0,0.7,0l2.6,0l2.6-0.1c3.8-0.3,7.2-0.7,10.4-1.5c0.6-0.1,1.2-0.3,1.8-0.5c0.2-0.1,0.5-0.1,0.8-0.2
		c0.3-0.1,0.6-0.2,0.9-0.3c0.5-0.2,1.1-0.4,1.6-0.6c1.6-0.6,3.2-1.3,4.8-2.3c3.4-2,6-4.7,7.6-7.8c0.9-1.8,1.4-3.6,1.6-5.3
		c0-0.2,0-0.5,0-0.7l0-0.7l0.7-76.3C78.1,62.2,78.3,37.2,78.4,15.1z"/>
	<path class="st0" d="M69.8,163.1c-0.2,2.1-1,4.2-2.3,6.1c-0.6,0.9-1.4,1.7-2.2,2.5c-0.8,0.7-1.7,1.4-2.7,2c-3.4,2.1-7.8,3.4-13.3,4
		c-4.8,0.5-9.5,0.5-14.2,0c-5.2-0.6-9.7-1.8-13.5-3.6c-2.1-1-3.8-2.3-5.1-4.1c-1.3-1.8-2.1-3.9-2.2-6c-0.1-0.7-0.1-1.5,0-2.3
		c0-0.4,0-0.7,0-1.1l0-24l0-48.5c0-28.4,0-47.3,0-48.1c0-2.3-0.1-9.9-0.9-10.4c-0.1-0.1-0.2-0.1-0.3,0c-0.8,0.5-0.9,8.1-0.9,10.4
		c0,0.8,0,19.7,0,48.1l0,48.6l0,24c0,0.4,0,0.7,0,1.1c0,0.8,0,1.6,0.1,2.6c0.2,2.6,1.2,5,2.7,7.1c0.8,1,1.7,2,2.7,2.8
		c0.9,0.7,1.9,1.3,3.3,2c4.1,1.9,8.7,3.2,14.2,3.8c2.5,0.3,5,0.4,7.5,0.4c2.4,0,4.8-0.1,7.2-0.4c5.9-0.7,10.4-2,14.2-4.3
		c1.2-0.7,2.2-1.5,3-2.3c1-0.9,1.9-1.9,2.5-2.9c1.5-2.2,2.4-4.6,2.7-7.1c0-0.4,0.1-0.7,0.1-1c0-0.2,0-0.3,0-0.5c0,0,0-0.1,0-0.2
		l0.8-64.4c0.4-33.3,0.4-55.1,0.2-61.6c-0.1-3-0.4-3-0.6-3c0,0,0,0,0,0c-0.4,0-0.6,1.1-0.8,3.3c-0.4,6.4-0.8,28.3-1.2,61.5L70,149.1
		l-0.1,12.3c0,0.1,0,0.4,0,0.5c0,0.1,0,0.3,0,0.4C69.8,162.5,69.8,162.8,69.8,163.1z"/>
	<path class="st0" d="M101.7,73c-0.1-0.1-0.3-0.4-0.7-0.8c-0.4-0.3-1.1-1-2.3-1.5c-1.1-0.5-2.4-0.9-3.7-1.1c-1.5-0.2-3-0.3-4.4-0.2
		c-2.7,0.3-5.6,1.5-7.8,3.3c-1.8,1.4-3,2.9-3.3,3.5c-0.1,0.3,0,0.5,0.1,0.5c0.1,0.1,0.1,0.1,0.2,0.1c0.1,0,0.2,0,0.3-0.1
		c0.1-0.1,0.3-0.2,0.5-0.4c0.6-0.5,1.6-1.4,3-2.3c2.2-1.4,4.8-2.4,7.1-2.6c1.2-0.1,2.6,0,3.9,0.1c1.1,0.1,2.3,0.4,3.3,0.8
		c1,0.4,1.7,0.8,2.1,1.1c0.4,0.3,0.6,0.5,0.7,0.6c0.4,0.4,0.7,0.5,1,0.4c0.1,0,0.1-0.1,0.2-0.2C102.1,73.7,101.9,73.4,101.7,73
		L101.7,73z"/>
	<path class="st0" d="M70.3,7.4c-0.6-0.2-1.4-0.4-2.3-0.6c-0.4-0.1-0.8-0.2-1.3-0.3C63.4,5.7,59.4,5,55.7,4.6
		C51.8,4.3,47.5,4.1,44,4.2c-3.3,0.1-5.9,0.3-6.6,0.5c-0.4,0.1-0.4,0.4-0.4,0.4c0,0.2,0.2,0.4,0.5,0.4c0.5,0.1,2,0.1,4,0.1
		c0.8,0,1.6,0,2.5,0c2.8,0.1,7.2,0.2,11.5,0.6c3.7,0.3,7.7,0.8,11,1.4C67,7.8,67.5,7.9,68,8c0.8,0.2,1.5,0.3,2.1,0.5l1.4,0.4
		c0.3,0.1,0.6,0.1,0.8,0.1c0.3,0,0.5-0.1,0.6-0.3c0.1-0.4-0.5-0.7-1.1-0.8L70.3,7.4z"/>
	<path class="st0" d="M50.1,21.4l-1.7,0c-0.3,0-0.6,0-0.9,0c-0.9,0-2.1,0.1-3.4,0l-2.8,0c-0.6,0-1.3,0-2-0.1c-0.4,0-0.8,0-1.2,0
		c-1,0-2.2-0.1-3.4-0.2c-0.4,0-0.9-0.1-1.3-0.1c-0.7,0-1.5-0.1-2.2-0.2c-4.6-0.4-9.5-1.2-13.2-2.2c-3.3-0.9-5.7-1.9-6.8-2.4
		l-0.3-0.1c-0.4-0.2-0.6,0-0.6,0.1c-0.1,0.2,0,0.4,0.2,0.7c0.6,0.6,3.1,2.1,7.1,3.2c3.7,1.1,8.6,2,13.5,2.4c0.8,0.1,1.6,0.1,2.4,0.2
		c0.4,0,0.8,0,1.2,0.1c1.1,0.1,2.2,0.1,3.4,0.1c0.4,0,0.8,0,1.1,0c0.4,0,0.8,0,1.2,0c0.3,0,0.6,0,0.9,0l2.8-0.1
		c1.4,0,2.5-0.1,3.5-0.2c0.3,0,0.5,0,0.8-0.1l1.7-0.1c0.5,0,1.4-0.2,1.4-0.6C51.5,21.5,50.6,21.4,50.1,21.4z"/>
	<path class="st0" d="M98.1,108.2c-3.7,5.9-8.4,10.5-10.8,12.7l0,0c-2.6,2.3-4.9,4-6.2,5.1c-0.5,0.4-0.9,0.7-1.2,0.9
		c-0.4,0.3-0.3,0.6-0.3,0.7c0.1,0.1,0.2,0.2,0.4,0.2c0.1,0,0.3,0,0.4-0.1c1-0.4,4.2-2.2,8-5.5c4.3-3.6,8.4-8.4,11.2-13.1
		c1.5-2.6,2.8-5.3,3.8-8c0.8-2.3,1.4-4.7,1.9-7.4l0.2-1.6l0.1-1.4c0.1-0.8,0.1-1.4,0.1-2l0-0.3c0-1,0-1.7,0-2c0-0.1,0-0.1,0-0.2
		c-0.1-1.8-0.3-1.8-0.5-1.8c-0.1,0-0.4,0-0.5,1.7c0,0,0,0.1,0,0.2c0,0.3,0,1-0.1,2l0,0.4c0,0.6-0.1,1.2-0.2,1.9l-0.2,1.4l-0.3,1.5
		c-0.5,2.6-1.2,4.9-2.1,7.1C100.9,103.1,99.6,105.8,98.1,108.2z"/>
</g>
</svg>
