<?xml version="1.0" encoding="utf-8"?>
<!-- Generator: Adobe Illustrator 25.4.1, SVG Export Plug-In . SVG Version: 6.00 Build 0)  -->
<svg version="1.1" id="XMLID_2_" xmlns="http://www.w3.org/2000/svg" xmlns:xlink="http://www.w3.org/1999/xlink" x="0px" y="0px"
	 viewBox="0 0 55.9 117.8" style="enable-background:new 0 0 55.9 117.8;" xml:space="preserve">
<style type="text/css">
	.st0{fill:#2D3538;}
</style>
<g>
	<g>
		<path class="st0" d="M55.8,13.6c0,0.4-2.2,78.5-2.6,86.7c-0.1,2-0.2,4-0.3,6c-0.1,1-0.1,2-0.2,3c-0.1,1.1-0.5,2.2-1.3,3.1
			c-0.7,0.9-1.8,1.7-3,2.2c-1.1,0.4-2.2,0.8-3.3,1.1c-2.2,0.6-4.4,1.1-6.5,1.4c-4.3,0.6-8.3,0.8-12,0.8c-3.7,0-7-0.3-9.9-0.9
			c-2.9-0.5-5.2-1.3-7-2.1c-1.8-0.8-3-1.6-3.6-2.1c-0.7-0.6-1-1-1-1.2c0.1-0.1,0.5,0,1.3,0.6c0.7,0.4,1.9,1.2,3.6,1.8
			c1.7,0.7,4,1.4,6.8,1.8c2.8,0.4,6,0.7,9.6,0.6c3.6,0,7.6-0.3,11.7-0.9c2.1-0.3,4.1-0.8,6.2-1.4c1-0.3,2-0.7,3-1.1
			c0.9-0.4,1.6-0.9,2.2-1.6c0.6-0.7,0.9-1.5,0.9-2.3c0-1,0.1-1.9,0.1-2.9c0.1-2,0.2-4,0.3-6c0.4-8.2,2.8-86.4,2.8-86.7
			C54.2,7.5,56.1,7.6,55.8,13.6z"/>
	</g>
	<g>
		<path class="st0" d="M2.6,104.8c0-0.4-2.5-94.5-2.5-95.5c-0.2-1.2,0-2.5,0.7-3.6c0.7-1.1,1.8-2,3.1-2.6c0.3-0.2,0.6-0.3,0.9-0.4
			c0.3-0.1,0.6-0.2,1-0.3C6.4,2.2,7,2.1,7.6,1.9c4.9-1.1,7.9-1.5,12.5-1.8c9.1-0.4,17-0.1,23.1,0.8c3,0.4,5.6,0.9,7.6,1.5
			c1,0.3,1.8,0.6,2.6,0.9c0.7,0.3,1.2,0.7,1.6,1c0.7,0.6,0.9,1.2,0.9,1.3c-0.1,0.1-0.4-0.1-1.3-0.8c-0.3-0.2-0.8-0.5-1.5-0.8
			c-0.6-0.3-1.5-0.5-2.5-0.8c-2-0.5-4.5-1-7.5-1.3c-6-0.7-13.9-0.9-22.8-0.4c-4.5,0.3-7.3,0.7-12,1.8C7.7,3.6,7,3.8,6.5,3.9
			C6,4.1,5.4,4.3,4.9,4.5C3.9,5,3.1,5.6,2.7,6.4C2.2,7.1,2.1,8,2.2,9c0.1,1.1,2.4,95.4,2.4,95.8C4.8,111.1,2.9,111.1,2.6,104.8z"/>
	</g>
	<path class="st0" d="M7.7,14.3c-0.9-0.4-1.4-0.7-1.4-0.7c-0.7-0.4-0.9-0.8-0.8-0.8c0.3-0.3,0.8-0.4,1.4-0.1c0.1,0,0.5,0.2,1.3,0.5
		c0.9,0.3,2.1,0.6,3.7,0.9c3.1,0.6,7.4,1.1,11.8,1.3c4.4,0.2,8.8,0.1,12.4-0.2c1.8-0.1,3.3-0.3,4.5-0.4c1.2-0.1,2.1-0.2,2.5-0.2
		c0.4,0,0.7,0.5,0.3,0.8c-0.4,0.2-1.2,0.5-2.4,0.8c-1.2,0.3-2.8,0.6-4.6,0.8c-3.6,0.5-8.2,0.6-12.7,0.3c-4.5-0.3-8.8-1-12-1.8
		C9.9,15.1,8.6,14.6,7.7,14.3z"/>
	<path class="st0" d="M44.5,104.2c-0.3,0.1-2.4,0.6-3.3,0.7c-1.7,0.4-3.8,0.6-6.1,1c-1.1,0.1-2.3,0.2-3.5,0.3
		c-1.2,0.1-2.4,0.1-3.6,0.1c-1.2,0-2.5-0.1-3.7-0.1c-1.2-0.1-2.4-0.2-3.6-0.3c-2.3-0.3-4.5-0.6-6.4-1.1c-3.8-0.9-6.5-2-7.2-2.5
		c-0.4-0.2-0.3-0.6,0.2-0.5c0.8,0.2,3.5,1,7.3,1.6c3.8,0.6,8.6,1,13.2,0.7c1.2-0.1,2.3-0.1,3.5-0.2c9.9-0.9,13-2.2,13.5-2.4
		C49.5,100.2,49.8,102.7,44.5,104.2z"/>
	<path class="st0" d="M50.5,7.9c-0.1,0.2-0.2,0.3-0.3,0.5c-0.1,0.1-0.1,0.1-0.2,0.2c-0.1,0.1-0.2,0.1-0.3,0.2
		c-0.5,0.3-1,0.5-1.5,0.8c-0.7,0.2-1.3,0.4-2,0.7c-0.4,0.1-0.6,0.2-0.8,0.2l-0.7,0.2c-0.9,0.2-1.8,0.4-2.8,0.6
		c-1.8,0.4-3.7,0.6-5.6,0.8c-7.5,0.7-14.9,0.2-20.4-0.7c-2.7-0.4-5-1-6.5-1.5C8,9.4,7.1,9,7,8.9C5.8,8.4,5.4,7.8,5.5,7.8
		c0.3-0.3,0.9-0.2,2,0.2c0.1,0,0.9,0.4,2.4,0.8c1.5,0.4,3.7,0.8,6.4,1.2c5.3,0.7,12.6,1,19.9,0.2c1.8-0.2,3.6-0.5,5.4-0.8
		c0.9-0.2,1.8-0.4,2.6-0.6c0.5-0.1,1.1-0.3,1.6-0.4c0.3-0.1,0.7-0.1,1-0.4c0.2-0.1,0-0.3-0.1-0.3c-0.1-0.1-0.3-0.1-0.4-0.2
		c-0.3-0.1-0.6-0.2-1-0.3c-0.7-0.1-1.5-0.3-2.2-0.4c-5.9-0.9-10.4-1.4-11.7-1.8c-0.7-0.2-0.8-0.7,0-0.8c1.3-0.1,5.9,0,11.9,0.7
		c0.8,0.1,1.5,0.2,2.4,0.4c1.1,0.2,2.4,0.5,3.4,0.9c0.5,0.2,0.9,0.4,1.2,0.7c0.2,0.1,0.3,0.3,0.4,0.5C50.5,7.4,50.6,7.7,50.5,7.9z"
		/>
	<g>
		<path class="st0" d="M8.2,94.3c0-0.2-0.2-4.5-0.4-11c-0.2-6.5-0.5-15.2-0.7-24c-0.5-17.7-0.7-36-0.3-39.1c0.1-0.8,0.6-1.1,0.8-0.1
			c0.5,3.1,1.2,21.5,1.6,39.2c0.2,8.8,0.4,17.5,0.5,24c0.1,6.5,0.2,10.8,0.2,11C9.8,97.4,8.3,97.4,8.2,94.3z"/>
	</g>
</g>
</svg>
