<?xml version="1.0" encoding="utf-8"?>
<!-- Generator: Adobe Illustrator 25.4.1, SVG Export Plug-In . SVG Version: 6.00 Build 0)  -->
<svg version="1.1" id="XMLID_2_" xmlns="http://www.w3.org/2000/svg" xmlns:xlink="http://www.w3.org/1999/xlink" x="0px" y="0px"
	 viewBox="0 0 51.9 54.3" style="enable-background:new 0 0 51.9 54.3;" xml:space="preserve">
<style type="text/css">
	.st0{fill:#2D3538;}
</style>
<g>
	<polygon class="st0" points="19.6,16.2 19.6,16.2 19.6,16.2 	"/>
	<g>
		<path class="st0" d="M51.8,10.7c0,0.4-0.7,10.3-1.6,25.2c-0.1,1.9-0.3,3.8-0.4,5.8c-0.1,1-0.2,2-0.2,3.1c0,0.5-0.1,1-0.1,1.6
			c0,0.3,0,0.5-0.1,0.8l-0.1,0.4c0,0.2-0.1,0.3-0.1,0.5c-0.2,0.7-0.7,1.3-1.2,1.7c-0.5,0.5-1,0.8-1.6,1.1c-1.1,0.6-2.3,1-3.5,1.4
			c-2.4,0.7-4.8,1.1-7.4,1.4c-5,0.6-10.3,0.8-15.6,0.4c-2.7-0.2-5.3-0.5-8-1.1c-1.3-0.3-2.7-0.6-4-1.1c-1.3-0.5-2.6-1-3.8-2
			c-0.6-0.5-1.1-1.1-1.4-2l-0.1-0.3c0-0.1,0-0.3,0-0.3l0-0.5l-0.1-0.9l-0.2-3.8c-0.2-2.5-0.3-5-0.5-7.5c-0.3-5-0.6-10-0.9-14.8
			c-0.3-4.9-0.6-9.6-0.9-14.1L0,4.7c0-0.4,0.2-0.9,0.4-1.2c0.5-0.6,1.1-1,1.7-1.3c1.2-0.5,2.4-0.8,3.5-1.1c2.3-0.5,4.6-0.7,6.8-0.8
			C16.9,0,21,0,24.8,0C28.6,0,32,0.2,35,0.4c3,0.2,5.5,0.6,7.5,0.9c2,0.4,3.5,0.8,4.4,1.1c0.9,0.3,1.5,0.7,1.5,0.8
			c0,0.1-0.1,0.1-0.3,0c-0.3,0-0.6-0.2-1.2-0.3c-0.9-0.3-2.4-0.6-4.4-0.9c-2-0.3-4.5-0.6-7.5-0.7c-3-0.2-6.4-0.2-10.1-0.2
			c-3.8,0-7.9,0.1-12.2,0.4C10.5,1.8,8.3,2,6.1,2.5C5,2.7,3.9,3,2.9,3.5C2.5,3.7,2,4,1.8,4.2C1.7,4.4,1.6,4.5,1.6,4.6c0,0,0,0,0,0.1
			l0,0.2l0,0.4c0.3,4.5,0.6,9.3,1,14.1c0.3,4.9,0.7,9.8,1,14.8c0.2,2.5,0.3,5,0.5,7.6l0.3,3.8l0.1,0.9l0,0.5l0,0.2c0,0,0,0.1,0,0.1
			c0.1,0.4,0.4,0.8,0.8,1.1c0.8,0.7,2,1.2,3.2,1.7c1.2,0.4,2.5,0.7,3.7,1c2.6,0.5,5.2,0.8,7.8,1c5.2,0.4,10.3,0.2,15.2-0.4
			c2.4-0.3,4.8-0.7,7-1.4c1.1-0.3,2.1-0.7,3-1.2c0.4-0.3,0.9-0.5,1.2-0.8c0.3-0.3,0.6-0.6,0.7-1c0-0.1,0.1-0.2,0.1-0.3l0-0.3
			c0-0.2,0.1-0.5,0.1-0.7c0-0.5,0.1-1,0.1-1.5c0.1-1,0.2-2,0.2-3c0.1-2,0.3-3.9,0.4-5.8c1-14.8,1.6-24.7,1.6-25.2
			c0.1-1.8,0.3-3.1,0.6-4c0.1-0.1,0.1-0.3,0.1-0.4c0-0.1,0-0.3,0.1-0.4c0-0.2,0.1-0.4,0.2-0.4c0.1,0,0.3,0,0.5,0.2
			c0.1,0.1,0.2,0.2,0.3,0.4c0.1,0.2,0.2,0.4,0.2,0.7C51.9,7.6,51.9,8.9,51.8,10.7z"/>
	</g>
	<path class="st0" d="M44.3,41.7l-0.2,0.1c-0.2,0.1-0.7,0.3-1.4,0.6c-1.3,0.5-2.6,0.9-4,1.2c-1.7,0.4-3.7,0.8-5.7,1
		C31,44.9,28.8,45,26.4,45c0,0-0.1,0-0.1,0c-4.6,0-9.3-0.6-12.8-1.6c-3.6-1-6.1-2.3-6.8-3c-0.4-0.4-0.3-0.7-0.2-0.9
		c0.1-0.2,0.5-0.3,0.9-0.1c0.9,0.4,3.3,1.4,6.6,2.1c3.5,0.8,8,1.2,12.4,1.2c2.3,0,4.5-0.2,6.4-0.4c1.9-0.2,3.8-0.5,5.4-0.9
		c1.3-0.3,2.5-0.7,3.7-1.1c0.6-0.2,1-0.4,1.2-0.5c0.1,0,0.1-0.1,0.2-0.1c0.9-0.4,1.7-0.1,1.9,0.4C45.5,40.5,45.3,41.2,44.3,41.7z"/>
	<path class="st0" d="M46.6,8.4c-0.1,0.2-0.2,0.3-0.4,0.5C46.1,9,46,9.1,45.9,9.1c-0.5,0.3-1,0.5-1.5,0.7c-1,0.3-2,0.5-2.9,0.6
		c-10.9,1.7-20.7,1-26,0.3C13,10.4,10.6,10,8.9,9.4C7.2,8.8,6.4,8.3,6.4,8.3C5.6,7.9,5.3,7.4,5.1,7.2C5,6.8,4.9,6.6,5,6.4
		c0.1-0.1,0.2-0.2,0.3-0.2C5.6,6,5.8,6.2,6.1,6.4c0.1,0,0.2,0.1,0.3,0.2C6.6,6.7,6.9,6.8,7.3,7c0,0,0.7,0.4,2.2,0.9
		c1.6,0.5,3.8,0.8,6.3,1.1C26.9,10.7,39.4,9,41.3,8.8C42,8.7,43,8.5,43.8,8.3c0.3-0.1,0.7-0.2,1-0.4c0,0,0.1-0.1,0.1-0.1
		c-0.1-0.1-0.3-0.2-0.5-0.2c-0.4-0.2-0.8-0.3-1.1-0.3c-0.7-0.2-1.4-0.3-2.4-0.4c-1.7-0.2-3.3-0.4-4.7-0.5c-3.8-0.3-7.1-0.4-9.2-0.5
		c-1.2,0-2.1-0.1-2.6-0.1c-0.3,0-0.9-0.1-0.9-0.5c0-0.4,0.6-0.5,0.9-0.5c0.2,0,4.9-0.3,11.9,0.1c1.3,0.1,3,0.2,4.8,0.4
		c1,0.1,1.8,0.3,2.6,0.4c0.4,0.1,0.9,0.2,1.4,0.4c0.3,0.1,0.5,0.2,0.7,0.3c0.4,0.2,0.6,0.5,0.8,0.8C46.8,7.5,46.8,8,46.6,8.4z"/>
</g>
</svg>
