<?xml version="1.0" encoding="utf-8"?>
<!-- Generator: Adobe Illustrator 25.4.1, SVG Export Plug-In . SVG Version: 6.00 Build 0)  -->
<svg version="1.1" id="XMLID_2_" xmlns="http://www.w3.org/2000/svg" xmlns:xlink="http://www.w3.org/1999/xlink" x="0px" y="0px"
	 viewBox="0 0 31.9 89.2" style="enable-background:new 0 0 31.9 89.2;" xml:space="preserve">
<style type="text/css">
	.st0{fill:#2D3538;}
</style>
<g>
	<g>
		<path class="st0" d="M31.9,9.8c0,0.3-1.3,60.8-1.5,66.7c-0.1,1.5-0.1,2.9-0.2,4.4c0,0.7-0.1,1.4-0.1,2.1c0,0.8-0.3,1.6-0.7,2.3
			c-0.4,0.7-1,1.2-1.7,1.6c-0.6,0.3-1.2,0.6-1.9,0.8c-1.3,0.5-2.5,0.8-3.7,1c-2.4,0.4-4.8,0.6-6.8,0.5c-2.1,0-4-0.2-5.7-0.6
			c-1.6-0.4-3-0.9-4-1.5c-1-0.6-1.7-1.1-2.1-1.5C3.1,85.1,3,84.8,3,84.7c0-0.1,0.3,0,0.8,0.4c0.4,0.3,1.1,0.8,2.1,1.3
			c1,0.5,2.3,1,3.9,1.3c1.6,0.3,3.4,0.5,5.5,0.5c2.1,0,4.3-0.2,6.7-0.6c1.2-0.2,2.4-0.5,3.5-1c0.6-0.2,1.2-0.5,1.7-0.8
			c0.5-0.3,0.9-0.7,1.3-1.2c0.3-0.5,0.5-1.1,0.5-1.7c0-0.7,0.1-1.4,0.1-2.1c0.1-1.4,0.1-2.9,0.2-4.4c0.2-5.9,1.6-66.5,1.6-66.7
			C31,5.5,32,5.5,31.9,9.8z"/>
	</g>
	<g>
		<path class="st0" d="M1.5,79.8C1.5,79.5,0.1,7.5,0,6.7c-0.1-0.8,0-1.8,0.4-2.6c0.4-0.8,1-1.4,1.8-1.9C2.4,2.1,2.5,2,2.7,2
			c0.2-0.1,0.4-0.2,0.6-0.2C3.6,1.6,4,1.5,4.3,1.4c2.8-0.8,4.5-1.1,7.1-1.3c5.2-0.3,9.7,0,13.2,0.5C26.4,1,27.9,1.3,29,1.8
			c0.6,0.2,1.1,0.4,1.5,0.7c0.4,0.2,0.7,0.5,0.9,0.7c0.4,0.5,0.5,0.9,0.5,1c-0.1,0.1-0.2-0.1-0.7-0.6c-0.2-0.2-0.5-0.4-0.8-0.6
			c-0.4-0.2-0.9-0.4-1.4-0.5c-1.1-0.4-2.6-0.7-4.3-0.9C21.2,1,16.7,0.9,11.6,1.2C9,1.4,7.4,1.7,4.7,2.5C4.4,2.6,4,2.7,3.7,2.9
			C3.4,3,3.1,3.1,2.8,3.3C2.3,3.6,1.8,4,1.5,4.6C1.2,5.2,1.2,5.8,1.3,6.5c0,0.8,1.4,73,1.4,73.2C2.7,84.3,1.6,84.4,1.5,79.8z"/>
	</g>
	<path class="st0" d="M4.4,10.3C3.9,10,3.6,9.8,3.6,9.8C3.2,9.5,3.1,9.3,3.1,9.2C3.3,9,3.6,9,3.9,9.2c0,0,0.3,0.2,0.8,0.4
		c0.5,0.2,1.2,0.5,2.1,0.7c1.8,0.4,4.2,0.8,6.7,0.9c2.5,0.1,5,0,7.1-0.2c1-0.1,1.9-0.2,2.6-0.3c0.7-0.1,1.2-0.2,1.4-0.1
		c0.2,0,0.4,0.4,0.1,0.6c-0.2,0.1-0.7,0.3-1.4,0.6c-0.7,0.2-1.6,0.5-2.6,0.6c-2.1,0.3-4.7,0.5-7.3,0.2c-2.6-0.2-5.1-0.7-6.9-1.3
		C5.7,10.9,4.9,10.6,4.4,10.3z"/>
	<path class="st0" d="M25.4,76c-0.2,0.1-1.4,0.4-1.9,0.5c-1,0.3-2.2,0.5-3.5,0.7c-0.6,0.1-1.3,0.1-2,0.2c-0.7,0.1-1.4,0.1-2.1,0.1
		c-0.7,0-1.4,0-2.1-0.1c-0.7-0.1-1.4-0.1-2.1-0.2c-1.3-0.2-2.6-0.5-3.7-0.8C6,75.8,4.4,75,4.1,74.6c-0.2-0.2-0.1-0.4,0.1-0.3
		c0.5,0.1,2,0.7,4.2,1.2c2.1,0.5,4.9,0.7,7.6,0.5c0.7-0.1,1.3-0.1,2-0.2c5.7-0.7,7.4-1.6,7.7-1.7C28.3,73.1,28.4,75,25.4,76z"/>
	<path class="st0" d="M28.9,5.7c0,0.1-0.1,0.2-0.2,0.3c0,0.1-0.1,0.1-0.1,0.1c0,0-0.1,0.1-0.2,0.1c-0.3,0.2-0.6,0.4-0.8,0.5
		c-0.4,0.2-0.7,0.3-1.1,0.5c-0.2,0.1-0.3,0.1-0.5,0.2l-0.4,0.1C25,7.8,24.5,8,24,8.1c-1.1,0.3-2.1,0.5-3.2,0.6
		c-4.3,0.5-8.5,0.1-11.6-0.5C7.6,7.9,6.3,7.5,5.4,7.1C4.5,6.8,4,6.5,4,6.5C3.3,6.1,3.1,5.7,3.1,5.6c0.2-0.2,0.5-0.1,1.2,0.2
		c0,0,0.5,0.3,1.4,0.5c0.9,0.3,2.1,0.6,3.6,0.8c3,0.5,7.2,0.7,11.3,0.1c1-0.1,2.1-0.3,3.1-0.6c0.5-0.1,1-0.3,1.5-0.4
		c0.3-0.1,0.6-0.2,0.9-0.3c0.2-0.1,0.4-0.1,0.6-0.3c0.1-0.1,0-0.2-0.1-0.3c-0.1-0.1-0.2-0.1-0.2-0.1c-0.2-0.1-0.3-0.1-0.6-0.2
		c-0.4-0.1-0.9-0.2-1.3-0.3c-3.4-0.7-5.9-1-6.7-1.3c-0.4-0.1-0.5-0.5,0-0.6c0.8-0.1,3.4,0,6.8,0.5c0.4,0.1,0.9,0.2,1.3,0.3
		c0.6,0.1,1.4,0.3,1.9,0.6c0.3,0.1,0.5,0.3,0.7,0.5c0.1,0.1,0.2,0.2,0.2,0.3C28.9,5.4,28.9,5.6,28.9,5.7z"/>
	<g>
		<path class="st0" d="M4.7,69.5c0-0.1-0.1-3.3-0.2-8c-0.1-4.7-0.3-11-0.4-17.4C3.8,31.4,3.7,18.1,3.9,15.9c0.1-0.6,0.3-0.8,0.4-0.1
			C4.6,18.1,5,31.4,5.3,44.2c0.1,6.4,0.2,12.7,0.3,17.4c0.1,4.7,0.1,7.8,0.1,8C5.6,71.8,4.8,71.8,4.7,69.5z"/>
	</g>
</g>
</svg>
