<?xml version="1.0" encoding="utf-8"?>
<!-- Generator: Adobe Illustrator 25.4.1, SVG Export Plug-In . SVG Version: 6.00 Build 0)  -->
<svg version="1.1" id="XMLID_2_" xmlns="http://www.w3.org/2000/svg" xmlns:xlink="http://www.w3.org/1999/xlink" x="0px" y="0px"
	 viewBox="0 0 55.8 112.1" style="enable-background:new 0 0 55.8 112.1;" xml:space="preserve">
<style type="text/css">
	.st0{fill:#2D3538;}
</style>
<g>
	<path class="st0" d="M43.1,7.1L43.1,7.1C43,7.1,43,7.1,43,7.1c-0.3,0.2-0.7,0.3-1.1,0.4c-0.8,0.2-1.7,0.4-2.6,0.6
		c-1.8,0.3-3.6,0.4-5.5,0.6c-1.9,0.1-3.7,0.2-5.6,0.3C26.4,9,24.6,9,22.9,9c-3.4-0.1-6.4-0.3-8.7-0.8c-2.3-0.4-3.9-1-4.5-1.3
		C9.4,6.8,9.3,6.8,9.3,6.9c0,0.1,0.1,0.2,0.3,0.4c0.6,0.4,2.1,1.1,4.5,1.7c2.3,0.6,5.4,1,8.8,1.2c1.7,0.1,3.5,0.1,5.4,0.1
		c1.8,0,3.7,0,5.6-0.1c1.9-0.1,3.8-0.2,5.7-0.5c0.9-0.1,1.9-0.3,2.8-0.6c0.5-0.1,0.9-0.3,1.4-0.5c0.1,0,0.1-0.1,0.2-0.1
		c0.1,0,0.2-0.1,0.2-0.2c0.2-0.1,0.3-0.3,0.4-0.4c0.2-0.3,0.4-0.7,0.3-1c0-0.4-0.3-0.8-0.7-1l-0.3-0.2c-0.1-0.1-0.2-0.1-0.3-0.1
		l-0.4-0.2C43,5.2,42.8,5.1,42.5,5c-0.2-0.1-0.5-0.1-0.7-0.2c-1-0.2-1.9-0.3-2.8-0.4c-1.7-0.2-3.3-0.2-4.6-0.2c-1.3,0-2.4,0-3.1,0
		c-0.7,0-1.2,0.1-1.2,0.1C28,4.5,28,4.8,30.1,5c0.1,0,1.7,0.1,4.3,0.3c1.3,0.1,2.8,0.2,4.5,0.5c0.8,0.1,1.7,0.3,2.6,0.5
		c0.2,0.1,0.4,0.1,0.6,0.2c0.2,0.1,0.4,0.1,0.6,0.2L43,6.8c0.1,0,0.1,0,0.1,0l0,0c0,0,0.1,0,0.1,0.1C43.2,7,43.2,7,43.1,7.1
		C43.1,7,43.1,7,43.1,7.1z"/>
	<path class="st0" d="M38.3,23.4c0-0.2-0.1-0.6-0.4-1.2c-0.3-0.5-0.8-1.2-1.6-1.7c-0.8-0.5-1.9-0.8-3-0.8c-0.6,0-1.2,0.1-1.7,0.3
		c-0.1,0.1-0.3,0.1-0.4,0.2l-0.4,0.2c-0.1,0.1-0.3,0.2-0.4,0.3c-0.1,0.1-0.2,0.2-0.4,0.4c-0.1,0.1-0.2,0.3-0.2,0.4
		c0,0.2-0.1,0.3-0.1,0.4c0,0.2,0,0.4,0,0.6c0,0.4,0.1,0.8,0.2,1.2c0.2,0.8,0.5,1.5,1,2.2c0.5,0.6,1.2,1.1,2,1.3
		c0.8,0.1,1.4,0.1,2.1-0.1c1.2-0.3,2.1-1,2.6-1.6c0.5-0.5,0.7-0.9,0.7-0.9c0.3-0.4,0.2-0.7,0.1-0.8c0,0,0,0,0,0c0,0,0,0,0,0
		C38.2,23.7,38.3,23.6,38.3,23.4z M37.6,24.1c0,0-0.2,0.3-0.7,0.8c-0.5,0.4-1.2,1-2.2,1.2c-0.5,0.1-1.1,0.1-1.6,0
		c-0.5-0.1-1-0.4-1.3-0.9c-0.4-0.5-0.6-1.1-0.8-1.7c-0.1-0.3-0.1-0.6-0.1-1c0-0.2,0-0.3,0-0.5c0-0.2,0-0.2,0-0.2
		c0.1,0,0.1-0.1,0.2-0.2c0.1-0.1,0.2-0.1,0.3-0.2l0.3-0.2c0.1,0,0.2-0.1,0.3-0.1c0.3-0.1,0.6-0.2,1-0.2c-0.4,0.2-0.7,0.6-0.7,1.1
		c-0.1,0.9,0.5,2.3,1.7,2.5c1.2,0.2,2.5-0.9,2.6-1.8c0.1-0.3,0-0.6-0.2-0.9c0.4,0.3,0.8,0.6,1,1c0.4,0.4,0.5,0.8,0.7,0.9
		c0.1,0.1,0.1,0.1,0.2,0.1c0,0,0,0,0,0C38,23.7,37.8,23.8,37.6,24.1z"/>
	<path class="st0" d="M4.6,12.4c0.2,1.1,0.7,1.5,0.9,1.5c0.3-0.1,0.3-0.6,0.1-1.7c0-0.1-0.2-0.8-0.3-2.1C5.3,9.5,5.3,8.7,5.3,7.8
		c0-0.8,0.3-1.6,1-2.3C7,4.8,8,4.2,9.2,3.7c1.1-0.5,2.4-0.8,3.8-1.1c2.7-0.6,5.7-1,8.7-1.2c3-0.2,6.1-0.3,9-0.3
		c2.9,0,5.7,0.1,8.1,0.4c2.4,0.3,4.5,0.8,6.1,1.3c1.6,0.5,2.7,1,3.1,1.2c0.6,0.3,0.6,0,0.1-0.3c-0.4-0.3-1.5-0.9-3.1-1.5
		c-1.6-0.6-3.7-1.2-6.2-1.5c-2.5-0.4-5.3-0.6-8.2-0.6c-3-0.1-6,0-9.1,0.2c-3.1,0.2-6.1,0.6-8.9,1.2c-1.4,0.3-2.7,0.7-4,1.2
		c-1.2,0.5-2.4,1.1-3.2,2C5.3,4.9,5.1,5.2,4.9,5.4C4.8,5.7,4.6,5.9,4.5,6.2C4.4,6.5,4.3,6.7,4.2,7c0,0.3-0.1,0.6-0.1,0.8
		c0,0.9,0.1,1.7,0.1,2.4C4.4,11.6,4.6,12.4,4.6,12.4z"/>
	<path class="st0" d="M55.6,50.1c-0.2-2-0.6-4-1.1-6c-0.5-1.9-1.1-3.7-1.8-5.5c-0.6-1.7-1.3-3.4-1.7-5.1c-0.4-1.6-0.6-3.3-0.6-4.8
		c0.1-1.6,0.3-3.1,0.6-4.6c0.6-2.9,1.1-5.6,1.3-8c0.1-1.2,0.1-2.3,0.1-3.3c0-1.1-0.2-2-0.5-2.8c-0.5-1.6-1.1-2.7-1.4-3.4
		c-0.5-0.8-0.8-1.1-0.8-1c-0.1,0.1,0.1,0.6,0.4,1.3c0.3,0.7,0.8,1.8,1.1,3.3c0.2,0.8,0.3,1.6,0.3,2.6c0,1-0.1,2.1-0.2,3.2
		c-0.3,2.3-0.9,4.9-1.5,7.9c-0.3,1.5-0.6,3-0.7,4.7c-0.1,1.7,0.1,3.5,0.6,5.2c0.5,1.7,1.1,3.5,1.7,5.2c0.6,1.7,1.2,3.5,1.7,5.4
		c0.5,1.9,0.8,3.8,1,5.7c0.2,2,0.3,4,0.2,6c-0.1,4.1-0.6,8.3-1.3,12.5c-0.7,4.2-1.6,8.4-2.6,12.6c-0.5,2.1-1,4.2-1.3,6.4
		c0,0.3-0.1,0.6-0.1,0.9c0,0.3,0,0.6,0,0.9c0,0.3,0,0.6,0.1,0.8c0,0.3,0,0.6,0.1,0.8c0.2,1.1,0.5,2.2,1,3.2c0.9,2,2.1,3.7,2.2,5.6
		c0,0.2,0,0.5,0,0.7c0,0.2,0,0.4-0.1,0.6l-0.2,0.6c-0.1,0.2-0.2,0.4-0.3,0.6c-0.4,0.8-0.9,1.6-1.6,2.3c-1.3,1.4-2.9,2.4-4.5,3.2
		c-0.8,0.4-1.7,0.7-2.5,1c-0.4,0.1-0.9,0.3-1.3,0.4c-0.2,0.1-0.4,0.1-0.6,0.2l-0.7,0.1c-3.5,0.8-6.9,1-10,1
		c-6.2-0.3-11.4-1.9-14.1-4.3c-1.4-1.1-2-2.4-2.2-3.3c-0.2-0.9-0.2-1.5-0.2-1.6c0-0.7,0.1-1.4,0.1-1.9c0.1-0.6,0.1-1,0.1-1.4
		c0-0.8,0-1.2-0.1-1.2c-0.1,0-0.3,0.3-0.6,1.1c-0.1,0.4-0.2,0.8-0.4,1.4c-0.1,0.6-0.2,1.2-0.3,2.1c0,0.1,0,0.7,0.2,1.8
		c0.3,1.1,1,2.6,2.5,3.9c1.5,1.3,3.6,2.4,6.1,3.2c2.5,0.8,5.4,1.3,8.7,1.5c3.2,0.1,6.7-0.1,10.4-0.9l0.7-0.1l0.7-0.2
		c0.5-0.1,0.9-0.3,1.4-0.4c0.9-0.3,1.8-0.6,2.7-1.1c1.8-0.8,3.5-2,5-3.5c0.7-0.8,1.4-1.7,1.8-2.7c0.1-0.3,0.2-0.5,0.3-0.8l0.2-0.8
		c0-0.3,0.1-0.6,0.1-0.9c0-0.3,0-0.6,0-0.8c-0.1-1.1-0.4-2.2-0.9-3.2c-0.5-1-1-1.9-1.4-2.8c-0.4-0.9-0.7-1.9-0.9-2.9
		c-0.1-1-0.2-2-0.1-3c0.3-2,0.8-4.1,1.3-6.2c1-4.2,1.9-8.5,2.6-12.7c0.7-4.3,1.2-8.5,1.3-12.7C55.9,54.2,55.7,52.1,55.6,50.1z"/>
	<path class="st0" d="M16.3,46.1c0.9-1.4,1.5-2.8,2.1-4.1c0.5-1.3,1-2.5,1.5-3.6c0.5-1,1-1.9,1.6-2.6c0.6-0.7,1.2-1.1,1.7-1.4
		c0.5-0.2,1-0.4,1.3-0.4c0.7-0.1,0.6-0.5-0.1-0.5c-0.3,0-0.8,0-1.5,0.2c-0.7,0.2-1.4,0.7-2.2,1.4c-0.7,0.7-1.3,1.7-1.9,2.8
		c-0.6,1.1-1.1,2.3-1.7,3.6c-0.6,1.3-1.2,2.6-2,3.8c-0.4,0.6-0.9,1.1-1.5,1.4c-0.6,0.3-1.2,0.5-2,0.5c-1.5,0-3-0.6-4.3-1.5
		c-1.3-0.9-2.4-2.2-3.2-3.6c-1.7-2.8-2.5-6.1-2.7-9.2c-0.1-1.5-0.1-3,0.1-4.4c0.2-1.4,0.4-2.7,0.8-3.9c0.6-2.4,1.4-4.3,2-5.7
		c0.6-1.3,1-2.1,1.1-2.2c0.6-1.1,0.7-1.7,0.4-1.8c-0.2-0.1-0.8,0.2-1.4,1.3c0,0.1-0.5,0.8-1.1,2.2c-0.7,1.4-1.5,3.3-2.2,5.8
		c-0.4,1.2-0.7,2.6-0.9,4.1C0,29.8,0,31.4,0,33c0.2,3.3,1,6.8,2.9,9.9c0.9,1.5,2.1,3,3.7,4c1.5,1.1,3.3,1.7,5.2,1.7
		c0.9,0,1.9-0.2,2.7-0.7C15.3,47.4,15.9,46.8,16.3,46.1z"/>
	<path class="st0" d="M23.4,45.1l-0.3,0c-0.1,0-0.2,0-0.4,0c-0.2,0-0.4-0.1-0.7-0.1c-0.2-0.1-0.5-0.2-0.8-0.2
		c-0.3-0.1-0.5-0.1-0.8-0.1c-0.5,0-1,0-1.4,0.1c-0.4,0.1-0.8,0.2-1.1,0.4c-0.6,0.3-1,0.7-1.1,0.9c-0.2,0.2,0.1,0.4,0.3,0.3
		c0.4-0.1,1.5-0.9,3.3-0.6c0.4,0.1,0.8,0.2,1.3,0.4c0.3,0.1,0.6,0.2,0.9,0.2c0.2,0,0.3,0,0.5,0c0.2,0,0.3,0,0.5,0
		c0.6-0.1,1.3-0.4,1.8-0.8c0.5-0.4,0.9-0.9,1.2-1.5c0.6-1.1,0.9-2.3,1-3.4c0.1-1.1,0-2.1-0.1-3c-0.1-0.9-0.3-1.6-0.5-2.1
		c-0.2-0.5-0.4-0.8-0.4-0.8c-0.2-0.4-0.5-0.5-0.6-0.4c-0.1,0.1-0.1,0.3,0.1,0.7c0,0,0.1,0.3,0.3,0.7c0.1,0.5,0.3,1.1,0.4,1.9
		c0.1,0.8,0.1,1.8,0,2.8c-0.1,1-0.4,2.1-0.9,3C25.1,44.3,24.3,45,23.4,45.1z"/>
	<path class="st0" d="M18.6,22.3c-0.2,0.8-0.3,1.6-0.4,2.4c-0.1,1.6-0.1,3.1,0.3,4.5c0.4,1.4,1.1,2.4,1.9,3c0.8,0.6,1.5,0.8,1.8,0.8
		c0.4,0,0.4-0.4,0.1-0.5c-0.2-0.2-0.7-0.4-1.3-1c-0.5-0.6-1.1-1.5-1.3-2.6c-0.3-1.2-0.3-2.6-0.2-4c0.1-0.7,0.2-1.5,0.4-2.3
		c0.1-0.4,0.2-0.8,0.2-1.2c0.1-0.5,0.1-1.1-0.2-1.6c-0.3-0.5-0.7-0.8-1-1.1c-0.4-0.2-0.8-0.4-1.2-0.6c-0.8-0.3-1.6-0.4-2.3-0.6
		c-1.5-0.3-2.9-0.3-4-0.5c-1.1-0.2-2-0.6-2.6-0.9c-0.6-0.3-1-0.5-1-0.5c-0.5-0.3-0.8-0.4-0.8-0.3c-0.1,0.1,0.1,0.4,0.6,0.7
		c0,0,0.4,0.3,1,0.6c0.6,0.3,1.5,0.8,2.7,1.1c1.2,0.3,2.5,0.5,4,0.8c0.7,0.2,1.4,0.4,2.1,0.6c0.7,0.3,1.3,0.7,1.5,1.1
		c0.1,0.2,0.1,0.5,0.1,0.7C18.8,21.5,18.7,21.9,18.6,22.3z"/>
	<path class="st0" d="M16.2,49.4c0.2-1.2-0.2-1-0.5,0c-0.2,0.5-0.4,1.2-0.5,2.3c-0.2,1.1-0.3,2.4-0.3,4c0,0.8,0.2,1.7,0.4,2.5
		c0.3,0.9,0.7,1.8,1.4,2.6c0.7,0.8,1.8,1.4,2.9,1.7c1.1,0.3,2.3,0.3,3.5,0.2c2.3-0.1,4.8-0.7,7.2-1.9c2.4-1.1,4.5-2.8,6.4-4.8
		c3.8-4.1,6.4-9.3,8.1-14.7c0.8-2.7,1.5-5.5,1.8-8.2c0.2-1.4,0.3-2.7,0.2-4.1c0-1.4-0.3-2.7-0.6-4c-0.2-0.7-0.4-1.3-0.6-1.9
		c-0.3-0.6-0.5-1.2-0.8-1.8c-0.6-1.1-1.4-2.1-2.2-3c-1.7-1.8-3.9-2.9-5.9-3.4c-2.1-0.5-4.1-0.5-5.7-0.4c-1.7,0.1-3.2,0.3-4.4,0.6
		c-2.4,0.6-3.7,1.3-3.8,1.3c-1.8,0.9-2.4,2-2.2,2.1c0.1,0.1,0.8-0.5,2.6-1.4c0.1,0,1.3-0.7,3.7-1.2c1.2-0.2,2.6-0.4,4.2-0.5
		c1.7-0.1,3.5-0.1,5.4,0.4c1.9,0.5,3.8,1.6,5.4,3.2c0.8,0.8,1.5,1.8,2,2.8c0.3,0.5,0.5,1.1,0.8,1.6c0.2,0.6,0.4,1.2,0.6,1.8
		c0.3,1.2,0.5,2.5,0.5,3.7c0,1.3-0.1,2.6-0.3,3.9c-0.3,2.7-1,5.3-1.8,8c-1.7,5.2-4.3,10.3-7.8,14.2c-1.8,1.9-3.8,3.5-6,4.6
		c-1.1,0.6-2.2,0.9-3.3,1.3c-0.6,0.1-1.1,0.3-1.7,0.4c-0.6,0.1-1.1,0.2-1.7,0.2c-1.1,0.1-2.2,0.1-3.1-0.2c-0.9-0.2-1.8-0.7-2.4-1.3
		c-1.2-1.3-1.6-3-1.7-4.5c-0.1-1.5,0-2.8,0.1-3.8C15.9,50.7,16.1,49.9,16.2,49.4z"/>
	<path class="st0" d="M16.4,76.7c0.1,0.6,0.2,1.1,0.3,1.7c0,0.3,0.1,0.6,0.1,0.9c0,0.3,0.1,0.6,0.1,0.9c0,0.3,0,0.6,0,0.9
		c0,0.3,0,0.6-0.1,0.8c-0.1,0.6-0.2,1.2-0.3,1.7c-0.6,2.4-1.4,4.8-1.7,7.4c-0.2,1.3-0.2,2.6-0.1,4c0.2,1.3,0.5,2.6,1.1,3.8
		c0.6,1.2,1.4,2.3,2.4,3.2c0.3,0.2,0.5,0.4,0.8,0.6c0.3,0.2,0.6,0.3,0.9,0.5l0.9,0.4c0.3,0.1,0.6,0.2,0.9,0.3l0.5,0.1l0.5,0.1
		c0.3,0,0.6,0.1,0.9,0.1c0.6,0,1.3,0.1,1.9,0.1c0.3,0,0.6,0,0.9,0c0.3,0,0.6,0,0.9-0.1c0.6,0,1.2-0.1,1.8-0.2
		c2.3-0.4,4.5-1.1,6.4-1.9c3.8-1.8,6.7-4.3,8.5-6.4c1.9-2.1,2.9-3.9,3.3-4.7c0.3-0.5,0.3-0.8,0.2-0.8c-0.1,0-0.3,0.2-0.6,0.6
		c-0.5,0.7-1.6,2.4-3.5,4.4c-1.9,2-4.7,4.3-8.4,5.9c-1.9,0.8-3.9,1.4-6.1,1.8c-0.6,0.1-1.1,0.2-1.7,0.2c-0.6,0.1-1.1,0.1-1.7,0.1
		l-0.4,0l-0.4,0c-0.3,0-0.6,0-0.9,0c-0.3,0-0.6-0.1-0.8-0.1l-0.4-0.1l-0.4-0.1c-2.2-0.6-4.1-2.2-5.1-4.4c-0.5-1.1-0.8-2.2-1-3.4
		c-0.1-1.2-0.1-2.4,0.1-3.6c0.3-2.5,1.1-4.8,1.7-7.3c0.1-0.6,0.3-1.2,0.4-1.9c0-0.3,0.1-0.7,0.1-1c0-0.3,0-0.6,0-0.9
		c-0.1-1.2-0.3-2.5-0.6-3.6c-0.5-2.3-1.4-4.5-2.1-6.5c-0.7-2-1.3-3.9-1.7-5.7c-0.4-1.8-0.5-3.4-0.4-5c0-1.5,0.1-2.8,0.3-3.9
		c0.3-2.2,0.6-3.4,0.7-3.5c0.4-1.7,0.6-2.6,0.4-2.7c-0.2-0.1-0.8,0.7-1.3,2.4c0,0.1-0.4,1.4-0.7,3.6c-0.2,1.1-0.3,2.5-0.3,4
		c-0.1,1.5,0,3.3,0.4,5.2c0.4,1.9,1,3.8,1.7,5.9C15.1,72.4,15.9,74.5,16.4,76.7z"/>
	<path class="st0" d="M34.7,65.6c0,0.2,0.1,0.3,0.1,0.5c0.1,0.2,0.1,0.3,0.2,0.5c0.1,0.3,0.2,0.7,0.4,1c0.6,1.3,1.4,2.5,2.4,3.6
		c1,1.1,2.1,2,3.3,2.7c0.6,0.4,1.2,0.6,1.7,0.9c0.6,0.2,1.1,0.4,1.6,0.5c0.5,0.1,1,0.3,1.4,0.3c0.4,0.1,0.8,0.1,1.1,0.1
		c0.6,0,1,0,1,0c1,0,1-0.4,0-0.5c0,0-0.4,0-1-0.1c-0.3-0.1-0.6-0.1-1-0.2c-0.4-0.1-0.8-0.3-1.3-0.4c-0.5-0.2-1-0.4-1.5-0.6
		c-0.5-0.3-1-0.5-1.5-0.9c-1-0.7-2-1.6-2.9-2.6c-1.7-2-2.9-4.6-2.8-6.7c0-1.1,0.2-2,0.4-2.7c0.2-0.7,0.4-1.1,0.5-1.3
		c0.1-0.3-0.2-0.5-0.4-0.3c-0.2,0.2-0.7,0.6-1,1.4c-0.3,0.8-0.6,1.8-0.7,3c0,0.3,0,0.6,0,0.9C34.6,64.9,34.6,65.3,34.7,65.6z"/>
	<path class="st0" d="M26.3,24.1c-0.3,0.2-0.6,1.7-0.9,3c-0.2,0.7-0.4,1.3-0.7,1.7c-0.1,0.2-0.3,0.4-0.3,0.5
		c-0.1,0.1-0.2,0.2-0.2,0.2c-0.2,0.2-0.1,0.4,0.2,0.2c0,0,0.1,0,0.3-0.1c0.1-0.1,0.4-0.2,0.5-0.4c0.4-0.4,0.9-1,1.2-1.7
		c0.3-0.7,0.5-1.5,0.6-2.1c0.1-0.6,0-1.1-0.1-1.2C26.6,24,26.4,24,26.3,24.1z"/>
	<path class="st0" d="M25.8,30.4c-0.1,0.1-0.2,0.1-0.2,0.1c-0.2,0.2-0.1,0.3,0.1,0.3c0,0,0.1,0,0.2-0.1c0.1,0,0.3-0.2,0.6-0.3
		c0.4-0.3,1-0.8,1.3-1.4c0.4-0.6,0.6-1.3,0.6-1.9c0.1-0.6,0-1-0.2-1.1c-0.1-0.1-0.4-0.1-0.4,0c-0.3,0.2-0.4,1.5-0.9,2.6
		c-0.2,0.6-0.5,1.1-0.8,1.4C26,30.2,25.9,30.3,25.8,30.4z"/>
	<path class="st0" d="M6.2,23c0-0.3-0.3-0.3-0.4-0.1c-0.3,0.4-0.9,1.9-1.2,3.9c-0.4,2.1-0.6,4.7-0.3,7.3c0.2,1.3,0.5,2.6,0.9,3.7
		c0.4,1.1,1,2.1,1.5,2.9c0.6,0.8,1.1,1.4,1.5,1.8c0.4,0.4,0.7,0.6,0.7,0.6c0.4,0.3,0.7,0.3,0.8,0.1c0.1-0.2,0.1-0.4-0.2-0.7
		c0,0-0.2-0.2-0.6-0.6c-0.3-0.4-0.8-1-1.3-1.7c-0.5-0.8-0.9-1.7-1.3-2.8c-0.4-1.1-0.6-2.3-0.8-3.5c-0.3-2.4-0.1-5,0.1-7
		C5.8,24.9,6.1,23.5,6.2,23z"/>
</g>
</svg>
