<?xml version="1.0" encoding="utf-8"?>
<!-- Generator: Adobe Illustrator 25.4.1, SVG Export Plug-In . SVG Version: 6.00 Build 0)  -->
<svg version="1.1" id="XMLID_1_" xmlns="http://www.w3.org/2000/svg" xmlns:xlink="http://www.w3.org/1999/xlink" x="0px" y="0px"
	 viewBox="0 0 32.4 124.1" style="enable-background:new 0 0 32.4 124.1;" xml:space="preserve">
<style type="text/css">
	.st0{fill:#2D3538;}
</style>
<g>
	<g>
		<path class="st0" d="M26.9,10.7c0,0.2,0.1,3.9,0.3,10.1c0.1,3.1,0.2,6.7,0.3,10.9c0,4.2-0.2,8.8-0.9,13.8c-0.4,2.5-1,5-1.9,7.6
			c-0.5,1.3-1,2.5-1.6,3.8c-0.6,1.2-1.2,2.4-1.8,3.7c-1.2,2.5-2.2,5.1-2.6,7.9c-0.1,0.7-0.2,1.4-0.3,2.1c0,0.7-0.1,1.4-0.1,2.2
			c0,1.5-0.1,2.9-0.1,4.4c-0.1,5.9-0.2,11.9-0.2,17.8c0.1,3,0.1,5.9,0.2,8.9c0,1.5,0.1,2.9,0.2,4.4c0.1,0.7,0.1,1.4,0.2,2.1
			c0.1,0.3,0.1,0.7,0.2,1c0.1,0.1,0.1,0.3,0.2,0.4c0,0.1,0.1,0.1,0.1,0.2c0,0,0,0,0.1,0.1c0,0,0,0,0.2,0.1c0.1,0,0.2,0,0.3,0.1
			c0.2,0,0.4,0.1,0.7,0.1c0.4,0.1,0.9,0.2,1.3,0.2c0.9,0.2,1.8,0.3,2.7,0.5c1.8,0.4,3.5,0.8,5.2,1.5c0.4,0.2,0.8,0.4,1.2,0.7
			c0.4,0.3,0.8,0.6,1.1,1c0.2,0.2,0.3,0.5,0.4,0.8c0.1,0.3,0.1,0.6,0.1,0.8l0,0.4c0,0.1-0.1,0.2-0.1,0.4c0,0.1-0.1,0.2-0.1,0.4
			l-0.2,0.3c-0.5,0.8-1.2,1.5-1.9,2c-0.7,0.5-1.5,0.9-2.3,1.2c-3.2,1.3-6.4,1.7-9.4,1.9c-3,0.1-5.9,0-8.6-0.4
			c-1.3-0.2-2.6-0.5-3.8-0.9c-1.2-0.4-2.3-0.9-3.3-1.5c-1-0.6-1.9-1.5-2.3-2.6c-0.2-0.5-0.3-1.2-0.1-1.7c0.2-0.6,0.5-1,0.9-1.4
			c0.7-0.7,1.5-1,2.3-1.3c0.7-0.3,1.4-0.5,2-0.6c1.2-0.3,2.2-0.4,2.9-0.5c0.9-0.1,1.5,0,1.6,0.1c0.1,0.1-0.3,0.3-1.3,0.5
			c-0.6,0.1-1.6,0.3-2.8,0.6c-0.6,0.2-1.3,0.4-1.9,0.7c-0.7,0.3-1.4,0.7-2,1.2c-0.6,0.5-0.9,1.3-0.6,2.1c0.3,0.8,1,1.6,1.9,2.1
			c0.9,0.6,2,1,3.1,1.4c1.1,0.4,2.4,0.6,3.7,0.8c1.3,0.2,2.7,0.3,4.1,0.4c0.7,0,1.4,0,2.1,0c0.7,0,1.5,0,2.2-0.1
			c3-0.2,6.1-0.6,9.1-1.8c0.7-0.3,1.4-0.7,2.1-1.1c0.6-0.5,1.2-1,1.6-1.6c0.1-0.2,0.2-0.3,0.2-0.5l0.1-0.2l0-0.3c0-0.2,0-0.3,0-0.5
			c0-0.1-0.1-0.3-0.2-0.4c-0.4-0.5-1.1-1-1.9-1.3c-1.5-0.7-3.3-1.1-5-1.4c-0.9-0.2-1.8-0.3-2.6-0.5c-0.4-0.1-0.9-0.2-1.3-0.2
			c-0.2,0-0.5-0.1-0.7-0.1c-0.1,0-0.2-0.1-0.4-0.1c-0.1,0-0.1,0-0.2-0.1c-0.1,0-0.2-0.1-0.3-0.1c-0.1-0.1-0.2-0.2-0.3-0.3
			c-0.1-0.1-0.1-0.2-0.2-0.3c-0.1-0.2-0.2-0.4-0.2-0.6c-0.1-0.4-0.2-0.8-0.3-1.1c-0.1-0.7-0.2-1.5-0.3-2.2c-0.1-1.5-0.1-3-0.2-4.4
			c0-1.5,0-3-0.1-4.4L17,97c0-0.8,0-1.5,0-2.2c0-6,0.1-12,0.2-17.9c0-1.5,0.1-2.9,0.1-4.4c0-0.7,0-1.5,0.1-2.2
			c0.1-0.7,0.1-1.5,0.3-2.2c0.5-2.9,1.5-5.6,2.7-8.2c0.6-1.3,1.2-2.5,1.8-3.7c0.6-1.2,1.1-2.4,1.6-3.6c0.9-2.5,1.4-4.9,1.8-7.4
			c0.7-4.9,0.8-9.5,0.9-13.6c-0.1-4.1-0.3-7.8-0.4-10.8c-0.2-6.1-0.4-9.8-0.4-10C25.3,3.9,26.7,3.8,26.9,10.7z"/>
	</g>
	<g>
		<path class="st0" d="M15.7,117.2c0,0-0.2,0-0.5,0c-0.3,0-0.6,0-1.1-0.1c-0.5-0.1-1.1-0.2-1.8-0.4c-0.3-0.2-0.7-0.3-1.1-0.6
			c-0.2-0.2-0.4-0.3-0.5-0.6c-0.1-0.1-0.1-0.3-0.2-0.4c0-0.2-0.1-0.3,0-0.6l0,0.1l0-0.1c0,0,0,0,0,0l0,0.1v0v0v0l0,0l0,0v0
			c0,0,0,0,0,0c0,0,0,0,0-0.1c0,0,0-0.1,0-0.1c0,0,0-0.1,0-0.1c0,0,0,0,0,0c0,0,0,0,0-0.1c0,0,0,0,0-0.1c0.1-0.1,0.1-0.2,0.2-0.3
			c0-0.1,0.1-0.2,0.2-0.2l0.1-0.1l0.1-0.1l0.1-0.1c0,0,0.1-0.1,0.2-0.2c0.1-0.1,0.2-0.2,0.4-0.3c0.1-0.1,0.1-0.1,0.1-0.2l0.1-0.1
			l0.1-0.1c0-0.1,0-0.1,0.1-0.1l0,0l0-0.1l0-0.1c0-0.2,0.1-0.4,0.1-0.6c0.1-0.4,0.1-0.8,0.2-1.3c0.2-1.8,0.3-3.7,0.3-5.9
			c0.1-2.1,0-4.4,0-6.9c0-2.5,0-5,0-7.8c0-5.4,0-11.3-0.2-17.4c-0.1-1.5-0.1-3.1-0.3-4.5c-0.2-1.5-0.7-2.9-1.3-4.2
			c-0.7-1.4-1.5-2.6-2.4-4c-0.8-1.4-1.6-2.8-2.4-4.2l0,0.1l0,0l-0.4-0.6L6.4,54l0,0l-0.3,1c-1.9-3.8-3-7.8-3.8-11.8
			c-0.4-2-0.7-4-0.8-6.1c-0.1-1-0.1-2-0.2-3c0-1,0-2,0-3c0.1-7.8,0.4-15.3,0.9-21.8c0.1-0.8,0.1-1.6,0.2-2.4c0-0.4,0.1-0.8,0.1-1.2
			c0-0.4,0-0.7,0.1-1.2C2.8,3.6,3.3,2.8,4,2.2c0.2-0.1,0.4-0.3,0.5-0.4C4.7,1.7,4.9,1.7,5,1.6c0.3-0.2,0.7-0.3,1-0.4
			c2.8-0.9,5.4-1.1,7.6-1.2c1.1,0,2.2,0,3.1,0c1,0.1,1.8,0.2,2.6,0.3c1.5,0.3,2.7,0.6,3.3,0.9c0.7,0.3,1.1,0.6,1.1,0.8
			c0,0.1-0.1,0.1-0.3,0.1c-0.2,0-0.5-0.1-0.9-0.3c-1.3-0.4-4.4-1.1-8.8-0.8c-2.2,0.1-4.7,0.4-7.3,1.2C6.2,2.4,5.9,2.5,5.6,2.6
			C5.5,2.7,5.3,2.8,5.2,2.9C5,2.9,4.9,3,4.8,3.1C4.3,3.5,4,4,3.9,4.6c0,0.2,0,0.3-0.1,0.5c0,0.2,0,0.4,0,0.6c0,0.4,0,0.8-0.1,1.2
			c0,0.8-0.1,1.6-0.1,2.4c-0.4,6.6-0.7,14-0.7,21.8c0,2,0,3.9,0.2,5.9c0.2,2,0.5,3.9,0.8,5.9c0.8,3.9,1.9,7.9,3.6,11.4l0.3,0.6
			l-0.5,0.4l0,0l0.2-1l0,0l0,0.1c0.8,1.4,1.5,2.7,2.3,4.1c0.9,1.3,1.8,2.7,2.5,4.1c0.7,1.5,1.2,3.1,1.4,4.7c0.2,1.6,0.2,3.1,0.3,4.7
			c0.2,6.1,0.1,12,0.1,17.4c0,2.7-0.1,5.3-0.1,7.8c0,2.4,0,4.8-0.1,6.9c-0.1,2.2-0.2,4.2-0.4,6c0,0.5-0.1,0.9-0.2,1.3
			c0,0.2-0.1,0.4-0.1,0.6l0,0.2l0,0.1c0,0,0,0.1,0,0.1c0,0.2-0.1,0.3-0.2,0.4l-0.1,0.1l-0.1,0.2c-0.1,0.1-0.1,0.2-0.2,0.3
			c-0.1,0.2-0.3,0.3-0.5,0.4c-0.1,0,0,0,0,0l-0.1,0.1c-0.1,0.1-0.1,0.1-0.1,0.2c0,0.1-0.1,0.1-0.1,0.2l-0.1,0.1l0,0.1c0,0,0,0.1,0,0
			c0,0,0,0,0,0l0,0c0,0,0,0,0,0c0,0.1,0,0.1,0,0.1c0,0,0,0,0,0c0,0-0.1,0-0.1,0c-0.1,0-0.1,0-0.1,0c0,0-0.1,0-0.1,0l0,0l0,0l0,0l0,0
			l0,0l0,0l0,0l0,0c0.1,0,0.1,0,0,0c0.1,0,0.2,0,0.3,0.1c0,0,0.1,0,0.1,0l0,0l0,0l0,0c0,0,0,0,0,0.1c0,0.1,0,0.1,0.1,0.2
			c0.1,0.1,0.2,0.2,0.3,0.3c0.2,0.2,0.5,0.3,0.8,0.4c0.6,0.2,1.1,0.3,1.5,0.4c0.4,0.1,0.8,0.1,1,0.1c0.2,0,0.4,0,0.4,0
			c0.7,0,1.3,0,1.9,0c0.5,0,1,0,1.3,0c0.7,0,1,0,1.1,0.1c0.1,0.1-0.2,0.5-1,0.7c-0.4,0.1-0.9,0.2-1.4,0.3
			C17.1,117.2,16.5,117.2,15.7,117.2z"/>
	</g>
	<path class="st0" d="M5,5.9C5.4,6,6.6,6.5,8.4,6.8c1.8,0.4,4,0.5,6.2,0.4c2.2-0.1,4.4-0.5,6-0.8c0.8-0.2,1.5-0.3,1.9-0.5
		c0.5-0.1,0.8-0.1,0.8-0.1c0.8,0,1.3,1.4,0.5,1.8c0,0-0.3,0.1-0.8,0.3c-0.5,0.1-1.2,0.3-2,0.5c-1.7,0.4-4,0.7-6.3,0.7
		c-2.4,0-4.8-0.3-6.6-1C6.3,7.5,5,6.7,4.7,6.3C4.6,6.2,4.7,5.9,5,5.9z"/>
	<path class="st0" d="M15.6,59.4c-0.9,0-1.8-0.3-2.5-0.7c-0.7-0.4-1.2-0.9-1.7-1.4c-0.8-1-1.2-1.8-1.2-2.1c0-0.2,0.3-0.4,0.5-0.3
		c0.3,0.1,0.9,0.7,1.8,1.3c0.9,0.6,2,1.3,3.1,1.2c1.1,0,2.1-0.6,2.8-1.2c0.4-0.3,0.7-0.6,0.9-0.8c0.2-0.2,0.3-0.3,0.3-0.4
		c0.2-0.2,0.5-0.1,0.7,0c0,0,0,0.2,0,0.4c0,0-0.1,0.2-0.2,0.5c-0.1,0.3-0.3,0.7-0.7,1.2c-0.3,0.5-0.8,1-1.4,1.4
		C17.4,59,16.5,59.4,15.6,59.4z"/>
</g>
</svg>
