<?xml version="1.0" encoding="utf-8"?>
<!-- Generator: Adobe Illustrator 25.4.1, SVG Export Plug-In . SVG Version: 6.00 Build 0)  -->
<svg version="1.1" id="XMLID_1_" xmlns="http://www.w3.org/2000/svg" xmlns:xlink="http://www.w3.org/1999/xlink" x="0px" y="0px"
	 viewBox="0 0 72.3 65.4" style="enable-background:new 0 0 72.3 65.4;" xml:space="preserve">
<style type="text/css">
	.st0{fill:#2D3538;}
</style>
<g>
	<g>
		<path class="st0" d="M30.4,3.5c0.1,0,0.6,0,1.5,0c0.9,0,2.3,0,3.9,0.1c1.7,0.1,3.6,0.2,5.8,0.5c1.1,0.2,2.2,0.4,3.4,0.7
			C45.7,5,46.3,5.2,47,5.4c0.2,0.1,0.3,0.1,0.5,0.2l0.2,0.1C47.8,5.9,47.9,5.9,48,6c0.5,0.3,0.9,0.7,1,1.3c0,0.5-0.1,0.9-0.4,1.3
			C48.4,8.7,48.2,8.9,48,9c-0.1,0.1-0.2,0.1-0.3,0.2c-0.1,0-0.1,0.1-0.2,0.1c-0.6,0.3-1.2,0.5-1.7,0.6c-1.2,0.3-2.3,0.5-3.5,0.7
			c-2.3,0.3-4.7,0.5-7.1,0.6c-2.4,0.1-4.8,0.2-7.1,0.2c-2.3,0-4.6,0-6.8-0.1c-4.3-0.2-8.2-0.7-11.1-1.5C7.2,9.2,5.2,8.3,4.5,7.9
			C4.2,7.7,4.1,7.5,4.1,7.4c0-0.1,0.2-0.1,0.6,0.1c0.8,0.3,2.7,1,5.7,1.6c2.9,0.5,6.7,0.9,11,1c2.1,0,4.4,0,6.7-0.1
			c2.3-0.1,4.7-0.2,7-0.3c2.4-0.2,4.7-0.4,7-0.7c1.1-0.2,2.2-0.4,3.3-0.7c0.5-0.1,1-0.3,1.4-0.5c0.1,0,0.1,0,0.1-0.1l0,0
			c0,0,0,0,0,0c0,0,0-0.1,0-0.1c0,0-0.1-0.1-0.1-0.1l-0.2-0.1c-0.1-0.1-0.2-0.1-0.4-0.2c-0.5-0.2-1-0.4-1.6-0.6
			c-1.1-0.3-2.2-0.5-3.2-0.8c-2.1-0.4-4-0.6-5.6-0.8c-1.6-0.2-2.9-0.3-3.9-0.4c-0.9-0.1-1.5-0.2-1.5-0.2C27.7,4,27.7,3.6,30.4,3.5z"
			/>
	</g>
	<g>
		<path class="st0" d="M53.6,24.9c0,0.2-0.2,4.6-0.4,11.2c-0.1,1.6-0.1,3.4-0.2,5.3c0,0.8,0.3,1.7,0.8,2.3c0.3,0.3,0.6,0.6,0.9,0.9
			c0.4,0.2,0.8,0.5,1.3,0.6c1.7,0.7,3.9,0.5,5.4-0.7c1.6-1.2,2.6-3.2,3.3-5.2c0.7-2.1,1-4.3,1.2-6.4c0.2-2.2,0.1-4.4-0.2-6.4
			c-0.3-2.1-0.8-4.1-1.6-5.9c-0.8-1.8-1.8-3.4-3.2-4.2c-0.3-0.2-0.7-0.3-1-0.4c-0.2,0-0.4,0-0.5-0.1c-0.2,0-0.4,0-0.6,0
			c-0.8,0.1-1.5,0.3-2.1,0.6c-0.3,0.2-0.6,0.4-0.8,0.6c-0.3,0.3-0.8,0.5-1.2,0.6c-0.9,0.2-1.8-0.1-2.4-0.6c-0.6-0.5-0.8-1.3-0.8-2
			c0-0.5,0.1-1,0.1-1.5c0.1-0.9,0.2-1.5,0.3-1.9c0.2-0.8,0.6-1,0.6,0c0,0.4,0,1,0,1.9c0,0.4,0,0.9,0,1.4c0,0.4,0.2,0.8,0.5,1.1
			c0.3,0.3,0.9,0.4,1.3,0.3c0.2-0.1,0.5-0.2,0.7-0.4c0.3-0.3,0.6-0.5,1-0.8c0.7-0.5,1.6-0.8,2.6-0.9c0.9-0.1,2.1,0,3,0.5
			c1,0.5,1.7,1.2,2.4,2.1c0.6,0.8,1.1,1.8,1.6,2.7c0.9,1.9,1.4,4.1,1.7,6.3c0.3,2.2,0.4,4.5,0.2,6.8c-0.2,2.3-0.6,4.6-1.3,6.8
			c-0.4,1.1-0.8,2.2-1.5,3.2c-0.6,1-1.4,2-2.4,2.7c-0.5,0.4-1,0.7-1.6,0.9c-0.6,0.2-1.2,0.3-1.8,0.4c-1.2,0.1-2.4-0.1-3.4-0.5
			c-0.5-0.2-1-0.5-1.5-0.8c-0.5-0.3-0.9-0.7-1.3-1.2c-0.7-0.9-1-2-1-3.1c0.1-1.9,0.2-3.7,0.3-5.4c0.4-6.6,0.7-11.1,0.7-11.2
			C53,21.7,53.7,21.7,53.6,24.9z"/>
	</g>
	<g>
		<path class="st0" d="M55.2,8.6c0.1,0,1.1-0.1,2.8,0.1c1.7,0.2,4.2,0.6,6.7,2.2c1.2,0.8,2.4,1.8,3.5,3.2c1,1.3,1.8,2.9,2.5,4.6
			c0.6,1.7,1,3.5,1.3,5.3c0.1,0.9,0.2,1.9,0.3,2.8c0.1,0.9,0.1,1.9,0.1,2.8c0,3.8-0.3,7.7-1.3,11.2c-0.5,1.8-1.2,3.5-2.1,5
			c-0.9,1.5-2,2.8-3.3,3.8c-1.3,1-2.6,1.7-3.9,2c-1.3,0.4-2.5,0.5-3.6,0.5c-2.1,0-3.6-0.4-4.2-0.6c-0.7-0.2-0.7-0.6,0.1-0.5
			c0.6,0.1,2.1,0.3,4.1,0.2c2-0.1,4.6-0.7,6.9-2.6c1.1-0.9,2.1-2.1,3-3.5c0.8-1.4,1.5-3,1.9-4.7c0.9-3.4,1.2-7.2,1.2-10.9
			c0-0.9,0-1.8-0.1-2.8c0-0.9-0.2-1.8-0.3-2.7c-0.3-1.8-0.7-3.5-1.3-5.1c-0.6-1.6-1.4-3-2.3-4.2c-0.9-1.2-2-2.1-3.1-2.8
			c-2.2-1.4-4.5-1.7-6-1.8c-1.5,0-2.5,0.1-2.5,0.1c-1.2,0.2-1.9-0.1-2.1-0.6C53.2,9.3,53.8,8.6,55.2,8.6z"/>
	</g>
	<g>
		<path class="st0" d="M52.7,51.9c0,0.1,0,0.6,0,1.5c0,0.4,0,1.1-0.2,1.8c-0.2,0.7-0.6,1.4-1.1,2.2c-2.2,2.8-6.6,5.2-12.1,6.5
			c-5.5,1.4-12.2,1.8-19.5,1.3C18.9,65.2,18,65.1,17,65c-0.9-0.1-1.9-0.3-2.8-0.4c-1-0.1-1.9-0.4-2.9-0.6c-1-0.2-1.9-0.6-2.9-0.9
			c-1.9-0.7-3.8-1.6-5.4-3.1c-0.4-0.4-0.8-0.8-1.1-1.2l-0.5-0.7l-0.2-0.3L1,57.4c-0.5-1-0.9-2.1-0.8-3.4c0,0,0,0,0,0
			C0.1,43.3,0.1,32.1,0,21.2c0-5.5,0-10.9,0-16.1C0,5,0,4.8,0,4.7c0-0.1,0.1-0.2,0.1-0.3C0.2,4.1,0.4,4,0.5,3.8
			c0.1-0.2,0.3-0.3,0.4-0.5C1.1,3.2,1.2,3.1,1.4,3c0.2-0.1,0.3-0.2,0.5-0.3l0.5-0.2c0.3-0.2,0.6-0.3,1-0.4c1.3-0.4,2.5-0.7,3.8-0.9
			c2.5-0.4,5-0.7,7.4-0.8C24-0.2,32.4,0,39,0.6c3.3,0.3,6,0.8,8.2,1.4c2.2,0.6,3.7,1.3,4.5,1.9c0.4,0.3,0.6,0.6,0.8,0.8
			c0.1,0.2,0.2,0.4,0.1,0.5c-0.1,0.1-0.2-0.3-1-0.9c-0.8-0.5-2.3-1.2-4.4-1.7C45,2.1,42.2,1.7,39,1.4c-6.5-0.5-14.9-0.5-24.4,0.2
			C12.2,1.8,9.8,2,7.4,2.5C6.2,2.7,5,3,3.8,3.4C3.3,3.6,2.7,3.8,2.3,4.1C2,4.3,1.8,4.5,1.7,4.6C1.6,4.8,1.5,5,1.5,5.1
			c0.1,5.2,0.1,10.6,0.2,16C1.8,32,2,43.2,2.1,54c0,0.1,0,0.1,0,0.2c0,0.3,0.1,0.8,0.1,1.2c0.1,0.2,0.1,0.4,0.2,0.6
			c0.1,0.2,0.2,0.4,0.3,0.6l0.1,0.3l0.2,0.3l0.4,0.5c0.3,0.3,0.6,0.7,0.9,1c1.3,1.2,3.1,2,4.8,2.7c0.9,0.3,1.8,0.6,2.7,0.8
			c0.9,0.2,1.8,0.5,2.7,0.6c0.9,0.1,1.8,0.3,2.7,0.4c0.9,0.1,1.8,0.2,2.7,0.2c7.1,0.5,13.6,0,18.9-1.3c2.6-0.6,5-1.4,6.9-2.4
			c1.9-1,3.4-2.1,4.4-3.2c0.5-0.6,0.8-1.1,1-1.6c0.2-0.5,0.2-0.9,0.2-1.4c0.1-0.9,0.1-1.4,0.1-1.5C52.1,45,52.6,45.1,52.7,51.9z"/>
	</g>
	<g>
		<path class="st0" d="M48.7,53.7c-0.1,0-0.7,0.4-1.8,0.9c-1.1,0.5-2.6,1.2-4.5,1.8c-1.9,0.7-4.2,1.3-6.7,1.8
			c-2.5,0.5-5.2,0.8-8,0.9c-5.5,0.2-11.1-0.5-15.4-1.7c-4.3-1.2-7.3-2.9-8-3.5C3.9,53.5,4,53,4.6,53.2c0.9,0.3,3.9,1.5,8.1,2.5
			c4.2,1,9.6,1.7,14.9,1.5c2.7-0.1,5.3-0.3,7.7-0.7c2.4-0.4,4.7-0.9,6.5-1.5c1.9-0.5,3.4-1.1,4.5-1.5c1.1-0.4,1.7-0.7,1.7-0.7
			c0.9-0.4,1.4-0.4,1.5-0.2C49.8,52.8,49.5,53.3,48.7,53.7z"/>
	</g>
</g>
</svg>
