<?xml version="1.0" encoding="utf-8"?>
<!-- Generator: Adobe Illustrator 25.4.1, SVG Export Plug-In . SVG Version: 6.00 Build 0)  -->
<svg version="1.1" id="XMLID_1_" xmlns="http://www.w3.org/2000/svg" xmlns:xlink="http://www.w3.org/1999/xlink" x="0px" y="0px"
	 viewBox="0 0 47.5 55.3" style="enable-background:new 0 0 47.5 55.3;" xml:space="preserve">
<style type="text/css">
	.st0{fill:#2D3538;}
</style>
<g>
	<polygon class="st0" points="18.6,17.4 18.6,17.4 18.6,17.4 	"/>
	<g>
		<path class="st0" d="M47.4,11.5c0,0.5-0.6,7.9-1.5,23.9c-0.1,2-0.3,4.1-0.4,6.2c-0.1,1.1-0.1,2.2-0.2,3.3c0,0.6-0.1,1.1-0.1,1.7
			c0,0.3,0,0.6-0.1,0.9L45,48c0,0.2-0.1,0.4-0.1,0.5c-0.2,0.7-0.6,1.3-1.1,1.9c-0.5,0.5-1,0.9-1.5,1.2c-1.1,0.7-2.2,1.1-3.3,1.5
			c-2.3,0.8-4.6,1.2-7,1.6c-4.8,0.6-8.1,0.8-13.1,0.4c-2.5-0.2-5.1-0.6-7.6-1.2c-1.3-0.3-2.5-0.7-3.8-1.2c-1.2-0.5-2.5-1.1-3.6-2.2
			c-0.5-0.5-1.1-1.2-1.3-2.1l-0.1-0.4c0-0.1,0-0.3,0-0.4l0-0.5l-0.1-1l-0.2-4.1C2,39.4,1.9,36.7,1.7,34c-0.3-5.4-0.6-7.5-0.9-12.7
			C0.6,16,0.3,10.9,0.1,6l0-1c0-0.5,0.2-1,0.4-1.3C0.9,3,1.5,2.7,2,2.3c1.1-0.6,2.2-0.9,3.3-1.2c2.2-0.5,4.4-0.8,6.5-0.9
			C16,0,18.3,0,21.8,0c3.6,0,6.8,0.2,9.6,0.4c2.8,0.2,5.2,0.6,7.1,1c1.9,0.4,3.3,0.9,4.2,1.2c0.9,0.4,1.4,0.8,1.4,0.9
			c0,0.1-0.1,0.1-0.3,0c-0.2,0-0.6-0.2-1.1-0.3c-0.9-0.3-2.2-0.7-4.1-1c-1.9-0.3-4.3-0.6-7.1-0.8c-2.8-0.2-6-0.2-9.6-0.2
			c-3.6,0-5.8,0.1-9.9,0.4c-2,0.2-4.2,0.4-6.3,0.9c-1,0.3-2.1,0.6-3,1.1C2.3,4,1.9,4.3,1.7,4.6C1.6,4.7,1.5,4.8,1.5,5c0,0,0,0,0,0.1
			l0,0.2l0,0.5c0.3,4.9,0.6,10,0.9,15.2c0.3,5.2,0.6,7.3,1,12.7c0.2,2.7,0.3,5.4,0.5,8.1L4.2,46l0.1,1l0,0.5l0,0.2c0,0,0,0.1,0,0.1
			c0.1,0.4,0.4,0.9,0.8,1.2c0.8,0.8,1.9,1.3,3,1.8c1.1,0.5,2.3,0.8,3.5,1.1c2.4,0.6,4.9,0.9,7.3,1.1c4.9,0.4,8.1,0.2,12.7-0.4
			c2.3-0.3,4.6-0.8,6.6-1.5c1-0.4,2-0.8,2.9-1.3c0.4-0.3,0.8-0.6,1.1-0.9c0.3-0.3,0.5-0.7,0.6-1.1c0-0.1,0.1-0.2,0.1-0.3l0-0.4
			c0-0.2,0-0.5,0.1-0.8c0-0.6,0.1-1.1,0.1-1.7c0.1-1.1,0.1-2.2,0.2-3.3c0.1-2.2,0.3-4.2,0.4-6.2c0.9-16,1.5-23.4,1.5-23.9
			c0.1-1.9,0.3-3.4,0.5-4.3c0.1-0.1,0.1-0.3,0.1-0.5c0-0.2,0-0.3,0.1-0.4c0-0.2,0.1-0.4,0.2-0.5c0.1-0.1,0.3,0,0.5,0.2
			c0.1,0.1,0.2,0.2,0.3,0.4c0.1,0.2,0.2,0.4,0.2,0.8C47.5,8.1,47.5,9.6,47.4,11.5z"/>
	</g>
	<path class="st0" d="M40.3,41.7l-0.1,0.1c-0.2,0.1-0.7,0.4-1.3,0.6c-1.2,0.5-2.4,1-3.8,1.3c-1.6,0.5-3.5,0.8-5.4,1.1
		c-2,0.2-4.1,0.4-6.3,0.4c0,0-0.1,0-0.1,0c-4.4,0-7.1-0.6-10.5-1.7c-3.4-1-5.8-2.5-6.4-3.2C6,39.9,6,39.5,6.2,39.3
		C6.3,39.1,6.6,39,7,39.2c0.8,0.4,3.1,1.5,6.2,2.3c3.3,0.9,5.9,1.3,10.1,1.3c2.2,0,4.2-0.2,6.1-0.4c1.8-0.2,3.6-0.6,5.1-1
		c1.2-0.3,2.4-0.7,3.5-1.2c0.6-0.3,1-0.5,1.2-0.6c0.1,0,0.1-0.1,0.2-0.1c0.9-0.4,1.6-0.2,1.8,0.4C41.4,40.4,41.3,41.2,40.3,41.7z"/>
	<path class="st0" d="M42.5,9c-0.1,0.2-0.2,0.4-0.3,0.5c-0.1,0.1-0.2,0.2-0.3,0.3c-0.5,0.4-0.9,0.6-1.4,0.7
		c-0.9,0.4-1.9,0.5-2.7,0.7c-10.4,1.8-17.9,1.1-23,0.3c-2.4-0.4-4.7-0.8-6.3-1.4C6.8,9.5,6,8.9,6,8.9C5.3,8.5,5,8,4.9,7.7
		C4.7,7.4,4.7,7.1,4.7,6.9C4.8,6.7,4.9,6.7,5,6.6c0.3-0.1,0.5,0.1,0.8,0.3C5.9,6.9,6,7,6.1,7.1c0.2,0.1,0.5,0.3,0.8,0.5
		c0,0,0.7,0.5,2.1,1c1.5,0.5,3.6,0.8,6,1.2c10.6,1.8,20.8-0.1,22.5-0.3c0.7-0.1,1.6-0.3,2.4-0.5c0.3-0.1,0.7-0.3,0.9-0.5
		c0,0,0.1-0.1,0.1-0.1c-0.1-0.1-0.3-0.2-0.4-0.3c-0.4-0.2-0.7-0.3-1.1-0.4C38.7,7.6,38,7.4,37,7.3c-1.6-0.3-3.2-0.4-4.4-0.5
		c-3.6-0.3-6.7-0.4-8.7-0.5c-1.2,0-2-0.1-2.5-0.1c-0.2,0-0.9-0.1-0.9-0.5c0-0.4,0.6-0.5,0.8-0.5c0.2,0,4.6-0.3,11.3,0.1
		c1.2,0.1,2.9,0.2,4.6,0.4c1,0.1,1.7,0.3,2.5,0.5c0.4,0.1,0.8,0.2,1.3,0.4c0.2,0.1,0.5,0.2,0.7,0.4c0.4,0.2,0.6,0.5,0.8,0.8
		C42.7,8.1,42.7,8.6,42.5,9z"/>
</g>
</svg>
