<?xml version="1.0" encoding="utf-8"?>
<!-- Generator: Adobe Illustrator 25.4.1, SVG Export Plug-In . SVG Version: 6.00 Build 0)  -->
<svg version="1.1" id="XMLID_1_" xmlns="http://www.w3.org/2000/svg" xmlns:xlink="http://www.w3.org/1999/xlink" x="0px" y="0px"
	 viewBox="0 0 40.2 111.7" style="enable-background:new 0 0 40.2 111.7;" xml:space="preserve">
<style type="text/css">
	.st0{fill:#2D3538;}
</style>
<g>
	<g>
		<path class="st0" d="M23.2,3.6c0,0,0.4,0,1.1-0.1c0.7,0,1.7-0.1,2.9,0c1.2,0,2.7,0,4.3,0.2c0.8,0.1,1.7,0.2,2.6,0.4
			c0.2,0.1,0.5,0.1,0.7,0.2c0.2,0.1,0.5,0.1,0.7,0.2l0.4,0.1l0.1,0L36,4.7l0.3,0.2l0.1,0.1c0,0,0.1,0.1,0.1,0.1
			c0.1,0.1,0.2,0.1,0.2,0.2C36.9,5.4,37,5.6,37,5.8c0,0.3-0.1,0.7-0.4,0.9c-0.1,0.1-0.3,0.3-0.4,0.4c-0.1,0.1-0.1,0.1-0.2,0.1
			c-0.1,0-0.1,0.1-0.2,0.1c-0.4,0.2-0.8,0.4-1.3,0.5c-0.8,0.3-1.7,0.5-2.6,0.6c-1.7,0.3-3.5,0.5-5.3,0.7c-3.6,0.3-7.1,0.3-10.3,0.2
			C13.1,9.1,10.2,8.6,8.1,8C5.9,7.3,4.4,6.6,3.9,6.2C3.5,5.9,3.5,5.7,4,5.9c0.6,0.3,2,0.9,4.2,1.4c2.2,0.5,5,0.9,8.2,0.9
			c3.2,0,6.7-0.1,10.2-0.4c1.8-0.2,3.5-0.4,5.2-0.7c0.8-0.2,1.6-0.4,2.4-0.6c0.4-0.1,0.7-0.3,1-0.4L35.4,6c0,0,0,0,0,0
			c0,0,0,0,0-0.1c0,0,0,0-0.1-0.1l0,0l-0.1,0L35,5.7c-0.2-0.1-0.4-0.1-0.6-0.2c-0.2-0.1-0.4-0.1-0.6-0.1C33,5.2,32.1,5.1,31.4,5
			c-1.6-0.2-3-0.3-4.2-0.4c-2.4-0.2-3.9-0.3-4-0.3C21.2,4,21.2,3.8,23.2,3.6z"/>
	</g>
	<g>
		<path class="st0" d="M29.1,1.7c-0.3,0-4.3-0.5-11.3-0.4c-1.7,0-3.6,0.1-5.7,0.2c-2,0.1-4.3,0.4-6.5,0.9C5.1,2.6,4.6,2.7,4,2.9
			C3.5,3.1,2.9,3.4,2.5,3.7C2,4,1.6,4.4,1.4,4.8c0,0.1-0.1,0.2-0.1,0.3l0,0.2c0,0.1,0,0.1,0,0.2c0,0.3,0,0.7,0,1c0,2.7,0,5.5,0,8.4
			C0.9,26.6,3.4,40.1,6.1,54.5c0.7,3.6,1.4,7.3,2,11.1c0.2,0.9,0.3,1.9,0.5,2.8c0.2,0.9,0.3,1.9,0.4,2.9c0.1,1,0.3,1.9,0.4,2.9
			c0.1,1,0.2,1.9,0.2,2.9c0,0.5,0.1,1,0,1.5l0,1.5c0,1,0,2-0.1,3c0,1-0.1,2-0.2,3l-0.1,1.5l-0.2,1.5c-0.4,4-1.3,7.9-2.7,11.7
			c-0.3,0.9-0.7,1.9-0.9,2.8c-0.1,0.2-0.1,0.5-0.2,0.7c0,0.1,0,0.2-0.1,0.3l0,0.3c0,0.1,0,0.2,0,0.3l0,0.3c0,0.1,0,0.2,0.1,0.3
			c0,0.1,0,0.2,0.1,0.3c0.3,0.8,1,1.4,1.7,1.9c0.8,0.5,1.6,0.9,2.5,1.2c1.8,0.6,3.8,1,5.7,1.2c1,0.1,2,0.2,2.9,0.2c1,0,2,0.1,2.9,0
			c2,0,3.9-0.1,5.9-0.3c1.9-0.2,3.8-0.6,5.6-1.3l0.7-0.3c0.2-0.1,0.4-0.2,0.6-0.3l0.3-0.2l0.3-0.2c0.2-0.1,0.4-0.2,0.6-0.4
			c0.7-0.5,1.3-1.2,1.6-2c0.1-0.2,0.1-0.4,0.2-0.6c0-0.2,0-0.4,0-0.6c0-0.2,0-0.4-0.1-0.6c-0.1-0.2-0.1-0.4-0.2-0.7
			c-0.2-0.9-0.6-1.8-0.9-2.7c-1.3-3.6-2.6-7.2-3.4-10.9c-0.4-1.8-0.7-3.7-0.7-5.6c0-0.5,0-0.9,0.1-1.4c0-0.5,0.1-0.9,0.1-1.4
			c0-0.5,0.1-0.9,0.1-1.4c0.1-0.4,0.1-0.9,0.2-1.3c0.5-3.6,1-7,1.6-10.4c0.6-3.4,1.1-6.7,1.6-9.9c2.1-12.8,3.6-24,4-32.7
			c0-1.1,0.1-2.1,0.1-3.2c0-1,0-2,0-2.9c0-1.9,0-3.6,0-5.1c0-3,0.1-5.3,0.1-6.7c0.1-2.9,0.3-3.8,0.4-0.3c0,1.4,0,3.7,0.1,6.7
			c0,1.5,0,3.2,0,5.1c0,0.9,0,1.9,0,2.9c0,1,0,2.1,0,3.2c-0.2,8.8-1.7,20.1-3.7,32.9c-0.5,3.2-1,6.5-1.6,9.9
			c-0.5,3.4-1.1,6.9-1.6,10.4c-0.1,0.9-0.2,1.8-0.3,2.7c0,0.4-0.1,0.9-0.1,1.3c0,0.4,0,0.9-0.1,1.3c0,1.8,0.2,3.6,0.6,5.4
			c0.8,3.6,2.1,7.1,3.4,10.7c0.3,0.9,0.7,1.8,0.9,2.8c0.1,0.5,0.3,1,0.3,1.5c0,0.3,0,0.6,0,0.8c0,0.3-0.1,0.5-0.2,0.8
			c-0.3,1.1-1.1,1.9-1.9,2.6c-0.8,0.6-1.8,1.1-2.7,1.5c-1.9,0.7-3.9,1.1-5.9,1.4c-2,0.2-4,0.4-6,0.4c-1,0-2,0-3,0
			c-1-0.1-2-0.1-3-0.2c-2-0.2-4-0.5-6-1.2c-1-0.3-1.9-0.8-2.8-1.3c-0.9-0.6-1.7-1.4-2.2-2.4c-0.1-0.3-0.2-0.6-0.3-0.9
			c0-0.3-0.1-0.6,0-0.9c0-0.6,0.1-1.1,0.3-1.6c0.3-1,0.6-2,0.9-2.9c1.4-3.7,2.2-7.5,2.7-11.4L8,87.4l0.1-1.5C8.2,85,8.3,84,8.3,83
			c0-0.5,0.1-1,0.1-1.5l0-1.5l0-1.5c0-0.5,0-1,0-1.4c0-0.9-0.1-1.9-0.2-2.9c-0.1-1-0.2-1.9-0.4-2.9c-0.1-0.9-0.3-1.9-0.4-2.8
			c-0.1-0.9-0.3-1.9-0.5-2.8c-0.6-3.7-1.4-7.4-2-11c-1.4-7.2-2.7-14.2-3.6-20.9c-0.2-1.7-0.5-3.3-0.6-5c-0.1-0.8-0.2-1.6-0.3-2.4
			c-0.1-0.8-0.1-1.6-0.2-2.4c0-0.4-0.1-0.8-0.1-1.2c0-0.4,0-0.8,0-1.2C0,21,0,20.2,0,19.4c0-1.5,0-3,0-4.5C0,12,0,9.2,0,6.5
			c0-0.3,0-0.7,0-1l0-0.1l0-0.2l0-0.3c0-0.2,0.1-0.4,0.2-0.6C0.6,3.5,1.2,3,1.7,2.6c0.6-0.4,1.2-0.7,1.8-0.9
			c0.6-0.2,1.2-0.4,1.8-0.5c2.4-0.6,4.7-0.8,6.7-0.9c2.1-0.1,4-0.2,5.8-0.2c7-0.1,11.1,0.4,11.4,0.4c5.7,0.6,8.4,1.6,8.3,1.9
			C37.5,2.7,34.7,2.3,29.1,1.7z"/>
	</g>
	<g>
		<path class="st0" d="M4.6,16.1c0,0.1,0,0.9,0,2.3c0,0.7,0,1.6,0,2.6c0,0.5,0,1,0,1.6c0,0.3,0,0.6,0,0.9c0,0.3,0,0.6,0.1,0.9
			c0.3,5,1.3,12.1,2.8,20.6c0.8,4.2,1.7,8.8,2.6,13.6c0.5,2.4,0.9,4.9,1.4,7.5c0.4,2.6,0.9,5.2,1.2,7.9c0.1,0.7,0.1,1.4,0.2,2
			c0.1,0.7,0.1,1.4,0.1,2.1c0,1.4,0,2.8,0,4.2c-0.1,2.8-0.3,5.6-0.7,8.5c-0.2,1.4-0.4,2.9-0.7,4.3c-0.3,1.4-0.8,2.8-0.6,4.1
			c0.1,0.6,0.2,1.2,0.6,1.7c0.4,0.5,0.9,0.8,1.5,1c1.2,0.5,2.7,0.7,4.1,0.8c1.4,0.1,2.9,0.1,4.3,0.1l1.1,0l1.1-0.1
			c0.7,0,1.4-0.2,2.1-0.2c1.4-0.2,2.8-0.5,3.9-1.2c0.5-0.4,1-0.8,1.2-1.4c0.2-0.6,0.3-1.2,0.2-1.9c-0.1-0.7-0.3-1.3-0.5-2.1
			c-0.2-0.7-0.4-1.4-0.5-2.1c-0.3-1.4-0.6-2.9-0.8-4.3c-0.2-1.4-0.4-2.9-0.5-4.3c-0.1-1.4-0.1-2.9,0-4.3c0-0.4,0-0.7,0.1-1.1
			l0.1-1.1c0.1-0.7,0.2-1.4,0.3-2.1c0.2-1.4,0.4-2.7,0.6-4.1c0.4-2.7,0.8-5.4,1.2-8c0.8-5.2,1.5-10.2,2.2-14.9
			c1.3-9.4,2.2-17.6,2.5-24c0-0.8,0-1.6,0.1-2.3c0-0.7,0-1.5,0-2.1c0-1.4,0-2.6,0.1-3.7c0-2.2,0.1-3.9,0.1-4.9
			c0.1-2.1,0.3-2.8,0.4-0.2c0,1,0.1,2.7,0.1,4.9c0,1.1,0,2.3,0.1,3.7c0,0.7,0,1.4,0,2.1c0,0.7,0,1.5,0,2.3
			c-0.1,6.5-0.9,14.8-2.1,24.2c-0.6,4.7-1.3,9.7-2.1,14.9c-0.4,2.6-0.8,5.3-1.2,8c-0.2,1.4-0.4,2.7-0.6,4.1
			c-0.1,0.7-0.2,1.4-0.3,2.1l-0.1,1c0,0.3-0.1,0.7-0.1,1c-0.1,1.4-0.1,2.8-0.1,4.2c0,1.4,0.1,2.8,0.3,4.2c0.2,1.4,0.4,2.8,0.7,4.2
			c0.1,0.7,0.3,1.4,0.4,2.1c0.2,0.7,0.4,1.4,0.5,2.2c0.1,0.8,0.1,1.6-0.2,2.4c-0.3,0.8-0.9,1.4-1.5,2c-1.3,1-2.8,1.4-4.3,1.7
			c-0.7,0.1-1.5,0.2-2.2,0.3l-1.1,0.1c-0.4,0-0.7,0-1.1,0l-1.1,0l-1.1,0c-0.7,0-1.5-0.1-2.2-0.1c-1.5-0.2-3-0.4-4.5-1
			c-0.7-0.3-1.4-0.7-2-1.4c-0.6-0.7-0.8-1.5-0.9-2.3c-0.1-1.6,0.4-3.1,0.6-4.4c0.3-1.4,0.5-2.8,0.7-4.2c0.4-2.8,0.6-5.6,0.6-8.4
			c0-1.4,0.1-2.8,0-4.1c0-0.7,0-1.3-0.1-2c-0.1-0.7-0.1-1.3-0.2-2c-0.3-2.7-0.7-5.3-1.2-7.8c-0.4-2.5-0.9-5-1.4-7.5
			C8.1,54,7.2,49.4,6.4,45.2c-1.5-8.5-2.5-15.6-2.8-20.7c0-0.3,0-0.6-0.1-0.9c0-0.3,0-0.6,0-0.9c0-0.6,0-1.1,0-1.6c0-1,0-1.9,0-2.6
			c0-1.4,0-2.2,0-2.3C3.4,7.9,4.6,7.9,4.6,16.1z"/>
	</g>
</g>
</svg>
