<?xml version="1.0" encoding="utf-8"?>
<!-- Generator: Adobe Illustrator 25.4.1, SVG Export Plug-In . SVG Version: 6.00 Build 0)  -->
<svg version="1.1" id="XMLID_2_" xmlns="http://www.w3.org/2000/svg" xmlns:xlink="http://www.w3.org/1999/xlink" x="0px" y="0px"
	 viewBox="0 0 44 84.4" style="enable-background:new 0 0 44 84.4;" xml:space="preserve">
<style type="text/css">
	.st0{fill:#2D3538;}
</style>
<g>
	<g>
		<path class="st0" d="M25.1,3.9c0,0,0.5,0,1.2,0c0.8,0,1.8,0,3.2,0c1.3,0,2.9,0.1,4.7,0.2C35.1,4.1,36,4.2,37,4.3
			c0.5,0.1,1,0.2,1.5,0.3c0.1,0,0.4,0.1,0.6,0.1c0.2,0.1,0.4,0.1,0.6,0.2C39.8,5,39.9,5,40,5.1l0.2,0.1c0.2,0.1,0.2,0.2,0.4,0.3
			l0,0.2c0,0.1,0,0.2,0,0.2c0,0.2-0.1,0.3-0.1,0.4c-0.1,0.2-0.4,0.5-0.7,0.6c-0.3,0.2-0.8,0.3-1.1,0.5c-0.2,0.1-0.5,0.1-0.7,0.2
			c-1,0.2-1.9,0.4-2.9,0.5c-1.9,0.2-3.9,0.4-5.9,0.5c-2,0.1-4,0.1-5.9,0.1c-1.9,0-3.8,0-5.6-0.1c-1.8-0.1-3.5-0.2-5.1-0.4
			C11,8,9.6,7.8,8.3,7.5C5.9,7,4.2,6.4,3.5,6.1C3,5.9,2.9,5.6,3.6,5.8C4.2,6,6,6.5,8.4,6.9c1.2,0.2,2.6,0.4,4.2,0.5
			c1.6,0.1,3.2,0.2,5,0.2c1.8,0,3.7,0,5.6-0.1c1.9,0,3.9-0.1,5.9-0.2c2-0.1,3.9-0.3,5.8-0.5c0.9-0.1,1.9-0.3,2.7-0.5
			c0.2-0.1,0.4-0.1,0.6-0.2c0.1,0,0.1,0,0.1,0c0,0,0.1,0,0.1,0c0,0,0-0.1,0-0.1c0,0-0.1,0-0.1,0l-0.2,0c-0.5-0.1-0.9-0.2-1.4-0.3
			c-0.9-0.2-1.8-0.3-2.7-0.4c-1.7-0.2-3.3-0.3-4.6-0.4c-2.6-0.2-4.3-0.3-4.4-0.3C22.9,4.3,22.9,4,25.1,3.9z"/>
	</g>
	<g>
		<path class="st0" d="M32.6,72.4c0.1,0,1,0.1,2.5,0.5c0.8,0.2,1.7,0.4,2.7,0.9c0.5,0.3,1.1,0.5,1.6,1c0.1,0.1,0.3,0.3,0.4,0.4
			c0.1,0.1,0.2,0.3,0.3,0.5c0.1,0.2,0.2,0.4,0.3,0.6c0.1,0.2,0.1,0.4,0.1,0.6c0.1,0.8-0.2,1.7-0.7,2.4c-0.5,0.7-1.1,1.2-1.7,1.7
			c-1.3,0.9-2.9,1.6-4.5,2.1c-3.2,1-6.8,1.4-10.4,1.4c-3.6,0-7.2-0.2-10.6-0.9C11,83,9.3,82.5,7.8,81.8c-0.7-0.4-1.5-0.8-2.1-1.4
			c-0.2-0.1-0.3-0.3-0.5-0.4c-0.1-0.2-0.3-0.3-0.4-0.5c-0.1-0.1-0.1-0.2-0.2-0.2L4.4,79c-0.1-0.2-0.2-0.3-0.3-0.5
			c-0.1-0.2-0.2-0.4-0.3-0.6c-0.1-0.2-0.1-0.4-0.2-0.6c-0.1-0.2,0-0.4-0.1-0.6l0-0.3L3.7,76c0.1-0.5,0.3-0.8,0.6-1.1
			c0.3-0.3,0.5-0.5,0.8-0.7c1.1-0.8,2.3-1.1,3.2-1.3c2-0.5,3.4-0.5,4-0.5c0.7,0,0.9,0.4,0.1,0.6c-0.6,0.1-2,0.3-3.8,0.9
			c-0.9,0.3-1.9,0.7-2.8,1.3c-0.4,0.3-0.8,0.7-0.9,1.1c0,0.1,0,0.1,0,0.2c0,0.1,0,0.1,0,0.2c0,0.1,0,0.3,0,0.4
			c0,0.1,0.1,0.3,0.1,0.4c0.1,0.1,0.1,0.3,0.2,0.4c0.6,1,1.8,1.9,3.1,2.6c1.4,0.7,2.9,1.1,4.5,1.5c1.6,0.4,3.3,0.5,5,0.7
			c1.7,0.1,3.5,0.2,5.2,0.1c3.5-0.1,6.9-0.4,10-1.3c1.5-0.4,2.9-1,4.1-1.8c0.6-0.4,1.1-0.8,1.4-1.3c0.3-0.5,0.5-1,0.5-1.4
			c0-0.4-0.3-0.8-0.6-1.1c-0.4-0.3-0.8-0.6-1.2-0.8c-0.9-0.4-1.7-0.7-2.5-0.9c-1.4-0.4-2.3-0.5-2.4-0.6c-1.2-0.2-1.8-0.5-1.8-0.8
			C30.7,72.5,31.3,72.3,32.6,72.4z"/>
	</g>
	<g>
		<path class="st0" d="M38.2,1.9c-0.2,0-2.4-0.4-6.2-0.6C28.2,1.1,22.8,1,16.4,1.2c-3.2,0.1-6.7,0.3-10.3,1C5.7,2.3,5.2,2.4,4.8,2.5
			L4.2,2.7C3.9,2.8,3.7,2.9,3.5,3C2.7,3.3,1.9,3.7,1.6,4.4C1.5,4.5,1.5,4.7,1.4,4.8c0,0.2,0,0.3,0,0.6c0,0.5,0,1,0,1.5c0,1,0,2,0,3
			c0.1,4,0.4,8.2,0.9,12.5c0.5,4.2,1.1,8.6,2.4,12.6c0.3,1,0.7,2,1.2,3c0.4,1,1,1.9,1.6,2.7c0.6,0.9,1.3,1.6,2.1,2.3
			c0.8,0.7,1.6,1.3,2.6,1.7C13,45.3,14,45.7,15,46c1,0.3,2,0.5,3.1,0.6c2.1,0.3,4.2,0.3,6.3,0.2c1-0.1,2-0.2,3-0.4
			c1-0.2,2-0.4,2.9-0.8c0.2-0.1,0.5-0.2,0.7-0.3c0.2-0.1,0.4-0.2,0.7-0.3c0.4-0.2,0.9-0.4,1.3-0.7c0.8-0.5,1.5-1.1,2.2-1.8
			c1.3-1.3,2.3-2.9,3.1-4.6c0.8-1.7,1.4-3.4,1.8-5.1c0.9-3.4,1.4-6.7,1.7-9.7c0.4-3,0.6-5.8,0.8-8.2c0.4-4.8,0.7-8.2,0.9-9.8
			C43.6,3.6,44,3.1,44,5.1c0,1.6-0.2,5-0.5,9.9c-0.1,2.4-0.3,5.2-0.6,8.3c-0.2,1.5-0.3,3.1-0.6,4.8c-0.3,1.7-0.6,3.4-1,5.2
			c-0.4,1.8-1,3.6-1.8,5.3c-0.8,1.8-1.9,3.5-3.4,5c-0.4,0.4-0.8,0.7-1.2,1.1c-0.4,0.3-0.8,0.7-1.3,0.9c-0.9,0.6-1.9,1.1-2.9,1.5
			c-2,0.8-4.2,1.2-6.3,1.3c-2.2,0.1-4.4,0.1-6.6-0.1c-0.6-0.1-1.1-0.2-1.7-0.3c-0.5-0.1-1.1-0.2-1.6-0.4c-1.1-0.3-2.2-0.7-3.2-1.2
			c-1-0.5-2-1.2-2.9-2c-0.4-0.4-0.8-0.8-1.2-1.2c-0.4-0.4-0.8-0.9-1.1-1.4c-0.7-0.9-1.3-1.9-1.7-3c-0.5-1-0.9-2.1-1.3-3.2
			c-1.4-4.3-2-8.7-2.4-13C0.4,18.3,0.1,14.1,0,10c0-1,0-2,0-3c0-0.5,0-1,0-1.5c0-0.2,0-0.5,0.1-0.8C0.2,4.3,0.2,4,0.4,3.7
			C0.6,3.5,0.8,3.2,1,3c0.2-0.2,0.4-0.4,0.7-0.5c0.2-0.1,0.5-0.3,0.7-0.4C2.5,1.9,2.8,1.9,3,1.8c0.2-0.1,0.5-0.2,0.7-0.3l0.7-0.2
			C4.9,1.2,5.4,1.1,5.8,1c3.7-0.7,7.3-0.8,10.5-0.9c6.5-0.1,11.9,0,15.7,0.3c3.8,0.2,6.1,0.6,6.3,0.6c1.6,0.2,2.7,0.6,3.4,0.9
			c0.7,0.3,1.1,0.6,1,0.7c-0.1,0.1-0.4,0-1.2-0.1C40.9,2.3,39.7,2.1,38.2,1.9z"/>
	</g>
	<g>
		<path class="st0" d="M28.7,74.5c0,0-0.6,0.4-1.7,0.8c-1.1,0.4-2.7,0.6-4.5,0.6c-0.9,0-2,0-3.1-0.2c-1.1-0.2-2.2-0.5-3.3-1.1
			c-0.5-0.3-1.1-0.7-1.5-1.3c-0.2-0.3-0.4-0.6-0.5-1c-0.1-0.2-0.1-0.4-0.1-0.6c0-0.2,0-0.4,0-0.6c0-0.4,0.1-0.7,0.2-1.1
			c0.1-0.4,0.3-0.7,0.5-1c0.4-0.6,1-1,1.2-1.3c0.4-0.5-0.4-1.7-1-2.8c-0.6-1.1-1.2-2.3-1.4-3.6c-0.1-0.3-0.1-0.6-0.1-0.9
			c0-0.3-0.1-0.6-0.1-0.9c0-0.6,0.1-1.3,0.2-1.9c0.3-1.2,0.9-2.2,1.6-3c0.6-0.8,1.3-1.5,1.7-2.2c0.4-0.7,0.6-1.3,0.7-2
			c0-0.5-0.3-0.9-0.7-1.1c-0.3-0.3-0.7-0.5-0.8-0.7c-0.2-0.2-0.1-0.5,0-0.5c0.1-0.1,0.2,0,0.3,0.2c0.1,0.1,0.4,0.3,0.9,0.5
			c0.2,0.1,0.5,0.3,0.7,0.5c0.2,0.3,0.4,0.7,0.5,1.1c0,0.8-0.2,1.7-0.6,2.5c-0.5,0.8-1.1,1.6-1.7,2.4c-0.6,0.8-1.1,1.7-1.3,2.7
			c-0.2,1-0.2,2.1,0.1,3.2c0.2,1.1,0.7,2.2,1.3,3.2c0.3,0.5,0.6,1,0.9,1.7c0.1,0.3,0.3,0.6,0.4,1.1c0.1,0.4,0,0.9-0.2,1.3
			c-0.2,0.4-0.5,0.6-0.7,0.9c-0.2,0.2-0.4,0.4-0.6,0.6c-0.3,0.4-0.5,0.8-0.5,1.3c0,0.5,0.1,0.9,0.4,1.3c0.3,0.4,0.7,0.7,1.2,1
			c0.9,0.5,1.9,0.8,2.9,1c1,0.2,1.9,0.2,2.8,0.2c1.8,0,3.3-0.2,4.3-0.5c1-0.3,1.5-0.6,1.5-0.6c0.7-0.4,1-0.6,1.2-0.5
			c0.1,0,0.2,0.2,0.1,0.5C29.4,73.9,29.1,74.3,28.7,74.5z"/>
	</g>
	<g>
		<path class="st0" d="M29.6,71.5c0,0,0-0.4-0.2-0.9c-0.1-0.3-0.3-0.6-0.6-0.9c-0.3-0.3-0.7-0.6-1.1-1.3c-0.2-0.3-0.3-0.7-0.2-1.1
			c0-0.4,0.2-0.7,0.3-1.1c0.3-0.6,0.7-1.2,1-1.8c0.7-1.2,1.2-2.6,1.3-4.1c0-0.7,0.1-1.5-0.1-2.1c-0.2-0.7-0.4-1.3-0.8-1.9
			c-0.7-1.2-1.8-2.2-2.4-3.5c-0.3-0.6-0.5-1.3-0.5-1.9c0-0.3,0-0.7,0.2-1c0.1-0.3,0.3-0.5,0.5-0.7c0.4-0.3,0.7-0.5,1-0.6
			c0.3-0.1,0.4-0.2,0.5-0.3c0.1-0.1,0.2-0.1,0.3-0.1c0.1,0,0.2,0.1,0.1,0.3c-0.1,0.2-0.3,0.4-0.5,0.6c-0.2,0.2-0.5,0.4-0.8,0.7
			c-0.1,0.1-0.2,0.3-0.3,0.4c0,0.2-0.1,0.3,0,0.5c0,0.5,0.2,1,0.5,1.5c0.5,1,1.6,2,2.4,3.3c0.4,0.7,0.8,1.5,1,2.3
			c0.2,0.8,0.2,1.7,0.1,2.5c-0.2,1.7-0.8,3.2-1.5,4.5c-0.7,1.3-1.7,2.4-1.2,3.1c0.2,0.4,0.6,0.7,0.9,1.1c0.3,0.4,0.6,0.8,0.7,1.2
			c0.2,0.7,0.2,1.2,0.2,1.2c0,0.3-0.1,0.6-0.2,0.7c-0.1,0.1-0.2,0.2-0.3,0.1C29.7,72.2,29.6,71.9,29.6,71.5z"/>
	</g>
	<g>
		<path class="st0" d="M26.3,67.5c0,0-0.1,0.1-0.3,0.2c-0.2,0.1-0.5,0.2-0.8,0.3c-0.7,0.2-1.7,0.4-2.6,0.4c-1,0-2-0.1-2.8-0.4
			c-0.8-0.3-1.3-0.7-1.4-0.9c0-0.1,0.1-0.4,0.2-0.4c0.2,0,0.7,0.1,1.4,0.3c0.7,0.1,1.6,0.2,2.5,0.2c0.9,0,1.8,0,2.5-0.1
			c0.3,0,0.6-0.1,0.8-0.1c0.2,0,0.3-0.1,0.3-0.1c0.1,0,0.3,0.1,0.4,0.2C26.4,67.2,26.4,67.4,26.3,67.5z"/>
	</g>
	<g>
		<path class="st0" d="M26,54c0,0-0.1,0.1-0.3,0.2c-0.2,0.1-0.5,0.2-0.8,0.4c-0.7,0.3-1.6,0.4-2.5,0.5c-0.9,0-2-0.1-2.7-0.5
			c-0.7-0.3-1.1-0.8-1.2-1c0-0.1,0.2-0.3,0.3-0.3c0.2,0,0.6,0.2,1.3,0.4c0.6,0.2,1.4,0.3,2.3,0.3c0.9,0,1.7,0,2.3-0.1
			c0.3-0.1,0.5-0.1,0.7-0.2c0.2-0.1,0.3-0.1,0.3-0.1c0.1-0.1,0.3,0,0.4,0.1C26.1,53.7,26.2,53.9,26,54z"/>
	</g>
	<g>
		<path class="st0" d="M5.5,19.2c0,0.1,0.1,1.1,0.3,2.9c0.2,1.8,0.5,4.2,1,7.1c0.3,1.5,0.7,3,1.2,4.6c0.6,1.6,1.4,3.2,2.5,4.6
			c0.6,0.7,1.2,1.3,2,1.9c0.7,0.5,1.6,1,2.4,1.4c1.7,0.7,3.7,1.1,5.7,1.2c2,0.1,4,0,5.9-0.4c0.5-0.1,0.9-0.2,1.4-0.4
			c0.2-0.1,0.5-0.2,0.7-0.2l0.3-0.1l0.3-0.1c0.9-0.4,1.7-0.9,2.4-1.4c0.7-0.6,1.4-1.2,2-1.9c0.6-0.7,1.1-1.5,1.5-2.2
			c0.8-1.6,1.4-3.2,1.9-4.8c0.9-3.1,1.3-6,1.6-8.2c0.3-2.2,0.6-3.8,0.7-4.5c0.2-0.7,0.5-0.9,0.5,0c0,0.7-0.1,2.3-0.3,4.6
			c-0.2,2.2-0.5,5.1-1.4,8.4c-0.4,1.6-1,3.4-1.9,5c-0.4,0.8-1,1.7-1.6,2.5c-0.6,0.8-1.3,1.5-2.2,2.2c-0.8,0.6-1.7,1.2-2.7,1.6
			c-0.5,0.2-1,0.4-1.5,0.6c-0.5,0.1-1,0.3-1.5,0.4c-2.1,0.4-4.2,0.5-6.3,0.4c-2.1-0.1-4.2-0.5-6.1-1.3c-1-0.4-1.9-0.9-2.7-1.6
			c-0.8-0.6-1.5-1.3-2.1-2.1c-1.2-1.6-2-3.3-2.6-4.9c-0.6-1.7-0.9-3.3-1.2-4.8c-0.5-3-0.7-5.5-0.9-7.2c-0.2-1.8-0.3-2.8-0.3-2.9
			C4.4,16.5,5.1,16.4,5.5,19.2z"/>
	</g>
	<g>
		<path class="st0" d="M18.5,56.9c0,0-0.1,0.1-0.2,0.3c-0.1,0.2-0.2,0.4-0.3,0.7c-0.2,0.6-0.3,1.5-0.3,2.4c0,0.9,0.2,1.9,0.3,2.6
			c0.2,0.7,0.4,1.3,0.4,1.5c0,0.1-0.1,0.2-0.3,0.2c-0.2-0.1-0.6-0.6-1-1.4c-0.4-0.8-0.6-1.8-0.7-2.9c0-1.1,0.2-2.1,0.6-2.8
			c0.2-0.4,0.4-0.6,0.5-0.8c0.2-0.2,0.3-0.3,0.3-0.3c0.2-0.1,0.3-0.1,0.4,0C18.5,56.6,18.6,56.7,18.5,56.9z"/>
	</g>
</g>
</svg>
