<?xml version="1.0" encoding="utf-8"?>
<!-- Generator: Adobe Illustrator 25.4.1, SVG Export Plug-In . SVG Version: 6.00 Build 0)  -->
<svg version="1.1" id="XMLID_1_" xmlns="http://www.w3.org/2000/svg" xmlns:xlink="http://www.w3.org/1999/xlink" x="0px" y="0px"
	 viewBox="0 0 47.7 84.7" style="enable-background:new 0 0 47.7 84.7;" xml:space="preserve">
<style type="text/css">
	.st0{fill:#2D3538;}
</style>
<g>
	<g>
		<path class="st0" d="M24.9,76.7c-0.1,0-1,0-2.5-0.2c-0.7-0.1-1.7-0.4-2.7-0.8c-0.5-0.2-1-0.5-1.5-1.1c-0.1-0.1-0.1-0.1-0.2-0.2
			l-0.1-0.2c-0.1-0.2-0.2-0.3-0.3-0.5c0-0.1-0.1-0.3-0.1-0.4c0-0.2,0-0.3,0.1-0.4c0.1-0.3,0.3-0.5,0.6-0.6l0.2-0.1l0.2-0.1
			c0.1-0.1,0.2-0.1,0.4-0.2c0.2-0.1,0.4-0.3,0.6-0.5c0.2-0.2,0.4-0.4,0.5-0.6c0.1-0.2,0.3-0.5,0.4-0.8c0.4-1.2,0.7-2.6,0.8-4.1
			c0.1-0.8,0.1-1.5,0.1-2.3c0-0.4,0-0.8,0-1.2c0-0.4,0-0.8,0-1.3c0-1.7,0-3.5,0-5.3c0-1.8,0-3.8,0-5.7c0-1,0-2,0-3c0-0.5,0-1,0-1.5
			c0-0.5,0-1-0.1-1.5c-0.2-2-0.7-4-1.5-5.9c-0.8-1.9-1.9-3.8-3.1-5.5l0.1,0.1l0,0l-0.1-0.1c-4.8-6.9-9.7-14-14.2-21.2
			C2.1,10.3,1.5,9.4,1,8.5c-0.5-1-1-2-1-3.2C0,4.6,0.1,4,0.5,3.4c0.2-0.3,0.4-0.5,0.7-0.7c0.2-0.2,0.5-0.4,0.8-0.5
			C2.4,1.9,3,1.8,3.5,1.7C4,1.5,4.5,1.4,5,1.3c4-0.8,7.9-1,11.5-1.2c3.7-0.1,7.1-0.2,10.3,0c3.2,0.1,6,0.4,8.5,0.7
			c5,0.6,8.4,1.5,9.9,1.9c0.3,0.1,0.6,0.2,0.8,0.4c0.1,0.1,0.2,0.1,0.2,0.2c0,0.1,0.1,0.1,0.1,0.1c0,0.1-0.1,0.1-0.2,0
			c-0.2,0-0.5-0.1-0.9-0.2c-1.5-0.3-4.9-1-9.9-1.5c-2.5-0.3-5.3-0.5-8.4-0.5c-3.1-0.1-6.6,0-10.2,0.2C13,1.5,9.1,1.8,5.3,2.6
			c-0.5,0.1-1,0.2-1.4,0.3C3.6,3,3.3,3,3.1,3.1C2.9,3.2,2.7,3.2,2.5,3.3C2.3,3.4,2.1,3.5,2,3.7C1.9,3.7,1.8,3.8,1.8,3.8
			C1.7,3.9,1.7,4,1.6,4.1C1.4,4.4,1.3,4.7,1.3,5.2c0,0.4,0.1,0.9,0.3,1.3C1.8,6.9,2,7.4,2.2,7.8c0.5,0.9,1,1.8,1.6,2.7
			c2.2,3.6,4.6,7.1,7,10.7c2.4,3.5,4.8,7.1,7.2,10.5l-0.1-0.1l0,0l0.1,0.1c1.3,1.8,2.4,3.7,3.3,5.8c0.9,2,1.4,4.1,1.6,6.3
			c0.1,0.5,0.1,1.1,0.1,1.6c0,0.5,0,1,0,1.5c0,1,0,2,0,3c0,2,0,3.9-0.1,5.7c0,1.8,0,3.6-0.1,5.3c0,0.4,0,0.9,0,1.3
			c0,0.4,0,0.9,0,1.3c0,0.8-0.1,1.6-0.2,2.4c-0.2,1.6-0.4,3.1-0.9,4.4c-0.1,0.3-0.3,0.7-0.5,1c-0.2,0.3-0.4,0.6-0.7,0.9
			c-0.3,0.3-0.6,0.5-0.9,0.6c-0.1,0.1-0.3,0.2-0.4,0.2L19,73.1l-0.2,0.1c0,0,0,0,0,0l0,0c0,0,0,0,0,0c0.1,0.2,0.2,0.4,0.3,0.6
			c0.3,0.3,0.7,0.6,1.2,0.8c0.9,0.4,1.7,0.6,2.4,0.7c1.4,0.2,2.2,0.2,2.3,0.2c1.3,0,2.3-0.1,3,0c0.7,0,1.1,0.1,1.1,0.3
			c0,0.1-0.3,0.3-1,0.5C27.4,76.5,26.3,76.7,24.9,76.7z"/>
	</g>
	<g>
		<path class="st0" d="M46.6,9.3c-0.1,0.1-1.1,1.8-3,4.7c-1.9,2.8-4.5,6.8-7.8,11.5c-1.6,2.4-3.4,4.9-5.2,7.6
			c-1.8,2.7-3.2,5.8-3.9,9.3c-0.1,0.4-0.2,0.9-0.2,1.3c0,0.4-0.1,0.9-0.1,1.3c0,0.9,0,1.8,0,2.7c0,1.9,0,3.7-0.1,5.6
			c0,1.9,0,3.8-0.1,5.7c0,1,0,1.9,0,2.9c0,1,0,1.9,0.1,2.9c0,0.5,0.1,0.9,0.1,1.4c0.1,0.5,0.1,0.9,0.2,1.4c0.1,0.9,0.4,1.8,0.7,2.6
			c0.1,0.2,0.2,0.4,0.3,0.6c0.1,0.2,0.2,0.4,0.4,0.5c0.3,0.3,0.5,0.5,0.9,0.7c0.4,0.1,0.7,0.2,1.2,0.3c0.5,0.1,1,0.1,1.5,0.2
			c1.9,0.3,3.9,0.7,5.8,1.3c0.9,0.4,1.9,0.8,2.7,1.5c0.4,0.4,0.8,0.9,1,1.5c0.1,0.1,0.1,0.3,0.1,0.5l0,0.2l0,0.2l0,0.5
			c0,0.1-0.1,0.3-0.1,0.4c-0.3,1.1-1.1,2-1.9,2.6c-0.8,0.6-1.7,1.1-2.5,1.5c-1.8,0.8-3.6,1.2-5.3,1.5c-3.6,0.6-7,0.6-10.2,0.4
			c-3.2-0.2-6.2-0.7-8.9-1.7c-1.3-0.5-2.5-1.1-3.5-2c-1-0.8-1.8-2-2-3.3c0-0.3,0-0.6,0.1-1c0-0.2,0.1-0.3,0.2-0.5L7,75.9l0.1-0.2
			c0.4-0.5,0.8-0.8,1.2-1.1c0.8-0.5,1.7-0.8,2.4-1c1.5-0.4,2.6-0.5,3.3-0.6c0.7,0,1.2,0.1,1.3,0.2c0.1,0.2-0.2,0.3-1.1,0.5
			c-0.7,0.1-1.7,0.3-3.1,0.8c-0.7,0.2-1.4,0.5-2.1,1c-0.4,0.2-0.7,0.5-0.9,0.8C8.1,76.4,8,76.6,8,76.8c0,0.1,0,0.2,0,0.3
			c0,0.1,0,0.2,0,0.3c0.1,0.9,0.7,1.7,1.5,2.4c0.9,0.7,2,1.3,3.2,1.7c1.2,0.5,2.6,0.8,4,1c0.7,0.1,1.4,0.2,2.2,0.3
			c0.4,0,0.8,0.1,1.1,0.1c0.4,0,0.8,0,1.2,0.1c3.1,0.2,6.5,0.1,9.8-0.4c1.7-0.3,3.4-0.7,5-1.4c0.8-0.3,1.5-0.8,2.2-1.3
			c0.7-0.5,1.2-1.1,1.4-1.8l0.1-0.2c0-0.1,0-0.2,0-0.2c0-0.2,0-0.3,0-0.5c-0.1-0.3-0.3-0.6-0.5-0.8c-0.6-0.5-1.4-0.9-2.2-1.2
			c-1.7-0.6-3.6-1-5.5-1.3c-0.5-0.1-0.9-0.1-1.4-0.2c-0.4-0.1-1.1-0.1-1.6-0.4c-0.6-0.2-1.1-0.6-1.4-1c-0.4-0.4-0.7-0.9-0.9-1.4
			c-0.4-1-0.7-2-0.8-3c-0.1-0.5-0.1-1-0.2-1.5c0-0.5-0.1-1-0.1-1.5c-0.1-1-0.1-2-0.1-3c0-1,0-1.9,0.1-2.9c0-1.9,0.1-3.8,0.1-5.7
			c0-1.9,0.1-3.8,0.1-5.6c0-0.9,0-1.8,0.1-2.8c0-0.2,0-0.5,0-0.7l0.1-0.7c0-0.5,0.1-0.9,0.2-1.4c0.7-3.7,2.3-6.9,4.1-9.7
			c1.9-2.7,3.6-5.3,5.2-7.6C38,20,40.6,16,42.4,13.2c1.8-2.9,2.8-4.6,2.9-4.7c0.7-1.1,1-2,1.3-2.5C46.8,5.4,46.9,5,47.1,5
			c0.2,0,0.5,0.3,0.5,1.1C47.7,6.9,47.4,8,46.6,9.3z"/>
	</g>
	<path class="st0" d="M3.8,6.4c-0.6-0.3-1-0.8-1.1-1.2c-0.1-0.2-0.1-0.3,0-0.5c0-0.1,0.1-0.2,0.1-0.2c0.2,0,0.4,0.1,0.6,0.2
		c0.2,0.1,0.5,0.3,1,0.5c0.1,0,0.7,0.4,2.2,0.8c1.4,0.4,3.5,0.8,6,1.1c5.1,0.6,11.9,0.9,18.8,0.6c1.7-0.1,3.5-0.2,5.2-0.4
		c1.7-0.2,3.4-0.4,5-0.8c0.4-0.1,0.8-0.2,1.1-0.4l0.1-0.1l0.1,0c0.1,0,0.1-0.1,0.2-0.1c0.1-0.1,0.1-0.1,0.1-0.2
		c0-0.1-0.1-0.1-0.1-0.2c-0.1-0.1-0.3-0.1-0.5-0.2c-1.4-0.4-2.9-0.6-4.3-0.8c-5.6-0.7-9.8-1.1-11.1-1.3c-0.6-0.1-0.8-0.4,0-0.5
		c1.2,0,5.5,0,11.2,0.6c1.4,0.2,2.9,0.3,4.5,0.7l0.4,0.1c0.1,0.1,0.3,0.1,0.4,0.2l0.4,0.2c0.1,0.1,0.2,0.2,0.3,0.2
		c0.1,0.1,0.2,0.2,0.3,0.3c0.1,0.1,0.1,0.2,0.1,0.4c0,0.3-0.1,0.5-0.2,0.8c-0.3,0.5-0.9,0.8-1.5,1.1c-0.4,0.2-0.8,0.3-1.3,0.4
		c-1.7,0.5-3.4,0.7-5.2,0.9c-1.7,0.2-3.5,0.3-5.3,0.4c-7,0.3-13.9,0-19.1-0.6C9.9,8.3,7.8,7.9,6.3,7.4C4.8,7,3.9,6.5,3.8,6.4z"/>
	<path class="st0" d="M19.3,28.9c-0.8-1.1-1.8-2.5-2.9-4c-0.6-0.8-1.1-1.6-1.7-2.4c-3-4.2-6.7-9.5-7.1-10.6c0-0.1,0-0.2,0-0.2
		c0,0,0,0,0.1,0c0,0,0.1,0,0.1,0.1c0.4,0.4,3.5,4.4,6.2,8c2.4,3.2,4.7,6.2,5.3,6.9c1.6,1.7,3,3.7,4.7,3.7c1.5,0,3-1.6,4.8-3.9
		c2-2.7,4-4.9,4.4-5.1c0,0,0,0,0,0c0.1,0,0.1,0,0.2,0.1c0,0,0,0.1,0,0.1c-0.1,0.5-4.1,6.4-4.6,7.2c-2.6,3.5-4.1,4.2-4.9,4.2
		C23.3,32.9,22.3,32.9,19.3,28.9z"/>
</g>
</svg>
