<?xml version="1.0" encoding="utf-8"?>
<!-- Generator: Adobe Illustrator 25.4.1, SVG Export Plug-In . SVG Version: 6.00 Build 0)  -->
<svg version="1.1" id="XMLID_2_" xmlns="http://www.w3.org/2000/svg" xmlns:xlink="http://www.w3.org/1999/xlink" x="0px" y="0px"
	 viewBox="0 0 36.1 91.1" style="enable-background:new 0 0 36.1 91.1;" xml:space="preserve">
<g>
	<g>
		<path d="M19.7,3.1c0,0,0.3,0,0.7-0.1c0.4,0,1.1-0.1,1.9,0c0.8,0,1.7,0.1,2.8,0.2c0.3,0,0.5,0.1,0.8,0.2c0.3,0.1,0.6,0.1,0.9,0.2
			c0.3,0.1,0.6,0.2,0.9,0.4c0.3,0.1,0.8,0.6,0.9,1.2l0,0.4c0,0.1-0.1,0.2-0.1,0.3c0,0.1-0.1,0.2-0.2,0.3c-0.1,0.1-0.1,0.2-0.2,0.2
			c-0.3,0.2-0.6,0.4-0.8,0.5c-0.6,0.3-1.1,0.4-1.7,0.5c-1.1,0.2-2.3,0.4-3.4,0.5C20.9,7.9,19.7,8,18.6,8c-1.1,0-2.2,0-3.3-0.1
			c-2.1-0.1-4-0.5-5.3-1C8.7,6.4,7.8,5.8,7.5,5.5C7.2,5.2,7.3,5,7.6,5.2c0.3,0.2,1.2,0.7,2.6,1c1.4,0.4,3.2,0.6,5.2,0.7
			c1,0,2.1,0,3.2-0.1c1.1,0,2.2-0.1,3.3-0.2c1.1-0.1,2.2-0.3,3.3-0.5c0.5-0.1,1-0.3,1.4-0.5c0.2-0.1,0.4-0.2,0.5-0.3
			c0,0,0-0.1,0.1-0.1c0,0,0,0,0,0c0,0,0,0,0-0.1c0,0,0,0,0,0c0,0-0.1-0.1-0.2-0.1c-0.2-0.1-0.4-0.2-0.7-0.3
			c-0.2-0.1-0.5-0.2-0.7-0.2c-0.3-0.1-0.5-0.1-0.7-0.2C23.9,4.2,23,4,22.3,4c-0.8-0.1-1.4-0.2-1.8-0.2c-0.4,0-0.7-0.1-0.7-0.1
			C18.4,3.5,18.4,3.2,19.7,3.1z"/>
	</g>
	<g>
		<path d="M7.2,16.1c0,0.1-0.2,1-0.5,2.6c-0.3,1.6-0.8,3.9-1.1,6.6c-0.2,1.4-0.4,2.8-0.4,4.4C5,31.2,5,32.8,5.3,34.4
			c0.1,0.4,0.1,0.8,0.3,1.2c0.1,0.2,0.1,0.4,0.2,0.6L6,36.7c0.4,0.7,0.9,1.4,1.5,2c1.2,1.3,2.6,2.3,4.2,3.2c1.6,0.9,3.3,1.6,5,2
			c0.9,0.2,1.7,0.3,2.5,0.2c0.8-0.1,1.7-0.3,2.5-0.6c3.2-1.1,6-3.3,7.5-5.7c1.6-2.4,2.1-5.1,2.2-7.1c0-1,0-1.9-0.1-2.6
			c0-0.3-0.1-0.7-0.1-0.9c0-0.3-0.1-0.5-0.1-0.6c-0.1-0.7,0.2-1,0.4-0.2c0.1,0.2,0.1,0.4,0.2,0.6c0.1,0.3,0.1,0.6,0.2,0.9
			c0.1,0.7,0.3,1.6,0.3,2.7c0,1.1,0,2.3-0.3,3.6c-0.3,1.3-0.8,2.8-1.6,4.1c-1.6,2.8-4.5,5.3-8.1,6.6c-0.9,0.3-1.8,0.6-2.8,0.7
			c-1,0.1-2.1,0-3-0.2c-2-0.4-3.8-1.2-5.5-2.1c-1.7-1-3.3-2.1-4.6-3.6c-0.7-0.7-1.2-1.5-1.7-2.4c-0.1-0.2-0.2-0.5-0.3-0.7
			C4.1,36.6,4,36.3,4,36.1c-0.2-0.5-0.2-0.9-0.3-1.4c-0.3-1.8-0.2-3.6-0.1-5.2c0.1-1.6,0.4-3.1,0.6-4.5c0.5-2.8,1.1-5,1.5-6.6
			c0.4-1.6,0.7-2.5,0.7-2.6C7.2,13.3,7.7,13.4,7.2,16.1z"/>
	</g>
	<g>
		<g>
			<path d="M25,1.7c-0.2,0-2.6-0.4-6.7-0.4c-2.1,0-4.5,0-7.3,0.3C10.3,1.7,9.6,1.8,9,2C8.3,2.2,7.6,2.5,7.1,2.9L7,3.1L6.8,3.2
				C6.7,3.4,6.6,3.6,6.6,3.5C6.5,3.9,6.4,4.3,6.3,4.7C6.1,5.5,5.9,6.3,5.7,7.1C4.9,10.4,4,14,3.3,17.7c-0.8,3.7-1.5,7.6-1.9,11.6
				c-0.2,2-0.3,4-0.1,6c0.2,2,0.9,3.8,2.3,5.3c1.3,1.5,3.1,2.6,4.8,3.7c0.9,0.6,1.7,1.2,2.6,1.7c0.4,0.3,0.8,0.6,1.3,0.9
				c0.4,0.3,0.8,0.6,1.2,0.8c1.5,0.8,2.6,2.2,3.1,3.7c0.3,0.8,0.4,1.6,0.5,2.3c0.1,0.8,0,1.5,0,2.2c0,2.9,0,5.8,0,8.5
				c0,1.4,0,2.7,0,4c0,1.3,0,2.5-0.1,3.8c-0.1,1.2-0.2,2.4-0.4,3.6c-0.1,0.6-0.2,1.2-0.4,1.7c-0.2,0.6-0.3,1.1-0.7,1.6
				c-0.2,0.3-0.4,0.4-0.6,0.5c-0.2,0.1-0.4,0.2-0.6,0.3c-0.4,0.2-0.8,0.3-1.1,0.5c-0.4,0.1-0.7,0.3-0.9,0.4c-0.1,0-0.1,0.1-0.2,0.1
				c0,0-0.1,0.1-0.1,0.1c-0.1,0.1-0.2,0.2-0.2,0.3c-0.1,0.2,0,0.4,0.1,0.5c0.1,0.2,0.2,0.3,0.4,0.4c0.4,0.3,0.8,0.5,1.2,0.7
				c0.9,0.4,1.7,0.5,2.5,0.6c1.5,0.2,2.7,0.1,3.3,0.1c0.6,0,1.1,0,1.1,0c0.1,0.1-0.2,0.2-1,0.4c-0.7,0.1-1.9,0.3-3.5,0.2
				c-0.8-0.1-1.7-0.2-2.7-0.6c-0.5-0.2-1-0.4-1.5-0.8c-0.2-0.2-0.5-0.4-0.7-0.8c-0.2-0.3-0.3-0.7-0.1-1.1c0.1-0.2,0.2-0.4,0.4-0.6
				c0.1-0.1,0.2-0.2,0.3-0.2c0.1-0.1,0.2-0.1,0.3-0.2c0.3-0.2,0.8-0.4,1.1-0.5c0.3-0.1,0.7-0.3,1-0.5c0.3-0.2,0.7-0.4,0.8-0.6
				c0.2-0.3,0.4-0.8,0.5-1.3c0.1-0.5,0.2-1,0.3-1.6c0.2-1.1,0.3-2.3,0.3-3.5c0-2.4,0-5,0-7.8c0-2.7,0.1-5.6,0.1-8.5
				c0-0.7,0-1.5,0-2.2c0-0.7-0.2-1.4-0.4-2c-0.2-0.7-0.6-1.3-1-1.8c-0.4-0.5-1-1-1.6-1.3l-0.1-0.1c0,0-0.1,0-0.1,0l0,0l-0.2-0.1
				l-0.3-0.2l-0.6-0.4c-0.4-0.3-0.8-0.6-1.3-0.9c-0.8-0.6-1.7-1.1-2.6-1.7c-1.7-1.2-3.5-2.3-5-3.9c-0.7-0.8-1.4-1.7-1.8-2.8
				c-0.1-0.2-0.2-0.5-0.3-0.8c-0.1-0.3-0.2-0.5-0.2-0.8c-0.1-0.5-0.2-1.1-0.3-1.6c-0.2-2.1-0.1-4.2,0.1-6.3c0.4-4.1,1.2-8,1.9-11.8
				c0.8-3.7,1.6-7.3,2.4-10.6C4.7,6,4.9,5.2,5.1,4.4C5.2,4,5.3,3.6,5.4,3.2c0-0.1,0.1-0.2,0.1-0.2c0-0.1,0.1-0.1,0.1-0.2
				c0.1-0.1,0.1-0.2,0.2-0.3l0.2-0.3L6.3,2c0.7-0.6,1.5-0.9,2.3-1.1c0.8-0.2,1.5-0.3,2.2-0.5c1.4-0.2,2.8-0.3,4-0.3
				C16.1,0,17.2,0,18.3,0c4.2,0,6.7,0.3,6.9,0.4c1.3,0.2,2.2,0.5,2.8,0.8c0.6,0.3,0.8,0.6,0.7,0.8C28.5,2.3,27.4,2,25,1.7z"/>
		</g>
		<g>
			<path d="M5.3,82.8c0,0-0.2,0.1-0.4,0.2c-0.2,0.1-0.5,0.3-0.8,0.5C4,83.6,4,83.7,3.9,83.7c-0.1,0.1-0.1,0.2-0.2,0.2
				c0,0.1-0.1,0.2-0.1,0.3c0,0,0,0.1,0,0.1c0,0.1,0,0.1,0,0.2c0,0.5,0.2,1.1,0.7,1.7c0.5,0.6,1.2,1.1,2.1,1.6c0.9,0.4,1.9,0.8,3,1.1
				c2.2,0.6,4.9,0.9,7.8,1c2.9,0.1,6-0.1,9.2-1c1.6-0.4,3.2-1,4.4-2.1c0.6-0.5,1-1.2,1.1-1.9c0-0.3-0.1-0.6-0.3-0.8
				c-0.2-0.3-0.6-0.5-0.9-0.7c-0.7-0.4-1.6-0.7-2.5-0.9c-0.9-0.2-1.8-0.5-2.7-0.7c-0.9-0.2-1.9-0.4-2.8-0.6
				c-0.5-0.1-1.1-0.3-1.5-0.6c-0.5-0.3-0.8-0.8-1.1-1.2c-0.5-0.9-0.8-2-1-3c-0.2-1-0.3-2-0.3-3c-0.1-2,0-4,0-6c0.1-4,0.1-8,0.2-11.9
				c0-1,0-2,0.2-3.1c0.1-0.5,0.3-1,0.5-1.5c0.2-0.5,0.5-0.9,0.9-1.3c0.7-0.8,1.5-1.5,2.4-2c0.9-0.5,1.7-1,2.5-1.4
				c1.7-0.9,3.2-1.9,4.6-3.1c1.4-1.2,2.6-2.5,3.4-4c0.9-1.5,1.4-3.1,1.5-4.7c0.1-0.4,0.1-0.8,0.1-1.2c0-0.4,0-0.8,0-1.2
				c0-0.8-0.1-1.6-0.2-2.4c-1.4-12.8-3.5-22.3-4.3-24.9c-0.1-0.3-0.2-0.6-0.2-0.9c0-0.1,0-0.2,0-0.3c0-0.1,0-0.1,0-0.1
				c0,0,0,0,0.1,0c0,0,0,0,0.1,0c0,0,0,0,0,0.1c0,0,0,0,0,0.1c0.1,0.2,0.2,0.4,0.4,0.9c1.1,2.6,3.5,12.1,5.2,25
				c0.1,0.8,0.2,1.6,0.2,2.5c0,0.4,0,0.9,0.1,1.3c0,0.4,0,0.9-0.1,1.3c-0.1,1.8-0.7,3.6-1.7,5.2c-1,1.6-2.3,3.1-3.7,4.3
				c-1.5,1.2-3.1,2.3-4.8,3.2c-0.8,0.5-1.7,0.9-2.5,1.4c-0.8,0.5-1.5,1-2.1,1.7c-0.3,0.3-0.5,0.7-0.7,1.1c-0.2,0.4-0.3,0.8-0.4,1.3
				c-0.2,0.9-0.1,1.8-0.2,2.8c-0.1,4-0.1,8-0.2,12c0,2-0.1,4,0,5.9c0.1,1,0.1,1.9,0.3,2.9c0.2,0.9,0.4,1.8,0.9,2.6
				c0.2,0.4,0.5,0.7,0.8,0.9c0.3,0.2,0.7,0.4,1.1,0.5c0.9,0.2,1.9,0.4,2.8,0.6c0.9,0.2,1.9,0.4,2.8,0.7c0.9,0.3,1.8,0.5,2.7,1
				c0.4,0.3,0.9,0.5,1.3,1c0.2,0.2,0.4,0.5,0.4,0.8c0,0.1,0.1,0.1,0.1,0.2l0,0.2c0,0.2,0,0.3,0,0.4c0,0.6-0.2,1.1-0.5,1.5
				c-0.3,0.5-0.6,0.8-1,1.2c-1.5,1.3-3.2,1.9-4.9,2.4c-1.7,0.5-3.3,0.7-4.9,0.9c-1.6,0.1-3.1,0.2-4.6,0.2c-3,0-5.7-0.3-8.1-1
				c-1.2-0.3-2.3-0.7-3.3-1.2c-1-0.5-1.8-1.1-2.5-1.9c-0.6-0.7-1-1.6-1-2.5c0-0.1,0-0.2,0-0.3c0-0.1,0-0.2,0.1-0.3
				c0.1-0.2,0.1-0.4,0.2-0.6c0.1-0.2,0.2-0.3,0.3-0.4c0.1-0.1,0.2-0.2,0.3-0.3c0.4-0.4,0.8-0.6,1.1-0.7c0.3-0.1,0.4-0.2,0.5-0.2
				C5.4,81.2,6,81.1,6.6,81c0.5-0.1,1-0.1,1.4-0.1c0.7,0,1.1,0.1,1.1,0.3c0,0.2-0.3,0.4-1,0.6C7.5,82,6.5,82.3,5.3,82.8z"/>
		</g>
	</g>
</g>
</svg>
