<?xml version="1.0" encoding="utf-8"?>
<!-- Generator: Adobe Illustrator 25.4.1, SVG Export Plug-In . SVG Version: 6.00 Build 0)  -->
<svg version="1.1" id="XMLID_2_" xmlns="http://www.w3.org/2000/svg" xmlns:xlink="http://www.w3.org/1999/xlink" x="0px" y="0px"
	 viewBox="0 0 62 113.7" style="enable-background:new 0 0 62 113.7;" xml:space="preserve">
<style type="text/css">
	.st0{fill:#2D3538;}
</style>
<g>
	<g>
		<path class="st0" d="M35.7,4.2c0.1,0,0.7,0,1.8,0c1.1,0,2.7,0,4.6,0c1.9,0.1,4.2,0.1,6.8,0.4c1.3,0.1,2.6,0.3,4.1,0.5
			c0.4,0.1,0.7,0.1,1.1,0.2c0.4,0.1,0.7,0.2,1.1,0.3l0.6,0.2c0.1,0,0.3,0.1,0.4,0.1l0.5,0.2c0.3,0.1,0.5,0.3,0.8,0.5
			c0.1,0.1,0.2,0.2,0.2,0.3c0.1,0.1,0.1,0.2,0.1,0.4c0,0.5-0.2,1-0.6,1.3C57,8.8,56.8,9,56.5,9.2c-0.2,0.2-0.6,0.3-0.7,0.3
			c-0.7,0.3-1.4,0.4-2,0.6c-1.4,0.3-2.7,0.5-4.1,0.7c-2.8,0.3-5.6,0.5-8.4,0.6c-2.8,0.1-5.7,0.2-8.4,0.2c-2.8,0-5.4,0-8-0.1
			c-5.1-0.2-9.7-0.7-13.2-1.4C8,9.3,5.6,8.4,4.7,7.9C4.3,7.7,4.1,7.5,4.1,7.4c0-0.1,0.2-0.1,0.7,0.1c0.9,0.3,3.3,1.1,6.8,1.6
			c3.5,0.6,8.1,0.9,13.2,1c2.5,0,5.2,0,8-0.1c2.7-0.1,5.6-0.2,8.4-0.3c2.8-0.1,5.6-0.3,8.3-0.7c1.4-0.2,2.7-0.4,3.9-0.7
			C54,8.2,54.6,8,55.2,7.8c0.2-0.1,0.2-0.1,0.2-0.1c0,0,0,0,0.1,0c0,0,0.1-0.1,0.1-0.1c0,0-0.1-0.1-0.1-0.1
			c-0.2-0.1-0.4-0.1-0.6-0.2c-0.3-0.1-0.7-0.2-1-0.2c-0.3-0.1-0.7-0.1-1-0.2c-1.4-0.2-2.7-0.4-3.9-0.6C46.2,6,43.9,5.8,42,5.6
			c-3.8-0.3-6.2-0.5-6.4-0.5C32.5,4.7,32.5,4.4,35.7,4.2z"/>
	</g>
	<g>
		<path class="st0" d="M61.6,13.8c-0.1,0.7-1.7,17.9-4.2,43.7c-1.3,12.9-2.7,27.9-4.3,44.1c0,0.5-0.1,1-0.1,1.5l0,0.4
			c0,0.1,0,0.2-0.1,0.4c0,0.3-0.1,0.6-0.2,0.9c-0.4,1.1-1,2.1-1.8,3c-1.6,1.7-3.5,2.8-5.6,3.7c-1,0.4-2.1,0.7-3.1,1l-1.6,0.3
			c-0.3,0.1-0.5,0.1-0.8,0.2l-0.8,0.1l-1.6,0.2c-0.5,0.1-1.1,0.1-1.6,0.1c-0.5,0-1.1,0.1-1.6,0.1l-1.6,0c-2.2,0.1-4.4,0-6.6-0.2
			c-2.2-0.2-4.4-0.5-6.6-1.1c-2.2-0.6-4.3-1.5-6.3-2.8c-0.5-0.3-0.9-0.7-1.4-1.2c-0.4-0.5-0.8-1-1.2-1.5c-0.3-0.5-0.6-1.1-0.8-1.7
			c-0.1-0.3-0.2-0.6-0.2-0.9c-0.1-0.3-0.1-0.6-0.1-0.9c-1.7-17.5-3.5-35.2-5.1-52c-0.8-8.4-1.6-16.7-2.3-24.6
			c-0.4-4-0.7-7.8-1.1-11.6c-0.2-1.9-0.3-3.8-0.5-5.6C0.2,8.6,0.2,7.7,0.1,6.8C0.1,6.3,0,5.8,0,5.3c0-0.1,0-0.3,0-0.5
			c0-0.2,0.1-0.3,0.1-0.5c0-0.2,0.1-0.3,0.2-0.4c0.1-0.1,0.2-0.3,0.3-0.4c0.4-0.5,0.8-0.8,1.3-1C2.3,2.3,2.8,2.2,3.2,2
			C4.1,1.7,5,1.5,5.9,1.3C7.6,0.9,9.3,0.7,11,0.6c3.4-0.3,6.6-0.4,9.6-0.5C26.8,0,32.3,0,37.2,0.2C46.9,0.5,53.7,1.5,56.8,2
			c1.6,0.3,2.6,0.6,2.7,0.7c0.1,0.2-0.6,0.1-2.5-0.1C53.9,2.3,47,1.5,37.4,1.3c-4.8-0.1-10.4,0-16.5,0.1c-3.1,0.1-6.3,0.3-9.5,0.6
			C9.7,2.2,8,2.4,6.3,2.8C5.5,2.9,4.7,3.1,3.9,3.4c-0.8,0.3-1.5,0.6-2,1.1C1.7,4.7,1.6,5,1.6,5.2c0,0.4,0.1,0.9,0.1,1.3
			c0.1,0.9,0.2,1.8,0.2,2.7c0.2,1.8,0.3,3.7,0.5,5.6c0.4,3.8,0.8,7.6,1.1,11.6c0.8,7.9,1.6,16.1,2.5,24.6
			c1.7,16.9,3.5,34.5,5.3,52.1c0.1,2,1.1,3.7,2.7,4.8c1.6,1.2,3.6,2,5.6,2.5c2,0.6,4.1,0.9,6.2,1.1c2.1,0.2,4.2,0.3,6.3,0.2l1.6,0
			c0.5,0,1-0.1,1.6-0.1l1.6-0.1l1.5-0.2c1-0.1,2-0.4,3-0.6c1-0.3,2-0.5,2.9-0.9c1.8-0.7,3.6-1.7,4.8-3.1c0.6-0.7,1.1-1.5,1.4-2.2
			c0.1-0.2,0.1-0.4,0.1-0.6l0-0.1l0-0.2l0-0.4c0.1-0.5,0.1-1,0.2-1.5c1.6-16.2,3.1-31.2,4.4-44.1c2.6-25.8,4.4-43,4.4-43.7
			C61.2,1.2,62.7,1.4,61.6,13.8z"/>
	</g>
	<g>
		<path class="st0" d="M47.6,98.8c0,0-0.5,0.3-1.3,0.8c-0.8,0.4-2,1-3.5,1.5c-3,1-7.1,1.7-11.3,1.8c-2.1,0-4.2-0.1-6.3-0.3
			c-2-0.3-3.9-0.7-5.6-1.2c-3.3-1-5.5-2.5-6-3.1c-0.3-0.3,0-0.8,0.4-0.7c0.7,0.2,2.9,1.3,6.1,2.1c1.6,0.4,3.4,0.7,5.3,1
			c1.9,0.2,4,0.3,6,0.3c4.1,0,8-0.5,10.8-1.4c1.4-0.4,2.6-0.8,3.4-1.2c0.8-0.4,1.2-0.6,1.3-0.6c0.6-0.3,1.1-0.2,1.3,0
			C48.3,97.8,48.2,98.4,47.6,98.8z"/>
	</g>
	<g>
		<path class="st0" d="M56.6,12.9c-0.1,0-0.8,0.3-2.1,0.7c-1.3,0.4-3.2,0.9-5.4,1.2c-2.3,0.4-4.9,0.7-7.8,1c-2.9,0.2-5.9,0.4-9,0.4
			c-6.2,0.1-12.5-0.2-17.5-1c-2.5-0.4-4.7-0.9-6.3-1.4c-1.6-0.5-2.8-1-3.2-1.4c-0.5-0.3-0.4-0.8,0.2-0.6C6,12,7.1,12.4,8.7,12.7
			c1.6,0.4,3.8,0.7,6.2,1c4.9,0.6,11.2,0.9,17.3,0.8c3.1,0,6.1-0.1,8.9-0.3c2.8-0.2,5.4-0.5,7.6-0.8c2.2-0.3,4-0.7,5.3-1.1
			c1.3-0.3,2-0.6,2-0.6c1-0.4,1.5-0.3,1.7-0.1C58,11.9,57.6,12.5,56.6,12.9z"/>
	</g>
	<g>
		<path class="st0" d="M14.9,91.4c0-0.2-0.5-4.4-1.1-10.6c-0.7-6.3-1.5-14.6-2.3-23.2c-0.8-8.5-1.6-17.2-2.1-24.2
			c-0.5-6.9-0.8-12.1-0.7-13.7c0-0.8,0.5-1.1,0.8-0.1c0.4,1.5,1,6.7,1.7,13.6c0.7,6.9,1.5,15.6,2.2,24.2c0.7,8.5,1.3,16.9,1.8,23.2
			c0.4,6.3,0.7,10.5,0.8,10.7C16,94.4,15.2,94.4,14.9,91.4z"/>
	</g>
</g>
</svg>
