<?xml version="1.0" encoding="utf-8"?>
<!-- Generator: Adobe Illustrator 25.4.1, SVG Export Plug-In . SVG Version: 6.00 Build 0)  -->
<svg version="1.1" id="XMLID_1_" xmlns="http://www.w3.org/2000/svg" xmlns:xlink="http://www.w3.org/1999/xlink" x="0px" y="0px"
	 viewBox="0 0 39.7 85.8" style="enable-background:new 0 0 39.7 85.8;" xml:space="preserve">
<style type="text/css">
	.st0{fill:#2D3538;}
</style>
<g>
	<g>
		<path class="st0" d="M23.2,3.2c0.1,0,0.8,0,2,0c1.2,0,3,0,5.1,0.2c1,0.1,2.2,0.2,3.4,0.5c0.6,0.1,1.2,0.3,1.9,0.5
			c0.2,0.1,0.3,0.1,0.5,0.2l0.1,0.1c0.1,0,0.1,0.1,0.2,0.1c0.1,0.1,0.2,0.2,0.3,0.3C36.9,5.4,37,5.6,37,5.9c0,0.3-0.1,0.5-0.2,0.8
			c-0.2,0.2-0.4,0.4-0.7,0.6c-0.2,0.1-0.4,0.2-0.5,0.2c-0.3,0.1-0.7,0.2-1,0.3c-0.7,0.2-1.4,0.3-2.1,0.4c-1.4,0.2-2.8,0.3-4.2,0.4
			c-2.8,0.2-5.7,0.2-8.4,0.2c-2.7,0-5.4-0.1-7.7-0.4c-2.3-0.2-4.3-0.6-5.8-1c-1.5-0.4-2.6-0.9-3-1.1C3.1,6.1,3,6,3,5.9
			c0-0.1,0.1,0,0.4,0.1c0.5,0.2,1.5,0.5,3,0.8c1.5,0.3,3.5,0.6,5.8,0.7c2.3,0.2,4.9,0.2,7.6,0.1c2.7-0.1,5.6-0.1,8.4-0.3
			c1.4-0.1,2.8-0.2,4.1-0.4c0.7-0.1,1.3-0.2,2-0.4c0.3-0.1,0.6-0.2,0.9-0.3c0.1-0.1,0.3-0.1,0.4-0.2c0,0,0,0,0.1,0c0,0,0-0.1,0-0.1
			l0,0l0,0l-0.1,0c-0.1-0.1-0.3-0.1-0.4-0.2c-0.5-0.2-1.1-0.4-1.7-0.5c-1.1-0.3-2.2-0.4-3.2-0.6c-2-0.3-3.8-0.4-5-0.6
			c-1.2-0.1-1.9-0.2-2-0.2C21.2,3.6,21.2,3.3,23.2,3.2z"/>
	</g>
	<g>
		<path class="st0" d="M21.1,78.8c-0.1,0-0.6,0-1.5,0.1c-0.9,0-2.3,0-3.9-0.3c-0.4-0.1-0.9-0.2-1.3-0.3c-0.5-0.1-1-0.3-1.5-0.6
			c-0.1-0.1-0.3-0.2-0.4-0.3c-0.1-0.1-0.3-0.2-0.4-0.5c-0.3-0.4-0.4-1-0.1-1.4c0-0.1,0.1-0.2,0.2-0.3c0.1-0.1,0.1-0.2,0.2-0.2
			c0.1-0.1,0.3-0.2,0.4-0.3c0.3-0.2,0.5-0.3,0.8-0.5c0.3-0.1,0.5-0.2,0.8-0.4c0.2-0.1,0.5-0.3,0.7-0.5c0.5-0.3,0.9-0.7,1.2-1.2
			c0.7-0.9,1.1-2,1.2-3.4c0.2-1.3,0.1-2.7,0.1-4.2c0-1.5,0-3,0-4.6c0-3.2,0.1-6.5,0.1-10c0-0.9,0-1.7,0-2.6c0-0.4,0-0.9,0-1.3l0-0.7
			l0-0.6c-0.1-1.7-0.7-3.4-1.5-5c-0.8-1.6-1.9-3.1-3-4.6c-1.1-1.5-2.3-3-3.4-4.5c-2.3-3-4.5-6.1-6.2-9.5C2,17.7,0.8,14,0.3,10.4
			C0.2,9.5,0.1,8.6,0.1,7.7c0-0.5,0-0.9,0-1.4l0-0.7c0-0.1,0-0.2,0-0.4C0,5.1,0,5,0.1,4.9c0-0.1,0.1-0.3,0.1-0.4l0.2-0.4
			c0.1-0.2,0.3-0.5,0.4-0.6c0.3-0.4,0.7-0.7,1.1-0.9l0.6-0.3C2.7,2.1,3,2,3.2,1.9C3.6,1.7,4,1.6,4.4,1.5c3.4-1,6.7-1.2,9.7-1.4
			C20.3-0.1,25.7,0,29.8,0.5c2.1,0.3,3.8,0.6,5.2,1c1.4,0.4,2.4,0.8,3,1.2c0.6,0.4,0.9,0.9,0.8,1c-0.1,0.1-0.3-0.1-1-0.5
			c-0.6-0.3-1.5-0.7-2.9-1c-1.4-0.3-3.1-0.6-5.1-0.8C25.7,1,20.4,0.9,14.3,1.2c-3,0.2-6.3,0.4-9.5,1.3C4.4,2.6,4,2.7,3.6,2.9
			L3.1,3.1L2.6,3.4C1.9,3.8,1.3,4.4,1.2,5c0,0.1,0,0.2,0,0.3c0,0.1,0,0.2,0,0.3l0,0.7c0,0.4,0,0.9,0,1.3c0.1,0.9,0.1,1.8,0.3,2.6
			c0.5,3.5,1.6,7.1,3.2,10.4c1.6,3.3,3.8,6.4,6.1,9.4c1.1,1.5,2.3,3,3.4,4.5c1.1,1.5,2.2,3.1,3.1,4.7c0.2,0.4,0.4,0.8,0.6,1.3
			l0.3,0.7l0.2,0.7c0.2,0.4,0.2,0.9,0.4,1.4l0.1,0.7l0.1,0.4l0,0.4l0,0.7l0,0.7c0,0.4,0,0.9,0,1.3c0,0.9,0,1.8,0,2.6
			c0,3.5-0.1,6.8-0.1,10c0,1.6,0,3.1,0,4.6c0,1.5,0,2.9-0.1,4.4c-0.1,1.4-0.6,2.9-1.5,4c-0.4,0.5-0.9,1-1.4,1.4
			c-0.1,0.1-0.3,0.2-0.4,0.3c-0.1,0.1-0.3,0.2-0.4,0.3c-0.3,0.2-0.5,0.3-0.7,0.5c-0.2,0.2-0.4,0.3-0.6,0.5c-0.1,0.1-0.2,0.1-0.2,0.2
			c0,0,0,0.1-0.1,0.1c0,0,0,0,0,0c0,0,0,0,0,0c0,0,0,0,0.1,0.1c0,0,0.1,0.1,0.2,0.1c0.3,0.2,0.7,0.4,1.1,0.5
			c0.4,0.1,0.8,0.2,1.2,0.3c1.5,0.3,2.8,0.4,3.7,0.4c0.9,0,1.4,0,1.5,0c2.6,0,3.9,0,4,0.2c0,0.1-0.3,0.3-0.9,0.5
			C23.5,78.5,22.5,78.7,21.1,78.8z"/>
	</g>
	<g>
		<path class="st0" d="M6.7,76.9c-0.1,0-0.6,0.2-1.3,0.6c-0.4,0.2-0.8,0.5-1.1,0.8c0,0-0.1,0.1-0.1,0.1c0,0,0,0.1-0.1,0.1
			c0,0,0,0.1,0,0.1l0,0.1l0,0.1c0,0.3,0,0.6,0.2,0.9c0.2,0.6,0.8,1.2,1.5,1.8c0.8,0.5,1.7,1,2.7,1.4c2.1,0.8,4.6,1.3,7.4,1.5
			c2.8,0.2,5.9,0.3,9.1,0c1.6-0.2,3.2-0.4,4.9-0.8c1.6-0.4,3.3-0.9,4.7-1.8c0.7-0.4,1.4-1,1.7-1.7c0.2-0.3,0.3-0.7,0.3-1
			c0-0.3-0.1-0.5-0.4-0.8c-0.5-0.5-1.4-0.8-2.3-1.1c-0.9-0.3-1.8-0.5-2.7-0.7c-0.9-0.2-1.8-0.4-2.8-0.6c-0.5-0.1-0.9-0.2-1.4-0.3
			l-0.7-0.1c-0.2,0-0.5-0.1-0.7-0.2c-1-0.2-2-0.9-2.7-1.7c-0.7-0.9-1-1.9-1.3-2.8c-0.3-1-0.4-2-0.5-3c-0.1-1-0.1-2-0.1-3
			c0-1.9,0-3.9,0.1-5.8c0-3.9,0.1-7.7,0.1-11.4c0-0.5,0-0.9,0-1.4c0-0.5,0-0.9,0-1.4c0-1,0.2-1.9,0.5-2.9c0.6-1.8,1.4-3.5,2.4-5
			c2-3,4.2-5.5,6-8c1.9-2.5,3.5-4.9,4.7-7.3c1.2-2.4,2.1-4.6,2.6-6.6c1.1-4,1.3-7.1,1.5-8.4c0.1-1.4,0.6-1.8,0.7-0.1
			c0.1,1.4,0.1,4.5-1,8.7c-0.5,2.1-1.4,4.5-2.6,6.9c-1.2,2.5-2.8,5-4.7,7.5c-1.9,2.6-4.1,5.1-6,7.9c-0.9,1.4-1.8,2.9-2.3,4.6
			c-0.2,0.8-0.4,1.7-0.4,2.5c0,0.4,0,0.9,0,1.4c0,0.5,0,0.9,0,1.4c-0.1,3.7-0.1,7.5-0.2,11.4c0,3.8-0.4,7.8,0.4,11.4
			c0.2,0.9,0.5,1.7,1,2.4c0.5,0.7,1.2,1.1,2.1,1.3l0.3,0.1l0.4,0.1l0.7,0.1c0.5,0.1,0.9,0.2,1.4,0.3c0.9,0.2,1.9,0.4,2.8,0.6
			c0.9,0.2,1.9,0.4,2.8,0.7c0.9,0.3,1.8,0.6,2.7,1.3c0.2,0.2,0.4,0.4,0.6,0.7c0.2,0.3,0.2,0.6,0.2,0.9c0,0.6-0.1,1.1-0.4,1.6
			c-0.5,1-1.3,1.6-2.1,2.1c-1.6,1-3.4,1.6-5.1,2c-1.7,0.4-3.4,0.7-5,0.8c-3.3,0.3-6.4,0.3-9.3,0.1c-2.9-0.2-5.5-0.7-7.8-1.5
			C7,83.7,5.9,83.2,5,82.6C4.1,82,3.4,81.2,3,80.3c-0.2-0.5-0.3-1-0.3-1.5c0-0.5,0.2-1.1,0.5-1.4c0.5-0.7,1.1-1,1.5-1.3
			c0.9-0.5,1.5-0.7,1.5-0.7c1.4-0.5,2.4-0.6,3.2-0.5c0.7,0,1.1,0.2,1.1,0.4c0,0.2-0.3,0.4-0.9,0.7C8.9,76.2,7.9,76.5,6.7,76.9z"/>
	</g>
	<g>
		<path class="st0" d="M5.7,15.7c0,0.1,0.3,0.7,0.8,1.8C7.2,18.7,8,20.2,9.2,22c1.1,1.8,2.5,3.8,4.2,5.9c0.8,1,1.8,2,2.8,3
			c0.5,0.5,1,0.9,1.6,1.3c0.6,0.4,1.1,0.7,1.7,0.9c1.1,0.4,2.3-0.2,3.4-1c1.1-0.8,2.1-1.8,3-2.8c1.8-2.1,3.3-4.3,4.6-6.2
			c2.5-4,4-7.2,4.3-8.1c0.1-0.2,0.2-0.4,0.2-0.4c0,0,0.1,0,0.1,0.1c0,0.1,0,0.2,0,0.4c-0.1,1.1-1.4,4.4-3.8,8.6
			c-1.2,2.1-2.6,4.4-4.4,6.6C26,31,24.9,32.1,23.7,33c-0.6,0.5-1.3,0.9-2.1,1.2c-0.4,0.1-0.8,0.3-1.3,0.3c-0.2,0-0.4,0-0.7,0
			c-0.2,0-0.4-0.1-0.6-0.1c-1.6-0.5-2.8-1.5-3.9-2.5c-1.1-1-2-2.1-2.9-3.1c-1.7-2.1-3.1-4.3-4.1-6.1c-1.1-1.9-1.9-3.5-2.4-4.7
			c-0.5-1.2-0.7-1.9-0.7-2c-0.2-0.5-0.2-0.9-0.2-1.2c0-0.3,0.1-0.4,0.2-0.4c0.1,0,0.1,0.1,0.2,0.3C5.4,14.9,5.6,15.2,5.7,15.7z"/>
	</g>
</g>
</svg>
