<?xml version="1.0" encoding="utf-8"?>
<!-- Generator: Adobe Illustrator 25.4.1, SVG Export Plug-In . SVG Version: 6.00 Build 0)  -->
<svg version="1.1" id="XMLID_2_" xmlns="http://www.w3.org/2000/svg" xmlns:xlink="http://www.w3.org/1999/xlink" x="0px" y="0px"
	 viewBox="0 0 60.1 162.8" style="enable-background:new 0 0 60.1 162.8;" xml:space="preserve">
<path d="M59.1,150.2c-1-0.4-5.1-2-6-2.2c-0.2-0.1-0.5-0.1-0.7-0.2c0.7-0.4,1.4-0.7,2.2-1.1c0.3-0.1,0.6-0.3,0.9-0.4l0.5-0.2
	c0.2-0.1,0.4-0.2,0.6-0.4c0.7-0.6,0.6-1.8,0.1-2.6c-0.2-0.4-0.6-0.8-1-1c-0.4-0.2-1-0.2-1.4,0c-0.7,0.3-1.3,0.7-2,1
	c-1.3,0.6-2.6,1.3-4,1.9l-0.8,0.4c-0.2,0.1-0.4,0.2-0.6,0.3c-0.1-0.5-0.3-1-0.4-1.5c-0.4-1.5-0.9-3-1.3-4.6
	c-0.9-3.1-1.8-6.4-2.7-9.7c-3.8-13.4-8-28.4-12.4-44.3c-4.5-15.9-9.2-32.7-14-49.6c-2.4-8.5-4.8-17-7.2-25.4
	C8.3,8.4,7.7,6.3,7.1,4.2C7,3.7,6.8,3.1,6.6,2.6C6.4,2,6.1,1.4,5.6,0.9C5.2,0.4,4.3,0,3.6,0C2.8,0,2.2,0.3,1.6,0.6
	C1.1,0.9,0.4,1.4,0.2,2.2c-0.3,0.7-0.2,1.4-0.1,2C0.3,5.4,0.7,6.4,1,7.4c0.6,2.1,1.2,4.1,1.8,6.2C7.7,30.1,12.4,46,16.8,60.6
	c1.1,3.6,2.2,7.2,3.2,10.7c1.1,3.5,2.1,6.8,3.1,10.1c1.9,6.6,3.7,12.8,5.3,18.4c1.6,5.7,3.1,10.8,4.3,15.4
	c0.3,1.1,2.8,10.2,3.3,11.8c2.1,6.5,3.3,10.3,3.3,10.7c1.6,5.9,2.6,9.6,2.6,9.6c-1.2,0.2-4.8,1.2-6.4,1.7c-0.4,0.1-0.9,0.2-1.4,0.4
	c-0.3,0.1-0.5,0.2-0.8,0.2c-0.4,0.1-0.7,0.2-0.9,0.5c-0.5,0.6-0.4,1.4-0.2,2.2c0.1,0.3,0.3,0.7,0.7,1c0.2,0.2,0.5,0.3,0.9,0.2
	l0.4-0.1c1.1-0.2,2.3-0.4,3.5-0.7l0.5-0.1l0.2,0l0.1,0c0.1,0,0.2,0,0.4-0.1l0.3-0.1l0.2,0l0.1,0c0,0,0,0,0,0.1
	c-0.1,0.1-0.2,0.3-0.3,0.4l-0.3,0.4c-0.5,0.8-0.9,1.5-1.4,2.3c-0.5,0.8-0.9,1.6-1.4,2.5c-0.2,0.4-0.4,0.8-0.7,1.3
	c-0.1,0.2-0.2,0.4-0.3,0.7l-0.1,0.4c-0.1,0.1-0.1,0.4-0.2,0.6c-0.2,1,0.7,1.8,1.6,1.8c0.2,0,0.5,0,0.7-0.2c0.1,0,0.2-0.1,0.3-0.2
	l0.2-0.2c0.2-0.2,0.5-0.4,0.7-0.6c0.8-0.8,1.5-1.7,2.3-2.5c1.4-1.7,2.8-3.4,4.1-5l0.4-0.5c0,0,0.1-0.1,0.1-0.1c0,0,0,0,0.1,0
	c0,0,0-0.1,0.2,0.2c0.6,0.8,1.1,1.7,1.6,2.5c0.3,0.4,0.5,0.8,0.8,1.2c0.1,0.2,3.2,5.2,5,3.6c1.7-1.5-1.5-7.5-3.4-9.6
	c0.4,0.1,8,1.6,8.8,1.7C59.9,153.4,61,151,59.1,150.2z M58.6,152c-0.2,0.1-0.4,0.1-0.5,0.1c-0.4,0-0.7,0-1-0.1
	c-1.4-0.2-2.6-0.4-3.7-0.7c-0.6-0.1-1.2-0.2-1.7-0.4c-0.6-0.1-1.1-0.2-1.5-0.3c-0.6-0.1-1.7-0.3-1.7-0.3c-0.3-0.2-0.7,0.1-0.4,0.5
	c0,0,4.9,7.9,4.1,8.8c-0.8,0.8-3.5-3.7-3.8-4.1c-0.5-0.8-1.1-1.6-1.6-2.4c-0.2-0.3-0.4-0.7-0.7-1l-0.4-0.6l-0.2-0.3
	c-0.1,0-0.1,0.1-0.2,0.2c-0.3,0.3-0.6,0.7-0.9,1.1l-0.6,0.7c-1.3,1.6-2.7,3.3-4.1,5c-0.7,0.8-1.4,1.7-2.2,2.4
	c-0.2,0.2-0.4,0.4-0.6,0.5l-0.1,0.1c0,0-0.1,0-0.1,0c-0.1,0-0.3-0.1-0.3-0.3c0,0,0,0,0-0.1l0.1-0.3c0.1-0.2,0.2-0.4,0.3-0.6
	c0.2-0.4,0.4-0.8,0.6-1.2c0.4-0.8,0.9-1.6,1.4-2.4c0.5-0.8,1-1.6,1.5-2.4c0.4-0.6,0.8-1.3,1.2-1.9c0.4-0.7,0.9-1.3,1.3-2
	c-0.1,0-0.1,0-0.3,0l-0.4,0.1l-0.7,0.2c-0.5,0.1-1,0.2-1.4,0.4c-0.5,0.1-1,0.2-1.5,0.3c-0.3,0.1-0.7,0.1-1,0.2
	c-1.2,0.3-2.3,0.5-3.4,0.7l-0.2,0l-0.1,0l0,0c0-0.1-0.1-0.2-0.2-0.3c-0.1-0.2-0.2-0.6,0-0.8c0.1-0.1,0.2-0.1,0.4-0.2
	c0.2-0.1,0.4-0.2,0.6-0.2c0.5-0.2,0.9-0.3,1.3-0.4c1.7-0.5,3.2-1,4.4-1.3c1.2-0.4,2-0.6,2.5-0.8c0.4-0.1,0.6-0.2,0.5-0.3
	c0.6-0.2-17-60.1-19-66.6c-1-3.3-1.9-6.7-2.9-10.2c-1-3.5-2.1-7.1-3.1-10.7c-4.3-14.6-9-30.5-13.8-47C3.8,11.2,3.2,9.1,2.6,7
	C2.3,6,1.9,5,1.7,4c-0.1-0.5-0.1-0.9,0-1.2C1.8,2.5,2,2.2,2.3,2c0.4-0.2,0.8-0.4,1.2-0.4c0.4,0,0.6,0.1,0.9,0.3
	c0.5,0.5,0.9,1.6,1.1,2.6c0.5,2.1,1.2,4.2,1.8,6.3c2.4,8.5,4.8,17,7.2,25.4c4.8,16.9,9.6,33.7,14.1,49.6
	c4.5,15.9,8.8,30.9,12.6,44.3c1,3.3,1.9,6.6,2.8,9.7c0.4,1.6,0.9,3.1,1.3,4.6c0.3,1,0.6,2,0.8,3l0,0.1c0,0,0.1,0,0.1,0l0.2-0.1
	l0.4-0.2l0.7-0.4c0.4-0.2,0.9-0.4,1.3-0.6c1.3-0.7,2.7-1.3,4-2c0.6-0.3,1.2-0.6,1.8-0.9c0.4-0.3,0.9,0,1.1,0.4
	c0.2,0.4,0.3,0.9,0,1.2c-0.1,0.1-0.2,0.1-0.3,0.2l-0.4,0.2c-0.3,0.2-0.6,0.3-0.9,0.5c-1.2,0.6-2.3,1.2-3.4,1.7l-1.3,0.5l1.3,0.5
	l0.5,0.2c0.1,0,0.2,0.1,0.3,0.1l0.3,0.1c0.3,0.1,0.7,0.2,1,0.3c0.5,0.1,0.9,0.3,1.4,0.4c0.9,0.2,1.7,0.5,2.6,0.8
	c0.4,0.1,0.8,0.3,1.2,0.5c0.2,0.1,0.4,0.2,0.6,0.3c0.2,0.1,0.3,0.3,0.3,0.5C58.8,151.7,58.8,151.9,58.6,152z"/>
</svg>
