<?xml version="1.0" encoding="UTF-8"?>
<svg id="Layer_1" xmlns="http://www.w3.org/2000/svg" version="1.1" viewBox="0 0 179.3 306">
  <!-- Generator: Adobe Illustrator 29.7.1, SVG Export Plug-In . SVG Version: 2.1.1 Build 8)  -->
  <defs>
    <style>
      .st0 {
        fill: #fff;
      }

      .st1 {
        fill: none;
        stroke: #000;
        stroke-miterlimit: 10;
        stroke-width: 2px;
      }
    </style>
  </defs>
  <path d="M102.9,292.4s-.6-34.4-.6-56.6.6-56.6.6-56.6c0-1.2,1.3-1.1,1.3,0,0,0,.6,34.4.6,56.6s-.6,56.6-.6,56.6c-.1,1.2-1.3,1.2-1.3,0Z"/>
  <path d="M89.1,239.4s-.4-17.9-.4-29.4.4-29.4.4-29.4c0-.6.9-.6.9,0,0,0,.4,17.9.4,29.4s-.4,29.4-.4,29.4c0,.6-.8.6-.9,0Z"/>
  <line class="st1" x1="13.2" y1="169.7" x2="13.2" y2="245.4"/>
  <path d="M19,228.4s-.4-15.9-.4-26.1.4-26.1.4-26.1c0-.5.9-.5.9,0,0,0,.4,15.9.4,26.1s-.4,26.1-.4,26.1c0,.5-.8.5-.9,0Z"/>
  <path d="M108.6,284.8s23-12.1,68-35.7v-61.6c0-27.3.2-62.2.3-90.3,0-7,0-13.6.1-19.5,0-2.8-1-5.3-2.6-7.2s-3.5-3.5-5.2-4.7c-3.5-2.5-6.8-3.8-9-4.4-.6-.2-1.1-.3-1.5-.4s-.8-.2-1.1-.2c-.6-.1-.9-.2-.9-.2-2.8-.3-2.7-1.6.2-1.3,0,0,.3,0,1,.1.3,0,.7.1,1.2.2s1,.2,1.6.4c2.4.6,5.9,1.9,9.6,4.5,1.8,1.3,3.7,2.9,5.5,4.9,1.8,2.1,3,5.1,3.1,8.3,0,5.9,0,12.5.1,19.5.2,28.1.3,63,.3,90.3v62.8c-46,23.6-69.5,35.6-69.5,35.6-2.6,1.2-3.1.2-.6-1.2l-.6.1Z"/>
  <path d="M167.3,150.6s-35.3,9.2-58.1,15c-2.1.5-4.2,1-5.2,1.3-12.2-.6-25.9-1.3-36.6-1.8-10.6-.6-18.2-1-18.2-1-1.3,0-1.2-.9,0-.9,0,0,7.6.3,18.2.6,10.6.4,24.2.9,36.3,1.4,1-.2,3-.8,5-1.3,22.8-5.7,58.3-14.1,58.3-14.1,1.2-.2,1.4.5.2.9l.1-.1Z"/>
  <path d="M26.6,163h-4.5c-2.5,0-5.8-.1-9.2-.2,0,0,0-.2,0,.7v5.1h0c3.5.3,6.8.5,9.3.7,2.7.2,4.5.4,4.5.4.4,0,.3.9,0,.9h-4.5c-1.4,0-2.9,0-4.7-.1h-2.7c-1.2,0-2.4,0-3.6-.1v-9.1c1.2,0,2.4.1,3.6.2.9,0,1.8.1,2.7.2,1.7.1,3.3.2,4.6.3,2.7.2,4.4.3,4.4.3.4.1.3.9,0,.9l.1-.2Z"/>
  <path d="M50.2,170.7s16,.7,53.9,2.5c1.4-.4,4.2-1.1,7.9-2.1,3.8-1,8.4-2.2,13.6-3.5,10.4-2.6,22.7-5.8,33.5-8.5,4.4-1.1,9-2.3,11.2-2.8,0-22.4.2-46.9.2-65.7v-13.1c-.1-1.9-.6-3.6-1.4-5.1-.8-1.4-1.8-2.6-2.8-3.6-1.9-2-3.8-3.2-5.2-4-.7-.4-1.2-.6-1.6-.8-.4-.2-.6-.2-.6-.2-1.1-.4-1.5-.8-1.5-1s.7-.3,1.8.2c0,0,.2,0,.6.2s.9.4,1.6.8c1.4.7,3.4,2,5.5,4.1,1,1.1,2.1,2.3,3,3.8.9,1.6,1.5,3.4,1.6,5.5v13.1c0,19.2.2,44.2.2,67.1-2.4.6-7.6,1.9-12.5,3.2-10.8,2.7-23.2,5.8-33.5,8.4-5.2,1.3-9.9,2.4-13.6,3.4-3.8.9-6.7,1.6-8.2,2-38.1-2.1-54.1-2.9-54.1-2.9-2.3-.2-2.2-1,0-.9l.4-.1Z"/>
  <path d="M70.5,159s22.6-5.4,37.3-8.5,37.6-7.2,37.6-7.2c.8-.1,1,1.1.3,1.3,0,0-22.6,5.4-37.3,8.5s-37.6,7.2-37.6,7.2c-.8,0-1-1.1-.3-1.3h0Z"/>
  <path d="M148.9,142.1s1-.8,2.5-2.4c1.5-1.6,3.5-3.8,5.5-6.7,2-2.8,3.8-6.3,5.1-9.8,1.3-3.6,2-7.3,2.3-10.6,0-.8,0-1.7.1-2.6v-4.1c0-.5,0-.9-.1-1.4,0-.9-.2-1.9-.3-2.8-.6-3.8-1.7-7.5-3.1-10.6s-3.1-5.6-4.5-7.3-2.4-2.5-2.4-2.5c-.5-.4.2-1.5.9-1,0,0,1.1.8,2.7,2.5,1.5,1.7,3.5,4.2,5.1,7.4,1.7,3.2,3,7.1,3.7,11.1.2,1,.3,2,.4,3,0,.5.1,1,.2,1.5v1.5c0,1,.1,1.9,0,2.9,0,.9,0,1.9-.1,2.7-.3,3.5-1.1,7.5-2.6,11.3s-3.6,7.3-5.8,10.1c-2.2,2.9-4.4,5.1-6,6.6-1.7,1.5-2.8,2.3-2.8,2.3-.7.4-1.3-.6-.8-1.1h0Z"/>
  <path d="M95.2,86.5s16.3-1.9,26.8-2.7,26.9-1.4,26.9-1.4c.6,0,.6,1.3.1,1.3,0,0-16.3,1.9-26.8,2.7-10.5.8-26.9,1.4-26.9,1.4-.6,0-.6-1.2-.1-1.3Z"/>
  <path d="M153.4,78.8s.4-15.9,1.3-57.4h-.7c-.6-.1-1.3-.2-2-.4-1.5-.3-3.4-.7-5.6-1.1-4.4-.9-10-2-16.2-3.2-12.4-2.5-27.3-5.5-40.6-8.2h-2.3c-13.6.5-29.3,1.2-42.5,1.7-6.6.2-12.5.4-17.2.6-2.4,0-4.4.1-6.1.2h-2.9c1.4,41.4,1.9,57.2,1.9,57.2,0,2.7-1.2,2.6-1.3,0,0,0-.7-16.4-2.5-59.1,1.9-.1,5.7-.3,10.9-.6,4.7-.2,10.6-.5,17.2-.8,13.1-.6,28.8-1.3,42.5-1.9,1,0,2.1,0,2.6-.1,13.3,2.8,28.4,5.9,40.8,8.5,6.2,1.3,11.7,2.5,16.1,3.4,4.7,1,8.2,1.8,9.8,2.1-1.4,42.6-1.9,58.9-1.9,58.9-.2,2.7-1.3,2.6-1.3,0v.2Z"/>
  <path d="M89.1,83.3s-.8-20.1-.9-33.1c0-12.9.4-33.1.4-33.1,0-.7,1.3-.7,1.3,0,0,0,.8,20.1.9,33.1,0,12.9-.4,33.1-.4,33.1-.1.7-1.3.7-1.3,0Z"/>
  <path d="M36,129.9h10.1c0,.5,0,2.5.2,5.6,0,2.7.1,6.3.2,10.4,0,4.1.1,8.6.2,13.1v14.9h-.3c-.6.1-1.2.3-1.8.4-.6.1-1.3.3-2,.4-1.3.2-2.7.4-4.2.4-2.8.1-5.8,0-8.7-.6l-1.1-.2h-.5c0-.1-.9-.3-.9-.3l-1-.2h-.2v-6.6c0-2.8,0-5.5.1-8,.2-10.2.3-17.9.3-17.9,0-1.1,1.3-1,1.3,0,0,0,.1,7.7.3,17.9,0,2.6,0,5.3.1,8v4.6h.1l.5.1,1,.2c2.7.4,5.5.6,8.1.4,1.3,0,2.6-.2,3.9-.4.6-.1,1.2-.2,1.9-.4.1,0,0,0,0,0h0v-12.8c0-4.5.1-9,.2-13.1,0-4.1.1-7.7.2-10.4v-4.2h-8.6c-1.1-.1-1-1.3,0-1.3h.6Z"/>
  <path d="M32.9,138.6c.7-7.2-.2-14.5-2.6-21.3s-10.8-19.1-4.2-24.8c1.8-1.6,4.4-1.6,6.8-1.8,5-.6,6.1-4.2,6.1-7.8,0-11.3-11.9-13-15.1-13.2-11.3-.6-13.6,7.4-13.6,15.3,0,6.7,1.7,18.7,7.1,29.3,3.6,7.2,4.3,15.5,4.9,23.5,3.5.3,7,.6,10.4.8h.2Z"/>
  <path d="M88.5,289.6l-2.6,8.5c-.8,2.7.5,5.5,2.8,6.4s4.7,1.4,7.7,1.5c3.3,0,6.2-.5,8.5-1.3s3.8-3.9,2.8-6.7c-1.3-3.7-2.9-8.4-2.9-8.5l-16.4.2.1-.1Z"/>
  <path d="M170.6,254.7c-.3-.5-3.4,2.5-7.6,5.4s-9.5,6.4-8.9,6.8"/>
  <path d="M153.5,266.7c2.1.8,4.7,1.4,7.7,1.5,3.3,0,6.2-.5,8.5-1.3s3.8-3.9,2.8-6.7-1.3-3.9-1.9-5.5"/>
  <polygon points="18 14.4 89.2 12.4 155.1 25.7 155.7 20.7 89.4 5.6 17.7 10.2 18 14.4"/>
  <polygon points="34.4 8.8 34.4 .8 89.8 0 141.2 11.1 141.2 16.2 89.8 7.1 34.4 8.8"/>
  <path d="M89.8,245.3l-71-11.3v8.3S0,247.6,0,255.1v25.9s5.1,15.1,37.2,18.4,53.3-7.5,53.3-7.5l-.8-46.6h.1Z"/>
  <path class="st0" d="M83.4,267.1s-.4.1-1,.3c-.7.2-1.7.6-2.9.9-2.5.8-6,1.7-10,2.5s-8.6,1.5-13.3,1.8c-4.6.3-9.2.2-13.2-.1-8-.7-18.2-2.7-25.9-6-3.8-1.6-7-3.5-9.1-5-1.1-.8-1.9-1.5-2.4-1.9-.5-.5-.8-.8-.8-.8-.6-.7.4-1.5.9-1,0,0,.3.3.8.7.5.4,1.3,1,2.4,1.7,2.1,1.4,5.2,3.1,9,4.5,7.5,2.9,17.5,4.6,25.3,5.2,3.9.3,8.4.5,12.9.3s9-.6,13-1.3c4-.7,7.5-1.5,10-2.1,1.2-.3,2.2-.6,2.9-.8.7-.2,1-.3,1-.3.8-.1,1.2,1,.4,1.3v.1Z"/>
  <path class="st0" d="M23.5,242.4s18.4,2.5,30.2,4.5,30,5.7,30,5.7c.6.1.4,1.4-.2,1.3,0,0-18.4-2.5-30.2-4.5s-30-5.7-30-5.7c-.6-.2-.4-1.4.2-1.3Z"/>
  <path d="M40.8,87.4h3.2v2.7c0,1.2.1,2.8.2,4.6.1,3.6.3,8.1.3,11.7,0,8.1-.6,20.8-.6,20.8,0,.4-1.3.4-1.3,0,0,0-.6-12.7-.6-20.8,0-3.6.1-8,.3-11.7,0-1.8.1-3.4.2-4.6v-1.4h-1.8c-.4-.1-.4-1.3,0-1.3h.1Z"/>
  <path d="M28.2,108.9s-.6-8.3-.6-13.6.6-13.6.6-13.6c0-.3,1.3-.3,1.3,0,0,0,.6,8.3.6,13.6s-.6,13.6-.6,13.6c-.1.3-1.3.3-1.3,0Z"/>
  <path d="M37.4,168.4s-.4-9.9-.4-16.2.4-16.2.4-16.2c0-.3.9-.3.9,0,0,0,.4,9.9.4,16.2s-.4,16.2-.4,16.2c0,.3-.8.3-.9,0Z"/>
  <path d="M61.9,160.1s.5-.3,1.5-.8c.5-.2,1.1-.6,1.7-1,.7-.4,1.4-.9,2.2-1.5s1.7-1.2,2.6-2c.4-.4.9-.8,1.4-1.2s.9-.9,1.4-1.4l.7-.7c.2-.3.5-.5.7-.8.5-.5.9-1.1,1.4-1.6.9-1.2,1.9-2.4,2.7-3.7.9-1.3,1.7-2.8,2.5-4.2.7-1.5,1.5-3,2.1-4.7.7-1.6,1.1-3.3,1.6-5,.2-.9.4-1.7.6-2.6.2-.9.3-1.7.5-2.6.5-3.5.8-7,.6-10.4,0-.9,0-1.7-.1-2.5,0-.8-.2-1.6-.3-2.5-.1-.8-.2-1.6-.4-2.4-.2-.8-.4-1.5-.5-2.3-1.4-6-4.1-12.6-8.4-18.2l-1.6-2.1c-.6-.7-1.2-1.3-1.8-1.9l-.9-1c-.3-.3-.7-.6-1-.9-.7-.6-1.3-1.1-2-1.7-.7-.5-1.4-1-2.1-1.5-.7-.5-1.4-1-2.1-1.4-1.5-.8-2.8-1.7-4.3-2.2-.7-.3-1.4-.6-2.1-.9-.7-.2-1.4-.4-2.2-.7-.7-.2-1.4-.5-2.1-.6-.7-.1-1.4-.3-2-.4-.7,0-1.3-.3-1.9-.3s-1.2,0-1.8-.1c-.6,0-1.2,0-1.7-.1h-1.6c-2,0-3.6.3-4.7.4-1.1.2-1.7.3-1.7.3-1.3.3-1.6-1-.3-1.3,0,0,.6-.2,1.7-.4,1.1-.2,2.8-.5,4.8-.6h5.3c.7,0,1.3.2,2,.3s1.4.2,2.1.3c.7,0,1.4.4,2.2.6.7.2,1.5.4,2.3.6.7.3,1.5.6,2.3.9,1.6.6,3.1,1.4,4.6,2.2.8.4,1.5.9,2.2,1.4s1.5,1,2.2,1.5c.7.6,1.4,1.2,2.1,1.7.3.3.7.6,1,.9l1,1c.6.7,1.3,1.3,1.9,2l1.8,2.2c4.7,5.8,7.6,12.7,9.1,19,.2.8.4,1.6.5,2.4.2.8.2,1.7.4,2.5.1.9.2,1.7.3,2.6,0,.9,0,1.8.1,2.7.2,3.6-.1,7.3-.7,10.9-.2.9-.3,1.8-.5,2.7s-.5,1.8-.7,2.7c-.6,1.8-1.1,3.5-1.8,5.2-.6,1.7-1.5,3.3-2.3,4.8-.9,1.5-1.7,3-2.7,4.3-.9,1.4-2,2.6-2.9,3.8-.5.6-1,1.1-1.5,1.7-.2.3-.5.5-.7.8-.3.2-.5.5-.8.7-.5.5-1,.9-1.5,1.4-.5.4-1,.8-1.5,1.2-.9.8-1.9,1.4-2.7,2s-1.7,1.1-2.4,1.5-1.3.8-1.8,1c-1,.5-1.6.7-1.6.7-1.3.5-1.7-.6-.6-1.2l.2.5Z"/>
  <path d="M9.6,99.3s-.4,1.1-1,2.9c-.5,1.8-1.2,4.5-1.6,7.5-.4,3-.6,6.5-.4,9.9.1,3.4.6,6.8,1.3,9.7.6,2.9,1.7,6.1,3,9.3,1.4,3.1,3.1,6.1,4.8,8.6,1.8,2.5,3.6,4.5,4.9,5.8.7.7,1.3,1.2,1.6,1.6.4.4.6.5.6.5.5.4,0,1.1-.6.7,0,0-.2-.2-.6-.5-.4-.3-1-.8-1.8-1.5-1.5-1.3-3.4-3.3-5.3-5.8-1.9-2.5-3.8-5.5-5.2-8.7-1.5-3.2-2.6-6.5-3.3-9.5s-1.1-6.5-1.2-10c-.1-3.5.2-7,.8-10.1.5-3.1,1.3-5.7,1.9-7.6.6-1.9,1.1-2.9,1.1-2.9.3-.6,1-.3.8.3l.2-.2Z"/>
  <line class="st1" x1="11.5" y1="161.9" x2="27.1" y2="158.6"/>
  <path d="M43.2,124.2h.3c.2,0,.5,0,.9-.2.8-.2,1.8-.6,2.7-1.3,1-.7,1.9-1.8,2.4-2.9.6-1.2.8-2.5.8-3.6s-.2-2.4-.8-3.6c-.6-1.2-1.5-2.2-2.4-2.9-1-.7-2-1.1-2.7-1.3-.4,0-.7-.2-.9-.2h-.3c-.3,0-.3-1.3,0-1.3h1.5c.9.1,2.2.4,3.5,1.2,1.3.7,2.6,2,3.5,3.4.9,1.5,1.3,3.2,1.3,4.7s-.4,3.2-1.3,4.7c-.9,1.5-2.2,2.7-3.5,3.4-1.3.8-2.6,1.1-3.5,1.2h-1.5c-.3-.1-.3-1.3,0-1.3h0Z"/>
  <path d="M80.8,32.7s-17.1-4.1-28.1-7-27.9-7.8-27.9-7.8c-.6-.2-.3-1,.2-.9,0,0,17.1,4.1,28.1,7s27.9,7.8,27.9,7.8c.6.2.4,1-.2.9Z"/>
  <path d="M148,27.9s-15.5,2.4-25.5,3.7c-10,1.3-25.6,2.9-25.6,2.9-.5,0-.6-.8-.1-.9,0,0,15.5-2.4,25.5-3.7,10-1.3,25.6-2.9,25.6-2.9.5,0,.6.8.1.9Z"/>
  <path d="M169.9,246.2s-.4-25.2-.4-41.5.4-41.5.4-41.5c0-.9.9-.8.9,0,0,0,.4,25.2.4,41.5s-.4,41.5-.4,41.5c0,.9-.8.8-.9,0Z"/>
  <g>
    <path d="M111.8,271.7s15.5-8.1,25.6-13.1,26-12.4,26-12.4c.6-.3.9.5.4.8,0,0-15.5,8.1-25.6,13.1s-26,12.4-26,12.4c-.6.2-.9-.5-.4-.8Z"/>
    <path d="M111.8,263.6s15.5-7.8,25.6-12.7c10.1-4.8,26-11.9,26-11.9.6-.2.9.5.4.8,0,0-15.5,7.8-25.6,12.7-10.1,4.8-26,11.9-26,11.9-.6.2-.9-.5-.4-.8Z"/>
    <path d="M111.8,255.4s15.5-7.5,25.6-12.2c10.1-4.6,26-11.4,26-11.4.6-.2.9.6.4.8,0,0-15.5,7.5-25.6,12.2-10.1,4.6-26,11.4-26,11.4-.6.2-.9-.5-.4-.8Z"/>
    <path d="M111.8,247.3s15.5-7.3,25.6-11.7c10.1-4.4,26-10.9,26-10.9.6-.2.9.6.4.8,0,0-15.5,7.3-25.6,11.7-10.1,4.4-26,10.9-26,10.9-.6.2-.9-.5-.4-.8Z"/>
    <path d="M111.8,239.1s15.5-7,25.6-11.2,25.9-10.4,25.9-10.4c.6-.2.9.6.3.8,0,0-15.5,7-25.6,11.2s-25.9,10.4-25.9,10.4c-.6.1-.9-.6-.3-.8h0Z"/>
    <path d="M111.8,231s15.5-6.7,25.6-10.7,25.9-9.9,25.9-9.9c.6-.2.8.6.3.8,0,0-15.5,6.7-25.6,10.7s-25.9,9.9-25.9,9.9c-.6.1-.8-.6-.3-.8h0Z"/>
    <path d="M111.8,222.9s15.5-6.4,25.6-10.2c10.1-3.8,25.9-9.4,25.9-9.4.5-.2.8.6.3.8,0,0-15.5,6.4-25.6,10.2-10.1,3.8-25.9,9.4-25.9,9.4-.6.1-.8-.6-.3-.8h0Z"/>
    <path d="M111.8,214.7s15.5-6.1,25.6-9.7,25.9-8.9,25.9-8.9c.5-.2.8.6.3.8,0,0-15.5,6.1-25.6,9.7s-25.9,8.9-25.9,8.9c-.6.1-.8-.6-.3-.8h0Z"/>
    <path d="M111.8,206.6s15.6-5.8,25.6-9.2c10.1-3.5,25.9-8.4,25.9-8.4.5-.2.8.6.3.9,0,0-15.6,5.8-25.6,9.2-10.1,3.5-25.9,8.4-25.9,8.4-.6,0-.8-.6-.3-.9h0Z"/>
    <path d="M111.8,198.4s15.6-5.5,25.7-8.7c10.1-3.3,25.9-7.9,25.9-7.9.5-.2.8.7.3.9,0,0-15.6,5.5-25.7,8.7-10.1,3.3-25.9,7.9-25.9,7.9-.6,0-.8-.6-.3-.9h0Z"/>
    <path d="M111.8,190.3s15.6-5.2,25.7-8.3,25.9-7.5,25.9-7.5c.5-.1.8.7.3.9,0,0-15.6,5.2-25.7,8.3s-25.9,7.5-25.9,7.5c-.6,0-.8-.6-.3-.9h0Z"/>
    <path d="M111.8,182.1s15.6-4.9,25.7-7.8c10.1-2.9,25.9-7,25.9-7,.5-.1.8.7.2.9,0,0-15.6,4.9-25.7,7.8-10.1,2.9-25.9,7-25.9,7-.6,0-.8-.7-.2-.9h0Z"/>
  </g>
</svg>