<?xml version="1.0" encoding="utf-8"?>
<!-- Generator: Adobe Illustrator 25.4.1, SVG Export Plug-In . SVG Version: 6.00 Build 0)  -->
<svg version="1.1" id="XMLID_2_" xmlns="http://www.w3.org/2000/svg" xmlns:xlink="http://www.w3.org/1999/xlink" x="0px" y="0px"
	 viewBox="0 0 115.9 186" style="enable-background:new 0 0 115.9 186;" xml:space="preserve">
<style type="text/css">
	.st0{stroke:#3F3B3C;stroke-width:0.75;stroke-miterlimit:10;}
	.st1{stroke:#3F3B3C;stroke-width:0.8713;stroke-miterlimit:10;}
</style>
<g>
	<g>
		<path d="M18.3,26.3c0.1,0,0.9-0.2,2.3-0.4c1.4-0.2,3.4-0.5,5.8-0.9c4.8-0.6,11.2-1.3,17.7-1.5c6.6-0.1,13.2,0.1,18.5,0.5
			c5.3,0.4,9.2,1,10.3,1.5c0.6,0.2,0.7,0.8-0.1,0.9c-1.2,0.1-5.1-0.1-10.4-0.3c-5.3-0.1-11.9-0.3-18.4-0.2
			c-6.5,0.1-12.8,0.6-17.5,1.1c-2.4,0.2-4.3,0.5-5.7,0.6c-1.4,0.2-2.2,0.3-2.3,0.3C16.3,28.2,16,26.7,18.3,26.3z"/>
	</g>
	<g>
		<path d="M79.7,31.4c-0.1,0-1.5,0.5-3.9,1c-2.4,0.5-5.7,0.9-9.7,1.3c-4,0.4-8.7,0.7-13.7,0.9c-2.5,0.1-5.1,0.2-7.8,0.2
			c-2.7,0-5.4,0-8.1-0.1c-5.5-0.2-11-0.4-16.2-0.9c-1.3-0.1-2.6-0.3-3.9-0.5c-0.6-0.1-1.3-0.2-1.9-0.3c-0.3-0.1-0.7-0.2-1-0.2
			c-0.3-0.1-0.5-0.1-0.8-0.2c-2.2-0.4-4.6-0.3-6.8-0.4c-1.1,0-2.2-0.1-3.3-0.3c-0.3,0-0.6-0.1-0.9-0.2c-0.3-0.1-0.7-0.2-1-0.6
			c-0.2-0.2-0.4-0.5-0.4-0.8c0-0.1,0-0.2,0-0.2c0,0,0-0.4,0.1-0.5c0-0.1,0.1-0.2,0.1-0.2c0,0,0.1-0.1,0.1-0.1
			c0.1-0.1,0.1-0.1,0.2-0.2c0.4-0.3,0.6-0.3,0.9-0.4c1-0.3,1.9-0.5,2.8-0.6c0.9-0.1,1.7-0.3,2.4-0.3c3-0.4,5.1-0.5,6.1-0.5
			c1,0,1.4,0.6,0.2,0.9c-0.9,0.2-3,0.6-6,1.2c-0.7,0.1-1.5,0.3-2.3,0.5c-0.8,0.2-1.7,0.4-2.5,0.7c-0.2,0.1-0.4,0.2-0.4,0.2
			c0,0.1-0.1-0.2-0.2-0.2c0,0-0.1-0.1-0.1-0.1c0,0-0.1-0.1-0.1-0.1l-0.1-0.1c0,0-0.1,0-0.1,0l0,0c-0.1,0,1,0,0.5,0l0,0
			c0,0-0.1,0,0,0c0,0,0,0,0,0c0,0,0.1,0,0.1-0.1c0,0,0.1-0.1,0.1-0.1c0,0,0.1-0.1,0.1-0.1l0,0c0,0,0,0,0,0c0,0,0.1,0,0.2,0.1
			C2.2,30,2.4,30,2.6,30c0.9,0.1,2,0.1,3.1,0.2c2.2,0,4.6-0.1,7.2,0.3c0.3,0.1,0.7,0.1,1,0.2c0.3,0.1,0.6,0.1,0.8,0.2
			c0.6,0.1,1.2,0.2,1.8,0.3c1.2,0.2,2.5,0.3,3.8,0.4c5.2,0.4,10.7,0.7,16.1,0.9c2.7,0.1,5.4,0.2,8.1,0.2c2.6,0,5.2,0,7.7-0.1
			c5-0.2,9.7-0.4,13.7-0.7c4-0.3,7.3-0.7,9.6-1.1c2.3-0.4,3.6-0.8,3.7-0.9c0.9-0.3,1.4-0.5,1.8-0.6c0.1-0.1,0.3-0.1,0.4-0.2
			c0.1,0,0.2-0.1,0.3-0.1c0.1,0,0.2,0.1,0.3,0.3c0,0.2,0,0.5-0.2,0.8C81.4,30.6,80.7,31.1,79.7,31.4z"/>
	</g>
	<g>
		<path d="M83.3,38c0,0.3,0,8.1,0.1,19.6c0,11.6,0.1,27,0.1,42.7c0,31.4-0.2,64.1-0.7,69.6c-0.1,1.4-0.6,1.9-0.8,0.1
			c-0.5-5.6-0.7-38.2-0.7-69.7c0-15.7,0.1-31.2,0.1-42.7c0.1-11.6,0.1-19.3,0.1-19.6C81.6,32.5,83.3,32.5,83.3,38z"/>
	</g>
	<g>
		<path d="M78.3,179.7c-0.1,0-0.3,0.2-0.6,0.4c-0.4,0.3-0.9,0.5-1.6,0.9c-0.7,0.4-1.6,0.7-2.6,1.2c-0.5,0.2-1.1,0.4-1.6,0.6
			c-0.6,0.2-1.2,0.4-1.9,0.6c-0.7,0.2-1.4,0.4-2.1,0.6c-0.7,0.2-1.5,0.3-2.3,0.5c-0.8,0.2-1.6,0.3-2.5,0.4c-0.9,0.1-1.8,0.3-2.7,0.4
			c-0.9,0.1-1.9,0.2-2.9,0.3c-1,0.1-2,0.1-3.1,0.2c-2.1,0.2-4.3,0.2-6.6,0.2c-4.6,0.1-9.6-0.1-14.9-1c-2.6-0.4-5.3-1.1-8-2.1
			c-2.7-1-5.3-2.3-7.7-4.2c-2.4-1.9-4.3-4.5-5.4-7.6c-0.5-1.5-0.9-3.1-1-4.7c-0.1-1.6,0-3.1-0.1-4.6c0-6.1,0-12.2,0-18.4
			c0-24.8,0.1-50.1,0.3-70.3c0-5,0.1-9.8,0.1-14.1c0-2.2,0.1-4.2,0.1-6.2c0-0.5,0-1,0-1.4c0-0.5,0-0.9-0.1-1.3
			c-0.1-0.8-0.3-1.6-0.5-2.4c-0.5-1.5-1.2-2.9-1.9-4.2c-0.7-1.2-1.4-2.3-2-3.3c-1.3-1.9-2.4-3.3-3-4.2c-0.7-0.9-1.1-1.6-1-1.8
			c0.1-0.2,0.6,0,1.5,1c0.8,0.8,2,2.1,3.4,4c0.7,0.9,1.5,2,2.3,3.3c0.8,1.3,1.5,2.7,2.2,4.4c0.1,0.4,0.3,0.9,0.4,1.3
			c0.1,0.5,0.2,0.9,0.3,1.4c0,0.5,0.1,1,0.1,1.5c0,0.5,0,1,0,1.4c0,1.9,0,4,0.1,6.2C13,63.2,13,68,13.1,73
			c0.1,20.2,0.2,45.5,0.1,70.4c0,6.2,0,12.4,0,18.4c0,1.5,0,3.1,0,4.4c0.1,1.4,0.4,2.8,0.8,4.1c0.9,2.6,2.5,4.8,4.6,6.5
			c2.1,1.7,4.5,3,7,3.9c2.5,0.9,5.1,1.5,7.6,2c5.1,0.9,10,1.1,14.5,1.1c2.3,0,4.4,0,6.5-0.2c1-0.1,2-0.1,3-0.2
			c1-0.1,1.9-0.2,2.8-0.3c0.9-0.1,1.8-0.2,2.6-0.4c0.8-0.1,1.7-0.2,2.4-0.4c0.8-0.2,1.5-0.3,2.2-0.5c0.7-0.2,1.4-0.4,2-0.5
			c0.6-0.2,1.2-0.4,1.8-0.6c0.6-0.2,1.1-0.3,1.6-0.6c0.9-0.4,1.8-0.7,2.4-1.1c0.6-0.3,1.1-0.6,1.5-0.8c0.3-0.2,0.5-0.3,0.6-0.4
			c1.7-1.1,2.9-2.2,3.6-2.9c0.8-0.7,1.2-1.1,1.4-1c0.2,0.1,0.2,0.7-0.3,1.8C81.3,176.9,80.2,178.4,78.3,179.7z"/>
	</g>
	<g>
		<path d="M78.1,55.3c0,0.4,0.1,10.3,0.2,25c0.1,14.7,0.2,34.4,0.2,54.4c0,5,0,10,0,15l0,1.9l0,0.9l0,0.5l0,0.5l-0.1,1
			c0,0.3-0.1,0.7-0.2,1c-0.1,0.7-0.3,1.3-0.5,2c-0.8,2.6-2.4,4.8-4.4,6.5c-1.9,1.7-4.2,2.8-6.4,3.8c-1.1,0.4-2.3,0.9-3.4,1.1
			c-0.6,0.2-1.1,0.3-1.7,0.5c-0.6,0.1-1.1,0.2-1.7,0.3c-0.6,0.1-1.1,0.2-1.7,0.3c-0.6,0.1-1.1,0.1-1.7,0.2c-1.1,0.1-2.2,0.3-3.3,0.3
			c-1.1,0.1-2.2,0.2-3.2,0.2c-1.1,0-2.1,0-3.1,0c-4.1,0-8-0.3-11.5-0.9c-3.5-0.6-6.6-1.6-9.2-2.7c-2.6-1.2-4.6-2.6-6-4
			c-1.4-1.4-2.2-2.6-2.6-3.4c-0.2-0.4-0.4-0.8-0.4-1.1c-0.1-0.3-0.1-0.5,0-0.5c0-0.1,0.1,0,0.3,0.2c0.2,0.2,0.3,0.5,0.7,0.9
			c0.5,0.7,1.3,1.8,2.7,3.1c1.4,1.2,3.3,2.5,5.8,3.6c2.5,1.1,5.5,1.9,8.9,2.4c3.4,0.5,7.2,0.7,11.2,0.6c1,0,2-0.1,3.1-0.1
			c1,0,2.1-0.2,3.1-0.2c0.5-0.1,1.1-0.1,1.6-0.2c0.5-0.1,1.1-0.2,1.6-0.2c0.5-0.1,1.1-0.2,1.6-0.2c0.5-0.1,1.1-0.2,1.6-0.3
			c0.5-0.1,1.1-0.2,1.6-0.3c0.5-0.2,1.1-0.3,1.6-0.5c1.1-0.3,2.1-0.7,3.2-1.1c2.1-0.9,4.1-1.9,5.8-3.5c1.7-1.5,3.1-3.4,3.7-5.5
			c0.1-0.5,0.3-1.1,0.4-1.6l0.1-0.8l0-0.9c0-0.5,0-1.2,0-1.8l0-1.9c0-5,0-10,0-15c0-20.1,0.1-39.7,0.2-54.5
			c0.1-14.8,0.2-24.6,0.2-25C76.7,48.2,77.9,48.2,78.1,55.3z"/>
	</g>
	<g>
		<path d="M16.1,152.7c0-0.2-0.1-6.1-0.2-14.8c-0.1-8.7-0.2-20.3-0.1-32.1c0-23.6,0.3-48.2,0.7-52.4c0.1-1.1,0.4-1.4,0.5-0.1
			c0.3,4.2,0.7,28.8,0.7,52.4c0,11.8-0.1,23.4-0.1,32.1c-0.1,8.7-0.2,14.5-0.2,14.8C17.2,156.9,16.3,156.9,16.1,152.7z"/>
	</g>
	<g>
		<path d="M39.8,132.4c0-0.1,0.6-1.5,1.5-4c0.9-2.4,2.2-5.9,3.5-10.1c0.7-2.1,1.4-4.4,2.1-6.8c0.8-2.4,1.6-4.9,2.6-7.5
			c1.9-5.2,3.9-10.8,5.7-16.5c1.8-5.7,3.7-11.5,5.4-16.9c1.8-5.5,3.4-10.7,5-15.3c1.6-4.6,3-8.6,4.1-11.7c0.3-0.8,0.5-1.5,0.8-2.1
			c0.3-0.6,0.6-1.2,0.8-1.7c0.5-1,0.7-1.8,0.9-2.3c0.3-1.1,1-1.2,0.5,0.1c-0.2,0.5-0.5,1.3-0.7,2.4c-0.1,0.6-0.2,1.2-0.4,1.9
			c-0.1,0.7-0.4,1.4-0.6,2.2c-1,3.2-2.2,7.2-3.8,11.8c-1.6,4.6-3.4,9.8-5.3,15.2c-1.9,5.4-4,11.1-6,16.8c-1,2.8-2,5.6-2.9,8.4
			c-0.9,2.8-1.8,5.5-2.6,8.2c-1.7,5.3-3.5,10.1-5,14.2c-1.5,4.1-2.7,7.6-3.5,10.1c-0.8,2.5-1.2,4-1.3,4.1c-0.3,1-0.6,1.7-0.9,2.2
			c-0.3,0.5-0.5,0.7-0.7,0.6c-0.1-0.1-0.2-0.4-0.1-0.9C39.2,134.1,39.4,133.3,39.8,132.4z"/>
	</g>
	<g>
		<path d="M75.8,26.3c0-0.1,0.3-0.9,0.9-2.2c0.5-1.4,1.2-3.3,1.9-5.7c0.7-2.4,1.5-5.2,2.6-8.1c0.5-1.5,1.1-3,1.7-4.5
			c0.3-0.8,0.5-1.6,0.8-2.4c0.3-0.8,0.6-1.7,1.2-2.4c0.3-0.4,0.7-0.7,1.3-0.9c0.3-0.1,0.6,0,0.9,0c0.2,0.1,0.5,0.2,0.8,0.4
			c0.3,0.2,0.4,0.6,0.4,0.9c0,0.3,0,0.5,0,0.8c-0.1,0.5-0.2,0.9-0.3,1.3c-0.5,1.6-1,3.2-1.5,4.8c-1,3.1-1.9,6.1-2.8,8.7
			c-0.9,2.6-1.8,4.8-2.5,6.6c-0.2,0.4-0.3,0.8-0.5,1.2c-0.2,0.3-0.4,0.7-0.6,0.9c-0.3,0.6-0.5,1-0.6,1.3c-0.1,0.3-0.3,0.5-0.4,0.4
			c-0.2,0-0.2-0.2-0.1-0.6c0.1-0.3,0.3-0.7,0.4-1.4c0.1-0.3,0.1-0.7,0.1-1.1c0.1-0.4,0.2-0.8,0.3-1.3c0.5-1.8,1.2-4.1,2.1-6.7
			c0.9-2.6,2-5.5,3.1-8.6c0.6-1.5,1.2-3.1,1.7-4.7C86.9,2.7,87,2.4,87.1,2c0-0.2,0.1-0.4,0-0.5c0-0.1,0-0.2-0.1-0.3
			C87,1.2,86.8,1.1,86.7,1c-0.1,0-0.2-0.1-0.4,0c-0.2,0-0.5,0.2-0.8,0.5c-0.5,0.6-0.9,1.3-1.1,2.1c-0.3,0.8-0.5,1.6-0.8,2.4
			c-0.5,1.6-0.9,3.1-1.4,4.6c-0.9,3-2,5.7-2.9,8c-0.9,2.3-1.5,4.3-1.9,5.7c-0.4,1.4-0.6,2.3-0.6,2.3C76.2,29,74.9,28.6,75.8,26.3z"
			/>
	</g>
	<g>
		<path d="M74.9,41c-0.1,0.2-0.9,2.5-2.4,6.5c-1.4,4-3.4,9.6-5.6,16.3c-1.1,3.4-2.3,7-3.6,10.9c-1.3,3.9-2.7,8-4.2,12.2
			c-3,8.4-6.2,17.4-9.1,26.7c-1.5,4.6-3,9.2-4.5,13.8c-0.7,2.3-1.5,4.6-2.1,6.8c-0.2,0.6-0.3,1.1-0.5,1.7l-0.2,0.8
			c-0.1,0.3-0.1,0.5-0.2,0.8c-0.3,1.1-0.2,2.2-0.2,3.3c0.1,2.3,0.4,4.6,0.4,6.9c0,2.3-0.3,4.7-1.1,6.8c-0.8,2.2-2,4.1-3.4,5.8
			c-0.7,0.8-1.5,1.6-2.4,2.2c-0.9,0.6-1.9,1.1-3.1,1.3c-1.1,0.2-2.4,0-3.4-0.6c-0.5-0.3-0.9-0.6-1.3-1c-0.4-0.3-0.7-0.8-1-1.2
			c-1.1-1.8-1.4-3.8-1.3-5.6c0.1-1.8,0.5-3.4,1-4.9c0.3-0.7,0.5-1.5,0.8-2.1c0.3-0.7,0.6-1.3,0.9-1.9c1.5-2.4,3.3-3.9,4.6-5.1
			c1.4-1.2,2.3-2.2,2.9-2.8c0.6-0.6,1.1-1,1.3-0.9c0.2,0.1,0,0.4-0.8,1.2c-0.6,0.6-1.6,1.6-2.8,3c-0.6,0.7-1.2,1.5-1.9,2.4
			c-0.7,0.9-1.4,1.8-2.1,2.9c-0.3,0.5-0.6,1.1-0.8,1.8c-0.3,0.6-0.5,1.3-0.7,2c-0.4,1.4-0.8,2.9-0.8,4.5c-0.1,1.6,0.2,3.2,1,4.6
			c0.1,0.2,0.2,0.3,0.4,0.5l0.2,0.2l0.2,0.2l0.4,0.4c0.2,0.1,0.3,0.2,0.5,0.3c0.7,0.4,1.4,0.5,2.2,0.4c1.6-0.2,3.2-1.5,4.5-2.9
			c1.3-1.5,2.4-3.2,3.2-5.2c0.8-1.9,1.1-4,1.1-6.3c0-2.2-0.2-4.5-0.3-6.9c0-1.2,0-2.4,0.3-3.7l0.2-0.9l0.3-0.9
			c0.2-0.6,0.4-1.1,0.5-1.7c0.7-2.3,1.5-4.5,2.3-6.8c1.6-4.6,3.1-9.2,4.7-13.7c3.2-9.1,6.2-18.2,9-26.7c1.4-4.2,2.8-8.3,4.1-12.2
			c1.4-3.8,2.7-7.5,3.9-10.8c2.4-6.7,4.3-12.3,5.6-16.3c1.3-4,2-6.4,2.1-6.6C75.9,34.1,77.2,34.6,74.9,41z"/>
	</g>
</g>
</svg>
