<?xml version="1.0" encoding="utf-8"?>
<!-- Generator: Adobe Illustrator 25.4.1, SVG Export Plug-In . SVG Version: 6.00 Build 0)  -->
<svg version="1.1" id="XMLID_2_" xmlns="http://www.w3.org/2000/svg" xmlns:xlink="http://www.w3.org/1999/xlink" x="0px" y="0px"
	 viewBox="0 0 82.6 195.2" style="enable-background:new 0 0 82.6 195.2;" xml:space="preserve">
<style type="text/css">
	.st0{fill:#2D3538;stroke:#3F3B3C;stroke-width:0.5;stroke-miterlimit:10;}
	.st1{fill:#2D3538;}
</style>
<g>
	<g>
		<path class="st1" d="M60.4,4.7c0,0-0.3,0.2-0.9,0.4c-0.5,0.2-1.3,0.4-2.3,0.6c-1.9,0.4-4.7,0.7-7.9,0.9c-1.6,0.1-3.4,0.2-5.3,0.2
			c-1,0-1.9,0.1-2.9,0c-1,0-2-0.1-3-0.1c-2-0.1-4.2-0.2-6.3-0.4c-2.2-0.2-4.4-0.4-6.6-0.8l-0.6-0.1c-0.2,0-0.5-0.1-0.7-0.2
			c-0.5-0.1-0.9-0.3-1.2-0.5c-0.3-0.2-0.5-0.4-0.6-0.7c0-0.1-0.1-0.3,0-0.5c0-0.2,0.1-0.3,0.2-0.4c0.3-0.5,1.1-0.9,2-1.2l0.6-0.2
			l0.4-0.1l0.8-0.2c2.2-0.5,4.4-0.7,6.5-0.9c2.1-0.2,4.2-0.4,6.2-0.4c2-0.1,4,0,5.7,0c3.6,0.1,6.8,0.3,9.2,0.6
			c2.4,0.3,4.2,0.7,4.9,0.9c0.4,0.1,0.6,0.3,0.6,0.5c0,0.1-0.2,0.1-0.7,0.1c-0.8-0.1-2.5-0.4-4.9-0.5c-2.4-0.1-5.6-0.2-9.1-0.2
			c-1.8,0-3.7,0-5.7,0.1c-2,0.1-4,0.3-6.1,0.5c-2.1,0.2-4.3,0.5-6.4,1l-0.8,0.2l-0.4,0.1c-0.1,0-0.1,0-0.1,0l-0.1,0
			c-0.1,0.1-0.3,0.1-0.4,0.2c-0.1,0-0.1,0.1,0,0.2c0.1,0,0.1,0.1,0.2,0.1c0.1,0,0.1,0,0.2,0.1l0.4,0.1c2.1,0.4,4.3,0.6,6.4,0.8
			c2.1,0.2,4.2,0.3,6.3,0.4c1,0.1,2,0.1,3,0.1c0.9,0,1.9,0,2.8,0c1.9,0,3.6-0.1,5.2-0.1c3.2-0.1,5.9-0.4,7.8-0.7
			c1.9-0.3,2.8-0.7,2.9-0.7c0.3-0.1,0.5-0.2,0.6-0.3c0,0,0.1-0.1,0.1-0.2c0-0.1,0-0.2,0-0.3c-0.1-0.3-0.3-0.5-0.2-0.5
			c0,0,0.2,0,0.6,0.3C61,2.8,61.1,2.9,61.2,3c0.1,0.2,0.1,0.3,0.1,0.6C61.2,4.1,60.8,4.5,60.4,4.7z"/>
	</g>
	<g>
		<path class="st1" d="M61.9,10.5c0,0.2,0.3,3,0.8,7.5c0.2,2.3,0.5,5,0.8,8c0.2,1.5,0.3,3.1,0.5,4.7c0.1,0.8,0.3,1.7,0.2,2.8
			c-0.1,1-0.5,2.2-1.2,3c-0.7,0.8-1.6,1.4-2.5,1.9c-0.9,0.4-1.9,0.8-2.8,1c-1.9,0.5-3.9,0.8-5.8,1c-4,0.4-8,0.6-12,0.5
			c-4,0-8.1-0.3-12-1.3c-1.9-0.6-3.9-1.2-5.6-2.4l-0.6-0.5c-0.2-0.2-0.4-0.3-0.6-0.6l-0.5-0.6c-0.2-0.2-0.3-0.5-0.4-0.7
			c-0.5-1-0.7-2.2-0.4-3.5c0,0,0-0.1,0-0.1c0,0,0,0,0,0l0,0l0,0c0.3-2.9,0.6-5.6,0.9-8.1c0.3-2.5,0.6-4.8,0.8-6.8
			c0.5-4,0.9-6.8,1.1-7.9c0.2-1,0.7-1.3,0.8,0c0,1.2-0.1,4-0.3,8c-0.1,2-0.3,4.3-0.4,6.8c-0.2,2.5-0.4,5.3-0.6,8.3c0,0,0,0.1,0,0.2
			c0,0,0,0.1,0,0.1l0,0.1c0,0.1,0,0.1,0,0.1c0,0.2-0.1,0.6,0,0.8c0,0.2,0,0.3,0.1,0.4c0.1,0.1,0.1,0.3,0.2,0.4l0.3,0.4l0.4,0.4
			c0.1,0.1,0.3,0.3,0.4,0.4l0.5,0.4c1.3,0.9,3.1,1.5,4.8,2c3.6,0.9,7.5,1.2,11.5,1.2c3.9,0.1,7.9,0,11.7-0.3
			c1.9-0.2,3.8-0.5,5.5-0.9c1.7-0.5,3.4-1.1,4.3-2.2c0.4-0.5,0.7-1.1,0.8-1.8c0.1-0.7,0-1.5-0.1-2.3c-0.2-1.7-0.3-3.3-0.4-4.8
			c-0.2-3-0.4-5.8-0.6-8c-0.3-4.6-0.5-7.4-0.5-7.5C60.3,6.6,61.4,6.5,61.9,10.5z"/>
	</g>
	<g>
		<path class="st1" d="M71.6,37.7c0.2,0.3,0.8,1.8,1.5,4.5c0.7,2.7,1.6,6.6,2.6,11.4c0.2,1.2,0.5,2.5,0.7,3.8c0.1,0.5,0.3,1,0.6,1.5
			c0.3,0.5,0.7,0.9,1.2,1.4c1,1,2.2,2,3.1,3.5c0.4,0.8,0.8,1.6,0.9,2.5c0.1,0.4,0.1,0.9,0.2,1.3c0,0.5,0,0.8,0,1.2
			c0,3.2,0,6.7,0.1,10.2c0,0.9,0,1.8,0,2.7c0,0.9,0,1.9-0.1,2.9c-0.1,1-0.4,2-0.8,3c-0.2,0.5-0.5,1-0.9,1.5
			c-0.2,0.2-0.5,0.5-0.7,0.7c-0.2,0.1-0.3,0.2-0.5,0.3c-0.1,0-0.2,0.1-0.3,0.1c0,0-0.1,0-0.2,0.1c-0.1,0-0.1,0-0.2,0.1l0.4-0.1
			c-1.5,0.7-2.9,1.2-4.4,1.7c-1.5,0.5-3,0.9-4.5,1.3c-3,0.8-6.1,1.4-9.3,1.8c-6.3,0.9-12.8,1.4-19.3,1.4c-6.5,0.1-13.1-0.4-19.4-1.3
			c-3.2-0.5-6.3-1.1-9.4-1.9c-1.5-0.4-3.1-0.8-4.5-1.3c-1.5-0.5-2.9-1-4.4-1.6l0.4,0.1c-0.8-0.1-1.5-0.5-2-1c-0.5-0.5-0.8-1-1-1.4
			c-0.5-1-0.8-1.9-1-2.9c-0.1-0.5-0.2-0.9-0.3-1.4L0,83.4c0-0.2,0-0.4,0-0.4l0-0.7c0-0.9,0-1.8,0-2.6c0-3.5,0-6.9,0.1-10.1
			c0-0.8,0-1.6,0-2.4c0-1,0.3-1.9,0.6-2.7c0.7-1.6,1.6-2.9,2.6-4.1c0.5-0.6,1-1.1,1.5-1.7c0.5-0.5,1-1.1,1.3-1.5
			c0.2-0.2,0.3-0.9,0.5-1.6c0.2-0.6,0.3-1.3,0.4-1.9c1.1-5.1,1.9-9.5,3-12.9c0.3-0.9,0.5-1.6,1-2.4c0.2-0.4,0.5-0.7,0.8-1
			c0.3-0.3,0.6-0.5,0.9-0.7c1.2-0.7,2.1-1,2.8-1.2c1-0.3,1.8-0.2,1.9,0c0.1,0.2-0.3,0.5-1.4,0.9c-0.6,0.3-1.5,0.6-2.4,1.3
			c-0.4,0.3-1,0.8-1.2,1.3c-0.3,0.5-0.5,1.3-0.7,2.1c-0.8,3.3-1.5,7.7-2.5,12.9c-0.1,0.6-0.2,1.3-0.4,2c-0.1,0.3-0.1,0.7-0.2,1
			c-0.1,0.2-0.1,0.3-0.2,0.6c-0.1,0.2-0.2,0.5-0.3,0.7C7.4,59,7,59.5,6.5,60c-0.5,0.5-0.9,1.1-1.4,1.6c-0.9,1.1-1.7,2.3-2.2,3.6
			c-0.2,0.6-0.4,1.3-0.4,1.9c0,0.8,0,1.6,0,2.4c0,3.3,0,6.6,0.1,10.1c0,0.9,0,1.8,0,2.6l0,0.7l0,0.2c0,0,0,0,0,0.1l0,0.2
			c0.1,0.4,0.1,0.8,0.2,1.2c0.2,0.8,0.4,1.6,0.8,2.2c0.2,0.3,0.4,0.6,0.5,0.8c0.2,0.2,0.3,0.2,0.4,0.2L5.1,88c1.3,0.5,2.7,1,4.2,1.5
			c1.4,0.5,2.9,0.9,4.4,1.2c3,0.7,6,1.3,9.2,1.8c6.2,0.9,12.6,1.4,19,1.3c6.4,0,12.8-0.5,18.9-1.3c3.1-0.5,6.1-1,9-1.7
			c1.5-0.4,2.9-0.7,4.3-1.2c1.4-0.4,2.8-0.9,4-1.5l0.4-0.1l0,0c0-0.1,0.2,0.8,0.1,0.4c0-0.1,0-0.2-0.1-0.3c0-0.1,0-0.1,0-0.1l0,0
			c0,0,0,0,0.1,0c0,0,0.1-0.1,0.1-0.1c0.1-0.1,0.2-0.2,0.3-0.3c0.2-0.2,0.4-0.5,0.6-0.9c0.3-0.7,0.5-1.5,0.6-2.3
			c0.1-0.8,0.1-1.7,0.2-2.6c0-0.9,0-1.8,0-2.7c0-3.5,0-7,0.1-10.2c0-0.4,0-0.8,0-1.2c0-0.3,0-0.7-0.1-1c-0.1-0.7-0.3-1.3-0.7-1.8
			c-0.6-1.1-1.7-2.1-2.8-3.1c-0.5-0.5-1.1-1.1-1.5-1.8c-0.5-0.7-0.7-1.5-0.9-2.3c-0.2-1.3-0.4-2.5-0.7-3.7
			c-0.9-4.8-1.8-8.6-2.4-11.3c-0.3-1.3-0.6-2.4-0.8-3.1c-0.1-0.4-0.2-0.6-0.3-0.8c-0.1-0.2-0.1-0.2-0.1-0.3c-0.2-0.5-1-0.9-1.6-1.3
			c-0.6-0.3-1.2-0.6-1.6-0.8c-0.9-0.4-1.3-0.7-1.3-0.9c0-0.2,0.6-0.3,1.6-0.2c0.5,0.1,1.1,0.2,1.9,0.5c0.4,0.1,0.8,0.3,1.2,0.6
			c0.2,0.1,0.4,0.3,0.7,0.5C71.2,37.1,71.5,37.4,71.6,37.7z"/>
	</g>
	<g>
		<path class="st1" d="M75.5,71.3c-0.1,0-1.1,0.5-2.8,1.1c-1.7,0.6-4.2,1.3-7.3,1.9c-3,0.6-6.6,1.1-10.4,1.5
			c-3.8,0.3-8,0.6-12.2,0.6c-8.3,0.2-16.9-0.5-23.6-1.8c-6.7-1.3-11.5-3.2-12.8-4c-0.7-0.4-0.6-1,0.2-0.7c1.4,0.4,6.2,1.8,12.8,2.8
			c6.6,1,15,1.6,23.3,1.5c4.1,0,8.2-0.2,12-0.4c3.8-0.3,7.3-0.6,10.3-1.1c3-0.4,5.5-1,7.2-1.4c1.7-0.5,2.7-0.8,2.8-0.9
			c1.4-0.5,2.1-0.6,2.2-0.4C77.4,70,76.8,70.6,75.5,71.3z"/>
	</g>
	<g>
		<path class="st1" d="M79.9,101c0,0.1,0,1.1,0,2.7c0,1.6,0,4,0,6.9c0,5.9-0.5,14.3-1.9,24.2c-0.4,2.5-0.7,5.1-1.2,7.7
			c-0.5,2.7-0.9,5.4-1.5,8.2c-1.1,5.6-2.5,11.5-4.2,17.6c-0.9,3-1.8,6.1-2.8,9.2c-0.3,0.8-0.5,1.5-0.8,2.3l-0.4,1.2
			c-0.1,0.3-0.3,0.8-0.5,1.2c-0.7,1.6-1.7,3.1-2.8,4.4c-2.3,2.7-5.3,4.7-8.5,6.1c-3.2,1.4-6.7,2.1-10.2,2.4c-3.5,0.2-7,0.1-10.4-0.5
			c-3.5-0.6-6.9-1.8-9.8-3.8c-3-2-5.5-4.6-7-7.9c-0.4-0.9-0.6-1.7-0.9-2.4c-0.3-0.8-0.5-1.6-0.8-2.4c-0.5-1.6-1-3.1-1.5-4.7
			c-1.9-6.2-3.6-12.4-5.1-18.4c-0.7-3-1.4-5.9-2-8.8c-0.3-1.4-0.6-2.9-0.8-4.2c-0.1-0.7-0.3-1.4-0.4-2.1c-0.1-0.7-0.2-1.4-0.3-2.1
			c-1.9-10.9-2.7-20.5-2.7-28c0-1.9,0-3.6,0-5.2c0-1.6,0.1-3,0.1-4.3c0.1-2.6,0.1-4.5,0.2-5.7c0.1-2.5,0.7-3.2,0.8-0.2
			c0.5,4.8-0.7,21.3,3.6,42.9c0.5,2.7,1.1,5.5,1.7,8.3c0.7,2.8,1.3,5.7,2.1,8.7c1.5,5.9,3.2,12,5.1,18.2c0.5,1.6,1,3.1,1.5,4.7
			c0.3,0.8,0.5,1.6,0.8,2.3c0.3,0.8,0.5,1.6,0.8,2.2c1.3,2.8,3.6,5.2,6.2,6.9c2.7,1.8,5.8,2.9,9,3.5c3.2,0.6,6.5,0.7,9.8,0.5
			c3.3-0.3,6.5-0.9,9.5-2.2c2.9-1.2,5.6-3.1,7.7-5.4c1-1.2,1.9-2.5,2.5-3.8c0.2-0.3,0.3-0.6,0.4-1.1l0.4-1.1
			c0.3-0.8,0.5-1.5,0.8-2.3c1-3,1.9-6.1,2.8-9.1c1.7-6,3.1-11.8,4.3-17.4c0.6-2.8,1.1-5.5,1.6-8.1c0.5-2.6,0.8-5.2,1.2-7.6
			c1.4-9.8,1.9-18.1,2-23.9c0.1-2.9,0.1-5.3,0.1-6.9c0-1.6,0-2.6,0-2.7C78.2,91.5,79.8,91.5,79.9,101z"/>
	</g>
	<g>
		<path class="st1" d="M11.7,101.3c0,0.1,0,1.9,0.1,5c0.1,3,0.3,7.4,0.8,12.5c0.5,5.1,1.3,11.1,2.4,17.5c0.3,1.6,0.6,3.2,0.9,4.9
			c0.2,0.8,0.3,1.7,0.5,2.5c0.2,0.8,0.4,1.7,0.5,2.5c0.4,1.7,0.7,3.4,1.1,5.1c0.4,1.7,0.8,3.4,1.2,5.1l0.6,2.6l0.7,2.5
			c0.5,1.7,0.9,3.4,1.4,5.1c0.5,1.7,1,3.3,1.5,5c0.2,0.8,0.5,1.7,0.7,2.5c0.3,0.8,0.5,1.7,0.7,2.4c1.1,3,3.1,5.5,5.7,7.1
			c1.2,0.8,2.6,1.4,4,1.8c1.4,0.4,2.8,0.6,4.2,0.7c5.6,0.2,10.5-0.7,14-2c3.5-1.4,5.6-3.2,6.4-4c0.5-0.4,0.8-0.7,1-0.7
			c0.2,0,0.2,0.4-0.3,1.1c-0.7,1.1-2.8,3.2-6.5,4.9c-3.7,1.7-8.8,2.7-14.7,2.6c-1.5-0.1-3-0.3-4.6-0.7c-1.5-0.4-3.1-1-4.6-1.9
			c-2.9-1.8-5.3-4.6-6.6-8c-0.3-0.9-0.5-1.7-0.8-2.5c-0.3-0.8-0.5-1.7-0.8-2.5c-0.5-1.7-1-3.3-1.5-5c-0.5-1.7-0.9-3.4-1.4-5.1
			l-0.7-2.6l-0.6-2.6c-0.4-1.7-0.8-3.4-1.2-5.2c-0.4-1.7-0.7-3.4-1.1-5.1c-0.2-0.8-0.4-1.7-0.5-2.5c-0.2-0.8-0.3-1.7-0.5-2.5
			c-0.3-1.7-0.6-3.3-0.9-4.9c-1.1-6.5-1.8-12.5-2.3-17.7c-0.4-5.2-0.6-9.6-0.7-12.6c0-3.1,0-4.9,0-5.1c0.1-2.5,0.6-3.8,1-3.7
			C11.4,97.5,11.7,98.8,11.7,101.3z"/>
	</g>
	<g>
		<path class="st1" d="M9,64.4c0,0,0.2-0.3,0.5-0.9c0.3-0.5,0.8-1.2,1.3-2.1c0.5-0.9,1.3-1.9,1.8-2.9c0.2-0.5,0.5-1.1,0.6-1.7
			c0.1-0.3,0.1-0.6,0.2-0.9c0-0.3,0.1-0.7,0.1-1c0.7-5.5,1.7-11.2,2.3-12.1c0.2-0.2,0.7-0.2,0.8,0.1c0.3,1-0.2,6.8-1,12.3
			c-0.1,0.3-0.1,0.7-0.2,1c-0.1,0.4-0.2,0.8-0.3,1.1c-0.2,0.7-0.5,1.4-0.9,2c-0.3,0.6-0.8,1.2-1.1,1.6c-0.4,0.5-0.7,0.9-1.1,1.3
			c-0.7,0.8-1.2,1.4-1.6,1.9C10.1,64.8,9.9,65,9.8,65C9.1,65.7,8.6,65.3,9,64.4z"/>
	</g>
	<g>
		<path class="st1" d="M25.9,31.2c0-0.1,0-1.3,0-3.2c0-1.9,0.1-4.5,0.2-7.1c0.2-5.2,0.7-10.6,1.3-11.4c0.1-0.2,0.6-0.3,0.8,0
			c0.4,0.9,0.3,6.3,0,11.5c-0.2,2.6-0.4,5.1-0.6,7c-0.2,1.9-0.3,3.2-0.3,3.2C27.1,32.2,26,32.1,25.9,31.2z"/>
	</g>
</g>
</svg>
