<?xml version="1.0" encoding="utf-8"?>
<!-- Generator: Adobe Illustrator 25.4.1, SVG Export Plug-In . SVG Version: 6.00 Build 0)  -->
<svg version="1.1" id="XMLID_1_" xmlns="http://www.w3.org/2000/svg" xmlns:xlink="http://www.w3.org/1999/xlink" x="0px" y="0px"
	 viewBox="0 0 28.8 56.1" style="enable-background:new 0 0 28.8 56.1;" xml:space="preserve">
<style type="text/css">
	.st0{fill:#2D3538;}
</style>
<g>
	<path class="st0" d="M24.9,5.5c-0.2,0.1-0.4,0.2-0.6,0.3c-0.5,0.2-1.1,0.3-1.6,0.5c-1.2,0.2-2.4,0.4-3.6,0.5
		C17.7,7,16.5,7,15.2,7.1c-1.2,0-2.4,0.1-3.5,0.1c-2.3,0-4.3-0.3-5.8-0.7C4.4,6.1,3.4,5.6,3,5.4c-0.4-0.2-0.4,0-0.1,0.3
		c0.3,0.3,1.3,0.9,2.9,1.4c1.5,0.5,3.6,0.9,5.9,1c1.2,0.1,2.4,0.1,3.6,0.1c1.2,0,2.5,0,3.8-0.1c1.3-0.1,2.5-0.2,3.8-0.5
		c0.6-0.1,1.2-0.3,1.9-0.5C25,7,25.3,6.8,25.7,6.6C25.8,6.5,26,6.3,26.1,6c0.1-0.2,0.2-0.5,0.2-0.7c0-0.6-0.7-1.1-1-1.2
		c-0.3-0.2-0.7-0.3-1-0.4c-0.3-0.1-0.6-0.2-1-0.2c-0.3-0.1-0.6-0.1-0.9-0.2c-1.2-0.2-2.2-0.2-3.1-0.2c-0.9,0-1.6,0-2.1,0
		c-0.5,0-0.8,0.1-0.8,0.1c-1.4,0.2-1.4,0.4,0,0.6c0,0,0.3,0,0.8,0.1c0.5,0.1,1.2,0.1,2,0.2c0.9,0.1,1.9,0.2,3,0.4
		c0.3,0.1,0.5,0.1,0.8,0.2c0.3,0.1,0.6,0.1,0.8,0.2c0.3,0.1,0.5,0.2,0.8,0.3c0.1,0,0.1,0.1,0.2,0.1c0.1,0,0,0,0.1,0c0,0,0,0,0,0.1
		c0,0,0,0,0,0.1C25,5.5,25,5.5,24.9,5.5z"/>
	<path class="st0" d="M21.2,32.5C21.2,32.5,21.2,32.5,21.2,32.5C21.2,32.5,21.2,32.5,21.2,32.5C21.2,32.5,21.2,32.5,21.2,32.5z"/>
	<path class="st0" d="M27.3,8c0,0.1-0.4,1.6-0.9,4.1c-0.6,2.5-1.4,6-2.4,10.2c-0.5,2.1-1.1,4.4-1.7,6.7c-0.2,0.6-0.3,1.2-0.5,1.8
		c-0.2,0.6-0.4,1.2-0.6,1.8c0,0,0,0,0,0.1c0,0,0,0,0,0c0,0,0,0,0,0c0,0,0,0,0,0c0,0,0.1,0.1,0,0l0,0.1L21,32.7l-0.3,0.4
		c-0.2,0.2-0.4,0.4-0.6,0.6c-0.4,0.3-1,0.6-1.6,0.7c-1.2,0.3-2.6,0.4-3.9,0.4c-1.3,0-2.7-0.2-3.9-0.6c-1.2-0.5-2.3-1.3-2.9-2.4
		c-0.1-0.1-0.1-0.3-0.2-0.4c0-0.1,0-0.1-0.1-0.2l-0.1-0.3l-0.3-1.1c-0.2-0.7-0.4-1.4-0.6-2.1c-1.5-5.7-3-11.4-4.3-16.9
		C2,9.5,1.7,8.1,1.5,6.8C1.4,6.1,1.2,5.5,1.2,4.9c0-0.1,0-0.2,0-0.2c0,0,0-0.1,0-0.1c0-0.1,0.1-0.2,0.2-0.3C1.4,4.2,1.5,4.1,1.6,4
		c0.1-0.1,0.2-0.2,0.3-0.3c0.5-0.4,1-0.7,1.6-0.9c0.3-0.1,0.6-0.2,0.9-0.3c0.3-0.1,0.6-0.2,0.9-0.3c1.2-0.4,2.4-0.6,3.5-0.8
		c2.3-0.3,4.5-0.4,6.6-0.4c2,0,3.8,0.1,5.4,0.3c1.6,0.2,2.9,0.5,3.9,0.9c1,0.3,1.8,0.7,2.2,0.9c0.5,0.3,0.7,0.4,0.8,0.3
		c0-0.1-0.2-0.4-0.6-0.7c-0.4-0.3-1.2-0.7-2.2-1.1c-1.1-0.4-2.4-0.8-4-1.1C19.2,0.2,17.3,0,15.2,0c-2.1,0-4.3,0-6.7,0.3
		C7.9,0.4,7.3,0.5,6.7,0.6C6.1,0.8,5.5,0.9,4.9,1.1C4.5,1.2,4.2,1.3,3.9,1.4C3.6,1.5,3.3,1.6,3,1.8C2.4,2,1.8,2.4,1.2,2.8
		C1,2.9,0.9,3.1,0.8,3.2C0.7,3.3,0.6,3.3,0.5,3.4L0.4,3.7L0.3,3.8L0.2,3.9c0,0.1-0.1,0.2-0.1,0.3C0,4.4,0,4.6,0,4.7L0,5l0,0.5
		c0,0.2,0,0.3,0.1,0.5c0.1,0.3,0.1,0.7,0.2,1c0.2,1.4,0.5,2.7,0.8,4.1c1.2,5.5,2.7,11.2,4.2,16.9c0.2,0.7,0.4,1.4,0.6,2.1l0.3,1.1
		c0,0.2,0.1,0.4,0.2,0.6c0.1,0.2,0.2,0.4,0.3,0.6c0.1,0.2,0.2,0.3,0.3,0.4c-0.1,0.2-0.2,0.5-0.3,0.9c0,0.1-0.9,3.5-2.1,8.5
		c-0.3,1.2-0.6,2.6-1,4c-0.2,0.7-0.3,1.5-0.5,2.2c0,0.2-0.1,0.4-0.1,0.6l0,0.1l0,0.1l0,0.1c0,0.1-0.1,0.3,0,0.4
		c0,0.5,0.1,0.9,0.3,1.4c0.3,0.9,0.9,1.7,1.6,2.3c0.7,0.6,1.5,1.1,2.3,1.5c0.4,0.1,0.8,0.3,1.3,0.5c0.4,0.1,0.9,0.3,1.3,0.3
		c0.4,0.1,0.9,0.2,1.3,0.2c0.4,0,0.9,0.1,1.3,0.1c0.4,0.1,0.9,0.1,1.3,0.1c0.4,0,0.9,0,1.3,0c0.9,0,1.8,0,2.7-0.2
		c1.8-0.2,3.6-0.6,5.2-1.4c0.4-0.2,0.8-0.4,1.1-0.7c0.4-0.3,0.7-0.6,1-0.9c0.6-0.7,1-1.5,1.3-2.4c0-0.1,0.1-0.2,0.1-0.3l0-0.3
		c0-0.2,0-0.4,0-0.7c0-0.2,0-0.4-0.1-0.7l0-0.2l0-0.1L26.1,48c-0.2-0.7-0.3-1.4-0.5-2.1c-1.3-5.5-2.3-9.6-2.7-10.8
		c-0.2-0.7-0.5-0.5-0.4,0.2c0.1,1.2,0.9,5.4,2,11c0.1,0.7,0.3,1.4,0.5,2.2c0.1,0.4,0.2,0.6,0.2,1c0,0.2,0,0.3,0,0.5l0,0.2l-0.1,0.2
		c-0.2,0.7-0.5,1.3-1,1.8l-0.4,0.4c-0.1,0.1-0.3,0.2-0.4,0.3c-0.3,0.2-0.6,0.4-1,0.6c-1.4,0.7-3,1-4.7,1.2c-0.8,0.1-1.7,0.1-2.5,0.1
		c-0.4,0-0.9,0-1.3,0c-0.4,0-0.9,0-1.3-0.1c-1.7-0.1-3.3-0.5-4.8-1.1c-1.4-0.6-2.7-1.6-3.1-2.9c-0.1-0.3-0.2-0.6-0.2-0.9l0,0l0,0
		c-0.3,0,0.6,0-0.6,0c0.2,0,0.7,0,0.6,0l0,0l0,0c0,0,0,0,0-0.1c0,0,0-0.1,0-0.1l0-0.1c0-0.2,0.1-0.4,0.1-0.6
		c0.2-0.8,0.3-1.5,0.5-2.2c0.3-1.4,0.7-2.8,1-4c1.2-5,2-8.3,2-8.5c0,0,0,0,0,0c0.7,0.6,1.5,1.1,2.3,1.4c1.4,0.5,3,0.7,4.4,0.7
		c1.4,0,2.8-0.1,4.3-0.4c0.7-0.2,1.4-0.5,2-0.9c0.3-0.2,0.6-0.5,0.8-0.8l0.3-0.4l0.1-0.1c0,0,0,0,0.1-0.1c0-0.1,0.1-0.1,0.1-0.2
		c0-0.1,0-0.1,0.1-0.1c0.3-0.7,0.4-1.3,0.6-1.9c0.2-0.6,0.3-1.2,0.5-1.8c0.6-2.4,1.2-4.7,1.7-6.8c1-4.2,1.8-7.7,2.4-10.2
		c0.6-2.5,0.9-3.9,0.9-4.1C29.4,4.2,28.3,3.9,27.3,8z M21.2,32.5C21.2,32.5,21.2,32.5,21.2,32.5C21.2,32.5,21.2,32.5,21.2,32.5z
		 M21.2,32.5c0,0,0.1,0.1,0.1,0.1c0.1,0.1,0.2,0.1,0.2,0.2C21.4,32.7,21.2,32.6,21.2,32.5z"/>
</g>
</svg>
