<?xml version="1.0" encoding="utf-8"?>
<!-- Generator: Adobe Illustrator 25.4.1, SVG Export Plug-In . SVG Version: 6.00 Build 0)  -->
<svg version="1.1" id="XMLID_1_" xmlns="http://www.w3.org/2000/svg" xmlns:xlink="http://www.w3.org/1999/xlink" x="0px" y="0px"
	 viewBox="0 0 107.3 212" style="enable-background:new 0 0 107.3 212;" xml:space="preserve">
<style type="text/css">
	.st0{fill:#2D3538;}
</style>
<g>
	<path class="st0" d="M3.8,9.9c0.4,0,18.8,0.2,37.9,0.4c9.6,0.1,19.3,0.1,27.1,0c7.8-0.1,13.6-0.3,15.3-0.6c1.1-0.2,0.8-1-0.1-1.1
		C82.2,8.3,76.4,8,68.7,8c-7.8-0.1-17.5-0.1-27,0C22.5,8.2,4.2,8.4,3.8,8.4C0.4,8.5,0.4,9.9,3.8,9.9z"/>
	<path class="st0" d="M82.1,11.1c-0.5,0-0.9,2.5-1.2,7.6c0,0.3-0.1,4-0.5,10.2c-0.4,6.2-0.9,15-2,25.5c-0.5,5.3-1.2,10.9-2.1,16.9
		c-0.9,6-2,12.3-3.5,18.7c-0.8,3.2-1.7,6.4-2.7,9.6c-1.1,3.2-2.4,6.4-4.2,9.2c-0.9,1.4-2,2.7-3.2,3.6c-0.6,0.5-1.3,0.8-2,1l-0.5,0.1
		l-0.5,0c-0.2,0-0.4,0-0.6,0l-0.7,0c-3.6,0-7.2,0-10.8,0c-3.6,0-7.2,0-10.8,0c-1.8,0-3.6,0-5.4,0l-1.3,0c-0.2,0-0.4,0-0.6,0
		c-0.2,0-0.4,0-0.5-0.1c-0.7-0.1-1.4-0.4-2-0.9c-1.3-0.9-2.3-2.2-3.3-3.6c-0.9-1.4-1.7-3-2.4-4.5c-1.4-3.2-2.4-6.5-3.3-9.8
		c-1.8-6.6-3-13.3-4-19.6c-1-6.4-1.8-12.6-2.4-18.4C10.3,45.1,9.6,34.9,9.2,27C9,23,8.8,19.6,8.7,16.9c0-0.3,0-0.7,0-1
		c0-0.3-0.1-0.8-0.2-1.1c-0.3-0.7-0.6-1.2-1-1.6c-0.8-0.8-1.5-1.2-2.1-1.6c-1.4-0.8-2.1-0.8-2-0.6c0,0.2,0.7,0.7,1.8,1.5
		c0.5,0.4,1.1,0.9,1.7,1.6c0.3,0.4,0.5,0.8,0.6,1.2c0.1,0.4,0,1.1,0,1.8c0,2.7,0,6.1,0.1,10.1c0.2,7.9,0.8,18.2,1.9,29.8
		c0.6,5.8,1.3,12,2.2,18.5c1,6.4,2.2,13.1,4,19.9c0.9,3.4,2,6.8,3.4,10.1c0.7,1.7,1.5,3.3,2.6,4.9c1,1.6,2.2,3.1,3.9,4.3
		c0.9,0.6,1.8,1,2.9,1.2c0.3,0.1,0.5,0.1,0.8,0.1c0.3,0,0.6,0,0.8,0l1.3,0c1.8,0,3.6,0,5.4,0c3.6,0,7.2,0,10.8,0c3.6,0,7.2,0,10.7,0
		l0.7,0l0.3,0l0.4,0c0.3,0,0.5,0,0.8-0.1l0.8-0.2c1-0.3,2-0.8,2.8-1.4c1.6-1.2,2.8-2.7,3.8-4.2c2-3.1,3.3-6.4,4.4-9.7
		c1.1-3.3,2-6.6,2.8-9.9c1.5-6.5,2.6-12.9,3.5-18.9c0.9-6,1.5-11.7,2-17c1-10.6,1.6-19.4,1.9-25.6c0.3-6.3,0.4-9.9,0.4-10.2
		C83,13.6,82.5,11.1,82.1,11.1z"/>
	<path class="st0" d="M106.8,40.9c-0.3-2.9-0.9-5.7-1.7-8.3c-0.8-2.6-2-5-3.7-6.8c-1.6-1.9-3.6-3-5.5-3.7c-0.5-0.2-0.9-0.3-1.4-0.4
		c-0.4-0.1-0.9-0.2-1.3-0.3c-0.8-0.2-1.6-0.2-2.3-0.3c-2.8-0.2-4.4,0-4.5-0.1c-4.4,0.1-4.4,1.5,0,1.5c0.1,0,1.8-0.1,4.4,0.1
		c0.6,0.1,1.4,0.1,2.1,0.3c0.4,0.1,0.8,0.2,1.2,0.3c0.4,0.1,0.8,0.3,1.2,0.4c1.6,0.6,3.4,1.7,4.8,3.3c1.4,1.6,2.5,3.8,3.2,6.2
		c0.7,2.4,1.3,5.1,1.5,8c0.6,5.7,0.5,11.9,0.1,18.1c-0.4,6.2-1.2,12.4-2.9,18.1c-0.9,2.8-2,5.5-3.4,7.9c-1.4,2.4-3.1,4.4-4.9,6
		c-3.7,3.2-8,4.5-11.3,5.2c-3.3,0.7-5.8,0.8-6.9,0.9c-1.4,0.2-1,0.6,0.1,0.7c1.1,0.1,3.6,0.2,7.1-0.3c1.7-0.3,3.7-0.7,5.8-1.5
		c2.1-0.8,4.3-2,6.3-3.7c2-1.7,3.9-3.8,5.4-6.3c1.5-2.5,2.7-5.3,3.6-8.2c1.8-5.9,2.7-12.3,3.1-18.5C107.4,53,107.5,46.7,106.8,40.9z
		"/>
	<path class="st0" d="M97.5,63.2c-0.2,1.2-0.3,2.4-0.5,3.6c-0.2,1.2-0.5,2.3-0.7,3.5c-0.2,1.2-0.6,2.3-0.9,3.4
		c-1.3,4.4-3.3,8.4-5.9,11.1c-2.6,2.8-5.6,4.4-8.1,5.3c-2.5,0.9-4.3,1.2-5.2,1.4c-1,0.3-0.8,0.7,0.2,0.7c0.9,0,2.8-0.1,5.5-0.9
		c2.6-0.8,6-2.4,8.9-5.4c2.9-2.9,5.1-7.2,6.5-11.8c0.3-1.2,0.7-2.3,0.9-3.5c0.2-1.2,0.5-2.4,0.7-3.6c0.2-1.2,0.3-2.4,0.5-3.7
		c0.2-1.2,0.2-2.5,0.3-3.7c0.3-4.9,0.3-9.8,0.1-14.3c-0.2-2.3-0.3-4.5-0.7-6.6c-0.4-2.1-0.9-4-1.8-5.7c-0.4-0.9-1-1.6-1.6-2.3
		c-0.3-0.3-0.6-0.6-1-0.9c-0.3-0.3-0.7-0.5-1-0.7c-0.2-0.1-0.3-0.2-0.5-0.3c-0.2-0.1-0.3-0.2-0.5-0.2c-0.3-0.2-0.7-0.3-1-0.4
		c-0.6-0.2-1.2-0.4-1.8-0.5c-2.2-0.4-3.5-0.4-3.6-0.5c-3.5-0.1-3.5,1.3-0.1,1.5c0.1,0,1.3,0.1,3.3,0.5c0.5,0.2,1,0.3,1.6,0.5
		c0.3,0.1,0.5,0.3,0.8,0.4c0.1,0.1,0.3,0.1,0.4,0.2c0.1,0.1,0.3,0.2,0.4,0.3c0.3,0.2,0.6,0.4,0.8,0.6c0.3,0.2,0.5,0.5,0.8,0.8
		c0.4,0.6,0.9,1.2,1.3,2c0.8,1.5,1.3,3.3,1.6,5.3c0.4,2,0.5,4.1,0.6,6.3c0.2,4.5,0.2,9.3-0.2,14.1C97.7,60.8,97.7,62,97.5,63.2z"/>
	<path class="st0" d="M75.9,24.4c-0.2,0-3.9-0.1-9.5-0.1c-5.6-0.1-13.1-0.2-20.7-0.2c-15.2-0.1-31,0.2-33.7,0.6
		c-0.8,0.1-0.6,0.6,0.1,0.7c2.7,0.5,18.5,0.7,33.7,0.6c7.6,0,15.1-0.1,20.6-0.2c5.6-0.1,9.3-0.1,9.5-0.1
		C78.6,25.6,78.6,24.4,75.9,24.4z"/>
	<path class="st0" d="M25.8,73.8c-1.6-15.2-3.6-31-4.4-33.6c-0.2-0.8-0.8-0.6-0.8,0.2c-0.2,2.7,1.4,18.5,3.2,33.7
		c0.9,7.6,1.9,15,2.7,20.6c0.8,5.6,1.3,9.3,1.3,9.4c0.4,2.7,1.2,2.6,1-0.1c0-0.2-0.4-3.9-0.9-9.5C27.4,88.8,26.6,81.4,25.8,73.8z"/>
	<path class="st0" d="M68,40.2c-0.8,2.6-2.9,18.4-4.4,33.6c-0.8,7.6-1.5,15.1-2,20.7c-0.5,5.6-0.9,9.3-0.9,9.5
		c-0.2,2.7,0.6,2.8,1,0.1c0-0.2,0.5-3.9,1.3-9.5c0.8-5.6,1.7-13,2.7-20.6c1.9-15.2,3.5-31,3.2-33.7C68.8,39.4,68.3,39.5,68,40.2z"/>
	<path class="st0" d="M89.6,184.6c-1.1-7.1-2.3-13.9-3.6-20.3c-2.5-12.8-5.1-23.8-7.6-32.3c-1.2-4.2-2.5-7.8-3.7-10.6
		c-0.6-1.5-1.6-2.6-2.5-3.4c-1-0.7-1.9-1.1-2.6-1.3c-0.9-0.3-1.5-0.3-1.9-0.2c-0.4,0.1-0.5,0.2-0.5,0.3c0.1,0.2,1.1,0.4,2.3,0.9
		c0.6,0.3,1.4,0.7,2.1,1.4c0.8,0.7,1.4,1.7,1.9,3.1c1.1,2.8,2.1,6.3,3.3,10.6c2.2,8.5,4.6,19.5,7,32.2c1.2,6.4,2.4,13.1,3.4,20.2
		c0.5,3.5,1.1,7.2,1.1,10.8c0,1.9,0.1,3.8,0.1,5.6c0,0.9-0.1,1.7-0.4,2.5c-0.2,0.7-0.6,1.3-1.2,1.8c-0.6,0.5-1.3,0.9-2.1,1.2
		c-0.8,0.3-1.7,0.6-2.6,0.8c-1.8,0.4-3.7,0.7-5.6,0.9c-3.8,0.4-7.8,0.6-11.7,0.7c-7.9,0.2-15.9,0.2-23.9,0.2c-8,0-15.9-0.1-23.6-0.6
		c-1.9-0.1-3.8-0.3-5.7-0.6c-1.9-0.3-3.7-0.6-5.3-1.2c-1.7-0.6-3-1.5-3.6-2.9c-0.6-1.4-0.6-3.2-0.5-5c0-0.9,0-1.8,0.1-2.8
		c0-0.9,0.1-1.8,0.1-2.7c0.1-1.8,0.3-3.5,0.6-5.3c0.4-3.5,1-6.9,1.5-10.2c1.1-6.6,2.2-12.9,3.4-18.6c2.3-11.5,4.5-21,6.3-27.7
		c0.9-3.3,1.8-5.9,2.4-7.7c0.7-1.8,1-2.8,1.1-2.9c1.1-2.4,2.8-3.4,4-3.9c1.2-0.5,1.9-0.6,1.9-0.8c0-0.2-0.7-0.5-2.2-0.2
		c-0.7,0.1-1.7,0.5-2.6,1.1c-1,0.7-1.9,1.7-2.6,3.1c-0.1,0.2-0.5,1.2-1.2,3c-0.7,1.8-1.5,4.5-2.5,7.8c-1.9,6.7-4.2,16.2-6.6,27.8
		c-1.2,5.8-2.4,12-3.5,18.7c-0.6,3.3-1.1,6.8-1.6,10.3c-0.2,1.8-0.5,3.6-0.6,5.4c-0.1,0.9-0.1,1.9-0.1,2.8c0,0.9-0.1,1.8-0.1,2.7
		c0,0.9,0,1.9,0,2.9c0.1,1,0.2,2,0.7,3.1c0.4,1,1.2,2,2.1,2.6c0.9,0.7,1.8,1.1,2.8,1.5c1.9,0.7,3.9,1.1,5.8,1.3
		c1.9,0.3,3.9,0.5,5.9,0.6c7.8,0.6,15.8,0.6,23.8,0.7c8,0,16,0,24-0.2c4-0.1,8-0.3,11.9-0.7c2-0.2,4-0.5,5.9-0.9
		c0.5-0.1,1-0.2,1.5-0.4c0.5-0.1,1-0.3,1.5-0.5c1-0.4,2-0.9,2.8-1.7c0.9-0.8,1.5-1.9,1.8-2.9c0.3-1.1,0.4-2.1,0.5-3.1
		c0.1-2-0.1-3.9-0.1-5.7C90.7,191.8,90.1,188.2,89.6,184.6z"/>
	<path class="st0" d="M51.2,34.2c0,0-0.7-0.1-1.7-0.2c-1-0.1-2.4-0.2-3.8-0.2c-2.8-0.1-5.7,0.1-6.2,0.5c-0.2,0.1-0.1,0.5,0,0.6
		c0.5,0.4,3.4,0.6,6.2,0.5c1.4,0,2.8-0.1,3.8-0.2c1-0.1,1.7-0.2,1.7-0.2C51.7,35,51.7,34.3,51.2,34.2z"/>
	<path class="st0" d="M51.2,49c0,0-0.7-0.1-1.7-0.2c-1-0.1-2.4-0.2-3.8-0.2c-2.8-0.1-5.7,0.1-6.2,0.5c-0.2,0.1-0.1,0.5,0,0.6
		c0.5,0.4,3.4,0.6,6.2,0.5c1.4,0,2.8-0.1,3.8-0.2c1-0.1,1.7-0.2,1.7-0.2C51.7,49.8,51.7,49,51.2,49z"/>
	<path class="st0" d="M51.2,63.7c0,0-0.7-0.1-1.7-0.2c-1-0.1-2.4-0.2-3.8-0.2c-2.8-0.1-5.7,0.1-6.2,0.5c-0.2,0.1-0.1,0.5,0,0.6
		c0.5,0.4,3.4,0.6,6.2,0.5c1.4,0,2.8-0.1,3.8-0.2c1-0.1,1.7-0.2,1.7-0.2C51.7,64.5,51.7,63.8,51.2,63.7z"/>
	<path class="st0" d="M51.2,78.5c0,0-0.7-0.1-1.7-0.2c-1-0.1-2.4-0.2-3.8-0.2c-2.8-0.1-5.7,0.1-6.2,0.5c-0.2,0.1-0.1,0.5,0,0.6
		c0.5,0.4,3.4,0.6,6.2,0.5c1.4,0,2.8-0.1,3.8-0.2c1-0.1,1.7-0.2,1.7-0.2C51.7,79.3,51.7,78.6,51.2,78.5z"/>
	<path class="st0" d="M49.4,93.1c-1-0.1-2.4-0.2-3.8-0.2c-2.8-0.1-5.7,0.1-6.2,0.5c-0.2,0.1-0.1,0.5,0,0.6c0.5,0.4,3.4,0.6,6.2,0.5
		c1.4,0,2.8-0.1,3.8-0.2c1-0.1,1.7-0.2,1.7-0.2c0.5-0.1,0.5-0.8,0-0.9C51.2,93.3,50.5,93.2,49.4,93.1z"/>
	<path class="st0" d="M30.6,5c0,0,0.1-0.6,0.3-1.4c0.1-0.4,0.3-0.8,0.6-1.1c0.3-0.3,0.7-0.4,1.3-0.4c3,0.1,7.3,0.2,11.5,0.2
		c4.3,0,8.6-0.1,12.1-0.2c0.8,0,1.4,0.1,1.8,0.3c0.4,0.2,0.7,0.7,0.8,1.2c0.2,0.5,0.2,0.9,0.3,1.3c0.1,0.4,0.1,0.7,0.2,0.9
		c0.1,0.5,0.6,0.4,0.8,0c0.1-0.2,0.1-0.5,0.2-0.9c0-0.4,0.1-1,0-1.6C60.3,2.6,60,1.7,59.2,1c-0.8-0.6-1.9-0.8-2.8-0.8
		C52.9,0,48.5,0,44.3,0C40,0,35.9,0.1,32.7,0.2c-0.9,0.1-1.9,0.4-2.5,1.2c-0.6,0.7-0.7,1.4-0.7,1.9c0,1.1,0.1,1.6,0.1,1.6
		C29.9,6.5,30.2,6.5,30.6,5z"/>
	<path class="st0" d="M55.3,157.5c-1.6-0.1-3.8-0.2-6.4-0.2l-7.3-0.1c-0.1,0-0.3,0-0.5,0c-8.3-0.3-14.4,1.1-18.2,4.4
		c-2.9,2.5-4.6,6.5-4.6,10.8c-0.1,4.2,1.6,8.4,4.6,11.4c2.8,2.9,6.9,4.6,11,4.6c0.2,0,0.3,0,0.5,0l22.6-0.1c0,0,0,0,0,0
		c3.8,0,7.5-1.4,10.3-3.9c1.2-1.1,2.3-2.4,3.2-4c0.7-1.3,1.3-2.7,1.7-4.5c0.5-2.9,0.3-5.8-0.7-8.3c-2.4-6.4-7.2-9.8-14-9.9
		C57,157.6,56.2,157.5,55.3,157.5z M66.4,163.5c1,1.2,2.2,2.7,2.9,4.7c0.8,2.1,0.9,4.6,0.5,7c-0.4,1.5-0.8,2.7-1.4,3.8
		c-0.8,1.4-1.7,2.5-2.8,3.4c-2.3,2.1-5.5,3.2-8.6,3.2l-22.7-0.1c-3.6,0.1-7-1.3-9.5-3.8c-2.4-2.4-3.8-5.9-3.7-9.3
		c0-1.7,0.4-3.4,1.1-4.8c0.7-1.6,1.6-2.9,2.7-4c4.2-4,8.4-4,24.1-4C59,159.6,63.2,159.8,66.4,163.5z"/>
	<path class="st0" d="M34.7,168.3c-0.4-0.7-1.1-1.1-2-1.1c-0.8,0-1.5,0.4-2,1.1l-0.2,0.4c-0.2,0.4-0.3,0.8-0.3,1.2v5.6
		c0,0.4,0.1,0.8,0.3,1.2l0.2,0.4c0.4,0.7,1.1,1.1,2,1.1c0.8,0,1.5-0.4,2-1.1l0.2-0.4c0.2-0.4,0.3-0.8,0.3-1.2v-5.6
		c0-0.4-0.1-0.8-0.3-1.2L34.7,168.3z"/>
	<path class="st0" d="M43.1,168.3c-0.4-0.7-1.1-1.1-2-1.1s-1.5,0.4-2,1.1l-0.2,0.4c-0.2,0.4-0.3,0.8-0.3,1.2v5.6
		c0,0.4,0.1,0.8,0.3,1.2l0.2,0.4c0.4,0.7,1.1,1.1,2,1.1s1.5-0.4,2-1.1l0.2-0.4c0.2-0.4,0.3-0.8,0.3-1.2v-5.6c0-0.4-0.1-0.8-0.3-1.2
		L43.1,168.3z"/>
	<path class="st0" d="M47.5,168.3l-0.2,0.4c-0.2,0.4-0.3,0.8-0.3,1.2v5.6c0,0.4,0.1,0.8,0.3,1.2l0.2,0.4c0.4,0.7,1.1,1.1,2,1.1
		s1.5-0.4,2-1.1l0.2-0.4c0.2-0.4,0.3-0.8,0.3-1.2v-5.6c0-0.4-0.1-0.8-0.3-1.2l-0.2-0.4c-0.4-0.7-1.1-1.1-2-1.1S48,167.7,47.5,168.3z
		"/>
	<path class="st0" d="M55.9,177.1c0.4,0.7,1.1,1.1,2,1.1c0,0,0,0,0,0c0.8,0,1.5-0.4,1.9-1.1l0.2-0.4c0.2-0.4,0.3-0.8,0.3-1.2v-5.6
		c0-0.4-0.1-0.8-0.3-1.2l-0.2-0.4c-0.4-0.7-1.1-1.1-1.9-1.1c0,0,0,0,0,0c-0.8,0-1.5,0.4-2,1.1l-0.2,0.4c-0.2,0.4-0.3,0.8-0.3,1.2
		v5.6c0,0.4,0.1,0.8,0.3,1.2L55.9,177.1z"/>
</g>
</svg>
