<svg id="Layer_1" data-name="Layer 1" xmlns="http://www.w3.org/2000/svg" viewBox="0 0 145.04 181.05"><defs><style>.cls-1{fill:#FFFFFF;}</style></defs><title>icon.sotolon-selections</title><path class="cls-1" d="M84.17,169.15c3.51,3.42,20.51.4,20.61.67-.48-1.21-4.12.2-1.11-2.78,1-1,1,1.57,1.87,1.1-.39.22.81-6.3.87-6-.17-.73-2-.08-2.12-.69-.47-1.62,4.42-2,3.33-4.49-.52-1.2-5.36-1.63-5.92-3.11-2.86-7.65,10.87-3.29,11-4.08a74.52,74.52,0,0,0,.58-8.75c-.08-.55-2-5.84-3-4.1.55-1,3.3,1.24,3.35-1.71,0-2.46-2.76.09-1.91-2.28.92-2.55,4.58-3.8,3.57-6.8-3.7,5.32-.82-2-1.42-4.08-.88-3-4.4-4.54-5.12-6-.89-1.83,1.82-.53.47-2.56.57.85-3.38-4.41-3-3.39-1.22-3.7-.33-.72-.08-3.73.14-1.71-3.89-1.49-2.83-4.71.51-1.57,2.34-1,3.07-1.94,1.27-1.55,3.53-1.8,4.72-2.8-.55.47-.46-3.9-.09-3.31-1.55-2.45-2,1.32-2.12,1.39,1.44-1-5.88-11.5-5.93-11.82-.18-1.16,3.58-.19,2.39-3.85-.7-2.14-7.41-4.51-7.54-6.12S100,72.26,99.89,71c-.39-5.89-8.49,1.08-8.19,1.19,1.32.44-.49-5-1.22-5.84-1.27-1.46-2.76-.52-3-.64-.85-.36-11.26-2.82-5.92-3.64,3.3-.51,6.7,1.38,10,1.42,1,0,2.48-1.69,4.67-1.75,4.3-.1,10.15,1.3,14.32,1.74-.43-4.67-16.36-7.71-20.53-8.09-2.77-.25-11.85,2-11.86,2-.66-.13-1.2.19-2-.09-2.14-.77-.62-5.38-3.47-5.16-.81.06-3,5.55-3.65,6-1.69,1-5.91.4-7.74.62a4.46,4.46,0,0,1,2.16,1.58,8.38,8.38,0,0,1-2.3,1.79s11.69-.84,11.52.92c-.1,1.12-10.3,2.24-10.69,2.29-2.87.35-6.16.09-8.94,1-1.33.44-.68,2.54-1.29,2.69-.94.23-.64-1.61-1.63-1.47-.69.09,0,2.11-.92,2.33-1.63.38-2,.67-3.82,2,.29-.21-2.43,2.49-2.11,2.11-.59.69-3.14,1.48-4,2.25A5.42,5.42,0,0,1,40.57,78c-.93,1.89-11.21,3.73-11.19,7.37,0,1.73,2.9,4.24-1.5,4.77,2.62,3.23.2,3,.55,4.63.28,1.26,3.11,1.9,4,3.1-10.74-.56-2,0-3,2.12-.51,1.13-2.46,1-3,1.45-.75.53-1,11.48-.93,12.16-.7,1.18-.9,4.69-1.47,5.41-.86,1.1-4,.79-5.6,2.6-2.77,3.24.42,6.24-2.32,8.63-.91.79,1.47,2.95,1.7,3.14.41-.09-3.61-1.78-3.65-1.76C13.87,131.8,12,143,12,143.29c.11,3.64-1,4.81,2.69,7.83A2.43,2.43,0,0,1,13.4,151a2.2,2.2,0,0,1,.47,1.9c-.3.25-.51-.06-.7-.24a13.17,13.17,0,0,1-2.74-4.18,83.73,83.73,0,0,1-3.67-10.24c-1.07-3.51-2.61-6.87-3.38-10.47C2.46,123.31,1.23,119,.55,114.5a53.46,53.46,0,0,1,.29-17A51.94,51.94,0,0,1,14.35,69.81a68.6,68.6,0,0,1,18-13.54c4.09-2.16,8.13-4.44,12.58-5.82a56.72,56.72,0,0,1,5.74-1.18,8.92,8.92,0,0,0,6.62-5.16,42.27,42.27,0,0,0,2.83-9.25c1.17-5.13,2.23-10.29,3.31-15.45a2.23,2.23,0,0,0-1.9-2.93c-2.09-.53-2.25-.77-1.8-2.89q1.27-6,3-11.82A1.66,1.66,0,0,1,64.06.52,24.29,24.29,0,0,1,70.36,0a5.6,5.6,0,0,1,2.73,1c.65.42.75.19,1-.29a1.35,1.35,0,0,1,1.3-.7,34.24,34.24,0,0,1,5.71.51,2.23,2.23,0,0,1,2,1.88c.84,4,2.19,7.92,2.91,12,.29,1.61.24,1.74-1.28,2.25-.23.07-.45.18-.68.23-1.08.22-1.39.8-1.13,1.89C84,23.33,85,27.89,86,32.45c.7,3.11,1.37,6.23,2.29,9.29,1.32,4.37,4,7.17,8.62,7.94,5,.83,9.27,3.36,13.6,5.75a89.73,89.73,0,0,1,16.6,11.47,43.78,43.78,0,0,1,9.59,12c2.24,4.15,4.55,8.26,5.93,12.79a55.67,55.67,0,0,1,2.3,19.75,110.54,110.54,0,0,1-1.39,11.88,75.59,75.59,0,0,1-5.49,17.3,141.39,141.39,0,0,1-8.19,15.55,81.44,81.44,0,0,1-6,8.5,23.08,23.08,0,0,1-3.83,3.76c-2.39,1.93-4.5,4.16-6.91,6.06a27.78,27.78,0,0,1-14.6,5.75,192.77,192.77,0,0,1-26.43.68,173.75,173.75,0,0,1-27-2.62A35.73,35.73,0,0,1,26.71,169,103.5,103.5,0,0,1,15.7,157a9.9,9.9,0,0,1-1.37-2.24c-.31-.74-.05-1.17.76-1.19,2-.06,12,6.29,10.85,8.11-.36.56-2.38-.19-2.57.39-1.07,3.23,7.88,1.64,8.35,1.48.92-.34,8.71-5.48,9.14-7a22.93,22.93,0,0,0-1.28-4.81c2.19-3.46,9.91-5.37,13.86-5.89,8.37-1.12,18.31,1.49,24.34,4.15,1.4.62,2.71-2.32,5.54-.22,3.21,2.39-.38,2.68,1.79,5.84,2.37,3.48,11.59,5.4,12.84,7.62.86,1.53-9.25,5.53-9.33,4.42,0,.81,1.84-.13,1.78,1.18C90.36,169.69,83.31,169.36,84.17,169.15Z"/></svg>