<?xml version="1.0" encoding="utf-8"?>
<!-- Generator: Adobe Illustrator 22.1.0, SVG Export Plug-In . SVG Version: 6.00 Build 0)  -->
<svg version="1.1" xmlns="http://www.w3.org/2000/svg" xmlns:xlink="http://www.w3.org/1999/xlink" x="0px" y="0px"
	 viewBox="0 0 720 720" style="enable-background:new 0 0 720 720;" xml:space="preserve">
<style type="text/css">
	.st0{fill:#FFFFFF;}
	.st1{fill:#A2120F;}
</style>
<g id="B">
	<rect class="st0" width="720" height="720"/>
</g>
<g id="Layer_3">
	<g id="Layer_6">
	</g>
	<g>
		<g>
			<polygon class="st0" points="219.4,699.4 20.6,500.6 20.6,219.4 219.4,20.6 500.6,20.6 699.4,219.4 699.4,500.6 500.6,699.4 			
				"/>
			<g>
				<polygon class="st1" points="233.3,665.9 54.1,486.7 54.1,233.3 233.3,54.1 486.7,54.1 665.9,233.3 665.9,486.7 486.7,665.9 
									"/>
				<g>
					<path class="st1" d="M505.8,711.9H214.2L8.1,505.8V214.2L214.2,8.1h291.5l206.2,206.2v291.5L505.8,711.9z M223.2,690.4h273.7
						l193.5-193.5V223.2L496.8,29.6H223.2L29.6,223.2v273.7L223.2,690.4z"/>
				</g>
			</g>
		</g>
		<g>
			<path class="st0" d="M217.3,441.8c3.1-6.2,4.7-16.4,4.7-30.1c0-19-2.8-32.8-8.5-40.9c-5.8-8.4-20.4-19.6-43.5-33.2
				c-9.3-5.4-14.6-10-16.8-14.3c-2.2-4.1-3.3-9.8-3.3-17.4c0-6.2,1-10.9,3.2-14.3c2.5-3.9,6.3-6,11.1-6c5.7,0,8.7,2.7,10.1,4.9
				c1.2,1.9,2.6,5.4,2.6,16V317h40.5v-3.6c0-15.5-1.5-26.4-4.3-32.6c-2.7-5.7-8.5-10.7-17.2-14.6c-9.1-4.2-20.4-6.3-33.6-6.3
				c-12,0-22.3,1.9-30.6,5.7c-8,3.6-13.9,8.7-17.4,15c-3.6,6.5-5.5,17.3-5.5,32.1c0,10.2,1.3,18.6,3.9,25c2.6,6.3,5.8,11.3,9.6,14.8
				c4.1,3.8,12.8,10,25.8,18.6c13.7,8.9,22.2,15.2,25.8,19.3c4.2,4.7,6.1,13.1,6.1,26.6c0,6.4-1.1,11.2-3.3,14.7
				c-2.6,4.1-6.6,6.3-11.8,6.3c-6.5,0-9.7-2.9-11.3-5.4c-1.9-3-2.8-8.3-2.8-17.2v-20.3h-40.5v8.8c0,14.7,1.5,26.1,4.4,33.8
				c2.7,7.2,8.7,13.3,17.7,18.1c9.4,5,21,7.5,34.4,7.5c12.3,0,23.1-2.2,32.3-6.6C208.4,452.9,214.4,447.7,217.3,441.8z"/>
			<path class="st0" d="M470.7,443.5c4.6-6.4,7.4-13.5,8.3-21.3c0.9-8.3,1.4-22.8,1.4-43v-34.9c0-20.7-0.5-35.4-1.5-43.6
				c-0.9-7.6-3.8-14.7-8.7-21.2c-4.8-6.4-11.3-11.3-19.2-14.6c-8.2-3.3-17.5-5-27.9-5c-10.9,0-20.5,1.8-28.6,5.3
				c-7.9,3.4-14.3,8.4-18.9,14.8c-4.6,6.4-7.4,13.5-8.3,21.3c-0.9,8.3-1.4,22.8-1.4,43v34.9c0,20.7,0.5,35.4,1.5,43.6
				c0.9,7.6,3.8,14.7,8.7,21.2c4.8,6.4,11.3,11.3,19.2,14.6c8.2,3.3,17.5,5,27.9,5c10.9,0,20.5-1.8,28.6-5.3
				C459.8,454.9,466.1,449.9,470.7,443.5z M436.2,406c0,16.8-1,21.8-1.7,24.2c-1.6,5-5.7,7.9-11.3,7.9c-7.4,0-10.1-4.5-11.1-7.2
				c-0.8-2.3-1.7-7-1.7-23.4v-95.3c0-15.1,1.5-19.4,3-21.5c2.3-3.4,5.8-5.2,10.1-5.2c5.2,0,9,2.4,10.8,6.8c0.8,2,1.9,6.3,1.9,19.9
				V406z"/>
			<path class="st0" d="M611.8,361.3c2.4-5.4,3.7-14.3,3.7-26.6v-17.8c0-12.4-0.7-21.6-2-27.3c-1.2-5.3-3.5-9.8-6.9-13.5
				c-3.3-3.6-8.6-6.5-15.5-8.5c-7.4-2.1-18.2-3.2-32.3-3.2h-49.2v195h44.3v-82.2h18.9c11,0,19.9-1.5,26.5-4.4
				C605.4,370,609.5,366.2,611.8,361.3z M579.8,328.2c0,8.8-1.2,14.4-3.8,17.7c-2.8,3.5-7.4,5.3-13.8,5.3c-1.2,0-2.6,0-4.2-0.1
				l-4.3-0.2v-60.7h4.5c8.3,0,13.7,1.4,16.8,4.4c3.2,3.1,4.7,8.4,4.7,16.9V328.2z"/>
			<polygon class="st0" points="346.3,264.3 238.7,264.3 236.1,264.3 236.1,296.1 238.7,296.1 270.3,296.1 270.3,459.3 314.6,459.3 
				314.6,296.1 346.3,296.1 348.8,296.1 348.8,264.3 			"/>
		</g>
	</g>
</g>
</svg>
