<svg xmlns="http://www.w3.org/2000/svg" viewBox="0 0 285.77 21.33"><defs><style>.cls-1{fill:#603913;}</style></defs><title>Asset 1</title><g id="Layer_2" data-name="Layer 2"><g id="Layer_1-2" data-name="Layer 1"><path class="cls-1" d="M1.84,24.87C1.84,21.71,1,20.79,1,18l1-.2C3.13,21.05,5,24,6.93,24c.89,0,2.33-.75,2.33-3.16,0-5.27-8.08-6.62-8.08-11.76,0-3.68,2.1-5.15,4.74-5.15,1.41,0,2.62.72,3.25.72.23,0,.4-.11.43-.46h.69l.4,5.17-.89.09C8.28,6.84,7.16,5,5.75,5A1.9,1.9,0,0,0,4,7.13c0,5,8.28,5.75,8.28,12.33,0,3.51-2.27,5.7-5.44,5.7a12.81,12.81,0,0,1-3.53-.81c-.26,0-.35.17-.49.52Z" transform="translate(-1.01 -3.83)"/><path class="cls-1" d="M16.27,14.38C16.27,8.6,19.15,3.83,24,3.83c5.17,0,7.44,5.49,7.44,10.89,0,6-2.93,10.44-7.84,10.44C18.86,25.16,16.27,20.47,16.27,14.38Zm8.08,9.48c3,0,3.28-4.11,3.28-7.44C27.63,12.13,27,5,23.11,5,20.76,5,20,8.31,20,13.46,20,18.2,21.48,23.86,24.35,23.86Z" transform="translate(-1.01 -3.83)"/><path class="cls-1" d="M37.66,23.81c1.3,0,2.1-.21,2.1-1.1V5.32h-.49c-1.41,0-2.64.12-4,3.85l-1-.11a35.74,35.74,0,0,0,.81-5.15,6.6,6.6,0,0,0,1.4.23H46.92a6.37,6.37,0,0,0,1.72-.23c-.23,1-.6,3.42-.8,5.29l-1-.11c0-1.87-.29-3.77-2.67-3.77H43.12V22.71c0,.89.9,1.1,2.07,1.1v1.06c-1,0-3-.2-3.88-.2s-2.5.2-3.65.2Z" transform="translate(-1.01 -3.83)"/><path class="cls-1" d="M51.23,14.38c0-5.78,2.88-10.55,7.68-10.55,5.17,0,7.44,5.49,7.44,10.89,0,6-2.93,10.44-7.84,10.44C53.82,25.16,51.23,20.47,51.23,14.38Zm8.08,9.48c3,0,3.28-4.11,3.28-7.44C62.59,12.13,61.93,5,58.07,5,55.72,5,55,8.31,55,13.46,55,18.2,56.44,23.86,59.31,23.86Z" transform="translate(-1.01 -3.83)"/><path class="cls-1" d="M70,23.81c.89,0,1.55-.12,1.55-1.15V6.24c0-1-.29-1.32-1.55-1.32v-1a26.65,26.65,0,0,1,3,.23c.71,0,2.32-.29,3.19-.29a5.47,5.47,0,0,1,2.35.58l-.31,1A5.9,5.9,0,0,0,76.39,5c-.92,0-1.5.23-1.5,1.32V23.52h1c2.44,0,4.2-2.68,5.12-5.26l1,.17c-.06,2.47-1.13,4.94-1.5,6.73a5.42,5.42,0,0,0-2.13-.29H70Z" transform="translate(-1.01 -3.83)"/><path class="cls-1" d="M85.27,14.38C85.27,8.6,88.15,3.83,93,3.83c5.17,0,7.44,5.49,7.44,10.89,0,6-2.93,10.44-7.84,10.44C87.86,25.16,85.27,20.47,85.27,14.38Zm8.08,9.48c3.05,0,3.28-4.11,3.28-7.44C96.63,12.13,96,5,92.11,5,89.76,5,89,8.31,89,13.46,89,18.2,90.48,23.86,93.35,23.86Z" transform="translate(-1.01 -3.83)"/><path class="cls-1" d="M103.82,23.81c1.2,0,2-.06,2-1.38V7.07c0-1.58-.81-2.09-1.9-2.09a5.34,5.34,0,0,0-.69,0v-1a8.18,8.18,0,0,1,1.09-.12c.72,0,1.3.26,1.84.26a6.22,6.22,0,0,0,2-.29L116,18.06V6.82c0-1.59-.54-1.87-2.41-1.87v-1c1.06,0,2.13.17,3,.17s1.21-.17,2.47-.17V5c-1.32,0-1.66.28-1.66,2v18h-1.53L107.24,9.29V22.37c0,1.35.83,1.44,2.56,1.44v1.06c-1.76,0-2.48-.2-3.19-.2s-1.59.2-2.79.2Z" transform="translate(-1.01 -3.83)"/><path class="cls-1" d="M131.16,24.87c0-3.16-.84-4.08-.84-6.84l1-.2c1.09,3.22,2.93,6.15,4.89,6.15.89,0,2.32-.75,2.32-3.16,0-5.27-8.07-6.62-8.07-11.76,0-3.68,2.09-5.15,4.74-5.15,1.41,0,2.62.72,3.25.72.23,0,.4-.11.43-.46h.69l.4,5.17-.89.09C137.6,6.84,136.48,5,135.07,5a1.9,1.9,0,0,0-1.79,2.13c0,5,8.28,5.75,8.28,12.33,0,3.51-2.27,5.7-5.43,5.7a13,13,0,0,1-3.54-.81c-.25,0-.34.17-.48.52Z" transform="translate(-1.01 -3.83)"/><path class="cls-1" d="M145.33,24.87V23.81c1,0,1.55-.09,1.55-1.18V6.3c0-1.07-.23-1.18-1.55-1.18v-1h9.75a5.16,5.16,0,0,0,1.69-.23A50.73,50.73,0,0,0,157.63,9l-1,.23c-.92-2.64-2.53-4.08-5.49-4.08h-.92V13h1.41c2.44,0,3.1-.92,3.1-2.65h1c0,1.64-.22,2.85-.22,3.54s.22,2.07.22,3.36h-1.06c0-1.72-.66-3-3.1-3h-1.38v9.32h2.27a5.19,5.19,0,0,0,5.32-4.26l.92.2c-.15,2.59-.72,3.34-1.1,5.7a6.84,6.84,0,0,0-2.33-.29Z" transform="translate(-1.01 -3.83)"/><path class="cls-1" d="M162.09,23.81c.89,0,1.55-.12,1.55-1.15V6.24c0-1-.28-1.32-1.55-1.32v-1a26.65,26.65,0,0,1,3,.23c.72,0,2.33-.29,3.19-.29a5.55,5.55,0,0,1,2.36.58l-.32,1A5.84,5.84,0,0,0,168.5,5c-.92,0-1.49.23-1.49,1.32V23.52h1c2.45,0,4.2-2.68,5.12-5.26l1,.17c-.06,2.47-1.12,4.94-1.5,6.73a5.4,5.4,0,0,0-2.12-.29h-8.37Z" transform="translate(-1.01 -3.83)"/><path class="cls-1" d="M177.13,24.87V23.81c1,0,1.55-.09,1.55-1.18V6.3c0-1.07-.23-1.18-1.55-1.18v-1h9.74a5.18,5.18,0,0,0,1.7-.23A45.64,45.64,0,0,0,189.43,9l-1,.23c-.92-2.64-2.54-4.08-5.5-4.08H182V13h1.41c2.45,0,3.11-.92,3.11-2.65h1c0,1.64-.23,2.85-.23,3.54s.23,2.07.23,3.36h-1.06c0-1.72-.66-3-3.11-3H182v9.32h2.28a5.17,5.17,0,0,0,5.31-4.26l.92.2c-.14,2.59-.72,3.34-1.09,5.7a6.87,6.87,0,0,0-2.33-.29Z" transform="translate(-1.01 -3.83)"/><path class="cls-1" d="M194.15,14.35c0-5.64,2.7-10.47,7.53-10.47a9.55,9.55,0,0,1,3.57,1c.28,0,.48-.17.66-.52h1a36,36,0,0,0,.4,5.26l-.86.14C205,7.42,203.38,5,201.39,5c-2.41,0-3.48,3.6-3.48,9.26,0,5.49,1.3,9.57,4.14,9.57,1.87,0,2.82-1.58,4.37-5.17h1v4.83c-2.62,1.44-3.68,1.64-5.43,1.64C197.08,25.16,194.15,21.39,194.15,14.35Z" transform="translate(-1.01 -3.83)"/><path class="cls-1" d="M214.42,23.81c1.29,0,2.1-.21,2.1-1.1V5.32H216c-1.41,0-2.65.12-4,3.85l-1-.11a34.39,34.39,0,0,0,.81-5.15,6.59,6.59,0,0,0,1.41.23h10.43a6.5,6.5,0,0,0,1.73-.23c-.23,1-.61,3.42-.81,5.29l-1-.11c0-1.87-.29-3.77-2.68-3.77h-1.06V22.71c0,.89.89,1.1,2.07,1.1v1.06c-1,0-3-.2-3.88-.2s-2.5.2-3.65.2Z" transform="translate(-1.01 -3.83)"/><path class="cls-1" d="M228.13,23.81c1.06,0,1.73-.15,1.73-1.21V6.41c0-1.41-.61-1.49-1.73-1.49v-1c1.67,0,2.7.17,3.54.17s1.61-.17,3.27-.17v1c-1.29,0-1.72.17-1.72,1.49V22.6c0,1.12.37,1.21,1.72,1.21v1.06c-1.66,0-2.61-.23-3.42-.23s-1.72.23-3.39.23Z" transform="translate(-1.01 -3.83)"/><path class="cls-1" d="M238.39,14.38c0-5.78,2.88-10.55,7.68-10.55,5.18,0,7.45,5.49,7.45,10.89,0,6-2.94,10.44-7.85,10.44C241,25.16,238.39,20.47,238.39,14.38Zm8.08,9.48c3.05,0,3.28-4.11,3.28-7.44,0-4.29-.66-11.44-4.51-11.44-2.36,0-3.08,3.33-3.08,8.48C242.16,18.2,243.6,23.86,246.47,23.86Z" transform="translate(-1.01 -3.83)"/><path class="cls-1" d="M256.94,23.81c1.2,0,2-.06,2-1.38V7.07c0-1.58-.81-2.09-1.9-2.09a5.34,5.34,0,0,0-.69,0v-1a8.18,8.18,0,0,1,1.09-.12c.72,0,1.3.26,1.84.26a6.32,6.32,0,0,0,2.05-.29l7.79,14.15V6.82c0-1.59-.55-1.87-2.42-1.87v-1c1.06,0,2.13.17,3,.17s1.21-.17,2.47-.17V5c-1.32,0-1.66.28-1.66,2v18H269L260.36,9.29V22.37c0,1.35.83,1.44,2.56,1.44v1.06c-1.76,0-2.47-.2-3.19-.2s-1.59.2-2.79.2Z" transform="translate(-1.01 -3.83)"/><path class="cls-1" d="M276.37,24.87c0-3.16-.83-4.08-.83-6.84l1-.2c1.1,3.22,2.94,6.15,4.89,6.15.89,0,2.33-.75,2.33-3.16,0-5.27-8.08-6.62-8.08-11.76,0-3.68,2.1-5.15,4.75-5.15,1.4,0,2.61.72,3.24.72.23,0,.41-.11.43-.46h.7l.4,5.17-.89.09C282.81,6.84,281.69,5,280.28,5a1.9,1.9,0,0,0-1.78,2.13c0,5,8.28,5.75,8.28,12.33,0,3.51-2.27,5.7-5.43,5.7a12.92,12.92,0,0,1-3.54-.81c-.26,0-.34.17-.49.52Z" transform="translate(-1.01 -3.83)"/></g></g></svg>