<svg id="Layer_1" data-name="Layer 1" xmlns="http://www.w3.org/2000/svg" viewBox="0 0 1269.06 181.05"><defs><style>.cls-1{fill:#FFFFFF;}</style></defs><title>logotype.sotolon-selections</title><path class="cls-1" d="M84.17,169.15c3.51,3.42,20.51.4,20.61.67-.48-1.21-4.12.2-1.11-2.78,1-1,1,1.57,1.87,1.1-.39.22.81-6.3.87-6-.17-.73-2-.08-2.12-.69-.47-1.62,4.42-2,3.33-4.49-.52-1.2-5.36-1.63-5.92-3.11-2.86-7.65,10.87-3.29,11-4.08a74.52,74.52,0,0,0,.58-8.75c-.08-.55-2-5.84-3-4.1.55-1,3.3,1.24,3.35-1.71,0-2.46-2.76.09-1.91-2.28.92-2.55,4.58-3.8,3.57-6.8-3.7,5.32-.82-2-1.42-4.08-.88-3-4.4-4.54-5.12-6-.89-1.83,1.82-.53.47-2.56.57.85-3.38-4.41-3-3.39-1.22-3.7-.33-.72-.08-3.73.14-1.71-3.89-1.49-2.83-4.71.51-1.57,2.34-1,3.07-1.94,1.27-1.55,3.53-1.8,4.72-2.8-.55.47-.46-3.9-.09-3.31-1.55-2.45-2,1.32-2.12,1.39,1.44-1-5.88-11.5-5.93-11.82-.18-1.16,3.58-.19,2.39-3.85-.7-2.14-7.41-4.51-7.54-6.12S100,72.26,99.89,71c-.39-5.89-8.49,1.08-8.19,1.19,1.32.44-.49-5-1.22-5.84-1.27-1.46-2.76-.52-3-.64-.85-.36-11.26-2.82-5.92-3.64,3.3-.51,6.7,1.38,10,1.42,1,0,2.48-1.69,4.67-1.75,4.3-.1,10.15,1.3,14.32,1.74-.43-4.67-16.36-7.71-20.53-8.09-2.77-.25-11.85,2-11.86,2-.66-.13-1.2.19-2-.09-2.14-.77-.62-5.38-3.47-5.16-.81.06-3,5.55-3.65,6-1.69,1-5.91.4-7.74.62a4.46,4.46,0,0,1,2.16,1.58,8.38,8.38,0,0,1-2.3,1.79s11.69-.84,11.52.92c-.1,1.12-10.3,2.24-10.69,2.29-2.87.35-6.16.09-8.94,1-1.33.44-.68,2.54-1.29,2.69-.94.23-.64-1.61-1.63-1.47-.69.09,0,2.11-.92,2.33-1.63.38-2,.67-3.82,2,.29-.21-2.43,2.49-2.11,2.11-.59.69-3.14,1.48-4,2.25A5.42,5.42,0,0,1,40.57,78c-.93,1.89-11.21,3.73-11.19,7.37,0,1.73,2.9,4.24-1.5,4.77,2.62,3.23.2,3,.55,4.63.28,1.26,3.11,1.9,4,3.1-10.74-.56-2,0-3,2.12-.51,1.13-2.46,1-3,1.45-.75.53-1,11.48-.93,12.16-.7,1.18-.9,4.69-1.47,5.41-.86,1.1-4,.79-5.6,2.6-2.77,3.24.42,6.24-2.32,8.63-.91.79,1.47,2.95,1.7,3.14.41-.09-3.61-1.78-3.65-1.76C13.87,131.8,12,143,12,143.29c.11,3.64-1,4.81,2.69,7.83A2.43,2.43,0,0,1,13.4,151a2.2,2.2,0,0,1,.47,1.9c-.3.25-.51-.06-.7-.24a13.17,13.17,0,0,1-2.74-4.18,83.73,83.73,0,0,1-3.67-10.24c-1.07-3.51-2.61-6.87-3.38-10.47C2.46,123.31,1.23,119,.55,114.5a53.46,53.46,0,0,1,.29-17A51.94,51.94,0,0,1,14.35,69.81a68.6,68.6,0,0,1,18-13.54c4.09-2.16,8.13-4.44,12.58-5.82a56.72,56.72,0,0,1,5.74-1.18,8.92,8.92,0,0,0,6.62-5.16,42.27,42.27,0,0,0,2.83-9.25c1.17-5.13,2.23-10.29,3.31-15.45a2.23,2.23,0,0,0-1.9-2.93c-2.09-.53-2.25-.77-1.8-2.89q1.27-6,3-11.82A1.66,1.66,0,0,1,64.06.52,24.29,24.29,0,0,1,70.36,0a5.6,5.6,0,0,1,2.73,1c.65.42.75.19,1-.29a1.35,1.35,0,0,1,1.3-.7,34.24,34.24,0,0,1,5.71.51,2.23,2.23,0,0,1,2,1.88c.84,4,2.19,7.92,2.91,12,.29,1.61.24,1.74-1.28,2.25-.23.07-.45.18-.68.23-1.08.22-1.39.8-1.13,1.89C84,23.33,85,27.89,86,32.45c.7,3.11,1.37,6.23,2.29,9.29,1.32,4.37,4,7.17,8.62,7.94,5,.83,9.27,3.36,13.6,5.75a89.73,89.73,0,0,1,16.6,11.47,43.78,43.78,0,0,1,9.59,12c2.24,4.15,4.55,8.26,5.93,12.79a55.67,55.67,0,0,1,2.3,19.75,110.54,110.54,0,0,1-1.39,11.88,75.59,75.59,0,0,1-5.49,17.3,141.39,141.39,0,0,1-8.19,15.55,81.44,81.44,0,0,1-6,8.5,23.08,23.08,0,0,1-3.83,3.76c-2.39,1.93-4.5,4.16-6.91,6.06a27.78,27.78,0,0,1-14.6,5.75,192.77,192.77,0,0,1-26.43.68,173.75,173.75,0,0,1-27-2.62A35.73,35.73,0,0,1,26.71,169,103.5,103.5,0,0,1,15.7,157a9.9,9.9,0,0,1-1.37-2.24c-.31-.74-.05-1.17.76-1.19,2-.06,12,6.29,10.85,8.11-.36.56-2.38-.19-2.57.39-1.07,3.23,7.88,1.64,8.35,1.48.92-.34,8.71-5.48,9.14-7a22.93,22.93,0,0,0-1.28-4.81c2.19-3.46,9.91-5.37,13.86-5.89,8.37-1.12,18.31,1.49,24.34,4.15,1.4.62,2.71-2.32,5.54-.22,3.21,2.39-.38,2.68,1.79,5.84,2.37,3.48,11.59,5.4,12.84,7.62.86,1.53-9.25,5.53-9.33,4.42,0,.81,1.84-.13,1.78,1.18C90.36,169.69,83.31,169.36,84.17,169.15Z"/><path class="cls-1" d="M172.18,136.1c0-13.31-3.51-17.19-3.51-28.81l4.36-.85c4.6,13.56,12.34,25.91,20.58,25.91,3.75,0,9.8-3.15,9.8-13.32,0-22.15-34-27.84-34-49.51,0-15.5,8.84-21.67,20-21.67,5.93,0,11,3,13.68,3,1,0,1.69-.49,1.82-1.94h2.9l1.7,21.79-3.76.36c-6.41-10.89-11.13-18.64-17.07-18.64-4,0-7.5,3.27-7.5,9,0,21.06,34.86,24.21,34.86,51.94,0,14.76-9.56,24-22.88,24-7.62,0-13.19-3.39-14.89-3.39-1.09,0-1.45.72-2.06,2.17Z"/><path class="cls-1" d="M226.9,91.92c0-24.34,12.1-44.43,32.32-44.43,21.79,0,31.36,23.12,31.36,45.88,0,25.18-12.35,43.95-33.06,43.95C237.79,137.32,226.9,117.58,226.9,91.92Zm34,40c12.84,0,13.81-17.31,13.81-31.36,0-18-2.79-48.18-19-48.18-9.93,0-13,14-13,35.71C242.75,108,248.81,131.87,260.91,131.87Z"/><path class="cls-1" d="M310.91,131.63c5.45,0,8.84-.85,8.84-4.61V53.78h-2.06c-5.93,0-11.14.49-16.95,16.22l-4.12-.48c1.7-7.63,3.27-17.19,3.39-21.67a29.25,29.25,0,0,0,5.94,1h43.94a26.6,26.6,0,0,0,7.27-1c-1,4.36-2.55,14.41-3.39,22.28l-4.12-.49c-.12-7.87-1.21-15.86-11.26-15.86h-4.48V127c0,3.76,3.75,4.61,8.72,4.61v4.47c-4.24,0-12.59-.84-16.35-.84-4.23,0-10.53.84-15.37.84Z"/><path class="cls-1" d="M362,91.92c0-24.34,12.11-44.43,32.33-44.43,21.79,0,31.35,23.12,31.35,45.88,0,25.18-12.34,43.95-33.05,43.95C372.89,137.32,362,117.58,362,91.92Zm34,40c12.84,0,13.81-17.31,13.81-31.36,0-18-2.79-48.18-19-48.18-9.93,0-13,14-13,35.71C377.85,108,383.91,131.87,396,131.87Z"/><path class="cls-1" d="M434.87,131.63c3.75,0,6.54-.49,6.54-4.85V57.66c0-4.36-1.21-5.57-6.54-5.57V47.85c9,0,9.69,1,12.83,1s9.81-1.21,13.44-1.21c3.88,0,6.42,1,9.93,2.42l-1.33,4.11a25.05,25.05,0,0,0-7.87-1.81c-3.88,0-6.3,1-6.3,5.57v72.51h4.24c10.29,0,17.67-11.25,21.55-22.15l4,.73c-.24,10.41-4.72,20.82-6.29,28.33-2.66-1.09-5.45-1.22-9-1.22H434.87Z"/><path class="cls-1" d="M493.22,91.92c0-24.34,12.11-44.43,32.32-44.43,21.79,0,31.36,23.12,31.36,45.88,0,25.18-12.35,43.95-33,43.95C504.11,137.32,493.22,117.58,493.22,91.92Zm34,40c12.83,0,13.8-17.31,13.8-31.36,0-18-2.79-48.18-19-48.18-9.93,0-12.95,14-12.95,35.71C509.08,108,515.13,131.87,527.24,131.87Z"/><path class="cls-1" d="M565.25,131.63c5.08,0,8.59-.25,8.59-5.82V61.17c0-6.66-3.39-8.84-8-8.84a23.46,23.46,0,0,0-2.9.24V48.45a35.89,35.89,0,0,1,4.6-.48c3,0,5.44,1.09,7.74,1.09,1.58,0,7-.24,8.6-1.21l32.81,59.56V60.08c0-6.66-2.3-7.87-10.17-7.87V47.85c4.48,0,9,.73,12.47.73,3.75,0,5.08-.73,10.41-.73v4.36c-5.57,0-7,1.21-7,8.23V136.1H616L579.65,70.49v55.08c0,5.69,3.51,6.06,10.78,6.06v4.47c-7.39,0-10.41-.84-13.44-.84s-6.66.84-11.74.84Z"/><path class="cls-1" d="M668.26,136.1c0-13.31-3.51-17.19-3.51-28.81l4.36-.85c4.6,13.56,12.35,25.91,20.58,25.91,3.76,0,9.81-3.15,9.81-13.32,0-22.15-34-27.84-34-49.51,0-15.5,8.84-21.67,20-21.67,5.93,0,11,3,13.68,3,1,0,1.69-.49,1.81-1.94h2.91l1.69,21.79-3.75.36c-6.42-10.89-11.14-18.64-17.07-18.64-4,0-7.51,3.27-7.51,9,0,21.06,34.87,24.21,34.87,51.94,0,14.76-9.56,24-22.88,24-7.63,0-13.2-3.39-14.89-3.39-1.09,0-1.45.72-2.06,2.17Z"/><path class="cls-1" d="M721.89,136.1v-4.47c4.36,0,6.54-.37,6.54-5V57.9c0-4.48-1-5-6.54-5V48.58h41a22.91,22.91,0,0,0,7.15-1c.72,8.47,2.42,15,3.63,21.55l-4.12,1c-3.87-11.14-10.65-17.2-23.12-17.2h-3.88V86h5.94c10.29,0,13.07-3.87,13.07-11.13H766c0,6.9-1,12-1,14.89s1,8.71,1,14.16h-4.48c0-7.26-2.78-12.71-13.08-12.71h-5.81v39.22h9.57c13.44,0,20.09-8.59,22.39-17.91l3.88.85c-.61,10.89-3,14-4.6,24-2.18-.85-5.45-1.22-9.81-1.22Z"/><path class="cls-1" d="M786.41,131.63c3.76,0,6.54-.49,6.54-4.85V57.66c0-4.36-1.21-5.57-6.54-5.57V47.85c9,0,9.69,1,12.84,1s9.8-1.21,13.43-1.21c3.88,0,6.42,1,9.93,2.42l-1.33,4.11a25.05,25.05,0,0,0-7.87-1.81c-3.87,0-6.29,1-6.29,5.57v72.51h4.23c10.29,0,17.68-11.25,21.55-22.15l4,.73c-.25,10.41-4.72,20.82-6.3,28.33-2.66-1.09-5.45-1.22-9-1.22H786.41Z"/><path class="cls-1" d="M843.67,136.1v-4.47c4.36,0,6.54-.37,6.54-5V57.9c0-4.48-1-5-6.54-5V48.58h41a22.91,22.91,0,0,0,7.15-1c.72,8.47,2.42,15,3.63,21.55l-4.12,1c-3.87-11.14-10.65-17.2-23.12-17.2h-3.88V86h5.94c10.29,0,13.07-3.87,13.07-11.13h4.36c0,6.9-1,12-1,14.89s1,8.71,1,14.16h-4.48c0-7.26-2.78-12.71-13.07-12.71h-5.82v39.22h9.57c13.44,0,20.09-8.59,22.4-17.91l3.87.85c-.61,10.89-3,14-4.6,24-2.18-.85-5.45-1.22-9.81-1.22Z"/><path class="cls-1" d="M909.28,91.8c0-23.73,11.38-44.07,31.72-44.07,8.11,0,13.56,4.36,15,4.36,1.22,0,2.06-.73,2.79-2.18H963a147.53,147.53,0,0,0,1.69,22.15l-3.63.61c-6.05-10.05-13-20.1-21.31-20.1-10.17,0-14.65,15.13-14.65,39,0,23.13,5.45,40.32,17.44,40.32,7.87,0,11.86-6.66,18.4-21.79h4.24v20.33c-11,6.06-15.5,6.91-22.89,6.91C921.63,137.32,909.28,121.46,909.28,91.8Z"/><path class="cls-1" d="M988.58,131.63c5.44,0,8.83-.85,8.83-4.61V53.78h-2c-5.94,0-11.14.49-17,16.22l-4.12-.48c1.7-7.63,3.27-17.19,3.39-21.67a29,29,0,0,0,5.93,1h43.95a26.58,26.58,0,0,0,7.26-1c-1,4.36-2.54,14.41-3.39,22.28l-4.11-.49c-.12-7.87-1.21-15.86-11.26-15.86h-4.48V127c0,3.76,3.75,4.61,8.71,4.61v4.47c-4.23,0-12.59-.84-16.34-.84-4.24,0-10.53.84-15.37.84Z"/><path class="cls-1" d="M1040.27,131.63c4.47,0,7.26-.61,7.26-5.09V58.38c0-5.93-2.54-6.29-7.26-6.29V47.85c7,0,11.38.73,14.89.73s6.78-.73,13.8-.73v4.24c-5.45,0-7.27.72-7.27,6.29v68.16c0,4.72,1.58,5.09,7.27,5.09v4.47c-7,0-11-1-14.41-1s-7.26,1-14.28,1Z"/><path class="cls-1" d="M1077.43,91.92c0-24.34,12.11-44.43,32.32-44.43,21.8,0,31.36,23.12,31.36,45.88,0,25.18-12.35,43.95-33,43.95C1088.33,137.32,1077.43,117.58,1077.43,91.92Zm34,40c12.83,0,13.8-17.31,13.8-31.36,0-18-2.78-48.18-19-48.18-9.92,0-13,14-13,35.71C1093.29,108,1099.34,131.87,1111.45,131.87Z"/><path class="cls-1" d="M1149.46,131.63c5.08,0,8.59-.25,8.59-5.82V61.17c0-6.66-3.39-8.84-8-8.84a23.79,23.79,0,0,0-2.9.24V48.45a36.09,36.09,0,0,1,4.6-.48c3,0,5.45,1.09,7.75,1.09,1.57,0,7-.24,8.59-1.21l32.81,59.56V60.08c0-6.66-2.3-7.87-10.17-7.87V47.85c4.48,0,9,.73,12.47.73,3.75,0,5.08-.73,10.41-.73v4.36c-5.57,0-7,1.21-7,8.23V136.1h-6.42l-36.31-65.61v55.08c0,5.69,3.51,6.06,10.77,6.06v4.47c-7.39,0-10.41-.84-13.44-.84s-6.66.84-11.74.84Z"/><path class="cls-1" d="M1225.24,136.1c0-13.31-3.51-17.19-3.51-28.81l4.36-.85c4.6,13.56,12.34,25.91,20.58,25.91,3.75,0,9.8-3.15,9.8-13.32,0-22.15-34-27.84-34-49.51,0-15.5,8.84-21.67,20-21.67,5.93,0,11,3,13.68,3,1,0,1.69-.49,1.82-1.94h2.9l1.7,21.79-3.76.36c-6.41-10.89-11.14-18.64-17.07-18.64-4,0-7.5,3.27-7.5,9,0,21.06,34.86,24.21,34.86,51.94,0,14.76-9.56,24-22.88,24-7.62,0-13.19-3.39-14.89-3.39-1.09,0-1.45.72-2.06,2.17Z"/></svg>