<svg xmlns="http://www.w3.org/2000/svg" viewBox="0 0 539.44 70.62"><defs><style>.cls-1,.cls-2{fill:#231f20;}.cls-2{font-size:28.97px;font-family:TrebuchetMS, Trebuchet MS;}</style></defs><title>Asset 1</title><g id="Layer_2" data-name="Layer 2"><g id="Layer_1-2" data-name="Layer 1"><path class="cls-1" d="M17.22,34.19H.06Q.91,29,.91,16.85.91,3.6,0,0H17a83.21,83.21,0,0,0-.24,9.41A11.64,11.64,0,0,1,22.5,8.28q5.7,0,8.76,3Q31.08,5.63,30.42,0H47.58q-.9,2.7-.9,17.21,0,6.18.9,17H30.66a47.69,47.69,0,0,0,.6-8.4q0-4.8,0-9.54-1.8-2.82-6.06-2.82A10.3,10.3,0,0,0,18,15.89L16.74,11Q16.74,32,17.22,34.19Z"/><path class="cls-1" d="M86.06,3.59q2.1,4.56,7.56,14.76,8,13.2,11.22,15.84H85.4q-.3-1.08-2.7-6.84-9.18-.36-18.78,0a78.69,78.69,0,0,0-4,6.84H50.9Q54,29.81,61,18.53q3.84-6.72,8.34-14.94ZM80.42,22.53q-1-2-1.86-3.6-1.5-2.94-5.1-9.05Q71.18,13.78,66,22.54A124.1,124.1,0,0,0,80.42,22.53Z"/><path class="cls-1" d="M138.86,3.59h15.48a111.56,111.56,0,0,0-.82,15.18q0,11.52.82,15.42H138.86l.12-2.4a27.3,27.3,0,0,1-3.9,1.5,42.66,42.66,0,0,1-11.22,1.62A29.85,29.85,0,0,1,112.58,33q-5.76-2.28-5.7-5.76l.35-12a55.81,55.81,0,0,0-.6-11.7h15.6a134.59,134.59,0,0,0-1,15.54q0,3.18.25,5.94.3,4.2,7.38,4.2a40.62,40.62,0,0,0,10.38-1.56q.42-5.94.36-8.94Q139.6,6.23,138.86,3.59Z"/><path class="cls-1" d="M181.14,34.91q-12.24-.18-19.56-4l-2-8.4a60.17,60.17,0,0,0,5.46,3.13,36.17,36.17,0,0,0,11.15,4,44.45,44.45,0,0,0,5.64.42q5.34,0,6.36-2a2.41,2.41,0,0,0,.24-1q0-2-7-3.54-3.72-.72-10.91-2.4-6.36-1.74-8.46-3.6a5.66,5.66,0,0,1-1.68-4.8,7.51,7.51,0,0,1,3.78-5.82q5.34-3.6,17.64-4,11.58-.36,18.42,1.44l1.38,6.89a19.54,19.54,0,0,0-4.08-1.79,48.78,48.78,0,0,0-13.8-1.79,21.17,21.17,0,0,0-5.4.42q-2,.42-1.86,1.38t2.22,1.38l4.92,1q3.78.78,10.32,2.22,6.6,1.68,9.54,3.6,3.54,2.34,3.3,5.94-.36,5.46-7,8.45Q192.9,35.09,181.14,34.91Z"/><path class="cls-1" d="M274.17,28a15.56,15.56,0,0,0-9.78-3.84,13,13,0,0,0-8.4,3.13l-1-5.46q-5.34,9.72-6.6,12.36H238.29q3.48-4.92,11.34-17.51,4.26-7.5,9.3-16.67h18.6q2.4,5.1,8.52,16.43,8.88,14.75,12.54,17.75H276.81A63.49,63.49,0,0,0,274.17,28Zm-18.66-7.19a15.62,15.62,0,0,1,8-2.12,12.94,12.94,0,0,1,7.14,2Q265.17,9.53,263.43,7,261.63,9.89,255.52,20.81Z"/><path class="cls-1" d="M313.77,29.2q3.9.24,6.6.24a58.69,58.69,0,0,0,20.15-3.23l-2.52,8H299.3q1-2.88,1-15.42,0-12.72-1-15.18h14.76q-.66,1.74-.66,7.32.06,3.84.18,7.62Q313.65,23,313.77,29.2Z"/><path class="cls-1" d="M362.2,34.19H346.12q1-9.84,1-15.48t-1-15.12h30.6a16.77,16.77,0,0,1,9.12,2.49q4,2.49,3.72,6.15-.42,7.2-9.84,10.38-4.68,1.56-15.78,2.58l-1-2q6.83-1,10-4A7.25,7.25,0,0,0,375.15,14a6.12,6.12,0,0,0-.36-2.16q-1.74-4.5-10.07-4.5-1.32,0-3.12.12a100.15,100.15,0,0,0-.48,10.38A120.2,120.2,0,0,0,362.2,34.19Z"/><path class="cls-1" d="M410.64,29.39q3.6.24,6.36.24a65.47,65.47,0,0,0,21.24-3.24l-3.54,7.8H395.52a95.51,95.51,0,0,0,1-15.3q0-7.38-.06-8.52a26.52,26.52,0,0,0-1-6.78H433l2.64,6.65q-9.78-2.4-25-2.16a45.89,45.89,0,0,0,.12,5.48q5.64.06,18.84,0l2.1,6.94q-5.94-2.44-16.8-2.44a35.91,35.91,0,0,0-4.14.18A52.14,52.14,0,0,0,410.64,29.39Z"/><path class="cls-1" d="M444.13,3.59H463.5a70.2,70.2,0,0,0,8,10.5,117.26,117.26,0,0,0,9.78,9.72,42.33,42.33,0,0,0,.18-4.26,133.24,133.24,0,0,0-1.19-16h8q-.6,9.72-.48,15.24.06,7.14-.12,16.92a53,53,0,0,1-8.46-1q-9.18-1.8-13-6.18-5.7-6.54-7.32-8.28a91.15,91.15,0,0,0-7.92-7.92q0,1.86.06,6.42a142.25,142.25,0,0,0,1,15.36h-8.58a116.14,116.14,0,0,0,1-15.36Q444.62,13.37,444.13,3.59Z"/><path class="cls-1" d="M496.68,3.59h40V7.31q-8.82,8.58-11.22,11.28-4.86,5.46-9.24,10.8,7.08-.12,8.58-.24a131.52,131.52,0,0,0,14-1.92l-2.76,7h-42.6q6.48-6.3,13.5-14.1,7.5-8.34,9.84-12.06-.54,0-2-.06t-2.46-.06q-6.9,0-18.24,2.7Z"/><text class="cls-2" transform="translate(389.57 63.02)">alpenz.com</text></g></g></svg>