<?xml version="1.0" encoding="utf-8"?>
<!-- Generator: Adobe Illustrator 21.0.0, SVG Export Plug-In . SVG Version: 6.00 Build 0)  -->
<!DOCTYPE svg PUBLIC "-//W3C//DTD SVG 1.1//EN" "http://www.w3.org/Graphics/SVG/1.1/DTD/svg11.dtd">
<svg version="1.1" id="XMLID_2_" xmlns="http://www.w3.org/2000/svg" xmlns:xlink="http://www.w3.org/1999/xlink" x="0px" y="0px"
	 viewBox="0 0 39.7793 163.0655" enable-background="new 0 0 39.7793 163.0655" xml:space="preserve">
<g id="serve-spirits">
	<text transform="matrix(1 0 0 1 0.0002 15.0668)" font-family="'MyriadPro-BoldCond'" font-size="18px">Spirit</text>
	<g>
		<g>
			<g>
				<g>
					<path fill="#2D3538" d="M32.7611,163.0655H6.8637c-0.2539,0-0.4768-0.2093-0.5454-0.512
						c-0.0686-0.3027,0.0343-0.6251,0.2511-0.7888c2.6674-2.01,9.0883-4.0625,10.5897-4.5549
						c0.0476-0.0154,0.0962-0.0233,0.1449-0.0233h5.0174c0.0487,0,0.0974,0.0079,0.145,0.0233
						c0.328,0.1076,8.0666,2.6537,10.5891,4.5553c0.2174,0.1634,0.3197,0.4857,0.2511,0.7884
						C33.2379,162.8562,33.015,163.0655,32.7611,163.0655z M9.4603,161.6626H30.165c-3.0154-1.4299-7.3153-2.8732-7.9177-3.0733
						h-4.8692C15.8378,159.1008,12.6776,160.1369,9.4603,161.6626z"/>
				</g>
				<g>
					<path fill="#2D3538" d="M22.8821,120.7724h-5.9849c-0.4545,0-0.8871-0.2334-1.2178-0.6579
						c-0.7174-0.9181-2.6311-1.9591-3.598-3.0611c-3.9769-4.5305-8.9479-8.7353-8.9479-15.8508
						c0-5.5928,4.3049-8.1701,5.8049-14.5861c0.7752-3.3145,1.2565-11.2598,1.6552-16.3438
						c0.058-0.7398-0.1025-1.5172,0.2269-2.1377c0.3301-0.6227,0.8678-0.9943,1.4387-0.9943h15.2609
						c0.5703,0,1.108,0.3716,1.438,0.9943c0.3294,0.6205,0.2104,1.3958,0.227,2.1377c0.1015,4.5538,0.8799,13.0294,1.6552,16.3438
						c1.5006,6.416,5.8055,8.9933,5.8055,14.5861c0,7.1154-4.9711,11.3203-8.9479,15.8508c-0.9669,1.102-2.8806,2.143-3.5986,3.062
						C23.7679,120.5389,23.336,120.7724,22.8821,120.7724z M12.2592,68.9652c-0.1877,0-0.2915,0.1582-0.3274,0.2263
						c-0.0446,0.0828-0.0391,0.2489-0.0512,0.4798c-0.2273,4.3596-0.6391,13.204-1.6413,17.4899
						c-1.474,6.3043-5.7429,8.7275-5.7429,14.0414c0,6.2722,4.6935,10.1613,8.4681,14.4615
						c0.9828,1.1193,2.9112,2.1768,3.6578,3.1327c0.0772,0.0989,0.1717,0.1511,0.2749,0.1511h5.9849
						c0.1025,0,0.1977-0.0522,0.2749-0.1514c0.7467-0.9555,2.675-2.013,3.6579-3.1323c3.7745-4.3003,8.4681-8.1894,8.4681-14.4615
						c0-5.3139-4.269-7.7371-5.7437-14.0414c-1.0022-4.2859-1.8836-13.9852-1.6412-17.4894c0.016-0.231-0.0067-0.3974-0.0512-0.4807
						c-0.036-0.0677-0.1398-0.2259-0.3268-0.2259H12.2592z"/>
				</g>
				<g>
					<path fill="#2D3538" d="M19.8893,114.0494c-12.5707,0-13.9949-5.9957-14.1133-6.2507c-0.1089-0.2353-0.0548-0.5442,0.1206-0.69
						c0.1747-0.1433,0.4065-0.0744,0.5154,0.1616c0.0264,0.0552,1.3913,5.7769,13.4773,5.7769
						c12.0867,0,13.4516-5.7217,13.4794-5.7794c0.109-0.2314,0.3393-0.3039,0.5154-0.1561c0.174,0.1463,0.2281,0.4526,0.1192,0.687
						C33.8849,108.0537,32.4607,114.0494,19.8893,114.0494z"/>
				</g>
				<g>
					<path fill="#2D3538" d="M20.8747,158.3582h-1.97c-0.7957,0-1.4395-0.4102-1.4395-0.9163l-1-37.4379
						c0-0.506,1.6437-0.9163,2.4395-0.9163h1.97c0.7957,0,2.4395,0.4103,2.4395,0.9163l-1,37.4379
						C22.3141,157.948,21.6704,158.3582,20.8747,158.3582z M18.6612,156.5256h2.3243l1-35.6053h-4.3243L18.6612,156.5256z"/>
				</g>
			</g>
		</g>
		<polygon fill="#231F20" points="9.2871,88.6777 30.6621,88.6777 32.2871,91.9277 34.1621,95.6777 35.2871,98.6777 
			35.7871,103.1777 34.7871,106.5527 32.5371,110.0527 30.2871,111.4277 24.1621,113.3027 19.5371,113.5527 14.9121,113.3027 
			11.1621,112.1777 7.7871,110.4277 5.2871,106.8027 3.9121,103.1777 3.7871,99.8027 5.0371,95.9277 7.7871,91.8027 		"/>
	</g>
</g>
</svg>
