<?xml version="1.0" encoding="utf-8"?>
<!-- Generator: Adobe Illustrator 21.0.0, SVG Export Plug-In . SVG Version: 6.00 Build 0)  -->
<!DOCTYPE svg PUBLIC "-//W3C//DTD SVG 1.1//EN" "http://www.w3.org/Graphics/SVG/1.1/DTD/svg11.dtd">
<svg version="1.1" id="XMLID_1_" xmlns="http://www.w3.org/2000/svg" xmlns:xlink="http://www.w3.org/1999/xlink" x="0px" y="0px"
	 viewBox="0 0 42.1613 86.9929" enable-background="new 0 0 42.1613 86.9929" xml:space="preserve">
<g id="serve-white">
	<g>
		<g>
			<g>
				<path d="M28.9067,53.2923h-4.1304c-0.1672,0-0.3271-0.0754-0.4436-0.2086c-0.1167-0.1325-0.1799-0.3129-0.1754-0.4986
					c0.0475-2.0058-1.0238-3.8272-2.0784-5.3444c-0.1445-0.2073-0.1702-0.4885-0.0662-0.7247
					c0.1043-0.2362,0.3199-0.3856,0.556-0.3856h8.5458c0.2361,0,0.4517,0.1494,0.556,0.3856
					c0.104,0.2362,0.0783,0.5174-0.0662,0.7254c-1.0546,1.5159-2.1263,3.3373-2.0788,5.3438
					c0.0045,0.1857-0.0586,0.3661-0.1754,0.4992C29.2338,53.217,29.0735,53.2923,28.9067,53.2923z M25.3771,51.9143h2.9287
					c0.1237-1.6444,0.7964-3.114,1.5886-4.4059h-6.1057C24.5807,48.801,25.2537,50.2699,25.3771,51.9143z"/>
			</g>
			<g>
				<path d="M28.858,78.4308h-4.0327c-0.1727,0-0.3375-0.0801-0.4548-0.2214c-0.1173-0.1412-0.176-0.3304-0.1627-0.5214
					c0.7776-10.9951,0.7776-14.0357,0-25.0308c-0.0133-0.1911,0.0453-0.3802,0.1627-0.5214
					c0.1173-0.1413,0.2821-0.2214,0.4548-0.2214h4.0327c0.1726,0,0.3374,0.0801,0.4547,0.2214
					c0.1173,0.1412,0.1763,0.3304,0.1627,0.5214c-0.778,10.9951-0.778,14.0357,0,25.0308c0.0136,0.1911-0.0453,0.3802-0.1627,0.5214
					C29.1954,78.3507,29.0306,78.4308,28.858,78.4308z M25.4947,77.0528h2.6938c-0.7151-10.2462-0.7151-13.5142,0-23.7604h-2.6938
					C26.2095,63.5385,26.2095,66.8065,25.4947,77.0528z"/>
			</g>
			<g>
				<path d="M31.1145,47.5084h-8.5461c-0.1479,0-0.2909-0.0585-0.4031-0.1662c-8.3622-7.9753-10.9653-18.78-10.6127-26.2325
					c0.2851-6.0277,2.7648-20.1812,2.87-20.6048C14.497,0.2066,14.7411,0,15.0196,0h23.6438c0.2785,0,0.5225,0.2066,0.5969,0.505
					c0.1052,0.4236,2.5849,14.5771,2.8701,20.6048c0.3525,7.4525-2.2505,18.2572-10.6128,26.2325
					C31.4054,47.4499,31.2624,47.5084,31.1145,47.5084z M22.7988,46.1304h8.0853c7.8846-7.6335,10.344-17.8746,10.0096-24.948
					c-0.2425-5.1248-2.1924-17.6681-2.7044-19.8045H15.4936c-0.5119,2.1363-2.4619,14.6797-2.7044,19.8045
					C12.4549,28.2558,14.9143,38.4969,22.7988,46.1304z"/>
			</g>
			<g>
				<path d="M32.1114,81.8973H21.5716c-0.2543,0-0.4829-0.1729-0.576-0.4367c-0.0934-0.2631-0.0324-0.5632,0.1536-0.7563
					c0.4787-0.4972,0.9029-0.8956,1.2772-1.2474c0.7275-0.6836,1.302-1.2233,1.901-2.1249c0.1167-0.1756,0.3014-0.2793,0.498-0.2793
					h4.0327c0.1965,0,0.3813,0.1036,0.498,0.2793c0.5989,0.9016,1.1735,1.4419,1.901,2.1256
					c0.374,0.3512,0.7982,0.7502,1.2769,1.2467c0.186,0.1931,0.247,0.4933,0.1536,0.7563
					C32.5943,81.7244,32.3657,81.8973,32.1114,81.8973z M23.2155,80.5193h7.252c-0.0033-0.0034-0.0064-0.0061-0.0097-0.0094
					c-0.687-0.6452-1.2893-1.2111-1.9059-2.0791h-3.4207c-0.6168,0.868-1.2189,1.4339-1.9058,2.0791
					C23.2222,80.5133,23.2188,80.516,23.2155,80.5193z"/>
			</g>
			<g>
				<path d="M40.1232,85.631H13.4173c-0.2845,0-0.5322-0.2153-0.6008-0.5228c-0.069-0.3068,0.0593-0.6264,0.3105-0.7744
					c2.1991-1.2993,7.9807-3.6718,8.2259-3.772c0.0684-0.0282,0.1409-0.0424,0.2138-0.0424h10.4075
					c0.0729,0,0.1454,0.0141,0.2138,0.0424c0.2452,0.1003,6.0264,2.4728,8.2256,3.772c0.2513,0.1481,0.3795,0.4676,0.3106,0.7744
					C40.6554,85.4157,40.4077,85.631,40.1232,85.631z M16.2704,84.253h20.9996c-2.2297-1.0382-4.8581-2.1289-5.4069-2.3556H21.6776
					C21.1289,82.1241,18.5004,83.2148,16.2704,84.253z"/>
			</g>
			<g>
				<path d="M26.8415,42.4096c-8.1031,0-10.9169-3.8844-11.0327-4.0493c-0.1049-0.1501-0.0807-0.3654,0.0535-0.4824
					c0.1346-0.1191,0.3293-0.0908,0.4345,0.0579c0.0269,0.0377,2.7733,3.7848,10.5447,3.7848
					c7.7717,0,10.5178-3.7471,10.5447-3.7848c0.105-0.1487,0.2997-0.1769,0.4345-0.0579c0.1343,0.1171,0.1584,0.3324,0.0535,0.4824
					C37.7584,38.5252,34.9449,42.4096,26.8415,42.4096z"/>
			</g>
		</g>
		<polygon points="12.2747,19.6208 41.1906,19.6208 41.1906,24.3256 40.0804,32.2021 38.9175,35.4796 37.3862,37.9358 
			36.2215,39.6029 33.6841,40.8187 30.0365,41.8231 26.7326,42.0874 22.53,41.6645 19.3672,40.9765 16.6824,39.2812 
			14.3892,35.0567 12.8562,29.7704 12.0104,23.7542 		"/>
	</g>
	<text transform="matrix(0 -1 1 0 10.8812 86.9929)" display="none" font-family="'MyriadPro-BoldCond'" font-size="13px">WHITE</text>
</g>
</svg>
