<?xml version="1.0" encoding="utf-8"?>
<!-- Generator: Adobe Illustrator 21.0.0, SVG Export Plug-In . SVG Version: 6.00 Build 0)  -->
<!DOCTYPE svg PUBLIC "-//W3C//DTD SVG 1.1//EN" "http://www.w3.org/Graphics/SVG/1.1/DTD/svg11.dtd">
<svg version="1.1" id="XMLID_2_" xmlns="http://www.w3.org/2000/svg" xmlns:xlink="http://www.w3.org/1999/xlink" x="0px" y="0px"
	 viewBox="0 0 70.0871 163.0655" enable-background="new 0 0 70.0871 163.0655" xml:space="preserve">
<g id="serve-burgundy">
	<text transform="matrix(1 0 0 1 0.5384 15.0668)" font-family="'MyriadPro-BoldCond'" font-size="18px">Burgundy</text>
	<g>
		<g>
			<g>
				<g>
					<path fill="#2D3538" d="M38.7983,116.0208h-7.4439c-0.3013,0-0.5896-0.1163-0.7994-0.322
						c-0.2103-0.2045-0.3242-0.4829-0.3161-0.7696c0.0856-3.0961-1.8451-5.9076-3.7458-8.2496
						c-0.2605-0.3199-0.3068-0.7541-0.1193-1.1186c0.1879-0.3646,0.5765-0.5952,1.0021-0.5952h15.4014
						c0.4255,0,0.8141,0.2306,1.0021,0.5952c0.1875,0.3646,0.1412,0.7987-0.1193,1.1197c-1.9007,2.3399-3.832,5.1515-3.7464,8.2486
						c0.0081,0.2866-0.1057,0.5651-0.3161,0.7706C39.3879,115.9044,39.099,116.0208,38.7983,116.0208z M32.4373,113.8937h5.2782
						c0.2229-2.5383,1.4353-4.8068,2.863-6.8009H29.5747C31.0018,109.088,32.2149,111.3554,32.4373,113.8937z"/>
				</g>
				<g>
					<path fill="#2D3538" d="M38.7106,151.9513h-7.2678c-0.3113,0-0.6082-0.1236-0.8196-0.3417
						c-0.2115-0.218-0.3172-0.51-0.2932-0.8049c1.4015-16.9719,1.4015-18.7925,0-35.7644c-0.024-0.2949,0.0817-0.5869,0.2932-0.8049
						c0.2114-0.2181,0.5083-0.3417,0.8196-0.3417h7.2678c0.3111,0,0.6081,0.1236,0.8195,0.3417
						c0.2115,0.218,0.3177,0.51,0.2932,0.8049c-1.4021,16.9719-1.4021,18.7925,0,35.7644c0.0246,0.2949-0.0817,0.5869-0.2932,0.8049
						C39.3187,151.8277,39.0217,151.9513,38.7106,151.9513z M32.6492,149.8242h4.8548c-1.2888-15.816-1.2888-17.9875,0-33.8035
						h-4.8548C33.9374,131.8367,33.9374,134.0083,32.6492,149.8242z"/>
				</g>
				<g>
					<path fill="#2D3538" d="M42.7773,107.0928h-15.402c-0.2665,0-0.5242-0.0903-0.7264-0.2565
						C11.5783,94.5256-1.1143,81.8214,0.0777,66.344c0.9953-12.9235,9.237-31.1515,9.4266-31.8054
						c0.134-0.4606,0.5739-0.7795,1.0757-0.7795h48.9927c0.5019,0,0.9417,0.3188,1.0757,0.7795
						c0.1896,0.6539,9.0807,20.5085,9.4267,31.8054c0.4439,14.4941-11.5007,28.1816-26.5714,40.4923
						C43.3015,107.0025,43.0438,107.0928,42.7773,107.0928z M27.7906,104.9657h14.5714
						c14.2097-11.783,26.455-24.4155,25.4842-38.5095c-0.8566-12.4364-8.2054-27.2724-9.128-30.57H11.4344
						c-0.9225,3.2976-7.8915,17.5914-9.128,30.57C0.9873,80.3009,13.581,93.1827,27.7906,104.9657z"/>
				</g>
				<g>
					<path fill="#2D3538" d="M44.574,157.3023H25.5788c-0.4584,0-0.8703-0.267-1.0381-0.6741
						c-0.1684-0.4061-0.0584-0.8693,0.2768-1.1674c0.8627-0.7675,1.6272-1.3824,2.3018-1.9255
						c1.3111-1.0553,2.3465-1.8882,3.4261-3.28c0.2103-0.2711,0.5433-0.431,0.8975-0.431h7.2678c0.3541,0,0.6871,0.16,0.8975,0.431
						c1.0794,1.3917,2.1149,2.2258,3.426,3.281c0.6741,0.5421,1.4385,1.158,2.3012,1.9245
						c0.3351,0.2981,0.4452,0.7614,0.2768,1.1674C45.4442,157.0353,45.0322,157.3023,44.574,157.3023z M28.5415,155.1752h13.0697
						c-0.006-0.0052-0.0115-0.0094-0.0174-0.0146c-1.2381-0.996-2.3237-1.8695-3.4348-3.2093h-6.1648
						c-1.1117,1.3398-2.1967,2.2133-3.4347,3.2093C28.5535,155.1659,28.5475,155.17,28.5415,155.1752z"/>
				</g>
				<g>
					<path fill="#2D3538" d="M59.0131,163.0655H10.883c-0.5128,0-0.9591-0.3324-1.0828-0.807
						c-0.1243-0.4736,0.1068-0.9669,0.5596-1.1954c3.9633-2.0055,14.3829-5.6677,14.8249-5.8224
						c0.1232-0.0436,0.254-0.0654,0.3853-0.0654h18.7566c0.1314,0,0.2621,0.0218,0.3853,0.0654
						c0.4419,0.1547,10.861,3.8169,14.8243,5.8224c0.4529,0.2286,0.6839,0.7218,0.5597,1.1954
						C59.9721,162.7331,59.5258,163.0655,59.0131,163.0655z M16.025,160.9384H53.871c-4.0183-1.6025-8.7554-3.2861-9.7444-3.6361
						H25.7699C24.7809,157.6523,20.0439,159.3359,16.025,160.9384z"/>
				</g>
				<g>
					<path fill="#2D3538" d="M35.0763,99.2223c-14.6036,0-20.7383-5.9959-20.947-6.2504c-0.1891-0.2316-0.1455-0.564,0.0964-0.7447
						c0.2425-0.1838,0.5935-0.1402,0.7831,0.0893c0.0484,0.0582,6.0616,5.8422,20.0675,5.8422
						c14.0064,0,20.019-5.784,20.0675-5.8422c0.1892-0.2295,0.54-0.2731,0.7831-0.0893c0.242,0.1807,0.2855,0.5131,0.0964,0.7447
						C55.8147,93.2264,49.6805,99.2223,35.0763,99.2223z"/>
				</g>
			</g>
		</g>
		<polygon fill="#2D3538" points="1.2699,67.6238 69.0325,67.6238 67.8832,75.0777 65.3733,81.3118 61.8497,86.8683 
			58.1905,91.2226 55.2549,93.6504 52.677,94.0675 46.9419,96.9928 38.8404,99.0826 31.3179,99.0826 22.9539,96.9928 
			17.0111,95.0687 11.4343,91.2226 4.1159,80.6963 1.2699,72.6382 		"/>
	</g>
</g>
</svg>
