<?xml version="1.0" encoding="utf-8"?>
<!-- Generator: Adobe Illustrator 21.0.0, SVG Export Plug-In . SVG Version: 6.00 Build 0)  -->
<!DOCTYPE svg PUBLIC "-//W3C//DTD SVG 1.1//EN" "http://www.w3.org/Graphics/SVG/1.1/DTD/svg11.dtd">
<svg version="1.1" id="XMLID_2_" xmlns="http://www.w3.org/2000/svg" xmlns:xlink="http://www.w3.org/1999/xlink" x="0px" y="0px"
	 viewBox="0 0 44.4696 163.0655" enable-background="new 0 0 44.4696 163.0655" xml:space="preserve">
<g id="serve-white">
	<g>
		<g>
			<g>
				<path fill="#2D3538" d="M25.2321,116.13h-5.9947c-0.2427,0-0.4748-0.1094-0.6438-0.3028
					c-0.1693-0.1923-0.2611-0.4541-0.2545-0.7236c0.0689-2.9111-1.4859-5.5547-3.0166-7.7568
					c-0.2098-0.3008-0.2471-0.709-0.0961-1.0518c0.1514-0.3428,0.4643-0.5596,0.807-0.5596h12.4032
					c0.3427,0,0.6556,0.2168,0.807,0.5596c0.151,0.3428,0.1137,0.751-0.0961,1.0528c-1.5307,2.2001-3.086,4.8437-3.0171,7.7558
					c0.0066,0.2695-0.0851,0.5313-0.2545,0.7246C25.707,116.0206,25.4744,116.13,25.2321,116.13z M20.1095,114.13h4.2507
					c0.1795-2.3867,1.1559-4.5196,2.3057-6.3946h-8.8617C18.9535,109.6114,19.9304,111.7433,20.1095,114.13z"/>
			</g>
			<g>
				<path fill="#2D3538" d="M25.1615,152.6153h-5.8529c-0.2507,0-0.4898-0.1162-0.66-0.3213
					c-0.1703-0.205-0.2554-0.4795-0.2361-0.7568c1.1287-15.958,1.1287-20.3711,0-36.3291
					c-0.0193-0.2773,0.0658-0.5518,0.2361-0.7568c0.1702-0.2051,0.4094-0.3213,0.66-0.3213h5.8529
					c0.2506,0,0.4897,0.1162,0.66,0.3213c0.1703,0.205,0.2559,0.4795,0.2361,0.7568c-1.1291,15.958-1.1291,20.3711,0,36.3291
					c0.0198,0.2773-0.0658,0.5518-0.2361,0.7568C25.6512,152.4991,25.4121,152.6153,25.1615,152.6153z M20.2802,150.6153h3.9097
					c-1.0379-14.8711-1.0379-19.6142,0-34.4853h-3.9097C21.3176,131.0011,21.3176,135.7442,20.2802,150.6153z"/>
			</g>
			<g>
				<path fill="#2D3538" d="M28.4366,107.7354H16.033c-0.2146,0-0.4221-0.0849-0.585-0.2412
					C3.3112,95.919-0.4668,80.2374,0.045,69.421c0.4138-8.7485,4.0128-29.2905,4.1655-29.9053
					c0.1079-0.4331,0.4621-0.7329,0.8663-0.7329h34.3161c0.4042,0,0.7584,0.2998,0.8663,0.7329
					c0.1527,0.6148,3.7517,21.1568,4.1656,29.9053c0.5117,10.8164-3.2664,26.498-15.4031,38.0732
					C28.8587,107.6505,28.6512,107.7354,28.4366,107.7354z M16.3674,105.7354h11.7347
					c11.4435-11.0791,15.013-25.9428,14.5276-36.2089c-0.352-7.438-3.1821-25.6431-3.9251-28.7437H5.7648
					c-0.7429,3.1006-3.5731,21.3057-3.9251,28.7437C1.3545,79.7926,4.9241,94.6563,16.3674,105.7354z"/>
			</g>
			<g>
				<path fill="#2D3538" d="M29.8835,157.6466H14.5862c-0.3691,0-0.7009-0.251-0.836-0.6338
					c-0.1356-0.3818-0.047-0.8174,0.2229-1.0977c0.6947-0.7216,1.3104-1.2998,1.8537-1.8105
					c1.0559-0.9922,1.8897-1.7754,2.7591-3.084c0.1693-0.2549,0.4375-0.4053,0.7228-0.4053h5.8529
					c0.2852,0,0.5534,0.1504,0.7228,0.4053c0.8693,1.3086,1.7031,2.0928,2.759,3.085c0.5429,0.5097,1.1585,1.0888,1.8532,1.8095
					c0.2699,0.2803,0.3585,0.7159,0.2229,1.0977C30.5843,157.3956,30.2525,157.6466,29.8835,157.6466z M16.9721,155.6466h10.5254
					c-0.0049-0.0049-0.0093-0.0088-0.014-0.0137c-0.9971-0.9365-1.8713-1.7578-2.7661-3.0176h-4.9647
					c-0.8953,1.2598-1.769,2.0811-2.766,3.0176C16.9818,155.6378,16.977,155.6417,16.9721,155.6466z"/>
			</g>
			<g>
				<path fill="#2D3538" d="M41.5116,163.0655H2.7513c-0.413,0-0.7724-0.3125-0.872-0.7588
					c-0.1001-0.4453,0.086-0.9091,0.4506-1.124c3.1918-1.8857,11.5829-5.3291,11.9388-5.4746
					c0.0992-0.041,0.2046-0.0615,0.3103-0.0615h15.1052c0.1058,0,0.211,0.0205,0.3103,0.0615
					c0.3559,0.1455,8.7466,3.5889,11.9384,5.4746c0.3647,0.2149,0.5508,0.6787,0.4507,1.124
					C42.2839,162.753,41.9245,163.0655,41.5116,163.0655z M6.8922,161.0655h30.4784c-3.2361-1.5068-7.0509-3.0898-7.8474-3.4189
					H14.7401C13.9436,157.9757,10.1288,159.5587,6.8922,161.0655z"/>
			</g>
			<g>
				<path fill="#2D3538" d="M22.2348,100.3351c-11.7606,0-15.8446-5.6377-16.0127-5.877c-0.1522-0.2178-0.1172-0.5303,0.0777-0.7002
					c0.1953-0.1728,0.478-0.1318,0.6307,0.084c0.039,0.0547,4.0251,5.4932,15.3043,5.4932c11.2797,0,15.2653-5.4385,15.3043-5.4932
					c0.1523-0.2158,0.4349-0.2568,0.6307-0.084c0.1949,0.1699,0.2299,0.4824,0.0777,0.7002
					C38.0794,94.6974,33.9959,100.3351,22.2348,100.3351z"/>
			</g>
		</g>
		<polygon fill="#2D3538" points="1.0929,67.2599 43.0607,67.2599 43.0607,74.0883 41.4495,85.5201 39.7616,90.277 37.5391,93.8419 
			35.8487,96.2615 32.166,98.0261 26.872,99.4838 22.0768,99.8675 15.9773,99.2537 11.3869,98.2551 7.4901,95.7946 4.1619,89.6632 
			1.9369,81.9909 0.7093,73.2591 		"/>
	</g>
	<text transform="matrix(1 0 0 1 2.1747 15.0668)" font-family="'MyriadPro-BoldCond'" font-size="18px">White</text>
</g>
</svg>
