<?xml version="1.0" encoding="utf-8"?>
<!-- Generator: Adobe Illustrator 21.0.0, SVG Export Plug-In . SVG Version: 6.00 Build 0)  -->
<!DOCTYPE svg PUBLIC "-//W3C//DTD SVG 1.1//EN" "http://www.w3.org/Graphics/SVG/1.1/DTD/svg11.dtd">
<svg version="1.1" id="XMLID_2_" xmlns="http://www.w3.org/2000/svg" xmlns:xlink="http://www.w3.org/1999/xlink" x="0px" y="0px"
	 viewBox="0 0 54.1655 90.4542" enable-background="new 0 0 54.1655 90.4542" xml:space="preserve">
<g id="serve-burgundy">
	<text transform="matrix(0 -1 1 0 10.8812 90.4542)" display="none" font-family="'MyriadPro-BoldCond'" font-size="13px">BURGUNDY</text>
	<g>
		<g>
			<g>
				<g>
					<path d="M32.6075,56.6784h-5.1288c-0.2076,0-0.4062-0.0802-0.5508-0.2219c-0.1449-0.1409-0.2234-0.3328-0.2178-0.5302
						c0.059-2.1332-1.2713-4.0704-2.5809-5.684c-0.1795-0.2204-0.2114-0.5195-0.0822-0.7707
						c0.1295-0.2512,0.3972-0.4101,0.6904-0.4101h10.6116c0.2932,0,0.5609,0.1589,0.6904,0.4101
						c0.1292,0.2512,0.0973,0.5503-0.0822,0.7715c-1.3096,1.6122-2.6402,3.5494-2.5813,5.6833
						c0.0056,0.1975-0.0728,0.3893-0.2178,0.531C33.0137,56.5982,32.8147,56.6784,32.6075,56.6784z M28.2248,55.2128h3.6367
						c0.1536-1.7489,0.9889-3.3119,1.9726-4.6858h-7.5817C27.2358,51.9017,28.0715,53.4639,28.2248,55.2128z"/>
				</g>
				<g>
					<path d="M32.5471,81.4346h-5.0075c-0.2145,0-0.4191-0.0851-0.5647-0.2354c-0.1457-0.1502-0.2185-0.3514-0.202-0.5546
						c0.9656-11.6937,0.9656-12.9481,0-24.6417c-0.0165-0.2032,0.0563-0.4043,0.202-0.5546
						c0.1456-0.1503,0.3503-0.2354,0.5647-0.2354h5.0075c0.2144,0,0.419,0.0851,0.5646,0.2354
						c0.1457,0.1502,0.2189,0.3514,0.202,0.5546c-0.966,11.6937-0.966,12.9481,0,24.6417c0.0169,0.2032-0.0563,0.4044-0.202,0.5546
						C32.9661,81.3494,32.7614,81.4346,32.5471,81.4346z M28.3708,79.969h3.345c-0.888-10.8972-0.888-12.3934,0-23.2906h-3.345
						C29.2584,67.5756,29.2584,69.0718,28.3708,79.969z"/>
				</g>
				<g>
					<path d="M35.3491,50.527h-10.612c-0.1836,0-0.3612-0.0622-0.5005-0.1767C13.8529,41.8682,5.1077,33.115,5.929,22.451
						c0.6857-8.9043,6.3643-21.4635,6.4949-21.914C12.5162,0.2197,12.8193,0,13.1651,0h33.756c0.3458,0,0.6488,0.2197,0.7412,0.5371
						c0.1306,0.4505,6.2566,14.1304,6.495,21.914c0.3059,9.9865-7.924,19.4172-18.3077,27.8992
						C35.7102,50.4648,35.5327,50.527,35.3491,50.527z M25.0232,49.0614H35.063c9.7905-8.1185,18.2275-16.8223,17.5587-26.5331
						c-0.5902-8.5687-5.6536-18.7907-6.2892-21.0628H13.7538c-0.6356,2.2721-5.4373,12.1205-6.2892,21.0628
						C6.5557,32.0673,15.2328,40.9429,25.0232,49.0614z"/>
				</g>
				<g>
					<path d="M36.587,85.1214H23.4992c-0.3158,0-0.5996-0.1839-0.7153-0.4644c-0.116-0.2798-0.0402-0.599,0.1907-0.8044
						c0.5944-0.5288,1.1211-0.9525,1.5859-1.3267c0.9034-0.7271,1.6168-1.301,2.3606-2.2599
						c0.1449-0.1868,0.3743-0.297,0.6184-0.297h5.0075c0.244,0,0.4734,0.1102,0.6184,0.297
						c0.7437,0.9589,1.4571,1.5336,2.3605,2.2606c0.4644,0.3735,0.9912,0.7978,1.5856,1.326
						c0.2309,0.2054,0.3067,0.5246,0.1907,0.8044C37.1865,84.9375,36.9027,85.1214,36.587,85.1214z M25.5406,83.6558h9.0051
						c-0.0042-0.0036-0.0079-0.0064-0.012-0.01c-0.8531-0.6862-1.601-1.2881-2.3666-2.2112h-4.2475
						c-0.7659,0.9232-1.5135,1.525-2.3665,2.2112C25.5489,83.6494,25.5447,83.6523,25.5406,83.6558z"/>
				</g>
				<g>
					<path d="M46.5355,89.0923H13.3738c-0.3533,0-0.6608-0.229-0.746-0.556c-0.0857-0.3263,0.0736-0.6662,0.3855-0.8236
						c2.7307-1.3818,9.9099-3.9051,10.2144-4.0117c0.0849-0.03,0.175-0.0451,0.2654-0.0451h12.9233
						c0.0905,0,0.1806,0.015,0.2654,0.0451c0.3045,0.1066,7.4832,2.6299,10.214,4.0117c0.312,0.1575,0.4712,0.4973,0.3856,0.8236
						C47.1963,88.8633,46.8888,89.0923,46.5355,89.0923z M16.9167,87.6267h26.076c-2.7686-1.1042-6.0325-2.2641-6.7139-2.5053
						H23.631C22.9495,85.3626,19.6857,86.5225,16.9167,87.6267z"/>
				</g>
				<g>
					<path d="M30.0431,45.1042c-10.0619,0-14.2887-4.1312-14.4325-4.3065c-0.1303-0.1596-0.1003-0.3886,0.0664-0.5131
						c0.1671-0.1266,0.4089-0.0966,0.5396,0.0616c0.0334,0.0401,4.1765,4.0253,13.8265,4.0253
						c9.6504,0,13.7932-3.9852,13.8265-4.0253c0.1303-0.1581,0.3721-0.1882,0.5396-0.0616
						c0.1667,0.1245,0.1967,0.3535,0.0664,0.5131C44.3318,40.973,40.1054,45.1042,30.0431,45.1042z"/>
				</g>
			</g>
		</g>
		<polygon points="6.7504,23.3328 53.4389,23.3328 52.6471,28.4685 50.9177,32.7638 48.4899,36.5923 45.9688,39.5924 
			43.9462,41.2652 42.1699,41.5525 38.2185,43.568 32.6365,45.0079 27.4535,45.0079 21.6907,43.568 17.5961,42.2423 
			13.7537,39.5924 8.7113,32.3398 6.7504,26.7877 		"/>
	</g>
</g>
</svg>
