<?xml version="1.0" encoding="utf-8"?>
<!-- Generator: Adobe Illustrator 21.0.0, SVG Export Plug-In . SVG Version: 6.00 Build 0)  -->
<!DOCTYPE svg PUBLIC "-//W3C//DTD SVG 1.1//EN" "http://www.w3.org/Graphics/SVG/1.1/DTD/svg11.dtd">
<svg version="1.1" id="XMLID_1_" xmlns="http://www.w3.org/2000/svg" xmlns:xlink="http://www.w3.org/1999/xlink" x="0px" y="0px"
	 viewBox="0 0 49.4925 91.127" enable-background="new 0 0 49.4925 91.127" xml:space="preserve">
<g id="serve-bordeaux">
	<g>
		<g>
			<g>
				<path fill="#2D3538" d="M31.9631,57.4263h-4.8224c-0.1952,0-0.382-0.0754-0.5179-0.2086
					c-0.1362-0.1325-0.21-0.3129-0.2048-0.4986c0.0555-2.0058-1.1953-3.8272-2.4267-5.3444
					c-0.1687-0.2073-0.1988-0.4885-0.0773-0.7247c0.1218-0.2362,0.3735-0.3856,0.6492-0.3856h9.9777
					c0.2757,0,0.5274,0.1494,0.6492,0.3856c0.1215,0.2362,0.0915,0.5174-0.0773,0.7254c-1.2314,1.5159-2.4825,3.3373-2.4271,5.3438
					c0.0053,0.1857-0.0685,0.3661-0.2048,0.4993C32.345,57.351,32.1579,57.4263,31.9631,57.4263z M27.8422,56.0483h3.4194
					c0.1444-1.6444,0.9299-3.114,1.8548-4.4059h-7.1287C26.9122,52.935,27.6981,54.4039,27.8422,56.0483z"/>
			</g>
			<g>
				<path fill="#2D3538" d="M31.9062,82.5648h-4.7083c-0.2016,0-0.394-0.0801-0.531-0.2214
					c-0.137-0.1413-0.2055-0.3304-0.1899-0.5214c0.9079-10.9951,0.9079-14.0357,0-25.0308
					c-0.0155-0.1911,0.0529-0.3802,0.1899-0.5214c0.1369-0.1413,0.3293-0.2214,0.531-0.2214h4.7083
					c0.2016,0,0.394,0.0801,0.5309,0.2214c0.137,0.1412,0.2058,0.3304,0.1899,0.5214c-0.9083,10.9951-0.9083,14.0357,0,25.0308
					c0.0159,0.1911-0.0529,0.3802-0.1899,0.5214C32.3002,82.4847,32.1078,82.5648,31.9062,82.5648z M27.9795,81.1868h3.1451
					c-0.8349-10.2462-0.8349-13.5142,0-23.7604h-3.1451C28.814,67.6726,28.814,70.9406,27.9795,81.1868z"/>
			</g>
			<g>
				<path fill="#2D3538" d="M34.5409,51.6425h-9.978c-0.1727,0-0.3396-0.0585-0.4706-0.1662
					c-9.7634-7.9753-14.8696-18.78-14.4579-26.2325C9.9672,19.216,12.8624,0.9286,12.9852,0.505C13.0721,0.2066,13.357,0,13.6821,0
					h31.7394c0.3251,0,0.6101,0.2066,0.6969,0.505c0.1228,0.4236,3.018,18.7111,3.351,24.7388
					c0.4116,7.4525-4.6946,18.2572-14.458,26.2325C34.8805,51.584,34.7135,51.6425,34.5409,51.6425z M24.8319,50.2645h9.44
					c9.2056-7.6335,14.1441-17.8746,13.7537-24.948C47.7424,20.1917,45.4657,3.5143,44.868,1.378H14.2357
					c-0.5976,2.1363-2.8744,18.8137-3.1575,23.9385C10.6878,32.3898,15.6263,42.6309,24.8319,50.2645z"/>
			</g>
			<g>
				<path fill="#2D3538" d="M35.7048,86.0313H23.399c-0.2969,0-0.5638-0.1729-0.6725-0.4367
					c-0.1091-0.2631-0.0378-0.5632,0.1793-0.7563c0.5589-0.4972,1.0541-0.8956,1.4912-1.2474
					c0.8494-0.6836,1.5202-1.2233,2.2195-2.1249c0.1362-0.1756,0.352-0.2793,0.5814-0.2793h4.7083
					c0.2294,0,0.4451,0.1036,0.5814,0.2793c0.6993,0.9016,1.3701,1.4419,2.2195,2.1256c0.4367,0.3512,0.9319,0.7502,1.4908,1.2467
					c0.2171,0.1931,0.2884,0.4933,0.1793,0.7563C36.2686,85.8584,36.0017,86.0313,35.7048,86.0313z M25.3183,84.6533h8.4671
					c-0.0039-0.0034-0.0074-0.0061-0.0113-0.0094c-0.8021-0.6452-1.5054-1.2111-2.2252-2.0791h-3.9938
					c-0.7202,0.868-1.4231,1.4339-2.2251,2.0791C25.3261,84.6473,25.3222,84.65,25.3183,84.6533z"/>
			</g>
			<g>
				<path fill="#2D3538" d="M45.059,89.765H13.8785c-0.3322,0-0.6213-0.2153-0.7015-0.5228
					c-0.0805-0.3068,0.0692-0.6264,0.3625-0.7744c2.5676-1.2993,9.3178-3.6718,9.6042-3.772
					c0.0798-0.0283,0.1646-0.0424,0.2496-0.0424h12.1513c0.0851,0,0.1698,0.0141,0.2496,0.0424
					c0.2863,0.1003,7.0362,2.4728,9.6038,3.772c0.2934,0.1481,0.4431,0.4676,0.3626,0.7744
					C45.6803,89.5497,45.3912,89.765,45.059,89.765z M17.2096,88.387h24.5182c-2.6032-1.0382-5.6721-2.1289-6.3128-2.3556H23.5228
					C22.8821,86.2581,19.8132,87.3488,17.2096,88.387z"/>
			</g>
			<g>
				<path fill="#2D3538" d="M29.5519,46.5436c-9.4608,0-12.7461-3.8844-12.8813-4.0493c-0.1225-0.1501-0.0943-0.3654,0.0625-0.4824
					c0.1571-0.1191,0.3845-0.0908,0.5073,0.0579c0.0314,0.0377,3.238,3.7848,12.3115,3.7848c9.0739,0,12.2801-3.7471,12.3115-3.7848
					c0.1225-0.1487,0.3499-0.1769,0.5073-0.0579c0.1567,0.1171,0.1849,0.3324,0.0625,0.4824
					C42.298,42.6593,39.013,46.5436,29.5519,46.5436z"/>
			</g>
		</g>
		<polygon fill="#2D3538" points="10.9064,19.8035 48.2573,19.8035 48.7241,23.7548 48.7241,28.581 46.6698,35.4909 
			44.8957,39.0392 42.4332,42.4944 40.4011,44.0889 36.4278,45.3888 31.4494,46.2214 28.2746,46.2214 23.8401,45.7769 
			20.1605,44.8334 17.4428,42.7743 15.2951,40.8785 11.9336,33.9968 10.4395,27.8882 		"/>
	</g>
	<text transform="matrix(6.123234e-17 -1 1 6.123234e-17 10.8812 91.127)" font-family="'MyriadPro-BoldCond'" font-size="13px">BORDEAUX</text>
</g>
</svg>
