<?xml version="1.0" encoding="utf-8"?>
<!-- Generator: Adobe Illustrator 21.0.0, SVG Export Plug-In . SVG Version: 6.00 Build 0)  -->
<!DOCTYPE svg PUBLIC "-//W3C//DTD SVG 1.1//EN" "http://www.w3.org/Graphics/SVG/1.1/DTD/svg11.dtd">
<svg version="1.1" id="XMLID_1_" xmlns="http://www.w3.org/2000/svg" xmlns:xlink="http://www.w3.org/1999/xlink" x="0px" y="0px"
	 viewBox="0 0 68.2534 61.7385" enable-background="new 0 0 68.2534 61.7385" xml:space="preserve">
<g id="serve-mixed">
	<g>
		<polygon points="3.9425,7.3569 36.9335,7.3569 26.5441,22.9714 24.2353,25.2194 22.7164,26.0399 20.401,26.0399 18.3419,26.0399 
			16.3714,25.5353 14.575,24.3688 		"/>
		<g>
			<g>
				<path d="M21.9967,56.0845h-3.1913c-0.3929,0-0.712-0.3181-0.7127-0.7112l-0.055-25.4948
					c-1.0029-0.2134-2.2212-0.8627-2.2619-2.3597c-0.53-1.5176-9.8489-15.5401-15.6529-24.1026
					C-0.0253,3.198-0.0406,2.9154,0.0833,2.6826C0.2068,2.4495,0.449,2.3036,0.7128,2.3036h39.3765
					c0.2638,0,0.506,0.1458,0.6295,0.3789c0.1239,0.2328,0.1085,0.5154-0.0397,0.7335c-5.804,8.5625-15.1229,22.585-15.6529,24.1026
					c-0.0408,1.497-1.259,2.1463-2.2619,2.3597l-0.0549,25.4948C22.7087,55.7664,22.3896,56.0845,21.9967,56.0845z M19.5166,54.6592
					h1.7688l0.0549-25.41c0.0007-0.3863,0.309-0.7015,0.6949-0.7109c0.0609-0.0021,1.5666-0.0647,1.5666-1.0972
					c0-1.0951,8.06-13.2452,15.1439-23.7121H2.0563c7.0839,10.4669,15.1438,22.617,15.1438,23.7121
					c0,1.0325,1.5057,1.0952,1.5698,1.0972c0.3835,0.0128,0.6911,0.3271,0.6918,0.7109L19.5166,54.6592z"/>
			</g>
			<g>
				<path d="M23.9649,58.0917c-0.0048-0.0006-0.0098-0.0004-0.0143,0h-7.0992c-0.2864,0-0.5453-0.1715-0.6567-0.4357
					c-0.1114-0.2638-0.0539-0.5689,0.1462-0.7742l1.9539-2.0072c0.1339-0.1378,0.3181-0.2154,0.5105-0.2154h3.1913
					c0.1924,0,0.3765,0.0776,0.5105,0.2154l1.877,1.9281c0.1778,0.1295,0.2933,0.3393,0.2933,0.5763
					C24.6775,57.7726,24.3585,58.0917,23.9649,58.0917z M18.5398,56.6663h3.7224l-0.5662-0.5818h-2.59L18.5398,56.6663z"/>
			</g>
			<g>
				<path d="M33.5699,61.7385H7.3028c-0.3316,0-0.6194-0.229-0.6942-0.5519c-0.0748-0.3233,0.0832-0.6552,0.3811-0.801
					c2.0948-1.0245,9.3537-3.5713,9.6617-3.6792c0.0755-0.0264,0.1552-0.0401,0.2356-0.0401h7.0988
					c0.0804,0,0.1601,0.0136,0.2356,0.0401c0.3079,0.1079,7.5665,2.6548,9.6617,3.6792c0.2979,0.1458,0.4559,0.4778,0.3811,0.801
					C34.1893,61.5095,33.9015,61.7385,33.5699,61.7385z M10.916,60.3132h19.0408c-2.5232-0.9607-5.4796-2.0057-6.0928-2.2215
					h-6.8556C16.3956,58.3074,13.4392,59.3524,10.916,60.3132z"/>
			</g>
			<g>
				<path d="M20.4012,26.465c-1.2594,0-2.5187-0.1587-3.2867-0.4753c-1.5126-0.6243-4.4482-4.3557-4.5725-4.514
					c-0.1214-0.1551-0.0943-0.3789,0.0606-0.5004c0.1551-0.1218,0.3793-0.0936,0.5004,0.0605
					c0.8143,1.0391,3.1712,3.8362,4.2833,4.2948c1.3808,0.57,4.649,0.57,6.0291,0c1.1125-0.4586,3.4694-3.2557,4.2837-4.2948
					c0.1218-0.1542,0.3451-0.1823,0.5004-0.0605c0.1549,0.1214,0.182,0.3452,0.0606,0.5004
					c-0.1242,0.1584-3.0598,3.8897-4.5728,4.514C22.9199,26.3063,21.6602,26.465,20.4012,26.465z"/>
			</g>
		</g>
	</g>
	<g>
		<polygon points="35.1705,14.1172 67.4668,14.1172 65.085,47.6919 64.3539,50.5825 63.5201,51.9275 56.7118,52.8059 
			50.1791,52.8059 45.3498,52.8059 39.5064,51.9275 38.2279,50.9716 37.3004,48.081 		"/>
		<path fill="#FFFFFF" stroke="#231F20" stroke-miterlimit="10" d="M51.54,39.0158c-0.916-0.5808-2.0203-0.869-3.1093-0.8115
			c-1.1922,0.063-2.3458,0.5257-3.5393,0.503c-1.7779-0.0339-3.623-1.1251-5.2307-0.3731c-0.5123,0.6612-1.0523,1.4973-0.7288,2.264
			c0.1101,0.2608,0.3123,0.4782,0.4067,0.7449c0.219,0.6183-0.1882,1.2623-0.3517,1.8979c-0.1544,0.6002-0.0882,1.2309-0.0209,1.846
			c0.0991,0.9069,0.1983,1.8139,0.2974,2.7208c0.1217,1.1138,0.3038,2.3435,1.1775,3.0591
			c1.5051,1.2326,3.8783,0.1081,5.7059,0.8001c0.2979,0.1128,0.5929,0.2765,0.9118,0.2594
			c0.4824-0.0258,0.8367-0.4467,1.2768-0.6441c0.5849-0.2623,1.2695-0.1106,1.9022-0.2201
			c1.4384-0.2488,2.2907-1.7814,2.4701-3.2091c0.1793-1.4276-0.0962-2.8851,0.1203-4.3078
			c0.0987-0.6484,0.2992-1.2872,0.2909-1.9425c-0.0139-1.102-0.6705-2.1727-1.6536-2.6966"/>
		<path fill="#FFFFFF" stroke="#231F20" stroke-miterlimit="10" d="M55.8357,25.7954c-1.0067,0.4037-1.8861,1.1312-2.4759,2.0484
			c-0.6458,1.0041-0.9447,2.2106-1.6608,3.1656c-1.0667,1.4227-3.0307,2.2819-3.3602,4.026
			c0.237,0.8022,0.5997,1.7291,1.4109,1.9147c0.276,0.0631,0.5705,0.0261,0.8421,0.1054c0.6297,0.1837,0.9142,0.8906,1.3343,1.3947
			c0.3967,0.4761,0.9472,0.791,1.4856,1.0961c0.7938,0.4497,1.5876,0.8994,2.3815,1.3491c0.9748,0.5523,2.0791,1.1234,3.1703,0.8327
			c1.8799-0.5007,2.3547-3.0835,3.9844-4.1619c0.2657-0.1758,0.5709-0.3194,0.7435-0.5882c0.261-0.4065,0.1266-0.94,0.2238-1.4124
			c0.1291-0.6279,0.6523-1.0947,0.9333-1.6721c0.6389-1.3125-0.1064-2.9-1.1599-3.8799c-1.0535-0.98-2.3971-1.6084-3.4249-2.6157
			c-0.4684-0.4591-0.8695-0.9951-1.4061-1.3715c-0.9023-0.6329-2.1548-0.726-3.1545-0.2346"/>
		<path fill="#FFFFFF" stroke="#231F20" stroke-miterlimit="10" d="M37.3649,22.9512c0.0273,1.0843,0.4026,2.1621,1.0565,3.0348
			c0.7159,0.9554,1.7424,1.6562,2.3878,2.6604c0.9614,1.4959,1.0819,3.6361,2.6015,4.5532
			c0.8345,0.0576,1.8297,0.0409,2.2865-0.6547c0.1554-0.2366,0.2234-0.5256,0.3925-0.7525
			c0.3918-0.5261,1.1535-0.5463,1.7725-0.7642c0.5846-0.2058,1.0717-0.6119,1.5453-1.0101
			c0.6983-0.5872,1.3966-1.1743,2.0949-1.7615c0.8575-0.7211,1.7778-1.5568,1.886-2.681c0.1863-1.9365-2.0689-3.2821-2.5113-5.1856
			c-0.0721-0.3103-0.1003-0.6464-0.292-0.9019c-0.29-0.3864-0.8369-0.4465-1.2457-0.7022
			c-0.5435-0.3399-0.7985-0.9931-1.2416-1.4578c-1.0073-1.0565-2.755-0.9115-4.0409-0.2659
			c-1.2858,0.6457-2.3434,1.6858-3.6458,2.2978c-0.5936,0.2789-1.2359,0.4679-1.7757,0.8396
			c-0.9078,0.6249-1.4319,1.7664-1.3199,2.8747"/>
		<path fill="#FFFFFF" stroke="#231F20" stroke-miterlimit="10" d="M63.27,21.0336c0.7149-0.8157,1.1696-1.8625,1.2803-2.9474
			c0.1212-1.1877-0.1585-2.3987,0.0477-3.5745c0.3071-1.7515,1.6692-3.4067,1.1736-5.111c-0.5745-0.608-1.3175-1.2702-2.1248-1.0685
			c-0.2747,0.0686-0.5205,0.235-0.7986,0.2872c-0.6446,0.1212-1.2183-0.3802-1.8211-0.6396
			c-0.5693-0.2449-1.2027-0.2765-1.8208-0.3048c-0.9114-0.0416-1.8228-0.0832-2.7342-0.1248
			c-1.1192-0.0511-2.3624-0.0604-3.2038,0.6928c-1.4496,1.2975-0.7036,3.8154-1.6686,5.5148
			c-0.1573,0.277-0.3644,0.5433-0.3966,0.8611c-0.0487,0.4807,0.3126,0.8955,0.4399,1.3607
			c0.1692,0.6183-0.086,1.2714-0.0752,1.9134c0.0245,1.4595,1.4077,2.5376,2.7907,2.9345c1.383,0.3969,2.8656,0.3489,4.238,0.7818
			c0.6255,0.1973,1.2258,0.4937,1.8746,0.5864c1.091,0.1558,2.25-0.3281,2.919-1.2189"/>
		<polygon opacity="0.5" points="35.1705,14.1172 67.4668,14.1172 65.085,47.6919 64.3539,50.5825 63.5201,51.9275 56.7118,52.8059 
			50.1791,52.8059 45.3498,52.8059 39.5064,51.9275 38.2279,50.9716 37.3004,48.081 		"/>
		<g>
			<g>
				<path d="M64.7865,55.5627H37.7693c-0.4165,0-0.7622-0.3224-0.7916-0.7378c-0.1945-2.7572-0.3987-5.5323-0.6036-8.3198
					c-1.1097-15.0936-2.257-30.7001-2.047-45.7223C34.3331,0.3488,34.6865,0,35.1205,0h32.3144c0.434,0,0.7874,0.3488,0.7935,0.7827
					c0.21,15.0199-0.9369,30.6234-2.0462,45.7139c-0.205,2.7898-0.4095,5.568-0.6041,8.3283
					C65.5486,55.2402,65.203,55.5627,64.7865,55.5627z M38.5085,53.9756h25.5386c0.179-2.5185,0.365-5.0518,0.5521-7.5952
					c1.0876-14.7937,2.2114-30.0825,2.0517-44.7933H35.9044c-0.1597,14.7131,0.9644,30.0051,2.0524,44.801
					C38.1436,48.9291,38.3299,51.4593,38.5085,53.9756z"/>
			</g>
			<g>
				<path d="M64.7966,61.5661H37.7592c-0.4382,0-0.7935-0.3549-0.7935-0.7935v-6.0035c0-0.4386,0.3554-0.7935,0.7935-0.7935h27.0374
					c0.4382,0,0.7935,0.3549,0.7935,0.7935v6.0035C65.5901,61.2112,65.2348,61.5661,64.7966,61.5661z M38.5527,59.979H64.003
					v-4.4164H38.5527V59.979z"/>
			</g>
			<g>
				<path d="M51.2808,53.282c-1.1396-0.0093-11.1178-0.1163-12.5007-1.0376c-1.4093-0.9392-2.0613-6.8706-2.1776-8.0502
					c-0.0217-0.2177,0.1379-0.4122,0.3557-0.434c0.2267-0.0147,0.4126,0.138,0.434,0.3565c0.2743,2.7774,1.023,6.9303,1.8281,7.4673
					c0.8927,0.5952,7.8715,0.8703,12.0605,0.9044c4.1827-0.0341,11.1615-0.3092,12.0542-0.9044
					c0.8055-0.537,1.5541-4.6899,1.8285-7.4673c0.0213-0.2185,0.2065-0.3728,0.434-0.3565c0.2178,0.0217,0.3773,0.2162,0.3557,0.434
					c-0.1163,1.1795-0.7688,7.1109-2.178,8.0502C62.3927,53.1658,52.4141,53.2727,51.2808,53.282z"/>
			</g>
		</g>
	</g>
</g>
</svg>
