<?xml version="1.0" encoding="utf-8"?>
<!-- Generator: Adobe Illustrator 21.0.0, SVG Export Plug-In . SVG Version: 6.00 Build 0)  -->
<!DOCTYPE svg PUBLIC "-//W3C//DTD SVG 1.1//EN" "http://www.w3.org/Graphics/SVG/1.1/DTD/svg11.dtd">
<svg version="1.1" id="XMLID_1_" xmlns="http://www.w3.org/2000/svg" xmlns:xlink="http://www.w3.org/1999/xlink" x="0px" y="0px"
	 viewBox="0 0 44.4933 40.9101" enable-background="new 0 0 44.4933 40.9101" xml:space="preserve">
<g id="serve-rocks">
	<text transform="matrix(6.123234e-17 -1 1 6.123234e-17 10.8813 40.9101)" font-family="'MyriadPro-BoldCond'" font-size="13px">ROCKS</text>
	<g>
		<polygon fill="#2D3538" points="14.2618,15.7465 43.7083,15.7465 43.0681,27.7834 42.6214,33.3678 14.3641,33.5912 		"/>
		<g>
			<g id="glass-rocks.svg_2_">
				<g>
					<g>
						<path fill="#2D3538" d="M42.868,34.3058H14.3908c-0.3942,0-0.717-0.3139-0.7276-0.7081L12.7664,0.7479
							c-0.0054-0.1965,0.0689-0.3868,0.2058-0.5275C13.1094,0.0796,13.2975,0,13.494,0h30.2711
							c0.1963,0,0.3846,0.0796,0.5218,0.2204c0.1372,0.1407,0.2112,0.3309,0.2062,0.5275L43.596,33.5978
							C43.5846,33.9919,43.2626,34.3058,42.868,34.3058z M15.0992,32.8499H42.16l1.5463-32.0831H13.5532L15.0992,32.8499z"/>
					</g>
					<g>
						<path fill="#2D3538" d="M42.5048,39.5472H14.754c-0.617,0-1.1193-0.5023-1.1193-1.1193v-4.459
							c0-0.6171,0.5023-1.1189,1.1193-1.1189h27.7508c0.6171,0,1.1196,0.5018,1.1196,1.1189v4.459
							C43.6244,39.0449,43.1218,39.5472,42.5048,39.5472z M14.4016,38.7803h28.4559l-0.689-4.4745H15.0906L14.4016,38.7803z"/>
					</g>
					<g>
						<path fill="#2D3538" d="M32.1749,33.1069c-1.4726,0-2.765-0.0138-3.5502-0.0249c-2.7713,0.0395-11.9261,0.1149-12.8844-0.5224
							c-0.6281-0.4181-0.9643-3.199-1.5973-10.8225c-0.2147-2.5855-0.4177-5.0278-0.5929-5.8364
							c-0.0426-0.1965,0.0821-0.3903,0.2787-0.4329c0.198-0.0423,0.3903,0.0825,0.433,0.2787
							c0.1852,0.8556,0.3806,3.2072,0.6067,5.9302c0.3017,3.6362,0.8071,9.722,1.2995,10.2968
							c0.6327,0.3657,7.6687,0.4472,12.4568,0.3806c4.7956,0.0658,11.8341-0.0146,12.4931-0.402
							c0.4664-0.5537,0.9711-6.6407,1.2733-10.2776c0.226-2.7219,0.4208-5.0728,0.6064-5.928
							c0.0427-0.1962,0.2396-0.3206,0.4322-0.2787c0.1969,0.0427,0.3213,0.2364,0.2786,0.4329
							c-0.1749,0.8086-0.3774,3.2495-0.5922,5.8339c-0.6327,7.6253-0.9689,10.4069-1.5966,10.825
							C40.8314,33.017,35.9206,33.1069,32.1749,33.1069z"/>
					</g>
				</g>
			</g>
			<path fill="#FFFFFF" stroke="#231F20" stroke-miterlimit="10" d="M19.5144,19.7257c-0.8004,0.5989-1.4103,1.4559-1.7174,2.4128
				c-0.3362,1.0477-0.3154,2.193-0.7259,3.2138c-0.6115,1.5205-2.1559,2.7527-2.0345,4.384
				c0.4018,0.6579,0.9452,1.397,1.7117,1.3693c0.2608-0.0094,0.5142-0.1124,0.7749-0.1064
				c0.6044,0.0139,1.0258,0.5756,1.5198,0.9246c0.4665,0.3296,1.0315,0.4791,1.5835,0.6226
				c0.8138,0.2116,1.6276,0.4233,2.4414,0.6349c0.9994,0.2599,2.1184,0.5058,3.021-0.0125c1.5548-0.8929,1.3633-3.3057,2.558-4.6535
				c0.1947-0.2197,0.4324-0.4202,0.5221-0.7006c0.1357-0.4241-0.1108-0.8672-0.1367-1.3109
				c-0.0344-0.5898,0.3205-1.1299,0.4334-1.7108c0.2567-1.3206-0.7844-2.5569-1.9556-3.1789
				c-1.1712-0.622-2.517-0.8621-3.6717-1.5145c-0.5263-0.2974-1.0109-0.6793-1.5782-0.8868
				c-0.9539-0.3489-2.0914-0.134-2.8647,0.5414"/>
			<path fill="#FFFFFF" stroke="#231F20" stroke-miterlimit="10" d="M36.1676,21.7473c-0.8845,0.4657-1.9204,0.6487-2.9165,0.5152
				c-1.0906-0.1462-2.116-0.6567-3.2141-0.7242c-1.6358-0.1006-3.4116,0.7652-4.8329-0.0447
				c-0.4217-0.6453-0.8558-1.4534-0.5018-2.1338c0.1205-0.2315,0.3223-0.4161,0.4288-0.6542
				c0.247-0.5518-0.0794-1.1736-0.1825-1.7695c-0.0974-0.5628,0.0102-1.1373,0.1175-1.6974
				c0.1582-0.8258,0.3165-1.6517,0.4747-2.4775c0.1943-1.0142,0.4527-2.1304,1.3083-2.723c1.474-1.0209,3.5708,0.188,5.301-0.3124
				c0.282-0.0816,0.5651-0.2101,0.8569-0.1708c0.4413,0.0595,0.7356,0.4724,1.1252,0.6863
				c0.5179,0.2843,1.1581,0.1957,1.7312,0.3431c1.303,0.3351,1.9725,1.8062,2.0314,3.131s-0.3021,2.6433-0.2085,3.9663
				c0.0426,0.603,0.1795,1.2046,0.1234,1.8061c-0.0944,1.0113-0.7769,1.9463-1.7188,2.3548"/>
			<path fill="#FFFFFF" stroke="#231F20" stroke-miterlimit="10" d="M40.2161,21.8792c-0.8442-0.5353-1.862-0.8009-2.8657-0.7479
				c-1.0988,0.058-2.162,0.4845-3.2619,0.4635c-1.6386-0.0312-3.3391-1.037-4.8209-0.3438c-0.4722,0.6094-0.9699,1.38-0.6717,2.0866
				c0.1015,0.2404,0.2878,0.4407,0.3749,0.6865c0.2018,0.5698-0.1735,1.1634-0.3242,1.7491
				c-0.1423,0.5531-0.0813,1.1344-0.0193,1.7014c0.0914,0.8359,0.1827,1.6718,0.2741,2.5077
				c0.1122,1.0265,0.28,2.1599,1.0853,2.8194c1.3872,1.1361,3.5744,0.0996,5.2588,0.7374c0.2746,0.104,0.5464,0.2548,0.8404,0.2391
				c0.4446-0.0238,0.7712-0.4117,1.1767-0.5936c0.5391-0.2418,1.17-0.102,1.7532-0.2029c1.3257-0.2293,2.1112-1.6419,2.2765-2.9576
				s-0.0886-2.6591,0.1109-3.9703c0.0909-0.5976,0.2757-1.1863,0.2681-1.7903c-0.0128-1.0156-0.6179-2.0025-1.524-2.4853"/>
		</g>
		<polygon opacity="0.5" fill="#2D3538" points="14.2618,15.7465 43.7083,15.7465 43.0681,27.7834 42.6214,33.3678 14.3641,33.5912 
					"/>
	</g>
</g>
</svg>
