<?xml version="1.0" encoding="utf-8"?>
<!-- Generator: Adobe Illustrator 21.0.0, SVG Export Plug-In . SVG Version: 6.00 Build 0)  -->
<!DOCTYPE svg PUBLIC "-//W3C//DTD SVG 1.1//EN" "http://www.w3.org/Graphics/SVG/1.1/DTD/svg11.dtd">
<svg version="1.1" id="XMLID_1_" xmlns="http://www.w3.org/2000/svg" xmlns:xlink="http://www.w3.org/1999/xlink" x="0px" y="0px"
	 viewBox="0 0 52.6855 163.0655" enable-background="new 0 0 52.6855 163.0655" xml:space="preserve">
<g id="serve-dessert">
	<text transform="matrix(1 0 0 1 -0.0269 15.0668)" font-family="'MyriadPro-BoldCond'" font-size="18px">Dessert</text>
	<g>
		<g>
			<g>
				<g>
					<path fill="#2D3538" d="M28.7174,128.8771h-4.7498c-0.1923,0-0.3762-0.0867-0.5101-0.2399
						c-0.1342-0.1524-0.2069-0.3598-0.2017-0.5733c0.0546-2.3066-1.1773-4.4012-2.3901-6.146
						c-0.1662-0.2383-0.1958-0.5618-0.0761-0.8334c0.1199-0.2716,0.3679-0.4434,0.6394-0.4434h9.8274
						c0.2715,0,0.5195,0.1718,0.6394,0.4434c0.1196,0.2716,0.0901,0.595-0.0761,0.8342c-1.2128,1.7432-2.4451,3.8378-2.3905,6.1452
						c0.0052,0.2135-0.0674,0.421-0.2017,0.5741C29.0936,128.7904,28.9093,128.8771,28.7174,128.8771z M24.6585,127.2924h3.3679
						c0.1422-1.8911,0.9158-3.581,1.8269-5.0666H22.832C23.7426,123.7122,24.5166,125.4013,24.6585,127.2924z"/>
				</g>
				<g>
					<path fill="#2D3538" d="M28.6614,154.7855H24.024c-0.1986,0-0.3881-0.0921-0.523-0.2546
						c-0.1349-0.1624-0.2024-0.3799-0.1871-0.5996c0.8943-12.644,0.8943-13.1407,0-25.7847
						c-0.0153-0.2197,0.0521-0.4372,0.1871-0.5996c0.1349-0.1625,0.3244-0.2546,0.523-0.2546h4.6374
						c0.1985,0,0.388,0.0921,0.5229,0.2546c0.1349,0.1624,0.2027,0.3799,0.1871,0.5996c-0.8946,12.644-0.8946,13.1407,0,25.7847
						c0.0157,0.2197-0.0521,0.4372-0.1871,0.5996C29.0494,154.6934,28.8599,154.7855,28.6614,154.7855z M24.7938,153.2008h3.0978
						c-0.8224-11.7828-0.8224-12.5409,0-24.3238h-3.0978C25.6158,140.6599,25.6158,141.418,24.7938,153.2008z"/>
				</g>
				<g>
					<path fill="#2D3538" d="M31.2564,122.2258h-9.8278c-0.1701,0-0.3345-0.0673-0.4635-0.1911
						c-9.6163-9.1714-12.6098-18.5964-12.2043-27.1666c0.3279-6.9317,4.1795-29.2078,4.3004-29.6949
						c0.0855-0.3432,0.3662-0.5807,0.6864-0.5807h25.1897c0.3202,0,0.6009,0.2375,0.6864,0.5807
						c0.121,0.4871,3.9726,22.7632,4.3005,29.6949c0.4054,8.5702-2.588,17.9952-12.2044,27.1666
						C31.5908,122.1585,31.4264,122.2258,31.2564,122.2258z M21.6936,120.6411h9.2978c9.067-8.7783,11.8952-17.5553,11.5107-25.6894
						c-0.2789-5.8934-3.5212-26.3178-4.11-28.7745H14.2928c-0.5886,2.4567-3.8311,22.8812-4.1099,28.7745
						C9.7984,103.0858,12.6267,111.8628,21.6936,120.6411z"/>
				</g>
				<g>
					<path fill="#2D3538" d="M32.4028,158.7719H20.2822c-0.2925,0-0.5553-0.1989-0.6624-0.5022
						c-0.1075-0.3025-0.0372-0.6477,0.1766-0.8698c0.5505-0.5717,1.0383-1.0299,1.4687-1.4345
						c0.8366-0.7861,1.4973-1.4067,2.1861-2.4435c0.1342-0.202,0.3467-0.3211,0.5727-0.3211h4.6374
						c0.2259,0,0.4384,0.1192,0.5727,0.3211c0.6888,1.0368,1.3495,1.6582,2.1861,2.4443c0.4301,0.4039,0.9179,0.8627,1.4684,1.4337
						c0.2138,0.2221,0.2841,0.5672,0.1766,0.8698C32.958,158.5731,32.6952,158.7719,32.4028,158.7719z M22.1727,157.1873h8.3396
						c-0.0038-0.0039-0.0073-0.007-0.0111-0.0108c-0.79-0.742-1.4827-1.3928-2.1917-2.3909h-3.9337
						c-0.7093,0.9982-1.4017,1.6489-2.1916,2.3909C22.1804,157.1803,22.1765,157.1834,22.1727,157.1873z"/>
				</g>
				<g>
					<path fill="#2D3538" d="M41.6161,163.0655h-30.711c-0.3272,0-0.612-0.2476-0.6909-0.6012
						c-0.0793-0.3528,0.0681-0.7203,0.3571-0.8906c2.5289-1.4941,9.1775-4.2224,9.4595-4.3377
						c0.0786-0.0325,0.1621-0.0487,0.2458-0.0487h11.9683c0.0838,0,0.1672,0.0163,0.2458,0.0487
						c0.282,0.1153,6.9302,2.8436,9.4592,4.3377c0.289,0.1703,0.4364,0.5378,0.3571,0.8906
						C42.228,162.8179,41.9433,163.0655,41.6161,163.0655z M14.1861,161.4808h24.1489c-2.564-1.1939-5.5867-2.4482-6.2178-2.7089
						H20.4042C19.7732,159.0327,16.7505,160.2869,14.1861,161.4808z"/>
				</g>
				<g>
					<path fill="#2D3538" d="M26.3425,116.3623c-9.3183,0-12.5542-4.4669-12.6873-4.6565
						c-0.1206-0.1726-0.0929-0.4202,0.0615-0.5548c0.1547-0.1369,0.3787-0.1044,0.4997,0.0666
						c0.0309,0.0433,3.1892,4.3524,12.1261,4.3524c8.9373,0,12.0952-4.3091,12.1261-4.3524
						c0.1207-0.171,0.3446-0.2035,0.4997-0.0666c0.1544,0.1346,0.1822,0.3822,0.0615,0.5548
						C38.8966,111.8954,35.6611,116.3623,26.3425,116.3623z"/>
				</g>
			</g>
		</g>
		<polygon fill="#231F20" points="10.4114,89.1777 42.4114,89.1777 43.1614,93.3027 42.6614,100.8027 40.6614,107.6777 
			38.5364,112.4277 34.2864,114.4277 27.7864,115.9277 20.5364,115.3027 15.1614,112.8027 12.2864,109.3027 9.6614,100.1777 		"/>
	</g>
</g>
</svg>
