<?xml version="1.0" encoding="utf-8"?>
<!-- Generator: Adobe Illustrator 21.0.0, SVG Export Plug-In . SVG Version: 6.00 Build 0)  -->
<!DOCTYPE svg PUBLIC "-//W3C//DTD SVG 1.1//EN" "http://www.w3.org/Graphics/SVG/1.1/DTD/svg11.dtd">
<svg version="1.1" id="XMLID_1_" xmlns="http://www.w3.org/2000/svg" xmlns:xlink="http://www.w3.org/1999/xlink" x="0px" y="0px"
	 viewBox="0 0 66.0947 163.0655" enable-background="new 0 0 66.0947 163.0655" xml:space="preserve">
<g id="serve-bordeaux">
	<g>
		<g>
			<g>
				<path fill="#2D3538" d="M36.5103,116.13h-6.9992c-0.2833,0-0.5544-0.1094-0.7516-0.3028
					c-0.1977-0.1923-0.3048-0.4541-0.2972-0.7236c0.0805-2.9111-1.7349-5.5547-3.522-7.7568
					c-0.2449-0.3008-0.2885-0.709-0.1122-1.0518c0.1767-0.3428,0.5421-0.5596,0.9422-0.5596h14.4813
					c0.4001,0,0.7655,0.2168,0.9422,0.5596c0.1763,0.3428,0.1327,0.751-0.1122,1.0528c-1.7872,2.2001-3.6031,4.8437-3.5226,7.7558
					c0.0077,0.2695-0.0994,0.5313-0.2972,0.7246C37.0647,116.0206,36.7931,116.13,36.5103,116.13z M30.5294,114.13h4.9629
					c0.2096-2.3867,1.3496-4.5196,2.692-6.3946H27.8378C29.1797,109.6114,30.3202,111.7433,30.5294,114.13z"/>
			</g>
			<g>
				<path fill="#2D3538" d="M36.4279,152.6153h-6.8336c-0.2927,0-0.5719-0.1162-0.7706-0.3213
					c-0.1989-0.205-0.2982-0.4795-0.2757-0.7568c1.3178-15.958,1.3178-20.3711,0-36.3291
					c-0.0226-0.2773,0.0768-0.5518,0.2757-0.7568c0.1987-0.2051,0.478-0.3213,0.7706-0.3213h6.8336
					c0.2925,0,0.5718,0.1162,0.7705,0.3213c0.1989,0.205,0.2988,0.4795,0.2757,0.7568c-1.3183,15.958-1.3183,20.3711,0,36.3291
					c0.0231,0.2773-0.0768,0.5518-0.2757,0.7568C36.9996,152.4991,36.7204,152.6153,36.4279,152.6153z M30.7286,150.6153h4.5648
					c-1.2118-14.8711-1.2118-19.6142,0-34.4853h-4.5648C31.9399,131.0011,31.9399,135.7442,30.7286,150.6153z"/>
			</g>
			<g>
				<path fill="#2D3538" d="M40.2517,107.7354H25.7698c-0.2506,0-0.4929-0.0849-0.683-0.2412
					C10.9165,95.919,3.5055,80.2374,4.103,69.421c0.4831-8.7485,4.6851-35.2905,4.8634-35.9053
					c0.126-0.4331,0.5396-0.7329,1.0115-0.7329h46.0658c0.4719,0,0.8854,0.2998,1.0115,0.7329
					c0.1783,0.6148,4.3803,27.1568,4.8635,35.9053c0.5974,10.8164-6.8136,26.498-20.9839,38.0732
					C40.7446,107.6505,40.5023,107.7354,40.2517,107.7354z M26.1603,105.7354h13.7009
					C53.222,94.6563,60.3897,79.7926,59.823,69.5265c-0.4109-7.438-3.7152-31.6431-4.5827-34.7437h-44.459
					c-0.8674,3.1006-4.1718,27.3057-4.5827,34.7437C5.6319,79.7926,12.7996,94.6563,26.1603,105.7354z"/>
			</g>
			<g>
				<path fill="#2D3538" d="M41.941,157.6466H24.0806c-0.431,0-0.8183-0.251-0.9761-0.6338
					c-0.1583-0.3818-0.0549-0.8174,0.2602-1.0977c0.8111-0.7216,1.53-1.2998,2.1643-1.8105
					c1.2328-0.9922,2.2064-1.7754,3.2214-3.084c0.1977-0.2549,0.5108-0.4053,0.8439-0.4053h6.8336
					c0.3329,0,0.6461,0.1504,0.8439,0.4053c1.0149,1.3086,1.9885,2.0928,3.2213,3.085c0.6338,0.5097,1.3526,1.0888,2.1638,1.8095
					c0.3151,0.2803,0.4186,0.7159,0.2602,1.0977C42.7592,157.3956,42.3719,157.6466,41.941,157.6466z M26.8663,155.6466h12.2889
					c-0.0057-0.0049-0.0108-0.0088-0.0164-0.0137c-1.1642-0.9365-2.1848-1.7578-3.2296-3.0176h-5.7965
					c-1.0453,1.2598-2.0654,2.0811-3.2295,3.0176C26.8776,155.6378,26.872,155.6417,26.8663,155.6466z"/>
			</g>
			<g>
				<path fill="#2D3538" d="M55.5175,163.0655H10.2628c-0.4822,0-0.9018-0.3125-1.0181-0.7588
					c-0.1169-0.4453,0.1004-0.9091,0.5261-1.124c3.7266-1.8857,13.5237-5.3291,13.9392-5.4746
					c0.1158-0.041,0.2388-0.0615,0.3622-0.0615h17.6361c0.1235,0,0.2464,0.0205,0.3622,0.0615
					c0.4155,0.1455,10.2122,3.5889,13.9387,5.4746c0.4258,0.2149,0.643,0.6787,0.5262,1.124
					C56.4192,162.753,55.9996,163.0655,55.5175,163.0655z M15.0975,161.0655h35.5851c-3.7783-1.5068-8.2323-3.0898-9.1623-3.4189
					h-17.26C23.3304,157.9757,18.8763,159.5587,15.0975,161.0655z"/>
			</g>
			<g>
				<path fill="#2D3538" d="M33.0108,100.3351c-13.7311,0-18.4994-5.6377-18.6956-5.877c-0.1778-0.2178-0.1368-0.5303,0.0907-0.7002
					c0.228-0.1728,0.558-0.1318,0.7363,0.084c0.0455,0.0547,4.6995,5.4932,17.8686,5.4932c13.1696,0,17.8231-5.4385,17.8686-5.4932
					c0.1779-0.2158,0.5078-0.2568,0.7363-0.084c0.2275,0.1699,0.2684,0.4824,0.0907,0.7002
					C51.5102,94.6974,46.7424,100.3351,33.0108,100.3351z"/>
			</g>
		</g>
		<polygon fill="#2D3538" points="5.9492,61.5251 60.1593,61.5251 60.8369,67.2599 60.8369,74.2645 57.8554,84.2934 
			55.2804,89.4433 51.7064,94.4581 48.757,96.7723 42.9903,98.659 35.7648,99.8675 31.1569,99.8675 24.7209,99.2223 
			19.3803,97.8529 15.436,94.8643 12.3189,92.1129 7.44,82.125 5.2716,73.2591 		"/>
	</g>
	<text transform="matrix(1 0 0 1 -0.144 15.0668)" font-family="'MyriadPro-BoldCond'" font-size="18px">Bordeaux</text>
</g>
</svg>
