<?xml version="1.0" encoding="utf-8"?>
<!-- Generator: Adobe Illustrator 21.0.0, SVG Export Plug-In . SVG Version: 6.00 Build 0)  -->
<!DOCTYPE svg PUBLIC "-//W3C//DTD SVG 1.1//EN" "http://www.w3.org/Graphics/SVG/1.1/DTD/svg11.dtd">
<svg version="1.1" id="XMLID_2_" xmlns="http://www.w3.org/2000/svg" xmlns:xlink="http://www.w3.org/1999/xlink" x="0px" y="0px"
	 viewBox="0 0 50.9932 163.0655" enable-background="new 0 0 50.9932 163.0655" xml:space="preserve">
<g id="serve-brandy">
	<g>
		<g>
			<g>
				<path fill="#2D3538" d="M45.9223,163.0655H4.838c-0.4029,0-0.7565-0.2682-0.8653-0.656
					c-0.1088-0.3878,0.0544-0.8008,0.3984-1.0105c4.0027-2.4358,16.2794-5.6977,16.7998-5.8356
					c0.0755-0.0197,0.1527-0.0298,0.2299-0.0298h7.9597c0.0773,0,0.1545,0.0102,0.23,0.0298
					c0.5204,0.1379,12.797,3.3998,16.7989,5.836c0.3449,0.2093,0.5072,0.6222,0.3984,1.0101
					C46.6788,162.7973,46.3252,163.0655,45.9223,163.0655z M8.9573,161.2682h32.8465c-4.7837-1.832-11.6052-3.6811-12.5609-3.9374
					h-7.7245C20.5626,157.5871,13.7411,159.4362,8.9573,161.2682z"/>
			</g>
			<g>
				<path fill="#2D3538" d="M30.7312,121.6827H20.2011c-0.5994,0-1.1699-0.23-1.606-0.6481
					c-0.9461-0.9044-2.151-1.9299-3.4261-3.0154c-5.2445-4.463-8.8329-10.5753-8.8329-17.5847c0-5.5095,2.71-14.166,4.6881-20.4864
					c1.0223-3.2651,1.0891-6.349,1.0891-7.2454c0-1.344,0.9399-4.5714-0.5546-8.8549c-0.2466-0.7074-0.1352-1.4945,0.2993-2.1058
					c0.4353-0.6134,1.1444-0.9794,1.8973-0.9794h23.422c0.7521,0,1.4612,0.366,1.8964,0.9794
					c0.4344,0.6113,0.5459,1.3984,0.2993,2.1058c-1.4945,4.2875-0.5546,7.5152-0.5546,8.8549c0,0.8964,0.0667,3.9803,1.0891,7.2454
					c1.9789,6.3204,4.689,14.977,4.689,20.4864c0,7.0094-3.5885,13.1218-8.833,17.5847c-1.2751,1.0856-2.48,2.111-3.4269,3.0163
					C31.8993,121.4528,31.3298,121.6827,30.7312,121.6827z M13.7551,62.5598c-0.2475,0-0.3844,0.1558-0.4318,0.223
					c-0.0588,0.0816-0.1448,0.2523-0.0675,0.4726c1.1189,3.2062,0.6547,7.4477,0.6547,9.4473c0,1.1167,0.1509,3.5599-1.1708,7.782
					c-1.9439,6.2103-4.6064,14.7151-4.6064,19.9498c0,6.1787,3.2225,11.98,8.2002,16.2162c1.2961,1.1026,2.5204,2.1444,3.505,3.086
					c0.1018,0.0974,0.2265,0.1488,0.3625,0.1488h10.5301c0.1352,0,0.2607-0.0514,0.3625-0.1492
					c0.9847-0.9412,2.2089-1.983,3.5051-3.0856c4.9776-4.2362,8.2002-10.0375,8.2002-16.2162
					c0-5.2347-2.6626-13.7395-4.6074-19.9498c-1.3216-4.2221-1.1707-6.6653-1.1707-7.782c0-1.9939-0.4642-6.2379,0.6547-9.4468
					c0.0772-0.2207-0.0088-0.3915-0.0676-0.4735c-0.0475-0.0667-0.1843-0.2225-0.4309-0.2225H13.7551z"/>
			</g>
			<g>
				<path fill="#2D3538" d="M25.4658,114.7497c-15.0894,0-16.7989-5.3761-16.941-5.6047c-0.1308-0.211-0.0658-0.488,0.1448-0.6187
					c0.2097-0.1285,0.488-0.0667,0.6187,0.1449c0.0316,0.0495,1.6701,5.1799,16.1775,5.1799
					c14.5083,0,16.1467-5.1304,16.1801-5.1822c0.1308-0.2075,0.4073-0.2725,0.6187-0.1399c0.2088,0.1312,0.2738,0.4058,0.1431,0.616
					C42.2654,109.3736,40.5559,114.7497,25.4658,114.7497z"/>
			</g>
			<g>
				<path fill="#2D3538" d="M29.2324,124.1004H21.7c-0.2931,0-0.5687-0.1431-0.7363-0.3835l-1.6911-2.4177
					c-0.1922-0.2746-0.2159-0.6332-0.0606-0.9302c0.1545-0.2971,0.4616-0.4836,0.7968-0.4836h10.9146
					c0.3353,0,0.6424,0.1865,0.7968,0.4836c0.1554,0.297,0.1317,0.6556-0.0606,0.9302l-1.6911,2.4177
					C29.801,123.9574,29.5254,124.1004,29.2324,124.1004z M22.1677,122.3031h6.5969l0.4335-0.6204h-7.4639L22.1677,122.3031z"/>
			</g>
			<g>
				<path fill="#2D3538" d="M30.9235,156.86H20.0089c-0.3352,0-0.6424-0.1865-0.7968-0.4836
					c-0.1554-0.297-0.1317-0.6556,0.0606-0.9302l1.6911-2.4178c0.1676-0.2404,0.4432-0.3835,0.7363-0.3835h7.5324
					c0.2931,0,0.5687,0.1431,0.7363,0.3835l1.6911,2.4178c0.1922,0.2746,0.216,0.6332,0.0606,0.9302
					C31.5659,156.6736,31.2587,156.86,30.9235,156.86z M21.7342,155.0627h7.4639l-0.4335-0.6204h-6.5969L21.7342,155.0627z"/>
			</g>
			<g>
				<path fill="#2D3538" d="M28.3758,153.5862h-5.9912c-0.4968,0-0.8987-0.4023-0.8987-0.8987v-28.6296
					c0-0.4962,0.4019-0.8987,0.8987-0.8987h5.9912c0.4968,0,0.8987,0.4024,0.8987,0.8987v28.6296
					C29.2744,153.1838,28.8725,153.5862,28.3758,153.5862z M23.2832,151.7888h4.1939v-26.8323h-4.1939V151.7888z"/>
			</g>
		</g>
		<polygon fill="#2D3538" points="9.3005,88.6302 40.639,88.6302 43.3173,94.4578 43.3173,104.2156 41.6458,108.6689 
			39.1602,111.6046 34.155,113.4162 26.4792,114.2079 17.1169,113.726 11.1622,111.3166 8.0648,106.1129 6.9965,99.2223 		"/>
	</g>
	<text transform="matrix(1 0 0 1 0.0004 15.0668)" font-family="'MyriadPro-BoldCond'" font-size="18px">Brandy</text>
</g>
</svg>
