<?xml version="1.0" encoding="utf-8"?>
<!-- Generator: Adobe Illustrator 21.0.0, SVG Export Plug-In . SVG Version: 6.00 Build 0)  -->
<!DOCTYPE svg PUBLIC "-//W3C//DTD SVG 1.1//EN" "http://www.w3.org/Graphics/SVG/1.1/DTD/svg11.dtd">
<svg version="1.1" id="XMLID_1_" xmlns="http://www.w3.org/2000/svg" xmlns:xlink="http://www.w3.org/1999/xlink" x="0px" y="0px"
	 viewBox="0 0 45.0713 163.0655" enable-background="new 0 0 45.0713 163.0655" xml:space="preserve">
<g id="serve-amaro">
	<text transform="matrix(1 0 0 1 -0.0005 15.0668)" font-family="'MyriadPro-BoldCond'" font-size="18px">Amaro</text>
	<g>
		<g>
			<g>
				<g>
					<path fill="#2D3538" d="M32.0062,163.0655H13.0643c-1.2564,0-2.2896-0.9814-2.3521-2.2349
						c-0.2905-5.77-1.7388-34.6552-1.7388-36.6303c0-0.9727-1.0888-25.4644-1.9116-27.5884
						c-0.2847-0.7354-0.1914-1.5586,0.2495-2.2026c0.4317-0.6304,1.1475-1.0069,1.9141-1.0069H35.845
						c0.7661,0,1.4815,0.376,1.9131,1.0064c0.4414,0.644,0.5352,1.4673,0.2505,2.2026c-0.8232,2.1255-1.9121,26.6167-1.9121,27.5889
						c0,1.8857-1.3306,28.5141-1.7383,36.6308C34.2957,162.0841,33.2625,163.0655,32.0062,163.0655z M9.2254,95.4024
						c-0.1406,0-0.2212,0.0747-0.2637,0.1367c-0.0327,0.0479-0.1015,0.1778-0.0346,0.3501
						c0.9106,2.3511,2.0463,26.9634,2.0463,28.3111c0,1.4946,0.9351,20.6128,1.7359,36.5302c0.0097,0.188,0.1655,0.335,0.355,0.335
						h18.9419c0.1894,0,0.3452-0.147,0.3549-0.3345c0.4068-8.1049,1.7354-34.6919,1.7354-36.5307
						c0-1.3472,1.1362-25.9585,2.0469-28.3111c0.0669-0.1723-0.002-0.3022-0.0347-0.3501c-0.043-0.0625-0.1235-0.1367-0.2637-0.1367
						H9.2254z"/>
				</g>
				<g>
					<path fill="#2D3538" d="M22.035,154.1842c-2.7002,0-6.5616-2.1412-7.9683-3.9497c-1.0186-1.3096-1.6787-5.3443-2.4995-10.9009
						c-0.209-1.4126-1.4068-12.7515-1.5996-13.8623c-0.0474-0.272,0.1352-0.5308,0.4072-0.5782
						c0.2715-0.0473,0.5303,0.1353,0.5781,0.4073c0.1939,1.1181,1.3931,12.4653,1.6035,13.8867
						c0.6075,4.1123,1.3638,9.2305,2.2994,10.4331c1.2177,1.5654,4.8042,3.564,7.1792,3.564s6.9614-1.9986,8.1796-3.564
						c0.9351-1.2022,1.691-6.3174,2.2984-10.4273c0.2104-1.4238,1.4101-12.7729,1.6045-13.8925
						c0.0473-0.272,0.3056-0.4541,0.5781-0.4073c0.272,0.0474,0.4546,0.3062,0.4072,0.5782
						c-0.1933,1.1123-1.3916,12.4531-1.6006,13.8676c-0.8208,5.5542-1.4804,9.5865-2.4985,10.8956
						C29.5965,152.043,24.7347,154.1842,22.035,154.1842z"/>
				</g>
			</g>
		</g>
		<polygon fill="#2D3538" points="9.4718,112.4626 12.2699,140.3679 13.3287,147.0984 14.5386,149.9721 18.6223,152.8458 
			22.5352,153.6777 27.7729,151.9383 30.4197,150.1234 31.7809,146.7203 34.2765,128.5705 35.1103,112.4626 		"/>
	</g>
</g>
</svg>
