<?xml version="1.0" encoding="utf-8"?>
<!-- Generator: Adobe Illustrator 21.0.0, SVG Export Plug-In . SVG Version: 6.00 Build 0)  -->
<!DOCTYPE svg PUBLIC "-//W3C//DTD SVG 1.1//EN" "http://www.w3.org/Graphics/SVG/1.1/DTD/svg11.dtd">
<svg version="1.1" id="XMLID_2_" xmlns="http://www.w3.org/2000/svg" xmlns:xlink="http://www.w3.org/1999/xlink" x="0px" y="0px"
	 viewBox="0 0 47.3446 163.0655" enable-background="new 0 0 47.3446 163.0655" xml:space="preserve">
<g id="serve-rocks">
	<text transform="matrix(1 0 0 1 3.8815 15.0668)" font-family="'MyriadPro-BoldCond'" font-size="18px">Rocks</text>
	<g>
		<polygon fill="#2D3538" points="2.2318,127.549 46.1732,127.549 45.2179,145.5111 44.5512,153.8444 2.3846,154.1777 		"/>
		<g>
			<g id="glass-rocks.svg_2_">
				<g>
					<g>
						<path fill="#2D3538" d="M44.9193,155.2441H2.4243c-0.5882,0-1.0699-0.4684-1.0857-1.0566l-1.3382-49.02
							c-0.0081-0.2933,0.1029-0.5771,0.3071-0.7871c0.2048-0.2101,0.4853-0.3289,0.7786-0.3289H46.258
							c0.2929,0,0.574,0.1188,0.7786,0.3289c0.2048,0.21,0.3151,0.4938,0.3076,0.7871l-1.3387,49.02
							C45.9886,154.7757,45.508,155.2441,44.9193,155.2441z M3.4815,153.0716h40.3813l1.2793-46.8476H2.2026L3.4815,153.0716z"/>
					</g>
					<g>
						<path fill="#2D3538" d="M44.3772,163.0655H2.9663c-0.9207,0-1.6702-0.7495-1.6702-1.6702v-6.6539
							c0-0.9208,0.7495-1.6697,1.6702-1.6697h41.4109c0.9208,0,1.6708,0.7489,1.6708,1.6697v6.6539
							C46.048,162.316,45.2981,163.0655,44.3772,163.0655z M3.4686,160.893h40.4068v-5.6488H3.4686V160.893z"/>
					</g>
					<g>
						<path fill="#2D3538" d="M28.9626,153.455c-2.1975,0-4.1261-0.0206-5.2977-0.0372
							c-4.1355,0.0589-17.7967,0.1714-19.2266-0.7796c-0.9372-0.6238-1.439-4.7737-2.3836-16.1498
							c-0.3203-3.8582-0.6233-7.5027-0.8848-8.7093c-0.0636-0.2933,0.1225-0.5824,0.4158-0.646
							c0.2955-0.0631,0.5825,0.1231,0.6461,0.4158c0.2763,1.2767,0.568,4.7859,0.9054,8.8493
							c0.4503,5.426,1.2045,14.5076,1.9391,15.3653c0.9442,0.5457,11.4435,0.6673,18.5886,0.568
							c7.1562,0.0982,17.6594-0.0217,18.6427-0.5998c0.696-0.8263,1.4491-9.9096,1.9-15.3367
							c0.3373-4.0618,0.628-7.5699,0.9049-8.846c0.0637-0.2927,0.3575-0.4784,0.6449-0.4158
							c0.2938,0.0637,0.4795,0.3527,0.4158,0.646c-0.2609,1.2066-0.5632,4.849-0.8837,8.7056
							c-0.9441,11.3788-1.4458,15.5296-2.3825,16.1535C41.8801,153.3209,34.552,153.455,28.9626,153.455z"/>
					</g>
				</g>
			</g>
			<path fill="#FFFFFF" stroke="#231F20" stroke-miterlimit="10" d="M7.461,134.2675c-0.8868,1.1995-1.3907,2.6861-1.4188,4.1856
				c-0.0308,1.6416,0.4906,3.2696,0.3422,4.9046c-0.2212,2.4355-1.8995,4.8595-1.0258,7.1388
				c0.8567,0.7678,1.9506,1.5907,3.0341,1.2222c0.3686-0.1254,0.6866-0.3814,1.0618-0.4847
				c0.8697-0.2396,1.7132,0.3822,2.5689,0.669c0.8081,0.2708,1.6799,0.2419,2.5303,0.2101
				c1.2539-0.0469,2.5078-0.0937,3.7617-0.1406c1.5398-0.0576,3.2447-0.1865,4.3122-1.3147
				c1.8388-1.9436,0.5294-5.3096,1.6582-7.7487c0.184-0.3976,0.4375-0.7861,0.4454-1.2254c0.012-0.6644-0.5306-1.1917-0.7581-1.8148
				c-0.3024-0.8282-0.027-1.7524-0.115-2.6311c-0.2-1.9976-2.2187-3.3175-4.1595-3.7038s-3.9673-0.1516-5.8976-0.5884
				c-0.8798-0.1991-1.7364-0.5369-2.6362-0.59c-1.5131-0.0892-3.0464,0.7062-3.8617,2.0034"/>
			<path fill="#FFFFFF" stroke="#231F20" stroke-miterlimit="10" d="M14.645,131.7048c1.2473,0.8182,2.7597,1.2381,4.2585,1.1822
				c1.6408-0.0612,3.237-0.6729,4.8777-0.6162c2.4441,0.0845,4.9582,1.6244,7.1851,0.6245c0.7186-0.8983,1.479-2.0366,1.0504-3.0977
				c-0.1458-0.361-0.4192-0.6642-0.5434-1.033c-0.2879-0.8549,0.2857-1.7319,0.5241-2.6023
				c0.2251-0.822,0.1475-1.6908,0.0681-2.5381c-0.117-1.2493-0.234-2.4986-0.351-3.7479c-0.1437-1.5342-0.3679-3.2292-1.5541-4.2318
				c-2.0435-1.7271-5.3309-0.2313-7.8294-1.2218c-0.4073-0.1615-0.8094-0.3928-1.2484-0.3761
				c-0.664,0.0253-1.1602,0.5965-1.7695,0.8585c-0.8099,0.3483-1.7481,0.1251-2.6205,0.2621
				c-1.9833,0.3115-3.1881,2.4009-3.4651,4.3603c-0.277,1.9594,0.0708,3.9695-0.2573,5.9213
				c-0.1495,0.8895-0.4388,1.7637-0.4414,2.6651c-0.0044,1.5157,0.8757,3.0021,2.2165,3.7435"/>
			<path fill="#FFFFFF" stroke="#231F20" stroke-miterlimit="10" d="M41.9902,134.6443c-1.2598-0.7988-2.7786-1.1952-4.2763-1.1161
				c-1.6396,0.0866-3.2262,0.723-4.8676,0.6917c-2.4451-0.0466-4.9828-1.5474-7.1939-0.5131
				c-0.7046,0.9093-1.4473,2.0592-1.0023,3.1137c0.1514,0.3587,0.4294,0.6576,0.5594,1.0245
				c0.3012,0.8503-0.2589,1.7361-0.4837,2.6101c-0.2124,0.8254-0.1213,1.6929-0.0288,2.5389
				c0.1363,1.2473,0.2727,2.4947,0.409,3.742c0.1674,1.5318,0.4179,3.2231,1.6195,4.2072c2.07,1.6953,5.3338,0.1487,7.8474,1.1003
				c0.4097,0.1551,0.8154,0.3802,1.2541,0.3567c0.6635-0.0355,1.1508-0.6144,1.756-0.8858c0.8044-0.3608,1.746-0.1522,2.6162-0.3027
				c1.9782-0.3422,3.1505-2.4501,3.3971-4.4135c0.2466-1.9634-0.1323-3.968,0.1655-5.9246
				c0.1357-0.8917,0.4115-1.7703,0.4001-2.6716c-0.0191-1.5156-0.9221-2.9882-2.2742-3.7087"/>
		</g>
		<polygon opacity="0.5" fill="#2D3538" points="2.2318,127.549 46.1732,127.549 45.2179,145.5111 44.5512,153.8444 
			2.3846,154.1777 		"/>
	</g>
</g>
</svg>
