<?xml version="1.0" encoding="utf-8"?>
<!-- Generator: Adobe Illustrator 21.0.0, SVG Export Plug-In . SVG Version: 6.00 Build 0)  -->
<!DOCTYPE svg PUBLIC "-//W3C//DTD SVG 1.1//EN" "http://www.w3.org/Graphics/SVG/1.1/DTD/svg11.dtd">
<svg version="1.1" id="XMLID_1_" xmlns="http://www.w3.org/2000/svg" xmlns:xlink="http://www.w3.org/1999/xlink" x="0px" y="0px"
	 viewBox="0 0 42.2741 71.8489" enable-background="new 0 0 42.2741 71.8489" xml:space="preserve">
<g id="serve-brandy">
	<g>
		<g>
			<g>
				<path d="M41.6548,70.4869H13.3477c-0.2776,0-0.5212-0.1848-0.5962-0.452s0.0375-0.5518,0.2745-0.6963
					c2.7579-1.6783,11.2165-3.9257,11.5751-4.0207c0.052-0.0136,0.1052-0.0206,0.1584-0.0206h5.4843
					c0.0532,0,0.1064,0.007,0.1585,0.0206c0.3586,0.095,8.8171,2.3425,11.5744,4.021c0.2376,0.1442,0.3495,0.4287,0.2745,0.696
					S41.9324,70.4869,41.6548,70.4869z M16.1859,69.2486h22.6313c-3.296-1.2622-7.996-2.5363-8.6545-2.7128h-5.3222
					C24.1819,66.7123,19.4819,67.9863,16.1859,69.2486z"/>
			</g>
			<g>
				<path d="M31.1881,41.9741h-7.2553c-0.413,0-0.806-0.1584-1.1065-0.4465c-0.6519-0.6231-1.4821-1.3297-2.3606-2.0776
					c-3.6135-3.075-6.0859-7.2864-6.0859-12.1159c0-3.796,1.8672-9.7604,3.2301-14.1152c0.7044-2.2496,0.7504-4.3745,0.7504-4.9921
					c0-0.926,0.6476-3.1497-0.3822-6.101c-0.1699-0.4874-0.0931-1.0297,0.2062-1.4509C18.4843,0.2522,18.9728,0,19.4916,0h16.1378
					c0.5182,0,1.0068,0.2522,1.3066,0.6748c0.2993,0.4212,0.3761,0.9635,0.2062,1.4509c-1.0297,2.9541-0.3822,5.178-0.3822,6.101
					c0,0.6176,0.0459,2.7424,0.7504,4.9921c1.3635,4.3548,3.2307,10.3191,3.2307,14.1152c0,4.8295-2.4725,9.0409-6.086,12.1159
					c-0.8785,0.748-1.7087,1.4545-2.3612,2.0783C31.9929,41.8157,31.6006,41.9741,31.1881,41.9741z M19.4916,1.2383
					c-0.1705,0-0.2648,0.1074-0.2975,0.1536c-0.0405,0.0562-0.0997,0.1739-0.0465,0.3256c0.7709,2.2091,0.4511,5.1315,0.4511,6.5092
					c0,0.7694,0.104,2.4528-0.8066,5.3618c-1.3393,4.2789-3.1738,10.1387-3.1738,13.7455c0,4.2571,2.2203,8.2543,5.65,11.173
					c0.893,0.7597,1.7365,1.4775,2.415,2.1262c0.0702,0.0671,0.156,0.1025,0.2498,0.1025h7.2553
					c0.0931,0,0.1796-0.0354,0.2498-0.1028c0.6784-0.6485,1.5219-1.3663,2.415-2.126c3.4296-2.9187,5.65-6.9159,5.65-11.173
					c0-3.6067-1.8345-9.4665-3.1745-13.7455c-0.9106-2.909-0.8066-4.5924-0.8066-5.3618c0-1.3738-0.3199-4.2979,0.4511-6.5089
					c0.0532-0.1521-0.0061-0.2697-0.0466-0.3262c-0.0327-0.0459-0.127-0.1533-0.2969-0.1533H19.4916z"/>
			</g>
			<g>
				<path d="M27.5602,37.1973c-10.3966,0-11.5745-3.7041-11.6724-3.8617c-0.0901-0.1454-0.0453-0.3362,0.0997-0.4263
					c0.1445-0.0885,0.3362-0.0459,0.4263,0.0998c0.0218,0.0341,1.1507,3.569,11.1464,3.569c9.9962,0,11.1251-3.5349,11.1481-3.5705
					c0.0901-0.143,0.2806-0.1877,0.4263-0.0964c0.1439,0.0904,0.1887,0.2796,0.0986,0.4244
					C39.1352,33.4931,37.9574,37.1973,27.5602,37.1973z"/>
			</g>
			<g>
				<path d="M30.1554,43.6399h-5.1898c-0.2019,0-0.3918-0.0986-0.5073-0.2643l-1.1652-1.6658
					c-0.1324-0.1892-0.1488-0.4363-0.0417-0.6409c0.1064-0.2047,0.3181-0.3332,0.549-0.3332h7.5202
					c0.231,0,0.4426,0.1285,0.549,0.3332c0.1071,0.2046,0.0907,0.4517-0.0417,0.6409l-1.1652,1.6658
					C30.5472,43.5414,30.3573,43.6399,30.1554,43.6399z M25.2879,42.4016h4.5453l0.2987-0.4275h-5.1427L25.2879,42.4016z"/>
			</g>
			<g>
				<path d="M31.3206,66.2113h-7.5202c-0.231,0-0.4426-0.1285-0.549-0.3332c-0.1071-0.2046-0.0907-0.4517,0.0417-0.6409
					l1.1652-1.6659c0.1155-0.1656,0.3054-0.2642,0.5073-0.2642h5.1898c0.2019,0,0.3918,0.0986,0.5073,0.2642l1.1652,1.6659
					c0.1324,0.1892,0.1488,0.4363,0.0417,0.6409C31.7632,66.0829,31.5516,66.2113,31.3206,66.2113z M24.9892,64.973h5.1427
					l-0.2987-0.4275h-4.5453L24.9892,64.973z"/>
			</g>
			<g>
				<path d="M29.5652,63.9556h-4.128c-0.3423,0-0.6192-0.2772-0.6192-0.6192V43.6106c0-0.3419,0.2769-0.6192,0.6192-0.6192h4.128
					c0.3423,0,0.6192,0.2773,0.6192,0.6192v19.7259C30.1844,63.6784,29.9075,63.9556,29.5652,63.9556z M26.0564,62.7173h2.8896
					V44.2298h-2.8896V62.7173z"/>
			</g>
		</g>
		<polygon points="16.4223,19.2009 38.0146,19.2009 39.86,23.2161 39.86,29.9392 38.7083,33.0076 36.9957,35.0303 33.5471,36.2785 
			28.2585,36.8239 21.8078,36.4919 17.705,34.8318 15.5709,31.2465 14.8349,26.4989 		"/>
	</g>
	<text transform="matrix(0 -1 1 0 10.8807 71.8489)" display="none" font-family="'MyriadPro-BoldCond'" font-size="13px">BRANDY</text>
</g>
</svg>
