<?xml version="1.0" encoding="utf-8"?>
<!-- Generator: Adobe Illustrator 21.0.0, SVG Export Plug-In . SVG Version: 6.00 Build 0)  -->
<!DOCTYPE svg PUBLIC "-//W3C//DTD SVG 1.1//EN" "http://www.w3.org/Graphics/SVG/1.1/DTD/svg11.dtd">
<svg version="1.1" id="XMLID_1_" xmlns="http://www.w3.org/2000/svg" xmlns:xlink="http://www.w3.org/1999/xlink" x="0px" y="0px"
	 viewBox="0 0 32.9658 67.4543" enable-background="new 0 0 32.9658 67.4543" xml:space="preserve">
<g id="serve-spirits">
	<text transform="matrix(0 -1 1 0 10.8807 67.4543)" display="none" font-family="'MyriadPro-BoldCond'" font-size="13px">SPIRIT</text>
	<g>
		<g>
			<g>
				<g>
					<path fill="#2D3538" d="M30.2892,66.0923H12.4458c-0.175,0-0.3285-0.1442-0.3758-0.3528s0.0236-0.4307,0.173-0.5435
						c1.8379-1.3849,6.2619-2.799,7.2963-3.1383c0.0328-0.0106,0.0663-0.016,0.0998-0.016h3.457
						c0.0336,0,0.0671,0.0055,0.0999,0.016c0.226,0.0741,5.5579,1.8284,7.2959,3.1386c0.1498,0.1126,0.2203,0.3346,0.173,0.5432
						S30.4642,66.0923,30.2892,66.0923z M14.2349,65.1257h14.2656c-2.0776-0.9852-5.0403-1.9797-5.4553-2.1175h-3.3549
						C18.629,63.3606,16.4517,64.0745,14.2349,65.1257z"/>
				</g>
				<g>
					<path fill="#2D3538" d="M23.4826,36.9523H19.359c-0.3132,0-0.6112-0.1608-0.8391-0.4533
						c-0.4943-0.6326-1.8128-1.3498-2.479-2.1091c-2.7401-3.1215-6.1651-6.0187-6.1651-10.9212
						c0-3.8535,2.9661-5.6292,3.9996-10.0499c0.5341-2.2837,0.8657-7.758,1.1404-11.2609c0.04-0.5097-0.0706-1.0453,0.1563-1.4729
						C15.3995,0.256,15.77,0,16.1634,0h10.5148c0.3929,0,0.7634,0.256,0.9908,0.685c0.227,0.4275,0.145,0.9617,0.1564,1.4729
						c0.07,3.1376,0.6063,8.9773,1.1404,11.2609c1.0339,4.4207,4,6.1964,4,10.0499c0,4.9026-3.4251,7.7997-6.1651,10.9212
						c-0.6662,0.7593-1.9847,1.4765-2.4794,2.1097C24.0929,36.7914,23.7953,36.9523,23.4826,36.9523z M16.1634,1.2571
						c-0.1293,0-0.2008,0.109-0.2256,0.1559c-0.0307,0.0571-0.027,0.1715-0.0353,0.3305
						c-0.1566,3.0038-0.4403,9.0976-1.1308,12.0506c-1.0156,4.3437-3.9569,6.0132-3.9569,9.6746
						c0,4.3215,3.2338,7.0011,5.8345,9.964c0.6772,0.7712,2.0058,1.4998,2.5202,2.1584c0.0532,0.0681,0.1183,0.1041,0.1894,0.1041
						h4.1236c0.0706,0,0.1362-0.036,0.1894-0.1043c0.5144-0.6583,1.8431-1.3869,2.5203-2.1582
						c2.6006-2.9629,5.8345-5.6425,5.8345-9.964c0-3.6613-2.9413-5.3309-3.9574-9.6746c-0.6905-2.953-1.2978-9.6358-1.1308-12.0503
						c0.011-0.1592-0.0046-0.2738-0.0353-0.3312c-0.0248-0.0466-0.0963-0.1556-0.2251-0.1556H16.1634z"/>
				</g>
				<g>
					<path fill="#2D3538" d="M21.4205,32.3201c-8.6613,0-9.6425-4.1311-9.7241-4.3067c-0.0751-0.1621-0.0378-0.375,0.0831-0.4754
						c0.1204-0.0987,0.2801-0.0512,0.3551,0.1113c0.0182,0.038,0.9586,3.9803,9.2859,3.9803c8.3277,0,9.2682-3.9423,9.2873-3.982
						c0.0751-0.1594,0.2338-0.2094,0.3551-0.1075c0.1199,0.1008,0.1572,0.3118,0.0821,0.4734
						C31.0635,28.1891,30.0823,32.3201,21.4205,32.3201z"/>
				</g>
				<g>
					<path fill="#2D3538" d="M22.0994,62.8489h-1.3573c-0.5483,0-0.9918-0.2826-0.9918-0.6313l-0.689-25.7947
						c0-0.3486,1.1325-0.6313,1.6808-0.6313h1.3573c0.5483,0,1.6808,0.2827,1.6808,0.6313l-0.689,25.7947
						C23.0912,62.5663,22.6477,62.8489,22.0994,62.8489z M20.5743,61.5863h1.6014l0.689-24.5321h-2.9794L20.5743,61.5863z"/>
				</g>
			</g>
		</g>
		<polygon fill="#231F20" points="14.1156,14.839 28.843,14.839 29.9626,17.0783 31.2545,19.662 32.0296,21.729 32.3741,24.8295 
			31.6851,27.1549 30.1348,29.5664 28.5846,30.5138 24.3645,31.8057 21.1778,31.9779 17.9912,31.8057 15.4074,31.0305 
			13.0821,29.8248 11.3596,27.3272 10.4122,24.8295 10.3261,22.5042 11.1873,19.8343 13.0821,16.9921 		"/>
	</g>
</g>
</svg>
