<?xml version="1.0" encoding="utf-8"?>
<!-- Generator: Adobe Illustrator 21.0.0, SVG Export Plug-In . SVG Version: 6.00 Build 0)  -->
<!DOCTYPE svg PUBLIC "-//W3C//DTD SVG 1.1//EN" "http://www.w3.org/Graphics/SVG/1.1/DTD/svg11.dtd">
<svg version="1.1" id="XMLID_1_" xmlns="http://www.w3.org/2000/svg" xmlns:xlink="http://www.w3.org/1999/xlink" x="0px" y="0px"
	 viewBox="0 0 34.4864 90.8518" enable-background="new 0 0 34.4864 90.8518" xml:space="preserve">
<g id="serve-flute">
	<text transform="matrix(0 -0.934 1 0 10.8813 90.8518)" display="none" font-family="'MyriadPro-BoldCond'" font-size="13px">FLUTE</text>
	<g>
		<g id="glass-flute.svg_2_">
			<g>
				<g>
					<path fill="#2D3538" d="M33.8489,89.4888H13.4026c-0.2758,0-0.5202-0.19-0.6061-0.4707
						c-0.0856-0.2806,0.0069-0.5886,0.2295-0.7626c1.7408-1.3645,6.2366-2.8638,6.4271-2.9271
						c0.061-0.0207,0.1248-0.0307,0.1887-0.0307h7.9678c0.0638,0,0.1276,0.01,0.1887,0.0307
						c0.1905,0.0633,4.6867,1.5625,6.4274,2.9271c0.2223,0.174,0.3151,0.482,0.2291,0.7626
						C34.3694,89.2988,34.1247,89.4888,33.8489,89.4888z M15.9994,88.1236H31.252c-1.5796-0.7153-3.3275-1.3206-3.7406-1.4606
						h-7.7717C19.3267,86.8037,17.579,87.4083,15.9994,88.1236z"/>
				</g>
				<g>
					<path fill="#2D3538" d="M26.3316,83.8105h-5.412c-0.2173,0-0.42-0.1186-0.537-0.3146c-0.117-0.196-0.1329-0.4427-0.042-0.6539
						c2.177-5.051,1.0532-15.4969,0.2326-23.1236c-0.1684-1.5665-0.3247-3.0191-0.4386-4.2924
						c-0.3997-4.469-2.0412-8.952-3.4897-12.9077c-0.9791-2.6731-1.9036-5.1983-2.3619-7.4551
						c-1.1499-5.6639-0.5171-25.1492,0.6285-34.4695C14.9531,0.254,15.2234,0,15.5434,0h16.1644c0.32,0,0.5902,0.254,0.6319,0.5936
						c1.1456,9.3203,1.7788,28.8056,0.6289,34.4695c-0.4583,2.2569-1.3828,4.7813-2.3622,7.4551
						c-1.4485,3.9557-3.0903,8.4387-3.4897,12.9077c-0.1139,1.2732-0.2702,2.7264-0.4389,4.293
						c-0.8206,7.6267-1.9444,18.072,0.2328,23.123c0.0909,0.2113,0.0754,0.458-0.042,0.6539
						C26.7515,83.6919,26.5489,83.8105,26.3316,83.8105z M21.8619,82.4453h3.5273c-1.8342-5.6316-0.7683-15.5375,0.0218-22.883
						c0.1675-1.5566,0.3231-3.0011,0.4361-4.267c0.4166-4.6583,2.0932-9.2367,3.5722-13.2757
						c0.9597-2.6211,1.8662-5.0966,2.3027-7.2465c1.0815-5.3263,0.4632-24.3372-0.5759-33.4079H16.105
						c-1.0391,9.0707-1.6577,28.0816-0.5762,33.4079c0.4367,2.1498,1.3432,4.626,2.303,7.2465
						c1.479,4.039,3.1553,8.6174,3.5722,13.2757c0.113,1.2659,0.2683,2.7098,0.4358,4.2664
						C22.6302,66.9078,23.6958,76.8137,21.8619,82.4453z"/>
				</g>
				<g>
					<path fill="#2D3538" d="M23.6254,51.6929c-1.767,0-3.3777-0.8446-4.3091-2.2585c-0.1015-0.1539-0.0669-0.3672,0.0769-0.4752
						c0.1435-0.11,0.3421-0.0713,0.4442,0.082c0.8119,1.2332,2.228,1.9691,3.7879,1.9691c1.5602,0,2.9763-0.7359,3.7882-1.9691
						c0.1017-0.1533,0.301-0.192,0.4442-0.082c0.1438,0.108,0.1784,0.3213,0.077,0.4752
						C27.0034,50.8483,25.3927,51.6929,23.6254,51.6929z"/>
				</g>
				<g>
					<path fill="#2D3538" d="M20.0075,86.6656c-0.1653,0-0.3306-0.0686-0.4555-0.2053c-0.3583-0.3913-0.5479-0.8486-0.5479-1.3206
						c0-1.5359,1.9868-2.6945,4.6213-2.6945c2.6349,0,4.6216,1.1586,4.6216,2.6945c0,0.4387-0.1644,0.8673-0.4757,1.2385
						c-0.2341,0.2807-0.6382,0.3047-0.9003,0.0534c-0.2621-0.252-0.2842-0.6833-0.0492-0.9639
						c0.0997-0.1193,0.1501-0.2294,0.1501-0.328c0-0.5293-1.3349-1.3293-3.3465-1.3293c-2.0117,0-3.3462,0.8-3.3462,1.3293
						c0,0.136,0.1,0.274,0.1837,0.366c0.2465,0.2694,0.2422,0.7013-0.0093,0.9653C20.3294,86.601,20.1684,86.6656,20.0075,86.6656z"
						/>
				</g>
			</g>
		</g>
		<polygon fill="#2D3538" points="14.6236,13.9087 32.3687,13.9087 33.2188,27.5611 32.475,34.6148 31.1999,39.1656 
			29.3935,43.9439 28.2246,48.0396 27.5871,50.4287 26.5245,50.5425 25.0369,51.1113 23.6254,51.6929 22.1679,51.2251 
			20.7866,50.6563 19.8303,49.9737 16.3238,40.0757 14.6236,34.9561 14.4111,32.6807 		"/>
	</g>
</g>
</svg>
