<?xml version="1.0" encoding="utf-8"?>
<!-- Generator: Adobe Illustrator 21.0.0, SVG Export Plug-In . SVG Version: 6.00 Build 0)  -->
<!DOCTYPE svg PUBLIC "-//W3C//DTD SVG 1.1//EN" "http://www.w3.org/Graphics/SVG/1.1/DTD/svg11.dtd">
<svg version="1.1" id="XMLID_2_" xmlns="http://www.w3.org/2000/svg" xmlns:xlink="http://www.w3.org/1999/xlink" x="0px" y="0px"
	 viewBox="0 0 130.7719 163.0686" enable-background="new 0 0 130.7719 163.0686" xml:space="preserve">
<g id="store-horizontal">
	<text transform="matrix(1 0 0 1 24.7384 15.0661)" font-family="'MyriadPro-BoldCond'" font-size="18px">Horizontal</text>
	<path d="M0.6389,144.355c0,0,0,9.9752,0,14.5374s3.623,4.1676,3.623,4.1676s61.959,0,71.2528,0s12.3918-12.7266,12.3918-12.7266
		h39.957c0,0,2.9085,0.0665,2.9085-3.8113v-3.1935c0-3.8779-2.9085-4.9519-2.9085-4.9519h-39.957c0,0-3.098-11.358-12.3918-11.358
		s-71.2528,0-71.2528,0s-3.623-0.3946-3.623,4.1676S0.6389,144.355,0.6389,144.355"/>
	<path d="M0,102.7414c0,0,0,9.9752,0,14.5374c0,4.5622,3.623,4.1676,3.623,4.1676s61.959,0,71.2528,0
		s12.3918-12.7266,12.3918-12.7266h39.957c0,0,2.9085,0.0665,2.9085-3.8113v-3.1935c0-3.8779-2.9085-4.9519-2.9085-4.9519h-39.957
		c0,0-3.0979-11.358-12.3918-11.358s-71.2528,0-71.2528,0S0,85.0104,0,89.5726S0,102.7414,0,102.7414"/>
	<path d="M0,61.1278c0,0,0,9.9752,0,14.5374c0,4.5622,3.623,4.1676,3.623,4.1676s61.959,0,71.2528,0
		s12.3918-12.7266,12.3918-12.7266h39.957c0,0,2.9085,0.0665,2.9085-3.8113v-3.1935c0-3.8779-2.9085-4.9519-2.9085-4.9519h-39.957
		c0,0-3.0979-11.358-12.3918-11.358s-71.2528,0-71.2528,0S0,43.3968,0,47.959S0,61.1278,0,61.1278"/>
</g>
</svg>
