<?xml version="1.0" encoding="utf-8"?>
<!-- Generator: Adobe Illustrator 21.0.0, SVG Export Plug-In . SVG Version: 6.00 Build 0)  -->
<!DOCTYPE svg PUBLIC "-//W3C//DTD SVG 1.1//EN" "http://www.w3.org/Graphics/SVG/1.1/DTD/svg11.dtd">
<svg version="1.1" id="XMLID_2_" xmlns="http://www.w3.org/2000/svg" xmlns:xlink="http://www.w3.org/1999/xlink" x="0px" y="0px"
	 viewBox="0 0 94.4268 78.2149" enable-background="new 0 0 94.4268 78.2149" xml:space="preserve">
<g id="store-horizontal">
	<path d="M13.2054,38.0094c0,0,0,6.3996,0,9.3265c0,2.9269,2.2612,2.6737,2.2612,2.6737s38.6711,0,44.4718,0
		s7.7342-8.1648,7.7342-8.1648h24.9388c0,0,1.8153,0.0427,1.8153-2.4452v-2.0488c0-2.4879-1.8153-3.1769-1.8153-3.1769H67.6727
		c0,0-1.9336-7.2867-7.7342-7.2867s-44.4718,0-44.4718,0s-2.2612-0.2532-2.2612,2.6737S13.2054,38.0094,13.2054,38.0094"/>
	<path d="M13.2054,11.1277c0,0,0,6.3997,0,9.3265s2.2612,2.6737,2.2612,2.6737s38.6711,0,44.4718,0s7.7342-8.1648,7.7342-8.1648
		h24.9388c0,0,1.8153,0.0427,1.8153-2.4452v-2.0488c0-2.4879-1.8153-3.1769-1.8153-3.1769H67.6727c0,0-1.9336-7.2867-7.7342-7.2867
		s-44.4718,0-44.4718,0s-2.2612-0.2532-2.2612,2.6737S13.2054,11.1277,13.2054,11.1277"/>
	<path d="M13.2054,64.8911c0,0,0,6.3997,0,9.3265s2.2612,2.6737,2.2612,2.6737s38.6711,0,44.4718,0s7.7342-8.1648,7.7342-8.1648
		h24.9388c0,0,1.8153,0.0427,1.8153-2.4452v-2.0488c0-2.4879-1.8153-3.1769-1.8153-3.1769H67.6727c0,0-1.9336-7.2867-7.7342-7.2867
		s-44.4718,0-44.4718,0s-2.2612-0.2532-2.2612,2.6737S13.2054,64.8911,13.2054,64.8911"/>
	<text transform="matrix(0 -1 1 0 10.8809 78.2149)" display="none" font-family="'MyriadPro-BoldCond'" font-size="13px">HORIZONTAL</text>
</g>
</svg>
