<?xml version="1.0" encoding="utf-8"?>
<!-- Generator: Adobe Illustrator 21.0.0, SVG Export Plug-In . SVG Version: 6.00 Build 0)  -->
<!DOCTYPE svg PUBLIC "-//W3C//DTD SVG 1.1//EN" "http://www.w3.org/Graphics/SVG/1.1/DTD/svg11.dtd">
<svg version="1.1" id="XMLID_1_" xmlns="http://www.w3.org/2000/svg" xmlns:xlink="http://www.w3.org/1999/xlink" x="0px" y="0px"
	 viewBox="0 0 125.8791 163.2675" enable-background="new 0 0 125.8791 163.2675" xml:space="preserve">
<g id="store-vertical">
	<text transform="matrix(1 0 0 1 34.7646 15.0668)" font-family="'MyriadPro-BoldCond'" font-size="18px">Vertical</text>
	<path d="M62.2209,163.2675c0,0,10.4761,0,15.2674,0c4.7913,0,4.3769-3.7016,4.3769-3.7016s0-63.3041,0-72.7997
		S68.4995,74.1054,68.4995,74.1054V33.2809c0,0,0.0699-2.9716-4.0027-2.9716h-3.3539c-4.0726,0-5.2006,2.9716-5.2006,2.9716v40.8244
		c0,0-11.9283,3.1652-11.9283,12.6608s0,72.7997,0,72.7997s-0.4144,3.7016,4.3769,3.7016S62.2209,163.2675,62.2209,163.2675"/>
	<path d="M18.2159,163.2675c0,0,10.4761,0,15.2674,0s4.3769-3.7016,4.3769-3.7016s0-63.3041,0-72.7997
		S24.4945,74.1054,24.4945,74.1054V33.2809c0,0,0.0699-2.9716-4.0027-2.9716h-3.3539c-4.0726,0-5.2005,2.9716-5.2005,2.9716v40.8244
		c0,0-11.9283,3.1652-11.9283,12.6608s0,72.7997,0,72.7997s-0.4144,3.7016,4.3769,3.7016S18.2159,163.2675,18.2159,163.2675"/>
	<path d="M106.2259,163.2675c0,0,10.4761,0,15.2674,0s4.3769-3.7016,4.3769-3.7016s0-63.3041,0-72.7997
		s-13.3657-12.6608-13.3657-12.6608V33.2809c0,0,0.0699-2.9716-4.0027-2.9716h-3.3539c-4.0726,0-5.2005,2.9716-5.2005,2.9716
		v40.8244c0,0-11.9283,3.1652-11.9283,12.6608s0,72.7997,0,72.7997s-0.4144,3.7016,4.3769,3.7016
		C97.1871,163.2675,106.2259,163.2675,106.2259,163.2675"/>
</g>
</svg>
