<?xml version="1.0" encoding="utf-8"?>
<!-- Generator: Adobe Illustrator 21.0.0, SVG Export Plug-In . SVG Version: 6.00 Build 0)  -->
<!DOCTYPE svg PUBLIC "-//W3C//DTD SVG 1.1//EN" "http://www.w3.org/Graphics/SVG/1.1/DTD/svg11.dtd">
<svg version="1.1" id="XMLID_1_" xmlns="http://www.w3.org/2000/svg" xmlns:xlink="http://www.w3.org/1999/xlink" x="0px" y="0px"
	 viewBox="0 0 49.1934 162.7635" enable-background="new 0 0 49.1934 162.7635" xml:space="preserve">
<g id="store-opened">
	<text transform="matrix(1 0 0 1 0.0002 15.0661)" font-family="'MyriadPro-BoldCond'" font-size="18px">Opened</text>
	<g>
		<path d="M27.4747,39.8598h-7.1874c-0.55,0-1-0.45-1-1V19.112c0-0.55,0.45-1,1-1h7.1874c0.55,0,1,0.45,1,1v19.7478
			C28.4747,39.4098,28.0247,39.8598,27.4747,39.8598z"/>
		<path fill="none" stroke="#000000" stroke-width="3" stroke-miterlimit="10" d="M23.9039,161.2635c0,0,10.1012,0,14.721,0
			s4.2202-3.5691,4.2202-3.5691s0-61.0383,0-70.194S29.9578,75.2927,29.9578,75.2927V35.9295c0,0,0.0674-2.8653-3.8595-2.8653
			h-3.2339c-3.9268,0-5.0144,2.8653-5.0144,2.8653v39.3632c0,0-11.5014,3.0519-11.5014,12.2076s0,70.194,0,70.194
			s-0.3996,3.5691,4.2202,3.5691S23.9039,161.2635,23.9039,161.2635"/>
		<rect x="7.1935" y="115.9902" width="34.8068" height="44.2231"/>
	</g>
</g>
</svg>
